<?xml version="1.0" encoding="utf-8"?>
<!-- Generator: Adobe Illustrator 19.2.1, SVG Export Plug-In . SVG Version: 6.00 Build 0)  -->
<svg version="1.1" id="Ebene_1" xmlns="http://www.w3.org/2000/svg" xmlns:xlink="http://www.w3.org/1999/xlink" x="0px" y="0px"
	 viewBox="0 0 182.2 40" style="enable-background:new 0 0 182.2 40;" xml:space="preserve">
<style type="text/css">
	.st0{fill:#FFFFFF;}
</style>
<g>
	<path class="st0" d="M14.3,7.5c0,1-0.1,2-0.4,2.8c-0.2,0.9-0.6,1.6-1.1,2.3s-1.2,1.2-1.9,1.6c-0.8,0.4-1.7,0.7-2.8,0.8
		c-0.4,0-0.9,0-1.3,0c-0.4,0-0.9,0-1.3,0H1.9V0h4.4C7,0,7.7,0,8.5,0.1c0.7,0.1,1.4,0.2,2,0.5c0.7,0.3,1.3,0.7,1.8,1.1
		c0.5,0.5,0.9,1,1.2,1.6s0.5,1.2,0.6,1.9C14.2,6,14.3,6.7,14.3,7.5z M12.3,7.5c0-0.5,0-0.9-0.1-1.4S12,5.2,11.8,4.7
		c-0.2-0.4-0.4-0.9-0.7-1.2c-0.3-0.4-0.6-0.7-1-1C9.6,2,8.9,1.7,8.2,1.6s-1.4-0.1-2-0.1H3.9v12h2.7c1,0,1.9-0.1,2.6-0.4
		s1.3-0.6,1.8-1.2c0.5-0.5,0.8-1.1,1-1.9C12.2,9.3,12.3,8.4,12.3,7.5z"/>
	<path class="st0" d="M17.8,10.1v0.2c0,0.5,0.1,0.9,0.2,1.4c0.1,0.4,0.3,0.8,0.6,1.2s0.6,0.6,1,0.8S20.5,14,21,14
		c0.7,0,1.4-0.2,1.8-0.6c0.5-0.4,0.8-1,0.9-1.8h1.7c-0.2,1.2-0.7,2.1-1.6,2.7c-0.8,0.6-1.8,0.9-3,0.9c-0.8,0-1.5-0.1-2.1-0.4
		c-0.6-0.3-1.1-0.6-1.5-1.1s-0.7-1-0.9-1.7c-0.2-0.6-0.3-1.3-0.3-2c0-0.8,0.1-1.5,0.3-2.2c0.2-0.7,0.5-1.3,0.9-1.8s0.9-0.9,1.5-1.2
		c0.6-0.3,1.4-0.4,2.2-0.4c0.9,0,1.6,0.2,2.2,0.5s1,0.7,1.4,1.3c0.3,0.5,0.6,1.1,0.7,1.8s0.2,1.4,0.2,2.2L17.8,10.1L17.8,10.1z
		 M23.7,8.9c0-0.4-0.1-0.8-0.2-1.2c-0.1-0.4-0.3-0.8-0.5-1.1c-0.2-0.3-0.5-0.6-0.9-0.7c-0.4-0.2-0.8-0.3-1.2-0.3
		c-0.5,0-0.9,0.1-1.3,0.3C19.3,6,19,6.3,18.8,6.6c-0.2,0.3-0.4,0.7-0.6,1.1c-0.1,0.4-0.2,0.8-0.3,1.2H23.7z"/>
	<path class="st0" d="M35,15l-0.1-1.7c-0.4,0.6-0.9,1.1-1.5,1.4c-0.5,0.3-1.2,0.4-1.9,0.4c-0.7,0-1.3-0.1-1.8-0.3s-0.9-0.4-1.2-0.8
		c-0.3-0.4-0.5-0.8-0.6-1.3s-0.2-1.1-0.2-1.7V4.5h1.8v5.8c0,0.5,0,0.9,0.1,1.3c0,0.4,0.1,0.8,0.3,1.1c0.2,0.3,0.4,0.6,0.7,0.7
		c0.3,0.2,0.8,0.3,1.3,0.3c0.6,0,1-0.1,1.4-0.3c0.4-0.2,0.7-0.5,0.9-0.8s0.4-0.7,0.5-1.2c0.1-0.4,0.1-0.9,0.1-1.4V4.5h1.8v5.1
		c0,0.9,0,1.8,0,2.7s0,1.8,0,2.7H35z"/>
	<path class="st0" d="M43.1,15.1c-0.8,0-1.5-0.2-1.9-0.6c-0.4-0.4-0.6-1-0.6-1.9V5.8h-2.1V4.5h2.1v-2l1.8-0.8v2.8h2.3v1.3h-2.3V12
		c0,0.3,0,0.6,0,0.8s0.1,0.4,0.2,0.5c0.1,0.1,0.2,0.2,0.4,0.3s0.4,0.1,0.8,0.1c0.2,0,0.3,0,0.5,0s0.3,0,0.5-0.1V15
		C44.2,15.1,43.6,15.1,43.1,15.1z"/>
	<path class="st0" d="M54.3,12c0,0.6-0.1,1.1-0.4,1.5c-0.2,0.4-0.6,0.8-1,1c-0.4,0.3-0.9,0.4-1.4,0.6c-0.5,0.1-1,0.2-1.5,0.2
		c-0.6,0-1.1-0.1-1.6-0.2c-0.5-0.1-0.9-0.3-1.3-0.6c-0.4-0.3-0.7-0.6-0.9-1s-0.3-1-0.3-1.6h1.8c0,0.7,0.3,1.3,0.7,1.6s1,0.5,1.7,0.5
		c0.3,0,0.6,0,0.8-0.1s0.5-0.2,0.8-0.3c0.2-0.1,0.4-0.3,0.6-0.6c0.1-0.2,0.2-0.5,0.2-0.8s-0.1-0.5-0.2-0.7c-0.1-0.2-0.3-0.4-0.5-0.5
		s-0.5-0.3-0.7-0.4c-0.3-0.1-0.6-0.2-0.9-0.3l-0.9-0.2c-0.4-0.1-0.8-0.2-1.2-0.4c-0.4-0.1-0.7-0.3-1-0.5s-0.5-0.5-0.7-0.8
		s-0.3-0.7-0.3-1.2s0.1-1,0.4-1.4c0.2-0.4,0.6-0.7,0.9-0.9c0.4-0.2,0.8-0.4,1.3-0.5s0.9-0.2,1.4-0.2s1,0.1,1.5,0.2s0.9,0.3,1.2,0.6
		c0.3,0.2,0.6,0.6,0.8,1s0.3,0.9,0.3,1.5h-1.8c0-0.6-0.2-1.1-0.6-1.4c-0.4-0.3-0.9-0.5-1.5-0.5c-0.2,0-0.5,0-0.7,0.1
		C49,5.8,48.8,5.8,48.6,6c-0.2,0.1-0.4,0.3-0.5,0.5c0,0.1-0.1,0.3-0.1,0.6c0,0.5,0.2,0.9,0.7,1.1c0.4,0.3,1,0.5,1.6,0.6L51.1,9
		c0.5,0.1,0.9,0.2,1.3,0.4c0.4,0.2,0.7,0.3,1,0.6c0.3,0.2,0.5,0.5,0.7,0.8C54.3,11.2,54.3,11.5,54.3,12z"/>
	<path class="st0" d="M65.1,13.2c-0.2,0.5-0.6,0.9-1,1.2s-0.9,0.5-1.4,0.7s-1.1,0.2-1.7,0.2c-0.8,0-1.6-0.1-2.2-0.4
		c-0.6-0.3-1.2-0.6-1.6-1.1c-0.4-0.5-0.8-1-1-1.7s-0.3-1.4-0.3-2.2s0.1-1.6,0.3-2.2c0.2-0.7,0.6-1.3,1-1.8s1-0.9,1.6-1.2
		c0.6-0.3,1.4-0.4,2.3-0.4c1.2,0,2.2,0.3,3,0.9c0.8,0.6,1.2,1.5,1.3,2.8h-1.8c-0.1-0.7-0.3-1.3-0.7-1.8c-0.4-0.4-1-0.6-1.8-0.6
		c-0.6,0-1.1,0.1-1.6,0.4c-0.4,0.3-0.7,0.6-1,1c-0.2,0.4-0.4,0.9-0.5,1.4s-0.2,1-0.2,1.6c0,0.5,0.1,1,0.2,1.5
		c0.1,0.5,0.3,0.9,0.6,1.4c0.3,0.4,0.6,0.7,1,1c0.4,0.2,0.9,0.4,1.5,0.4c0.8,0,1.4-0.2,1.9-0.7s0.7-1.1,0.8-1.8h1.7h0.1
		C65.4,12.1,65.3,12.7,65.1,13.2z"/>
	<path class="st0" d="M74.7,15V9.2c0-0.5,0-0.9-0.1-1.3c0-0.4-0.1-0.8-0.3-1.1c-0.2-0.3-0.4-0.6-0.7-0.7c-0.3-0.2-0.8-0.3-1.3-0.3
		s-1,0.1-1.3,0.3c-0.4,0.2-0.7,0.5-0.9,0.8c-0.2,0.3-0.4,0.7-0.5,1.2S69.4,9,69.4,9.5V15h-1.8V0h1.8v6.2c0.4-0.6,0.9-1,1.4-1.3
		s1.2-0.4,1.9-0.4c0.7,0,1.3,0.1,1.8,0.3C75,5,75.4,5.3,75.7,5.6C76,6,76.2,6.4,76.3,6.9s0.2,1.1,0.2,1.7V15H74.7z"/>
	<path class="st0" d="M80.6,10.1v0.2c0,0.5,0.1,0.9,0.2,1.4c0.1,0.4,0.3,0.8,0.6,1.2c0.3,0.3,0.6,0.6,1,0.8s0.9,0.3,1.4,0.3
		c0.7,0,1.4-0.2,1.8-0.6c0.5-0.4,0.8-1,0.9-1.8h1.7c-0.2,1.2-0.7,2.1-1.6,2.7c-0.8,0.6-1.8,0.9-3,0.9c-0.8,0-1.5-0.1-2.1-0.4
		c-0.6-0.3-1.1-0.6-1.5-1.1s-0.7-1-0.9-1.7c-0.2-0.7-0.3-1.4-0.3-2.1c0-0.8,0.1-1.5,0.3-2.2C79.3,7.1,79.6,6.5,80,6s0.9-0.9,1.5-1.2
		c0.6-0.3,1.4-0.4,2.2-0.4c0.9,0,1.6,0.2,2.2,0.5s1,0.7,1.4,1.3C87.6,6.7,87.9,7.3,88,8s0.2,1.4,0.2,2.2L80.6,10.1L80.6,10.1z
		 M86.5,8.9c0-0.4-0.1-0.8-0.2-1.2c-0.1-0.4-0.3-0.8-0.5-1.1c-0.2-0.3-0.5-0.6-0.9-0.7c-0.4-0.2-0.8-0.3-1.2-0.3
		c-0.5,0-0.9,0.1-1.3,0.3c-0.4,0.2-0.7,0.4-0.9,0.7c-0.2,0.3-0.4,0.7-0.6,1.1c-0.1,0.4-0.2,0.8-0.3,1.2H86.5z"/>
	<path class="st0" d="M12.3,35.8l-1.6-4H3.5l-1.5,4H0l6.1-15h2.1l6.3,15H12.3z M7.1,22.5l-3,7.9h6.1L7.1,22.5z"/>
	<path class="st0" d="M23.7,32.8c0,0.6-0.1,1.1-0.4,1.5c-0.2,0.4-0.6,0.8-1,1c-0.4,0.3-0.9,0.4-1.4,0.6C20.5,36,20,36,19.5,36
		c-0.6,0-1.1-0.1-1.6-0.2c-0.5-0.1-0.9-0.3-1.3-0.6s-0.7-0.6-0.9-1s-0.3-1-0.3-1.6h1.8c0,0.7,0.3,1.3,0.7,1.6c0.4,0.3,1,0.5,1.7,0.5
		c0.3,0,0.6,0,0.8-0.1c0.3-0.1,0.5-0.2,0.8-0.3c0.2-0.1,0.4-0.3,0.6-0.6c0.1-0.2,0.2-0.5,0.2-0.8s-0.1-0.5-0.2-0.7s-0.3-0.4-0.5-0.5
		s-0.5-0.3-0.7-0.4c-0.3-0.1-0.6-0.2-0.9-0.3l-0.9,0c-0.4-0.1-0.8-0.2-1.2-0.4c-0.4-0.1-0.7-0.3-1-0.5s-0.5-0.5-0.7-0.8
		s-0.3-0.7-0.3-1.2s0.1-1,0.4-1.4c0.2-0.4,0.6-0.7,0.9-0.9c0.4-0.2,0.8-0.4,1.3-0.5s0.9-0.2,1.4-0.2s1,0.1,1.5,0.2s0.9,0.3,1.2,0.6
		c0.3,0.2,0.6,0.6,0.8,1c0.2,0.4,0.3,0.9,0.3,1.5h-1.8c0-0.6-0.2-1.1-0.6-1.4s-0.9-0.5-1.5-0.5c-0.2,0-0.5,0-0.7,0.1
		c-0.3,0.1-0.5,0.1-0.7,0.3c-0.2,0.1-0.4,0.3-0.5,0.5s-0.2,0.4-0.2,0.7c0,0.5,0.2,0.9,0.7,1.1c0.4,0.3,1,0.5,1.6,0.6l0.8,0.2
		c0.5,0.1,0.9,0.2,1.3,0.4c0.4,0.2,0.7,0.3,1,0.6c0.3,0.2,0.5,0.5,0.7,0.8C23.7,31.9,23.7,32.3,23.7,32.8z"/>
	<path class="st0" d="M33.8,32.8c0,0.6-0.1,1.1-0.4,1.5c-0.2,0.4-0.6,0.8-1,1c-0.4,0.3-0.9,0.4-1.4,0.6C30.5,36,30,36,29.5,36
		c-0.6,0-1.1-0.1-1.6-0.2c-0.5-0.1-0.9-0.3-1.3-0.6s-0.7-0.6-0.9-1c-0.2-0.4-0.3-1-0.3-1.6h1.8c0,0.7,0.3,1.3,0.7,1.6
		c0.4,0.3,1,0.5,1.7,0.5c0.3,0,0.6,0,0.8-0.1c0.3-0.1,0.5-0.2,0.8-0.3c0.2-0.1,0.4-0.3,0.6-0.6c0.1-0.2,0.2-0.5,0.2-0.8
		s-0.1-0.5-0.2-0.7s-0.3-0.4-0.5-0.5s-0.5-0.3-0.7-0.4c-0.3-0.1-0.6-0.2-0.9-0.3l-0.9,0c-0.4-0.1-0.8-0.2-1.2-0.4
		c-0.4-0.1-0.7-0.3-1-0.5s-0.5-0.5-0.7-0.8s-0.3-0.7-0.3-1.2s0.1-1,0.4-1.4c0.2-0.4,0.6-0.7,0.9-0.9c0.4-0.2,0.8-0.4,1.3-0.5
		s0.9-0.2,1.4-0.2s1,0.1,1.5,0.2s0.9,0.3,1.2,0.6c0.3,0.2,0.6,0.6,0.8,1s0.3,0.9,0.3,1.5h-1.8c0-0.6-0.2-1.1-0.6-1.4
		s-0.9-0.5-1.5-0.5c-0.2,0-0.5,0-0.7,0.1c-0.3,0.1-0.5,0.1-0.7,0.3c-0.2,0.1-0.4,0.3-0.5,0.5s-0.2,0.4-0.2,0.7
		c0,0.5,0.2,0.9,0.7,1.1c0.4,0.3,1,0.5,1.6,0.6l0.8,0.2c0.5,0.1,0.9,0.2,1.3,0.4c0.4,0.2,0.7,0.3,1,0.6c0.3,0.2,0.5,0.5,0.7,0.8
		C33.7,31.9,33.8,32.3,33.8,32.8z"/>
	<path class="st0" d="M37.2,30.9v0.2c0,0.5,0.1,0.9,0.2,1.4c0.1,0.4,0.3,0.8,0.6,1.2c0.3,0.3,0.6,0.6,1,0.8s0.9,0.3,1.4,0.3
		c0.7,0,1.4-0.2,1.8-0.6c0.5-0.4,0.8-1,0.9-1.8h1.7c-0.2,1.2-0.7,2.1-1.6,2.7c-0.8,0.6-1.8,0.9-3,0.9c-0.8,0-1.5-0.1-2.1-0.4
		c-0.6-0.3-1.1-0.6-1.5-1.1s-0.7-1-0.9-1.7s-0.3-1.4-0.3-2.1c0-0.8,0.1-1.5,0.3-2.2s0.5-1.3,0.9-1.8s0.9-0.9,1.5-1.2
		c0.6-0.3,1.4-0.4,2.2-0.4c0.9,0,1.6,0.2,2.2,0.5c0.6,0.3,1,0.7,1.4,1.3c0.3,0.5,0.6,1.1,0.7,1.8c0.1,0.7,0.2,1.4,0.2,2.2
		C44.8,30.9,37.2,30.9,37.2,30.9z M43.1,29.7c0-0.4-0.1-0.8-0.2-1.2c-0.1-0.4-0.3-0.8-0.5-1.1c-0.2-0.3-0.5-0.6-0.9-0.7
		c-0.4-0.2-0.8-0.3-1.2-0.3c-0.5,0-0.9,0.1-1.3,0.3c-0.4,0.2-0.7,0.4-0.9,0.7c-0.2,0.3-0.4,0.7-0.6,1.1c-0.1,0.4-0.2,0.8-0.3,1.2
		H43.1z"/>
	<path class="st0" d="M50.5,35.9c-0.8,0-1.5-0.2-1.9-0.6c-0.4-0.4-0.6-1-0.6-1.9v-6.9h-2.1v-1.3H48v-2l1.8-0.8v2.8h2.3v1.3h-2.3v6.2
		c0,0.3,0,0.6,0,0.8s0.1,0.4,0.2,0.5c0.1,0.1,0.2,0.2,0.4,0.3s0.4,0.1,0.8,0.1c0.2,0,0.3,0,0.5,0s0.3,0,0.5-0.1v1.4
		C51.6,35.9,51,35.9,50.5,35.9z"/>
	<path class="st0" d="M74.3,35.8V22.3L69,35.8h-1.8l-5.3-13.6v13.6h-1.8v-15h3.1l4.9,12.7l4.8-12.7H76v15H74.3z"/>
	<path class="st0" d="M86.1,35.8c0-0.2-0.1-0.5-0.1-0.7c0-0.3-0.1-0.5-0.1-0.7c-0.4,0.6-1,1.1-1.5,1.3c-0.6,0.2-1.3,0.4-2,0.4
		c-0.5,0-0.9-0.1-1.4-0.2c-0.4-0.1-0.8-0.3-1.2-0.6c-0.3-0.3-0.6-0.6-0.8-1c-0.2-0.4-0.3-0.9-0.3-1.4c0-0.8,0.2-1.4,0.6-1.9
		s0.9-0.8,1.5-1.1c0.6-0.2,1.2-0.4,1.9-0.5c0.7-0.1,1.4-0.1,2-0.1c0.2,0,0.4,0,0.6,0s0.3,0,0.5,0v-0.6c0-0.8-0.2-1.4-0.5-1.9
		c-0.3-0.4-0.9-0.7-1.8-0.7c-0.7,0-1.2,0.1-1.5,0.4c-0.4,0.3-0.6,0.8-0.7,1.4h-1.8c0-0.6,0.2-1,0.4-1.4c0.2-0.4,0.5-0.7,0.9-0.9
		c0.4-0.2,0.8-0.4,1.2-0.5c0.5-0.1,0.9-0.2,1.4-0.2c1.3,0,2.3,0.3,3,0.9s1,1.5,1,2.9v3.9c0,0.7,0,1.3,0.1,1.9c0.1,0.6,0.1,1,0.2,1.2
		h-1.6V35.8z M85.7,30.6c-0.2,0-0.4,0-0.5,0s-0.3,0-0.4,0c-0.4,0-0.9,0-1.4,0.1c-0.5,0-1,0.1-1.4,0.3c-0.4,0.2-0.8,0.4-1.1,0.7
		c-0.3,0.3-0.4,0.7-0.4,1.3c0,0.3,0.1,0.6,0.2,0.9c0.1,0.2,0.3,0.5,0.5,0.6c0.2,0.2,0.5,0.3,0.7,0.4c0.3,0.1,0.6,0.1,0.9,0.1
		c0.7,0,1.2-0.1,1.6-0.4c0.4-0.2,0.7-0.6,0.9-1c0.2-0.4,0.3-0.9,0.4-1.4C85.7,31.6,85.7,31.1,85.7,30.6z"/>
	<path class="st0" d="M97.5,35.8V30c0-0.5,0-0.9-0.1-1.3c0-0.4-0.1-0.8-0.3-1.1c-0.2-0.3-0.4-0.6-0.7-0.7c-0.3-0.2-0.8-0.3-1.3-0.3
		c-0.6,0-1,0.1-1.4,0.4c-0.4,0.2-0.7,0.5-0.9,0.9c-0.2,0.4-0.4,0.8-0.5,1.3s-0.1,1-0.1,1.4v5.2h-1.8V28c0-0.2,0-0.5,0-0.7
		c0-0.3,0-0.5,0-0.7s0-0.5,0-0.7s0-0.4,0-0.6h1.8l0.1,1.7c0.4-0.6,0.9-1.1,1.5-1.4c0.5-0.3,1.2-0.4,2-0.4c1.4,0,2.3,0.4,2.9,1.1
		s0.8,1.7,0.8,3v6.5H97.5z"/>
	<path class="st0" d="M108.8,35.8c0-0.2-0.1-0.5-0.1-0.7c0-0.3-0.1-0.5-0.1-0.7c-0.4,0.6-1,1.1-1.5,1.3c-0.6,0.2-1.3,0.4-2,0.4
		c-0.5,0-0.9-0.1-1.4-0.2c-0.4-0.1-0.8-0.3-1.2-0.6c-0.3-0.3-0.6-0.6-0.8-1c-0.2-0.4-0.3-0.9-0.3-1.4c0-0.8,0.2-1.4,0.6-1.9
		s0.9-0.8,1.5-1.1c0.6-0.2,1.2-0.4,1.9-0.5c0.7-0.1,1.4-0.1,2-0.1c0.2,0,0.4,0,0.6,0s0.3,0,0.5,0v-0.6c0-0.8-0.2-1.4-0.5-1.9
		c-0.3-0.4-0.9-0.7-1.8-0.7c-0.7,0-1.2,0.1-1.5,0.4c-0.4,0.3-0.6,0.8-0.7,1.4h-1.8c0-0.6,0.2-1,0.4-1.4c0.2-0.4,0.5-0.7,0.9-0.9
		c0.4-0.2,0.8-0.4,1.2-0.5c0.5-0.1,0.9-0.2,1.4-0.2c1.3,0,2.3,0.3,3,0.9s1,1.5,1,2.9v3.9c0,0.7,0,1.3,0.1,1.9c0.1,0.6,0.1,1,0.2,1.2
		h-1.6V35.8z M108.4,30.6c-0.2,0-0.4,0-0.5,0s-0.3,0-0.4,0c-0.4,0-0.9,0-1.4,0.1c-0.5,0-1,0.1-1.4,0.3c-0.4,0.2-0.8,0.4-1.1,0.7
		c-0.3,0.3-0.4,0.7-0.4,1.3c0,0.3,0.1,0.6,0.2,0.9c0.1,0.2,0.3,0.5,0.5,0.6c0.2,0.2,0.5,0.3,0.7,0.4c0.3,0.1,0.6,0.1,0.9,0.1
		c0.7,0,1.2-0.1,1.6-0.4c0.4-0.2,0.7-0.6,0.9-1c0.2-0.4,0.3-0.9,0.4-1.4C108.4,31.6,108.4,31.1,108.4,30.6z"/>
	<path class="st0" d="M122.3,25.3c0,0.6-0.1,1.2-0.1,1.8c0,0.6,0,1.2,0,1.8v3.9c0,1,0,2-0.1,2.8c-0.1,0.9-0.3,1.6-0.6,2.3
		c-0.3,0.6-0.8,1.1-1.5,1.5s-1.6,0.6-2.8,0.6c-0.5,0-1.1,0-1.6-0.1s-1-0.3-1.4-0.5s-0.7-0.6-1-1s-0.4-0.9-0.4-1.6h1.8
		c0,0.4,0.1,0.7,0.2,0.9c0.1,0.3,0.3,0.5,0.6,0.6c0.2,0.2,0.5,0.3,0.8,0.3c0.3,0.1,0.6,0.1,0.9,0.1c0.6,0,1-0.1,1.4-0.2
		c0.4-0.1,0.7-0.4,0.9-0.6c0.2-0.3,0.4-0.6,0.5-1s0.2-0.8,0.2-1.3c0-0.3,0-0.6,0-0.9c0-0.3,0-0.6,0-0.9c-0.8,1.2-2,1.9-3.5,1.9
		c-0.8,0-1.5-0.1-2-0.4c-0.6-0.3-1.1-0.7-1.4-1.1c-0.4-0.5-0.7-1-0.9-1.7c-0.2-0.6-0.3-1.3-0.3-2s0.1-1.4,0.3-2
		c0.2-0.6,0.5-1.2,0.9-1.7s0.9-0.9,1.4-1.2c0.6-0.3,1.2-0.4,2-0.4c1.6,0,2.8,0.7,3.6,2v-1.8L122.3,25.3L122.3,25.3z M120.4,30.3
		c0-0.5-0.1-0.9-0.2-1.4s-0.3-0.9-0.6-1.3c-0.2-0.4-0.6-0.7-1-0.9c-0.4-0.2-0.8-0.4-1.4-0.4s-1.1,0.1-1.5,0.4
		c-0.4,0.2-0.7,0.6-1,0.9c-0.2,0.4-0.4,0.8-0.5,1.3s-0.2,1-0.2,1.5s0.1,1,0.2,1.4c0.1,0.5,0.3,0.9,0.5,1.3c0.2,0.4,0.6,0.7,0.9,0.9
		c0.4,0.2,0.9,0.4,1.4,0.4c0.6,0,1.1-0.1,1.5-0.4c0.4-0.2,0.7-0.6,0.9-1c0.2-0.4,0.4-0.8,0.5-1.3C120.4,31.3,120.4,30.8,120.4,30.3z
		"/>
	<path class="st0" d="M126.2,30.9v0.2c0,0.5,0.1,0.9,0.2,1.4c0.1,0.4,0.3,0.8,0.6,1.2c0.3,0.3,0.6,0.6,1,0.8s0.9,0.3,1.4,0.3
		c0.7,0,1.4-0.2,1.8-0.6c0.5-0.4,0.8-1,0.9-1.8h1.7c-0.2,1.2-0.7,2.1-1.6,2.7c-0.8,0.6-1.8,0.9-3,0.9c-0.8,0-1.5-0.1-2.1-0.4
		c-0.6-0.3-1.1-0.6-1.5-1.1s-0.7-1-0.9-1.7c-0.2-0.7-0.3-1.4-0.3-2.1c0-0.8,0.1-1.5,0.3-2.2c0.2-0.7,0.5-1.3,0.9-1.8
		s0.9-0.9,1.5-1.2c0.6-0.3,1.4-0.4,2.2-0.4c0.9,0,1.6,0.2,2.2,0.5c0.6,0.3,1,0.7,1.4,1.3c0.3,0.5,0.6,1.1,0.7,1.8
		c0.1,0.7,0.2,1.4,0.2,2.2C133.8,30.9,126.2,30.9,126.2,30.9z M132.1,29.7c0-0.4-0.1-0.8-0.2-1.2c-0.1-0.4-0.3-0.8-0.5-1.1
		c-0.2-0.3-0.5-0.6-0.9-0.7c-0.4-0.2-0.8-0.3-1.2-0.3c-0.5,0-0.9,0.1-1.3,0.3c-0.4,0.2-0.7,0.4-0.9,0.7c-0.2,0.3-0.4,0.7-0.6,1.1
		c-0.1,0.4-0.2,0.8-0.3,1.2H132.1z"/>
	<path class="st0" d="M149.9,35.8v-6.2c0-0.4,0-0.8-0.1-1.2c-0.1-0.4-0.2-0.7-0.4-1s-0.4-0.5-0.7-0.6c-0.3-0.2-0.7-0.2-1.2-0.2
		s-1,0.1-1.3,0.3c-0.3,0.2-0.6,0.4-0.8,0.7c-0.2,0.3-0.4,0.7-0.4,1.1c-0.1,0.4-0.1,0.9-0.1,1.3v5.8H143v-6.1c0-0.4,0-0.8-0.1-1.2
		c-0.1-0.4-0.2-0.7-0.4-1s-0.4-0.5-0.7-0.7s-0.7-0.3-1.2-0.3s-0.9,0.1-1.2,0.3c-0.3,0.2-0.6,0.4-0.9,0.8c-0.2,0.3-0.4,0.7-0.5,1.1
		s-0.2,0.8-0.2,1.3v5.8H136v-6.9c0-1.2,0-2.4-0.1-3.6h1.8l0.1,1.7c0.7-1.2,1.9-1.9,3.3-1.9c0.8,0,1.5,0.2,2.1,0.5
		c0.5,0.3,1,0.9,1.3,1.7c0.7-1.4,1.9-2.2,3.6-2.2c0.7,0,1.3,0.1,1.8,0.3c0.5,0.2,0.8,0.5,1.1,0.9s0.5,0.9,0.6,1.4s0.2,1.1,0.2,1.8
		v6.2h-1.9V35.8z"/>
	<path class="st0" d="M155.7,30.9v0.2c0,0.5,0.1,0.9,0.2,1.4c0.1,0.4,0.3,0.8,0.6,1.2c0.3,0.3,0.6,0.6,1,0.8s0.9,0.3,1.4,0.3
		c0.7,0,1.4-0.2,1.8-0.6c0.5-0.4,0.8-1,0.9-1.8h1.7c-0.2,1.2-0.7,2.1-1.6,2.7c-0.8,0.6-1.8,0.9-3,0.9c-0.8,0-1.5-0.1-2.1-0.4
		c-0.6-0.3-1.1-0.6-1.5-1.1s-0.7-1-0.9-1.7s-0.3-1.4-0.3-2.1c0-0.8,0.1-1.5,0.3-2.2s0.5-1.3,0.9-1.8s0.9-0.9,1.5-1.2
		c0.6-0.3,1.4-0.4,2.2-0.4c0.9,0,1.6,0.2,2.2,0.5c0.6,0.3,1,0.7,1.4,1.3c0.3,0.5,0.6,1.1,0.7,1.8c0.1,0.7,0.2,1.4,0.2,2.2
		C163.3,30.9,155.7,30.9,155.7,30.9z M161.5,29.7c0-0.4-0.1-0.8-0.2-1.2c-0.1-0.4-0.3-0.8-0.5-1.1c-0.2-0.3-0.5-0.6-0.9-0.7
		c-0.4-0.2-0.8-0.3-1.2-0.3c-0.5,0-0.9,0.1-1.3,0.3s-0.7,0.4-0.9,0.7c-0.2,0.3-0.4,0.7-0.6,1.1c-0.1,0.4-0.2,0.8-0.3,1.2H161.5z"/>
	<path class="st0" d="M172.6,35.8V30c0-0.5,0-0.9-0.1-1.3c0-0.4-0.1-0.8-0.3-1.1c-0.2-0.3-0.4-0.6-0.7-0.7c-0.3-0.2-0.8-0.3-1.3-0.3
		c-0.6,0-1,0.1-1.4,0.4c-0.4,0.2-0.7,0.5-0.9,0.9s-0.4,0.8-0.5,1.3s-0.1,1-0.1,1.4v5.2h-1.8V28c0-0.2,0-0.5,0-0.7c0-0.3,0-0.5,0-0.7
		s0-0.5,0-0.7s0-0.4,0-0.6h1.8l0.1,1.7c0.4-0.6,0.9-1.1,1.5-1.4c0.5-0.3,1.2-0.4,2-0.4c1.4,0,2.3,0.4,2.9,1.1c0.6,0.7,0.8,1.7,0.8,3
		v6.5H172.6z"/>
	<path class="st0" d="M180.5,35.9c-0.8,0-1.5-0.2-1.9-0.6c-0.4-0.4-0.6-1-0.6-1.9v-6.9h-2.1v-1.3h2.1v-2l1.8-0.8v2.8h2.3v1.3h-2.3
		v6.2c0,0.3,0,0.6,0,0.8s0.1,0.4,0.2,0.5s0.3,0.2,0.4,0.3c0.2,0.1,0.4,0.1,0.8,0.1c0.2,0,0.3,0,0.5,0s0.3,0,0.5-0.1v1.4
		C181.6,35.9,181.1,35.9,180.5,35.9z"/>
</g>
</svg>
