<?xml version="1.0" encoding="utf-8"?>
<!-- Generator: Adobe Illustrator 19.2.0, SVG Export Plug-In . SVG Version: 6.00 Build 0)  -->
<svg version="1.1" id="Layer_1" xmlns="http://www.w3.org/2000/svg" xmlns:xlink="http://www.w3.org/1999/xlink" x="0px" y="0px"
	 viewBox="0 0 55.5 43.6" style="enable-background:new 0 0 55.5 43.6;" xml:space="preserve">
<style type="text/css">
	.st0{fill:#889BB3;}
	.st1{fill:#FFFFFF;}
</style>
<path class="st0" d="M2.4,0.5H22v14.1c0,5.7-0.5,10.2-1.5,13.4c-1,3.3-2.8,6.2-5.6,8.8c-2.7,2.6-6.2,4.7-10.4,6.2l-3.8-8.2
	c4-1.3,6.8-3.1,8.5-5.5c1.7-2.3,2.6-5.4,2.7-9.3H2.4V0.5z M35.4,0.5H55v14.1c0,5.7-0.5,10.2-1.5,13.4c-1,3.3-2.9,6.2-5.6,8.8
	c-2.7,2.6-6.2,4.7-10.3,6.2l-3.8-8.2c3.9-1.3,6.7-3.1,8.4-5.5c1.7-2.3,2.6-5.4,2.6-9.3h-9.4V0.5z"/>
<path class="st1" d="M37.3,43.6l-4.2-9.1l0.5-0.2c3.9-1.3,6.5-3,8.1-5.3c1.6-2.2,2.4-5,2.5-8.5h-9.4V0h20.6v14.6
	c0,5.8-0.5,10.3-1.5,13.5c-1,3.3-2.9,6.3-5.7,9c-2.8,2.7-6.3,4.8-10.5,6.3L37.3,43.6z M34.5,35.1l3.4,7.3c3.9-1.5,7.1-3.5,9.7-5.9
	c2.7-2.6,4.5-5.4,5.5-8.6c1-3.1,1.5-7.6,1.5-13.3V1H35.9v18.5h9.4V20c0,3.9-0.9,7.2-2.7,9.6C40.9,31.9,38.3,33.8,34.5,35.1z
	 M4.2,43.6L0,34.5l0.5-0.2c3.9-1.3,6.6-3,8.2-5.3c1.6-2.1,2.4-5,2.6-8.5H1.9V0h20.6v14.6c0,5.8-0.5,10.3-1.5,13.5
	c-1,3.5-2.9,6.4-5.7,9c-2.8,2.7-6.3,4.8-10.6,6.3L4.2,43.6z M1.4,35.1l3.4,7.3c3.9-1.5,7.2-3.5,9.8-5.9c2.7-2.5,4.5-5.3,5.5-8.6
	c1-3.1,1.5-7.6,1.5-13.3V1H2.9v18.5h9.5l0,0.5c-0.1,4-1,7.2-2.8,9.6C7.9,32,5.2,33.8,1.4,35.1z"/>
</svg>
