<svg id="Ebene_1" data-name="Ebene 1" xmlns="http://www.w3.org/2000/svg" xmlns:xlink="http://www.w3.org/1999/xlink" viewBox="0 0 128.21 96.45"><defs><style>.cls-1{fill:none;}.cls-2{fill:#899aa5;}.cls-3{clip-path:url(#clip-path);}.cls-4{fill:#fff;}</style><clipPath id="clip-path" transform="translate(-7.17 -25.62)"><rect class="cls-1" x="7.17" y="25.62" width="128.21" height="96.45"/></clipPath></defs><title>ranking</title><polygon class="cls-2" points="42.53 0 42.53 43.98 0 43.98 0 96.45 42.53 96.45 43.5 96.45 84.71 96.45 86.03 96.45 128.21 96.45 128.21 59.14 86.03 59.14 86.03 0 42.53 0"/><g class="cls-3"><path class="cls-4" d="M118.83,112.39a8.35,8.35,0,0,1-10.83.34,7.25,7.25,0,0,1-2.44-4.8,0.72,0.72,0,0,1,.64-0.8l3.93-.48a0.74,0.74,0,0,1,.81.64,3,3,0,0,0,.79,1.86,2,2,0,0,0,1.49.59,2,2,0,0,0,1.57-.71,3,3,0,0,0,.67-2.08,2.73,2.73,0,0,0-.63-1.93c-0.72-.79-1.65-0.8-3.14-0.38a0.73,0.73,0,0,1-.92-0.8l0.45-3.31a0.73,0.73,0,0,1,.73-0.63h0.18a2.77,2.77,0,0,0,1.86-.54,1.81,1.81,0,0,0,.62-1.47,1.47,1.47,0,0,0-1.6-1.61,1.73,1.73,0,0,0-1.26.51,2.74,2.74,0,0,0-.68,1.67,0.73,0.73,0,0,1-.28.5,0.72,0.72,0,0,1-.56.14l-3.74-.64a0.73,0.73,0,0,1-.48-0.31,0.72,0.72,0,0,1-.11-0.56,9.09,9.09,0,0,1,1.29-3.34,6,6,0,0,1,2.49-2.05,8.13,8.13,0,0,1,3.46-.73,7,7,0,0,1,5.33,2.14,5.69,5.69,0,0,1,1.69,4,5.24,5.24,0,0,1-2.15,4.25,5.45,5.45,0,0,1,1.85,1.49,5.78,5.78,0,0,1,1.26,3.73,7.1,7.1,0,0,1-2.26,5.28" transform="translate(-7.17 -25.62)"/><path class="cls-4" d="M74.86,56.83a0.73,0.73,0,0,1-.73.73H70.07a0.73,0.73,0,0,1-.73-0.73V43.1a15,15,0,0,1-4.29,2.21,0.73,0.73,0,0,1-1-.69V40.93a0.73,0.73,0,0,1,.5-0.7,11.08,11.08,0,0,0,3.23-1.85,6.79,6.79,0,0,0,2.32-3.05,0.73,0.73,0,0,1,.69-0.49h3.29a0.73,0.73,0,0,1,.73.73V56.83Z" transform="translate(-7.17 -25.62)"/><path class="cls-4" d="M37.54,94.88a0.73,0.73,0,0,1,.73.73v3.77a0.73,0.73,0,0,1-.73.73H23.31a0.73,0.73,0,0,1-.73-0.81A10.54,10.54,0,0,1,24.07,95a27.36,27.36,0,0,1,4.69-5.24A26.4,26.4,0,0,0,32,86.37a3.76,3.76,0,0,0,.71-2.07,2.12,2.12,0,0,0-.51-1.57,2,2,0,0,0-1.5-.51,2,2,0,0,0-1.5.54,3.36,3.36,0,0,0-.66,2.08,0.73,0.73,0,0,1-.8.68l-4-.4a0.74,0.74,0,0,1-.5-0.27,0.75,0.75,0,0,1-.16-0.54A7.36,7.36,0,0,1,25.61,79a8.36,8.36,0,0,1,5.21-1.61,7.61,7.61,0,0,1,5.42,1.89,6.27,6.27,0,0,1,2,4.73,8.08,8.08,0,0,1-.56,3A11.93,11.93,0,0,1,36,89.89a26.3,26.3,0,0,1-2.74,2.79c-1.4,1.28-2,1.9-2.3,2.2h6.6Z" transform="translate(-7.17 -25.62)"/></g></svg>