<?xml version="1.0" encoding="utf-8"?>
<!-- Generator: Adobe Illustrator 19.2.1, SVG Export Plug-In . SVG Version: 6.00 Build 0)  -->
<svg version="1.1" id="Camada_1" xmlns="http://www.w3.org/2000/svg" xmlns:xlink="http://www.w3.org/1999/xlink" x="0px" y="0px"
	 viewBox="0 0 35.7 28.2" style="enable-background:new 0 0 35.7 28.2;" xml:space="preserve">
<style type="text/css">
	.st0{fill:#D7DCE3;stroke:#8996AC;stroke-miterlimit:10;}
</style>
<g>
	<path class="st0" d="M1.7,0.5h12.5v9c0,3.6-0.3,6.5-0.9,8.5c-0.6,2.1-1.8,3.9-3.5,5.6c-1.7,1.7-3.9,3-6.6,3.9l-2.4-5.2
		c2.5-0.8,4.3-2,5.4-3.5c1.1-1.5,1.6-3.5,1.7-5.9h-6V0.5z M22.7,0.5h12.5v9c0,3.6-0.3,6.5-1,8.5c-0.6,2.1-1.8,3.9-3.6,5.6
		c-1.7,1.7-3.9,3-6.6,3.9l-2.4-5.2c2.5-0.8,4.3-2,5.4-3.5c1.1-1.5,1.6-3.5,1.7-5.9h-6V0.5z"/>
</g>
</svg>
