<?xml version="1.0" encoding="utf-8"?>
<!-- Generator: Adobe Illustrator 19.2.1, SVG Export Plug-In . SVG Version: 6.00 Build 0)  -->
<svg version="1.1" id="Camada_1" xmlns="http://www.w3.org/2000/svg" xmlns:xlink="http://www.w3.org/1999/xlink" x="0px" y="0px"
	 viewBox="0 0 53.1 70.9" style="enable-background:new 0 0 53.1 70.9;" xml:space="preserve">
<style type="text/css">
	.st0{fill:none;stroke:#667592;stroke-linecap:round;stroke-linejoin:round;stroke-miterlimit:10;}
	.st1{fill:#D7DCE3;stroke:#667592;stroke-linecap:round;stroke-linejoin:round;stroke-miterlimit:10;}
</style>
<g>
	<polyline class="st0" points="38.3,7.9 52.6,7.9 52.6,70.4 0.5,70.4 0.5,7.9 14.7,7.9 	"/>
	<polygon class="st1" points="38.3,13.1 38.3,15.2 14.7,15.2 14.7,13.1 5.7,13.1 5.7,65.2 47.4,65.2 47.4,13.1 	"/>
	<g>
		<polyline class="st0" points="11.4,25.5 14,28 19.2,22.8 		"/>
		<g>
			<line class="st0" x1="25.5" y1="23.3" x2="41.6" y2="23.3"/>
			<line class="st0" x1="25.5" y1="27.5" x2="38.5" y2="27.5"/>
		</g>
	</g>
	<g>
		<polyline class="st0" points="11.4,39.6 14,42.1 19.2,36.8 		"/>
		<g>
			<line class="st0" x1="25.5" y1="37.4" x2="41.6" y2="37.4"/>
			<line class="st0" x1="25.5" y1="41.5" x2="38.5" y2="41.5"/>
		</g>
	</g>
	<g>
		<polyline class="st0" points="11.4,53.6 14,56.1 19.2,50.9 		"/>
		<g>
			<line class="st0" x1="25.5" y1="51.4" x2="41.6" y2="51.4"/>
			<line class="st0" x1="25.5" y1="55.6" x2="38.5" y2="55.6"/>
		</g>
	</g>
	<path class="st0" d="M34.9,7.9c-0.5-4.2-4.1-7.4-8.4-7.4s-7.9,3.2-8.4,7.4h-3.4v5.2v2.1h23.6v-2.1V7.9H34.9z M26.5,4.2
		c2.2,0,4.1,1.6,4.5,3.7H22C22.4,5.8,24.3,4.2,26.5,4.2z"/>
</g>
</svg>
