<svg id="Ebene_1" data-name="Ebene 1" xmlns="http://www.w3.org/2000/svg" xmlns:xlink="http://www.w3.org/1999/xlink" viewBox="0 0 129.77 109.85"><defs><style>.cls-1,.cls-4{fill:none;}.cls-2{clip-path:url(#clip-path);}.cls-3{fill:#899aa5;}.cls-4{stroke:#899aa5;stroke-miterlimit:10;stroke-width:1.4px;}</style><clipPath id="clip-path" transform="translate(-4.91 -15.43)"><rect class="cls-1" x="4.91" y="15.43" width="129.77" height="110.58"/></clipPath></defs><title>sustainability</title><g class="cls-2"><path class="cls-3" d="M134.67,76.51S132.9,80,100.75,71.44C79.58,65.79,63.79,78,65.44,91.6a8.22,8.22,0,0,0,.26,1.24c17.95-12.33,45.45-4.61,45.45-4.61S87,86.05,68.58,98.69a29.62,29.62,0,0,0,2.88,3.62c14.7,15.74,38.61,9,49.1-1.93a64.58,64.58,0,0,0,14.12-23.86" transform="translate(-4.91 -15.43)"/><path class="cls-3" d="M6.58,15.43s-0.3,3.92,31.63,13.26c21,6.15,28.2,24.78,19.73,35.55a8.64,8.64,0,0,1-.86.93c-9-19.85-36.47-27.51-36.47-27.51s21.77,10.65,31,31a29.53,29.53,0,0,1-4.34,1.6c-20.73,5.83-37.66-12.35-41-27.11a64.58,64.58,0,0,1,.3-27.72" transform="translate(-4.91 -15.43)"/><path class="cls-4" d="M67.89,98.6s14.78-10.66,41.87-10.4c0,0-27-7.71-44.7,4.59,0,0-1.93-44.45-43.74-54.75,0,0,45,20.29,38.64,85,0,0-1.73,4.65,6.67-2C66.62,121,61.38,102.42,67.89,98.6Z" transform="translate(-4.91 -15.43)"/></g></svg>