<svg id="Ebene_1" data-name="Ebene 1" xmlns="http://www.w3.org/2000/svg" xmlns:xlink="http://www.w3.org/1999/xlink" viewBox="0 0 91.45 121.87"><defs><style>.cls-1{fill:none;}.cls-2{clip-path:url(#clip-path);}.cls-3{fill:#899aa5;}.cls-4{fill:#fff;}.cls-5{fill:#899399;}.cls-6{fill:#a7afb4;}.cls-7{fill:#6c767c;}</style><clipPath id="clip-path" transform="translate(-25.29 -6.76)"><rect class="cls-1" x="25.3" y="6.76" width="91.45" height="121.87"/></clipPath></defs><title>rating</title><g class="cls-2"><path class="cls-3" d="M116.73,54.68c-1.93,14-10.14,27-23.46,32.59a75.12,75.12,0,0,0,3.61-7.55c9.08-6,12.76-15.29,14.25-22.27h-8.86c0.16-1.62.28-3.28,0.36-5h12.17a2,2,0,0,1,1.92,2.18M48.91,87.3C35.53,81.68,27.3,68.68,25.37,54.63A1.65,1.65,0,0,1,27,52.5H39.52c0.09,1.68.2,3.34,0.37,5H31c1.49,7,5.19,16.31,14.32,22.3a75,75,0,0,0,3.61,7.54m38.49,36v5.29H54.77v-5.29a13.24,13.24,0,0,0,1.89-.13c6.9-1,8.82-7.33,9.16-11.69H76.34c0.37,4.73,2.36,11.82,11,11.82m10.18-76.5h-53c0,37.52,18.52,47.16,21.12,59.72H76.45C79,94,97.57,84.36,97.57,46.84" transform="translate(-25.29 -6.76)"/><path class="cls-4" d="M55.32,49.74H47.65S47.91,72.56,57,84.61c0,0-5.17-21.61-1.68-34.86" transform="translate(-25.29 -6.76)"/></g><polygon class="cls-5" points="58.78 0 60.21 8.61 53.93 14.66 62.56 15.96 66.38 23.8 70.28 16 78.92 14.79 72.7 8.67 74.22 0.08 66.48 4.1 58.78 0"/><polygon class="cls-6" points="47.94 21.11 48.95 27.2 44.51 31.48 50.61 32.4 53.31 37.94 56.07 32.42 62.18 31.57 57.79 27.24 58.86 21.17 53.39 24.01 47.94 21.11"/><polygon class="cls-7" points="74.15 22.1 74.88 26.51 71.67 29.61 76.08 30.27 78.04 34.29 80.04 30.29 84.46 29.67 81.28 26.54 82.06 22.14 78.09 24.2 74.15 22.1"/><path class="cls-4" d="M99.68,33.75L97,36.36Z" transform="translate(-25.29 -6.76)"/></svg>