<?xml version="1.0" encoding="utf-8"?>
<!-- Generator: Adobe Illustrator 19.2.1, SVG Export Plug-In . SVG Version: 6.00 Build 0)  -->
<svg version="1.1" id="Camada_1" xmlns="http://www.w3.org/2000/svg" xmlns:xlink="http://www.w3.org/1999/xlink" x="0px" y="0px"
	 viewBox="0 0 53 72" enable-background="new 0 0 53 72" xml:space="preserve">
<g>
	<polyline fill="none" stroke="#FFFFFF" stroke-linecap="round" stroke-linejoin="round" stroke-miterlimit="10" points="38.3,8.4
		52.5,8.4 52.5,70.9 0.5,70.9 0.5,8.4 14.7,8.4 	"/>
	<polygon fill="#8995AB" stroke="#FFFFFF" stroke-linecap="round" stroke-linejoin="round" stroke-miterlimit="10" points="
		38.3,13.6 38.3,15.7 14.7,15.7 14.7,13.6 5.7,13.6 5.7,65.7 47.3,65.7 47.3,13.6 	"/>
	<g>
		<polyline fill="none" stroke="#FFFFFF" stroke-linecap="round" stroke-linejoin="round" stroke-miterlimit="10" points="11.4,26
			13.9,28.5 19.2,23.3 		"/>
		<g>

				<line fill="none" stroke="#FFFFFF" stroke-linecap="round" stroke-linejoin="round" stroke-miterlimit="10" x1="25.4" y1="23.8" x2="41.6" y2="23.8"/>

				<line fill="none" stroke="#FFFFFF" stroke-linecap="round" stroke-linejoin="round" stroke-miterlimit="10" x1="25.4" y1="28" x2="38.5" y2="28"/>
		</g>
	</g>
	<g>
		<polyline fill="none" stroke="#FFFFFF" stroke-linecap="round" stroke-linejoin="round" stroke-miterlimit="10" points="
			11.4,40.1 13.9,42.6 19.2,37.3 		"/>
		<g>

				<line fill="none" stroke="#FFFFFF" stroke-linecap="round" stroke-linejoin="round" stroke-miterlimit="10" x1="25.4" y1="37.9" x2="41.6" y2="37.9"/>

				<line fill="none" stroke="#FFFFFF" stroke-linecap="round" stroke-linejoin="round" stroke-miterlimit="10" x1="25.4" y1="42" x2="38.5" y2="42"/>
		</g>
	</g>
	<g>
		<polyline fill="none" stroke="#FFFFFF" stroke-linecap="round" stroke-linejoin="round" stroke-miterlimit="10" points="
			11.4,54.1 13.9,56.6 19.2,51.4 		"/>
		<g>

				<line fill="none" stroke="#FFFFFF" stroke-linecap="round" stroke-linejoin="round" stroke-miterlimit="10" x1="25.4" y1="51.9" x2="41.6" y2="51.9"/>

				<line fill="none" stroke="#FFFFFF" stroke-linecap="round" stroke-linejoin="round" stroke-miterlimit="10" x1="25.4" y1="56.1" x2="38.5" y2="56.1"/>
		</g>
	</g>
	<path fill="none" stroke="#FFFFFF" stroke-linecap="round" stroke-linejoin="round" stroke-miterlimit="10" d="M34.9,8.4
		C34.3,4.2,30.8,1,26.5,1s-7.9,3.2-8.4,7.4h-3.4v5.2v2.1h23.6v-2.1V8.4H34.9z M26.5,4.7c2.2,0,4.1,1.6,4.5,3.7H22
		C22.4,6.3,24.3,4.7,26.5,4.7z"/>
</g>
</svg>
