<?xml version="1.0" encoding="utf-8"?>
<!-- Generator: Adobe Illustrator 19.1.0, SVG Export Plug-In . SVG Version: 6.00 Build 0)  -->
<svg version="1.1" id="Layer_2" xmlns="http://www.w3.org/2000/svg" xmlns:xlink="http://www.w3.org/1999/xlink" x="0px" y="0px"
	 viewBox="0 0 75.5 51" style="enable-background:new 0 0 75.5 51;" xml:space="preserve">
<style type="text/css">
	.st0{fill:#889BB3;}
	.st1{fill:#FFFFFF;}
</style>
<g>
	<g>
		<path class="st0" d="M32.7,45.5c2.8,0,5,2.2,5,5v-45c0-2.8-2.2-5-5-5H4.5v45H32.7"/>
		<path class="st1" d="M37.7,51c-0.3,0-0.5-0.2-0.5-0.5c0-2.5-2-4.5-4.5-4.5H4.5C4.2,46,4,45.8,4,45.5v-45C4,0.2,4.2,0,4.5,0h28.2
			c3,0,5.5,2.5,5.5,5.5v45C38.2,50.8,38,51,37.7,51z M5,45h27.7c1.9,0,3.5,0.9,4.5,2.3V5.5c0-2.5-2-4.5-4.5-4.5H5V45z"/>
	</g>
	<path class="st1" d="M37.7,51H0.5C0.2,51,0,50.8,0,50.5V4.2C0,4,0.2,3.7,0.5,3.7h4C4.8,3.7,5,4,5,4.2S4.8,4.7,4.5,4.7H1V50h36.2
		V5.5c0-0.3,0.2-0.5,0.5-0.5s0.5,0.2,0.5,0.5v45C38.2,50.8,38,51,37.7,51z"/>
	<path class="st1" d="M75,51H37.7c-0.3,0-0.5-0.2-0.5-0.5c0-3,2.5-5.5,5.5-5.5h27.7V4.2c0-0.3,0.2-0.5,0.5-0.5h4
		c0.3,0,0.5,0.2,0.5,0.5v46.3C75.5,50.8,75.2,51,75,51z M38.3,50h36.2V4.7h-3v40.8c0,0.3-0.2,0.5-0.5,0.5H42.7
		C40.4,46,38.5,47.8,38.3,50z"/>
	<g>
		<path class="st0" d="M52.2,0.5v3.7v15.4l-4-3l-4,3V4.2V0.5h-1.5c-2.3,0-4.2,1.6-4.8,3.7c-0.1,0.4-0.2,0.8-0.2,1.3v45
			c0-2.8,2.2-5,5-5H71V4.2V0.5H52.2z"/>
		<path class="st1" d="M37.7,51c-0.3,0-0.5-0.2-0.5-0.5v-45c0-0.4,0.1-0.9,0.2-1.4C38.1,1.7,40.3,0,42.7,0h1.5
			c0.3,0,0.5,0.2,0.5,0.5v18.1l3.2-2.4c0.2-0.1,0.4-0.1,0.6,0l3.2,2.4V0.5c0-0.3,0.2-0.5,0.5-0.5H71c0.3,0,0.5,0.2,0.5,0.5v45
			c0,0.3-0.2,0.5-0.5,0.5H42.7c-2.5,0-4.5,2-4.5,4.5C38.2,50.8,38,51,37.7,51z M42.7,1c-2,0-3.8,1.4-4.3,3.4
			c-0.1,0.4-0.2,0.8-0.2,1.1v41.8c1-1.4,2.6-2.3,4.5-2.3h27.7V1H52.7v18.6c0,0.2-0.1,0.4-0.3,0.4c-0.2,0.1-0.4,0.1-0.5,0l-3.7-2.8
			L44.5,20c-0.2,0.1-0.4,0.1-0.5,0c-0.2-0.1-0.3-0.3-0.3-0.4V1H42.7z"/>
	</g>
	<path class="st1" d="M52.2,20.1c-0.1,0-0.2,0-0.3-0.1l-3.7-2.8L44.5,20c-0.2,0.1-0.4,0.1-0.5,0c-0.2-0.1-0.3-0.3-0.3-0.4V0.5
		c0-0.3,0.2-0.5,0.5-0.5h8c0.3,0,0.5,0.2,0.5,0.5v19.1c0,0.2-0.1,0.4-0.3,0.4C52.4,20.1,52.3,20.1,52.2,20.1z M48.2,16.1
		c0.1,0,0.2,0,0.3,0.1l3.2,2.4V1h-7v17.6l3.2-2.4C48,16.1,48.1,16.1,48.2,16.1z"/>
	<path class="st1" d="M31.7,8.5H10.5C10.2,8.5,10,8.3,10,8s0.2-0.5,0.5-0.5h21.2c0.3,0,0.5,0.2,0.5,0.5S32,8.5,31.7,8.5z"/>
	<path class="st1" d="M31.7,16H10.5c-0.3,0-0.5-0.2-0.5-0.5s0.2-0.5,0.5-0.5h21.2c0.3,0,0.5,0.2,0.5,0.5S32,16,31.7,16z"/>
	<path class="st1" d="M31.7,23.5H10.5c-0.3,0-0.5-0.2-0.5-0.5s0.2-0.5,0.5-0.5h21.2c0.3,0,0.5,0.2,0.5,0.5S32,23.5,31.7,23.5z"/>
	<path class="st1" d="M31.7,31H10.5c-0.3,0-0.5-0.2-0.5-0.5s0.2-0.5,0.5-0.5h21.2c0.3,0,0.5,0.2,0.5,0.5S32,31,31.7,31z"/>
	<path class="st1" d="M31.7,38.5H10.5c-0.3,0-0.5-0.2-0.5-0.5s0.2-0.5,0.5-0.5h21.2c0.3,0,0.5,0.2,0.5,0.5S32,38.5,31.7,38.5z"/>
	<path class="st1" d="M65.4,8.5h-9.2c-0.3,0-0.5-0.2-0.5-0.5s0.2-0.5,0.5-0.5h9.2c0.3,0,0.5,0.2,0.5,0.5S65.7,8.5,65.4,8.5z"/>
	<path class="st1" d="M65.4,16h-9.2c-0.3,0-0.5-0.2-0.5-0.5s0.2-0.5,0.5-0.5h9.2c0.3,0,0.5,0.2,0.5,0.5S65.7,16,65.4,16z"/>
	<path class="st1" d="M65.4,23.5H44.2c-0.3,0-0.5-0.2-0.5-0.5s0.2-0.5,0.5-0.5h21.2c0.3,0,0.5,0.2,0.5,0.5S65.7,23.5,65.4,23.5z"/>
	<path class="st1" d="M65.4,31H44.2c-0.3,0-0.5-0.2-0.5-0.5s0.2-0.5,0.5-0.5h21.2c0.3,0,0.5,0.2,0.5,0.5S65.7,31,65.4,31z"/>
	<path class="st1" d="M65.4,38.5H44.2c-0.3,0-0.5-0.2-0.5-0.5s0.2-0.5,0.5-0.5h21.2c0.3,0,0.5,0.2,0.5,0.5S65.7,38.5,65.4,38.5z"/>
</g>
</svg>
