<?xml version="1.0" encoding="utf-8"?>
<!-- Generator: Adobe Illustrator 19.2.1, SVG Export Plug-In . SVG Version: 6.00 Build 0)  -->
<svg version="1.1" id="Camada_1" xmlns="http://www.w3.org/2000/svg" xmlns:xlink="http://www.w3.org/1999/xlink" x="0px" y="0px"
	 viewBox="0 0 53 71" enable-background="new 0 0 53 71" xml:space="preserve">
<g>
	<path fill="none" stroke="#FFFFFF" stroke-linecap="round" stroke-linejoin="round" stroke-miterlimit="10" d="M45.6,7.9v55.4H7.7
		C4,63.3,1,66.3,1,70h50V7.9H45.6z"/>
	<path fill="#8995AB" stroke="#FFFFFF" stroke-linecap="round" stroke-linejoin="round" stroke-miterlimit="10" d="M20.4,2.8v5v20.7
		l-5.4-4l-5.4,4V7.9v-5h-2C4.6,2.8,2,5,1.2,7.9C1.1,8.4,1,9,1,9.6V70c0-3.7,3-6.7,6.7-6.7h37.9V7.9v-5H20.4z"/>
	<polygon fill="none" stroke="#FFFFFF" stroke-linecap="round" stroke-linejoin="round" stroke-miterlimit="10" points="9.7,2.8
		9.7,28.5 15.1,24.5 20.4,28.5 20.4,2.8 	"/>

		<line fill="none" stroke="#FFFFFF" stroke-linecap="round" stroke-linejoin="round" stroke-miterlimit="10" x1="25.8" y1="12.9" x2="38.2" y2="12.9"/>

		<line fill="none" stroke="#FFFFFF" stroke-linecap="round" stroke-linejoin="round" stroke-miterlimit="10" x1="25.8" y1="23" x2="38.2" y2="23"/>

		<line fill="none" stroke="#FFFFFF" stroke-linecap="round" stroke-linejoin="round" stroke-miterlimit="10" x1="9.7" y1="33.1" x2="38.2" y2="33.1"/>

		<line fill="none" stroke="#FFFFFF" stroke-linecap="round" stroke-linejoin="round" stroke-miterlimit="10" x1="9.7" y1="43.1" x2="38.2" y2="43.1"/>

		<line fill="none" stroke="#FFFFFF" stroke-linecap="round" stroke-linejoin="round" stroke-miterlimit="10" x1="9.7" y1="53.2" x2="38.2" y2="53.2"/>
</g>
</svg>
