<?xml version="1.0" encoding="utf-8"?>
<!-- Generator: Adobe Illustrator 19.2.1, SVG Export Plug-In . SVG Version: 6.00 Build 0)  -->
<svg version="1.1" id="Camada_1" xmlns="http://www.w3.org/2000/svg" xmlns:xlink="http://www.w3.org/1999/xlink" x="0px" y="0px"
	 viewBox="0 0 46.8 62.5" style="enable-background:new 0 0 46.8 62.5;" xml:space="preserve">
<style type="text/css">
	.st0{fill:none;stroke:#667592;stroke-linecap:round;stroke-linejoin:round;stroke-miterlimit:10;}
	.st1{fill:#D7DCE3;stroke:#667592;stroke-linecap:round;stroke-linejoin:round;stroke-miterlimit:10;}
</style>
<g>
	<path class="st0" d="M41.4,5.1v50.8H6.6c-3.4,0-6.1,2.8-6.1,6.1h45.8V5.1H41.4z"/>
	<path class="st1" d="M18.3,0.5v4.6V24l-4.9-3.7L8.5,24V5.1V0.5H6.6c-2.8,0-5.2,2-5.9,4.6c-0.1,0.5-0.2,1-0.2,1.6V62
		c0-3.4,2.8-6.1,6.1-6.1h34.7V5.1V0.5H18.3z"/>
	<polygon class="st0" points="8.5,0.5 8.5,24 13.4,20.3 18.3,24 18.3,0.5 	"/>
	<line class="st0" x1="23.2" y1="9.7" x2="34.6" y2="9.7"/>
	<line class="st0" x1="23.2" y1="18.9" x2="34.6" y2="18.9"/>
	<line class="st0" x1="8.5" y1="28.2" x2="34.6" y2="28.2"/>
	<line class="st0" x1="8.5" y1="37.4" x2="34.6" y2="37.4"/>
	<line class="st0" x1="8.5" y1="46.6" x2="34.6" y2="46.6"/>
</g>
</svg>
