<svg xmlns="http://www.w3.org/2000/svg" viewBox="0 0 64 64">
	<path d="M30.2,18.3l12.7,20.4c-0.9,0.9-1.8,1.9-2.7,2.8c-1.8,1.8-3.6,3.5-5.4,5.1L22,26c0.5-0.5,0.9-0.9,1.4-1.4
	C25.6,22.4,27.9,20.2,30.2,18.3z M8.6,23.5c1.7,2.6,3.7,5.4,5.9,8.2c1.7-2.1,3.6-4.2,5.6-6.3v-2.3l0.9,1.4c0.4-0.4,0.7-0.7,1.1-1.1
	c2.4-2.4,4.8-4.6,7.2-6.6l-2.2-3.5c-7.3-5.4-14-8.7-18.5-9.1V23.5z M47.9,33.1c-1.1-1.4-2.3-2.7-3.6-4.1v8.2
	C45.6,35.8,46.8,34.4,47.9,33.1z M44.3,26.4c1.7,1.8,3.2,3.6,4.7,5.3c2.5-3.1,4.6-6.1,6.4-9V4.1c-2.9,0.1-6.7,1.5-11.1,4V26.4z
	M55.4,25.6c-1.5,2.4-3.3,4.9-5.3,7.4c2,2.5,3.8,5,5.3,7.4V25.6z M20.2,28c-1.6,1.7-3.1,3.4-4.5,5.1c1.4,1.7,2.9,3.4,4.5,5.1V28z
	M42.1,58.4l2.2,3.6v0h0l0,0l0,0h5.4C47.4,61.2,44.8,60,42.1,58.4z M24.9,9.8l-4.8-7.7V2H8.6v1C12.8,3.3,18.6,5.7,24.9,9.8z
	M13.8,62h6.4v-2.8C17.9,60.4,15.8,61.3,13.8,62z M55.4,3V2H44.3v4.5C48.6,4.3,52.4,3,55.4,3z M20.2,40.7c-2-2.1-3.9-4.2-5.6-6.3
	c-2.3,2.8-4.3,5.6-5.9,8.2v19.3c3-0.3,7-1.8,11.5-4.5V40.7z M55.4,43.4c-1.8-2.8-3.9-5.9-6.4-9c-1.5,1.8-3,3.6-4.7,5.3V41l-0.5-0.7
	c-0.8,0.8-1.6,1.7-2.4,2.5c-1.9,1.9-3.8,3.7-5.8,5.4l4.6,7.4c6,4,11.4,6.3,15.1,6.5V43.4z M13.5,33.1c-1.8-2.3-3.4-4.5-4.8-6.7v13.4
	C10,37.6,11.7,35.3,13.5,33.1z"/>
</svg>
