<?xml version="1.0" standalone="no"?>
<!DOCTYPE svg PUBLIC "-//W3C//DTD SVG 1.1//EN" "http://www.w3.org/Graphics/SVG/1.1/DTD/svg11.dtd" >
<svg>
<metadata>
Created by FontForge 20110222 at Mon Apr 29 07:53:12 2013
 By Orthosie Webmaster
Copyright (c) 2010 Linotype GmbH, www.linotype.com. All rights reserved. This font software may not be reproduced, modified, disclosed or transferred without the express written approval of Linotype GmbH. Univers is a trademark of Linotype Corp. registered in the U.S. Patent and Trademark Office and may be registered in certain other jurisdictions in the name of Linotype Corp. or its licensee Linotype GmbH. This typeface is original artwork of Adrian Frutiger and Linotype Design Studio. The design may be protected in certain jurisdictions.
</metadata>
<defs>
<font id="UniversDeutscheBankItalic" horiz-adv-x="368" >
  <font-face 
    font-family="UniversDeutscheBankItalic"
    font-weight="400"
    font-style="italic"
    font-stretch="normal"
    units-per-em="1000"
    panose-1="2 11 5 3 3 2 2 9 2 3"
    ascent="750"
    descent="-250"
    x-height="504"
    cap-height="723"
    bbox="-181 -214 1124 949"
    underline-thickness="50"
    underline-position="-50"
    slope="-16"
    unicode-range="U+000D-FB04"
  />
<missing-glyph horiz-adv-x="512" 
d="M222 117v67h56v-67h-56zM223 234v17q0 27 3 46.5t10 35t18 29t28 29.5q16 16 26 28t15 22t7 19t2 20q0 36 -22.5 57.5t-53.5 21.5t-53.5 -22t-28.5 -73l-50 8q7 72 44 104.5t91 32.5q27 0 49.5 -9t39 -25t26 -39.5t9.5 -51.5q0 -17 -2.5 -32.5t-9.5 -30.5t-19.5 -30
t-31.5 -33q-16 -14 -25.5 -25t-15 -22t-7 -23.5t-1.5 -29.5v-24h-48zM462 50v617h-412v-617h412zM512 718v-718h-512v718h512z" />
    <glyph glyph-name="IJ" unicode="IJ" horiz-adv-x="853" 
d="M93 0h-94l212 723h94zM711 194q-11 -38 -26.5 -69.5t-36.5 -56.5q-34 -39 -82 -59t-114 -20q-81 0 -129.5 38.5t-48.5 104.5q0 17 2 27t8 27h96q-4 -11 -6 -19.5t-2 -22.5q0 -36 21 -58.5t69 -22.5q76 0 121 65q13 18 23 41t18 49l151 505h93z" />
    <glyph glyph-name="ij" unicode="ij" horiz-adv-x="482" 
d="M251 636h-98l26 87h98zM59 0h-88l147 504h88zM279 -66q-12 -41 -25 -62.5t-33 -37.5q-41 -30 -102 -30q-31 0 -59 3l17 62l16.5 -1.5t13.5 -0.5q36 0 55 19.5t33 65.5l163 552h88zM491 636h-98l26 87h98z" />
    <glyph glyph-name="napostrophe" unicode="&#x22;n" horiz-adv-x="583" 
d="M507 393q0 -23 -7 -53t-14 -53l-85 -287h-88l88 294q7 23 11.5 44t4.5 40q0 32 -20.5 51.5t-58.5 19.5q-65 0 -124 -57q-29 -28 -47.5 -61t-31.5 -76l-76 -255h-88l112 374q9 30 18 64t17 66h88l-22 -82q43 47 87.5 69.5t96.5 22.5q65 0 102 -32.5t37 -88.5zM44 498h-65
l89 225h98z" />
    <glyph glyph-name="f_f" unicode="ff" horiz-adv-x="618" 
d="M395 660q-23 6 -47 6t-40 -6.5t-27 -19.5t-18.5 -32.5t-15.5 -44.5l-18 -59h110l-18 -62h-110l-132 -442h-86l130 442h-103l18 62h103l23 74q13 41 28 70t35 47t47.5 26.5t65.5 8.5q20 0 37.5 -2t37.5 -7zM704 660q-23 6 -47 6t-40 -6.5t-27 -19.5t-18.5 -32.5
t-15.5 -44.5l-18 -59h110l-18 -62h-110l-132 -442h-86l130 442h-103l18 62h103l23 74q13 41 28 70t35 47t47.5 26.5t65.5 8.5q20 0 37.5 -2t37.5 -7z" />
    <glyph glyph-name="fi" unicode="fi" horiz-adv-x="548" 
d="M395 660q-23 6 -47 6t-40 -6.5t-27 -19.5t-18.5 -32.5t-15.5 -44.5l-18 -59h110l-18 -62h-110l-132 -442h-86l130 442h-103l18 62h103l23 74q13 41 28 70t35 47t47.5 26.5t65.5 8.5q20 0 37.5 -2t37.5 -7zM559 636h-98l26 87h98zM367 0h-88l147 504h88z" />
    <glyph glyph-name="fl" unicode="fl" horiz-adv-x="547" 
d="M395 660q-23 6 -47 6t-40 -6.5t-27 -19.5t-18.5 -32.5t-15.5 -44.5l-18 -59h110l-18 -62h-110l-132 -442h-86l130 442h-103l18 62h103l23 74q13 41 28 70t35 47t47.5 26.5t65.5 8.5q20 0 37.5 -2t37.5 -7zM366 0h-88l213 723h87z" />
    <glyph glyph-name="f_f_i" unicode="ffi" horiz-adv-x="858" 
d="M395 660q-23 6 -47 6t-40 -6.5t-27 -19.5t-18.5 -32.5t-15.5 -44.5l-18 -59h110l-18 -62h-110l-132 -442h-86l130 442h-103l18 62h103l23 74q13 41 28 70t35 47t47.5 26.5t65.5 8.5q20 0 37.5 -2t37.5 -7zM704 660q-23 6 -47 6t-40 -6.5t-27 -19.5t-18.5 -32.5
t-15.5 -44.5l-18 -59h110l-18 -62h-110l-132 -442h-86l130 442h-103l18 62h103l23 74q13 41 28 70t35 47t47.5 26.5t65.5 8.5q20 0 37.5 -2t37.5 -7zM869 636h-98l26 87h98zM677 0h-88l147 504h88z" />
    <glyph glyph-name="f_f_l" unicode="ffl" horiz-adv-x="856" 
d="M395 660q-23 6 -47 6t-40 -6.5t-27 -19.5t-18.5 -32.5t-15.5 -44.5l-18 -59h110l-18 -62h-110l-132 -442h-86l130 442h-103l18 62h103l23 74q13 41 28 70t35 47t47.5 26.5t65.5 8.5q20 0 37.5 -2t37.5 -7zM704 660q-23 6 -47 6t-40 -6.5t-27 -19.5t-18.5 -32.5
t-15.5 -44.5l-18 -59h110l-18 -62h-110l-132 -442h-86l130 442h-103l18 62h103l23 74q13 41 28 70t35 47t47.5 26.5t65.5 8.5q20 0 37.5 -2t37.5 -7zM675 0h-88l213 723h87z" />
    <glyph glyph-name=".notdef" horiz-adv-x="512" 
d="M222 117v67h56v-67h-56zM223 234v17q0 27 3 46.5t10 35t18 29t28 29.5q16 16 26 28t15 22t7 19t2 20q0 36 -22.5 57.5t-53.5 21.5t-53.5 -22t-28.5 -73l-50 8q7 72 44 104.5t91 32.5q27 0 49.5 -9t39 -25t26 -39.5t9.5 -51.5q0 -17 -2.5 -32.5t-9.5 -30.5t-19.5 -30
t-31.5 -33q-16 -14 -25.5 -25t-15 -22t-7 -23.5t-1.5 -29.5v-24h-48zM462 50v617h-412v-617h412zM512 718v-718h-512v718h512z" />
    <glyph glyph-name=".null" horiz-adv-x="567" 
 />
    <glyph glyph-name="nonmarkingreturn" unicode="&#xd;" horiz-adv-x="0" 
 />
    <glyph glyph-name="space" unicode=" " horiz-adv-x="290" 
 />
    <glyph glyph-name="exclam" unicode="!" horiz-adv-x="298" 
d="M140 175h-72l145 548h107zM105 0h-100l28 95h99z" />
    <glyph glyph-name="quotedbl" unicode="&#x22;" horiz-adv-x="437" 
d="M328 453h-53l87 270h79zM174 453h-53l87 270h79z" />
    <glyph glyph-name="numbersign" unicode="#" horiz-adv-x="580" 
d="M563 443h-110l-53 -165h105l-17 -67h-110l-69 -211h-74l69 211h-126l-68 -211h-75l69 211h-105l17 67h111l52 165h-105l16 66h111l70 214h74l-69 -214h125l69 214h75l-70 -214h105zM253 443l-52 -165h126l52 165h-126z" />
    <glyph glyph-name="dollar" unicode="$" horiz-adv-x="580" 
d="M579 575q0 -8 -0.5 -13.5t-2.5 -17.5h-90q1 5 1.5 9.5t0.5 9.5q0 71 -79 90l-70 -255q25 -16 49.5 -29t47.5 -32q29 -23 43 -51.5t14 -67.5q0 -60 -23 -103t-60.5 -71t-86 -41.5t-99.5 -13.5l-27 -95h-49l28 98q-35 5 -63.5 16t-52.5 29q-29 23 -43.5 52.5t-16.5 74.5
v15.5t1 14.5h92q-3 -15 -3 -25q0 -42 27.5 -71t78.5 -37l75 274q-19 11 -37.5 21.5t-37.5 23.5q-36 25 -60 58.5t-24 82.5q0 48 21 86t57 64t85 39.5t105 13.5l26 87h48l-27 -91q71 -8 111.5 -46.5t40.5 -98.5zM362 657q-30 -1 -54.5 -8t-44.5 -20q-27 -17 -43 -43t-16 -55
q0 -26 12 -43.5t31 -31.5q12 -9 24 -18.5t25 -17.5zM395 202q0 41 -23 65q-13 14 -27.5 24.5t-30.5 21.5l-70 -254q24 1 46 8.5t42 19.5q29 17 46 47t17 68z" />
    <glyph glyph-name="percent" unicode="%" horiz-adv-x="915" 
d="M847 242q0 -48 -16.5 -96t-45.5 -85q-27 -34 -65 -53t-83 -19q-65 0 -98 36t-33 95q0 50 17 98t48 85q57 68 146 68q64 0 97 -35t33 -94zM252 -24h-66l474 752h65zM410 605q0 -48 -17 -95.5t-47 -85.5q-27 -34 -64.5 -53.5t-82.5 -19.5q-64 0 -97.5 37t-33.5 96
q0 48 16.5 95.5t46.5 83.5q27 33 64.5 51.5t82.5 18.5q63 0 97.5 -35.5t34.5 -92.5zM772 237q0 32 -17 53.5t-50 21.5q-27 0 -50 -17.5t-39.5 -44.5t-26 -61t-9.5 -67q0 -32 17 -52.5t49 -20.5q26 0 48 14.5t39 40.5q20 30 29.5 65.5t9.5 67.5zM335 599q0 32 -17 53t-50 21
q-27 0 -50 -17t-40 -44.5t-26.5 -61t-9.5 -66.5q0 -32 17.5 -52.5t49.5 -20.5q53 0 87 54q20 30 29.5 65.5t9.5 68.5z" />
    <glyph glyph-name="ampersand" unicode="&#x26;" horiz-adv-x="764" 
d="M445 144q-18 23 -38.5 51t-42 57.5t-41.5 57.5t-36 52q-43 -19 -73 -37t-49 -38.5t-27.5 -45t-8.5 -55.5q0 -38 13.5 -62.5t34 -38.5t46 -19t49.5 -5q52 0 96.5 25.5t76.5 57.5zM331 448q34 15 61.5 29.5t47 32.5t30 40t10.5 51q0 20 -8 33.5t-20.5 21.5t-28 11t-30.5 3
q-45 0 -75 -25.5t-30 -84.5q0 -28 12.5 -56.5t30.5 -55.5zM367 393q12 -18 30 -43t37 -50.5t37 -49.5t31 -41q18 22 33 49.5t27 54.5t20 51.5t10 41.5h97q-6 -22 -20 -55.5t-32.5 -70t-40.5 -72t-45 -61.5q11 -14 26 -32t31 -38l32 -40t31 -37h-115q-13 17 -30.5 40
t-34.5 46q-23 -21 -48 -38.5t-54 -31t-62.5 -21t-72.5 -7.5q-42 0 -81.5 9.5t-70 32t-49 58.5t-18.5 90q0 66 28.5 115.5t103.5 86.5q11 5 34 16t48 22q-20 34 -35 70t-15 71q0 50 16.5 83.5t44 54t63.5 29t75 8.5q30 0 60.5 -5.5t55 -20.5t40 -41t15.5 -66q0 -38 -13 -67.5
t-38.5 -54t-63.5 -45t-87 -41.5z" />
    <glyph glyph-name="quotesingle" unicode="'" horiz-adv-x="283" 
d="M174 453h-53l87 270h79z" />
    <glyph glyph-name="parenleft" unicode="(" horiz-adv-x="306" 
d="M359 723q-59 -89 -100 -161t-69 -135.5t-45.5 -122t-27.5 -120.5q-10 -59 -13 -141t-3 -191h-56q-8 78 -11.5 135.5t-3.5 108.5q0 82 13 151t44 140t82.5 151.5t127.5 184.5h62v0z" />
    <glyph glyph-name="parenright" unicode=")" horiz-adv-x="305" 
d="M-80 -148q58 89 99.5 161t69.5 135.5t45 122t28 120.5q10 59 13 141t3 191h56q8 -78 11.5 -135.5t3.5 -108.5q0 -82 -13 -151t-44 -140t-82.5 -151.5t-127.5 -184.5h-62v0z" />
    <glyph glyph-name="asterisk" unicode="*" horiz-adv-x="540" 
d="M501 508l-151 16l82 -124l-65 -36l-53 139l-72 -139l-59 36l97 124l-153 -16l5 72l150 -15l-82 124l64 35l55 -137l70 138l61 -37l-98 -123l152 15z" />
    <glyph glyph-name="plus" unicode="+" horiz-adv-x="673" 
d="M343 212v-212h-79v212h-215v74h215v211h79v-211h215v-74h-215z" />
    <glyph glyph-name="comma" unicode="," horiz-adv-x="290" 
d="M-25 -123h-76l131 218h108z" />
    <glyph glyph-name="hyphen" unicode="-" horiz-adv-x="351" 
d="M272 233h-258l19 65h258z" />
    <glyph glyph-name="period" unicode="." horiz-adv-x="274" 
d="M75 0h-99l28 101h99z" />
    <glyph glyph-name="slash" unicode="/" horiz-adv-x="373" 
d="M-1 -12h-76l471 747h74z" />
    <glyph glyph-name="zero" unicode="0" horiz-adv-x="580" 
d="M551 538q0 -35 -5 -79t-15.5 -92t-27 -97.5t-38.5 -94.5q-20 -40 -44.5 -74t-54.5 -59t-66 -39.5t-79 -14.5q-50 0 -86.5 15t-60.5 41t-35.5 62.5t-11.5 80.5q0 37 7 81.5t19 90t27.5 88t32.5 76.5q23 46 50 84.5t59 66t70.5 43t83.5 15.5q47 0 80.5 -15t54.5 -41.5
t30.5 -62t9.5 -75.5zM462 540q0 64 -25 95t-72 31q-67 0 -113.5 -60t-86.5 -171q-23 -65 -36 -131.5t-13 -122.5q0 -60 28 -92.5t80 -32.5q34 0 61.5 18t49.5 47.5t39.5 67.5t31.5 77q13 36 23.5 74.5t17.5 75.5t11 69t4 55z" />
    <glyph glyph-name="one" unicode="1" horiz-adv-x="580" 
d="M268 0h-91l178 616q-16 -11 -31.5 -20.5t-30.5 -17.5q-31 -17 -61.5 -30t-65.5 -24l24 87q26 11 47.5 20.5t49.5 24.5q16 9 29.5 16.5t25.5 15t23.5 16t25.5 19.5h83z" />
    <glyph glyph-name="two" unicode="2" horiz-adv-x="580" 
d="M559 570q0 -37 -9.5 -69t-26.5 -60t-40 -53t-50 -47q-81 -67 -165.5 -135.5t-168.5 -132.5h345l-19 -73h-469l20 74q44 34 96.5 75.5t105 84t102 83t88.5 74.5q45 39 71 82.5t26 88.5q0 49 -29 75.5t-78 26.5q-43 0 -73 -16.5t-50 -44.5q-23 -33 -32 -78h-92
q15 75 57 125q35 42 86.5 62.5t113.5 20.5q42 0 77 -10.5t60.5 -31t39.5 -51t14 -70.5z" />
    <glyph glyph-name="three" unicode="3" horiz-adv-x="580" 
d="M572 565q0 -51 -22.5 -91.5t-64.5 -68.5q-24 -16 -47.5 -24.5t-55.5 -12.5q57 -17 83.5 -53.5t26.5 -84.5q0 -54 -22 -98.5t-59.5 -76t-89 -49t-109.5 -17.5q-45 0 -84 11.5t-68.5 33.5t-46 53.5t-16.5 71.5q0 10 1 20.5t3 18.5h91q-2 -12 -2 -20v-14q0 -49 35.5 -77.5
t92.5 -28.5q85 0 133 48q23 23 36 56t13 67q0 55 -39 84.5t-99 29.5h-10.5t-13.5 -1l19 69q11 -2 23 -2h19q41 0 74 8.5t57 26.5q25 18 39 47.5t14 64.5q0 53 -33 82.5t-89 29.5q-48 0 -85.5 -20t-59.5 -65q-5 -11 -10.5 -23.5t-11.5 -32.5h-90q9 50 32.5 88.5t58.5 64.5
t78.5 39.5t92.5 13.5q45 0 82.5 -10.5t65 -31.5t43 -52.5t15.5 -73.5z" />
    <glyph glyph-name="four" unicode="4" horiz-adv-x="580" 
d="M420 229h116l-22 -66h-114l-47 -163h-87l47 163h-328l24 83l435 477h116zM84 229h248l119 409z" />
    <glyph glyph-name="five" unicode="5" horiz-adv-x="580" 
d="M564 651h-303l-79 -248q32 36 67.5 50.5t80.5 14.5q41 0 73 -14t54.5 -37.5t34 -54.5t11.5 -65q0 -64 -23 -124.5t-65 -105.5q-37 -39 -87 -59t-110 -20q-45 0 -81.5 10.5t-63 31t-41 49.5t-14.5 65q0 12 1.5 23t5.5 25h93q-4 -12 -5 -21.5t-1 -20.5q0 -43 30.5 -68
t80.5 -25q42 0 74 17t58 49q27 34 42 76t15 84q0 51 -30 83t-84 32q-51 0 -86.5 -24t-58.5 -70h-90l135 419h389z" />
    <glyph glyph-name="six" unicode="6" horiz-adv-x="580" 
d="M578 573q0 -8 -0.5 -18t-1.5 -17h-90q1 8 1 14v14q0 45 -23.5 73.5t-79.5 28.5q-55 0 -100 -41t-79 -113q-13 -28 -23 -55.5t-21 -63.5q39 40 77 58t91 18q41 0 74 -13.5t56.5 -37.5t36 -57.5t12.5 -73.5q0 -63 -22 -120t-59 -99q-35 -40 -84 -60.5t-106 -20.5
q-97 0 -148 60t-51 164q0 40 8 87.5t22 95t32 92.5t39 80q47 81 108.5 123t150.5 42q82 0 131 -43t49 -117zM419 285q0 52 -30 86.5t-84 34.5q-41 0 -74 -17t-56 -46.5t-36 -69.5t-13 -85q0 -63 32 -98t86 -35q35 0 66 17t53 46q27 35 41.5 79t14.5 88z" />
    <glyph glyph-name="seven" unicode="7" horiz-adv-x="580" 
d="M575 646l-442 -646h-108l455 649h-367l22 74h462z" />
    <glyph glyph-name="eight" unicode="8" horiz-adv-x="580" 
d="M582 571q0 -51 -25 -94.5t-66 -71.5q-21 -14 -43.5 -23t-54.5 -14q49 -17 77 -49.5t28 -88.5q0 -55 -21.5 -100t-58.5 -76.5t-86 -48.5t-104 -17q-50 0 -91 12t-70.5 35t-46 57t-16.5 78q0 46 17.5 83t46.5 65t68 45t81 22q-43 17 -70.5 49.5t-27.5 87.5q0 47 19.5 86
t54 66.5t81.5 43t101 15.5q45 0 83 -11t65.5 -32t43 -51t15.5 -68zM495 560q0 50 -34 80t-90 30q-36 0 -66 -11.5t-52 -31.5t-34 -47t-12 -59q0 -51 34.5 -83.5t90.5 -32.5q33 0 62.5 11.5t52 32t35.5 49t13 62.5zM408 225q0 53 -33.5 84.5t-97.5 31.5q-40 0 -73.5 -11.5
t-58 -33.5t-38 -52.5t-13.5 -67.5q0 -54 36.5 -88t99.5 -34q39 0 72 13.5t56.5 37t36.5 54.5t13 66z" />
    <glyph glyph-name="nine" unicode="9" horiz-adv-x="580" 
d="M554 529q0 -36 -6.5 -79t-18.5 -88.5t-27.5 -90.5t-33.5 -84q-45 -99 -109 -148t-159 -49q-44 0 -79.5 11t-61.5 31t-40 48t-14 61q0 24 3 47h91q-2 -13 -2.5 -19.5t-0.5 -14.5q0 -44 29 -70t83 -26t92.5 29t71.5 92q19 35 34.5 75t29.5 91q-35 -38 -74.5 -56.5
t-91.5 -18.5q-40 0 -73 13.5t-57 37.5t-37 57.5t-13 74.5q0 61 20.5 112.5t56 88.5t83.5 58t104 21q100 0 150 -54.5t50 -149.5zM468 547q0 54 -31.5 87.5t-85.5 33.5q-35 0 -66.5 -16t-54.5 -43q-25 -30 -39 -69.5t-14 -79.5q0 -54 30 -89.5t87 -35.5q35 0 65.5 15t52.5 41
q26 31 41 72.5t15 83.5z" />
    <glyph glyph-name="colon" unicode=":" horiz-adv-x="290" 
d="M208 403h-99l29 101h99zM89 0h-99l28 101h100z" />
    <glyph glyph-name="semicolon" unicode=";" horiz-adv-x="289" 
d="M208 403h-98l28 101h99zM-25 -123h-75l131 218h108z" />
    <glyph glyph-name="less" unicode="&#x3c;" horiz-adv-x="673" 
d="M49 209v78l509 201v-79l-416 -162l416 -159v-79z" />
    <glyph glyph-name="equal" unicode="=" horiz-adv-x="673" 
d="M49 310v72h509v-72h-509zM49 114v72h509v-72h-509z" />
    <glyph glyph-name="greater" unicode="&#x3e;" horiz-adv-x="673" 
d="M49 9v79l416 159l-416 162v79l509 -201v-78z" />
    <glyph glyph-name="question" unicode="?" horiz-adv-x="522" 
d="M172 0h-100l29 95h99zM520 596q0 -68 -44.5 -121.5t-124.5 -112.5l-61 -45q-25 -18 -38 -37t-21 -43q-4 -11 -8.5 -26.5t-9.5 -35.5h-76q11 42 21.5 74.5t19.5 47.5q7 12 15 23t21 23.5t32 28t48 36.5q34 25 59 47t40.5 42t23 40.5t7.5 44.5q0 45 -31.5 64t-80.5 19
q-57 0 -120 -20l21 73q68 16 123 16q40 0 74 -8t58.5 -25t38 -43t13.5 -62z" />
    <glyph glyph-name="at" unicode="@" horiz-adv-x="988" 
d="M932 415q0 -59 -17.5 -116t-50 -102t-79 -72.5t-104.5 -27.5q-45 0 -71 17.5t-33 46.5q-2 8 -3 16t1 19q-29 -45 -73.5 -72.5t-98.5 -27.5q-68 0 -101 37t-33 93q0 35 9 70.5t26 69.5q16 31 38 58.5t50 47t60.5 31t70.5 11.5q49 0 77.5 -24t33.5 -64l29 79h74l-91 -255
q-5 -16 -8 -27.5t-3 -22.5q0 -23 16 -34t43 -11q37 0 68.5 23t55 60t37 83t13.5 92q0 123 -79 195t-235 72q-90 0 -173 -35.5t-146.5 -97.5t-101.5 -146t-38 -181q0 -69 22.5 -123.5t64.5 -92.5t102 -58t136 -20q68 0 133 16.5t116 44.5l24 -50q-57 -33 -130.5 -52
t-148.5 -19q-87 0 -158 24.5t-121 70t-77.5 110.5t-27.5 147q0 105 41 199t112.5 164.5t168.5 112t209 41.5q88 0 157 -22t116.5 -63.5t72.5 -101t25 -133.5zM590 301q7 20 12 40.5t5 40.5q0 33 -19 55.5t-61 22.5q-26 0 -50 -10.5t-44.5 -29t-37 -43t-28.5 -52.5
q-9 -23 -15 -47.5t-6 -47.5q0 -32 18 -54.5t62 -22.5q28 0 52.5 11.5t45.5 31.5t37.5 47t28.5 58z" />
    <glyph glyph-name="A" unicode="A" horiz-adv-x="692" 
d="M512 0l-21 191h-351l-127 -191h-103l498 723h105l90 -723h-91zM443 646l-257 -385h296z" />
    <glyph glyph-name="B" unicode="B" horiz-adv-x="665" 
d="M637 572q0 -49 -19.5 -89.5t-54.5 -66.5q-43 -33 -111 -45q54 -16 85 -50t31 -89q0 -60 -30 -110t-80 -81q-35 -22 -78.5 -31.5t-108.5 -9.5h-272l212 723h226q57 0 92.5 -9.5t60.5 -30.5q47 -41 47 -111zM474 238q0 45 -31 72t-88 27h-165l-77 -264h167q51 0 81.5 9
t56.5 32t41 56t15 68zM544 559q0 61 -50 81q-12 5 -31.5 7.5t-46.5 2.5h-134l-72 -244h136q88 0 140 39q27 20 42.5 49.5t15.5 64.5z" />
    <glyph glyph-name="C" unicode="C" horiz-adv-x="665" 
d="M681 563q0 -11 -1 -19t-3 -21h-99q2 14 2.5 21t0.5 15q0 48 -36 75t-95 27q-63 0 -117 -32t-96 -92q-47 -67 -73.5 -148t-26.5 -161q0 -32 9.5 -62t30 -53t51.5 -37t75 -14q38 0 71 12.5t59 36.5q30 27 49 71h101q-23 -70 -76 -118q-41 -37 -93.5 -55.5t-113.5 -18.5
q-67 0 -116.5 19t-82 51.5t-48.5 75.5t-16 92q0 47 9.5 98t27.5 100t44 94.5t59 81.5q57 63 126.5 97t155.5 34q51 0 92 -11.5t70 -33.5t44.5 -53.5t15.5 -71.5z" />
    <glyph glyph-name="D" unicode="D" horiz-adv-x="750" 
d="M716 477q0 -69 -17.5 -137t-49.5 -128q-33 -65 -84 -112t-115 -71q-39 -15 -88.5 -22t-112.5 -7h-250l213 723h211q63 0 116.5 -14t92.5 -43.5t61.5 -76t22.5 -112.5zM618 470q0 52 -16.5 86.5t-45.5 55.5t-70 29.5t-89 8.5h-113l-169 -577h122q26 0 44.5 0.5t33.5 2
t28 3.5t27 6q63 17 107.5 52.5t77.5 97.5q29 54 46 116t17 119z" />
    <glyph glyph-name="E" unicode="E" horiz-adv-x="619" 
d="M641 649h-357l-72 -241h340l-21 -71h-339l-78 -263h370l-22 -74h-463l212 723h453z" />
    <glyph glyph-name="F" unicode="F" horiz-adv-x="575" 
d="M615 649h-331l-73 -242h316l-20 -72h-316l-99 -335h-93l212 723h426z" />
    <glyph glyph-name="G" unicode="G" horiz-adv-x="708" 
d="M681 564q0 -23 -4 -39h-100q3 16 3 34q0 48 -35.5 75.5t-95.5 27.5q-63 0 -114.5 -29.5t-94.5 -86.5q-50 -67 -77 -149.5t-27 -159.5q0 -83 47 -127q50 -47 149 -47q35 0 67.5 5t70.5 18l64 217h-169l20 70h260l-100 -342q-58 -21 -111.5 -31t-119.5 -10q-67 0 -120.5 19
t-90.5 55q-32 32 -49 74t-17 96q0 48 9.5 97t27 96t41.5 90t54 79q58 71 130.5 104.5t163.5 33.5q47 0 87 -10.5t69 -32t45.5 -53.5t16.5 -74z" />
    <glyph glyph-name="H" unicode="H" horiz-adv-x="768" 
d="M556 0h-94l99 336h-369l-99 -336h-94l212 723h94l-92 -314h370l92 314h94z" />
    <glyph glyph-name="I" unicode="I" horiz-adv-x="304" 
d="M93 0h-94l212 723h94z" />
    <glyph glyph-name="J" unicode="J" horiz-adv-x="549" 
d="M407 194q-11 -38 -26.5 -69.5t-36.5 -56.5q-34 -39 -82 -59t-114 -20q-81 0 -129.5 38.5t-48.5 104.5q0 17 2 27t8 27h96q-4 -11 -6 -19.5t-2 -22.5q0 -36 21 -58.5t69 -22.5q76 0 121 65q13 18 23 41t18 49l151 505h93z" />
    <glyph glyph-name="K" unicode="K" horiz-adv-x="648" 
d="M313 385l245 -385h-115l-231 395l383 328h124zM93 0h-94l212 723h94z" />
    <glyph glyph-name="L" unicode="L" horiz-adv-x="541" 
d="M444 0h-445l211 723h94l-190 -649h351z" />
    <glyph glyph-name="M" unicode="M" horiz-adv-x="977" 
d="M765 0h-92l194 655l-441 -655h-89l-57 655l-191 -655h-90l213 723h143l53 -616l412 616h159z" />
    <glyph glyph-name="N" unicode="N" horiz-adv-x="790" 
d="M577 0h-129l-170 641l-185 -641h-90l211 723h129l172 -643l186 643h90z" />
    <glyph glyph-name="O" unicode="O" horiz-adv-x="758" 
d="M724 486q0 -45 -9 -90t-24 -88.5t-35.5 -82.5t-43.5 -72q-56 -77 -130.5 -121t-179.5 -44q-60 0 -109 17t-83.5 49t-53.5 78t-19 105q0 92 32 182t86 162q54 70 129 110.5t178 40.5q61 0 109.5 -17t82.5 -49t52 -77.5t18 -102.5zM626 480q0 82 -43.5 131t-129.5 49
q-78 0 -138 -41t-105 -116q-18 -30 -32 -63.5t-24 -68t-15.5 -68t-5.5 -62.5q0 -40 12 -73t34.5 -57t55.5 -37t75 -13q61 0 114.5 30t95.5 83q51 66 78.5 147t27.5 159z" />
    <glyph glyph-name="P" unicode="P" horiz-adv-x="631" 
d="M645 560q0 -67 -34 -121t-93 -86q-37 -20 -80.5 -28.5t-109.5 -8.5h-144l-92 -316h-93l212 723h220q48 0 85 -7.5t63 -24.5q32 -20 49 -53t17 -78zM550 555q0 60 -46 81q-28 14 -96 14h-124l-78 -264h120q53 0 88 8.5t62 25.5q32 21 53 57t21 78z" />
    <glyph glyph-name="Q" unicode="Q" horiz-adv-x="758" 
d="M724 487q0 -43 -8.5 -87.5t-24.5 -88.5t-38 -85.5t-50 -77.5q-21 -28 -44.5 -49t-52.5 -41q22 5 42.5 8t45.5 5l87 4l-25 -75h-129q-39 0 -78 -1t-81 -5q-31 -3 -44 -3.5t-29 -0.5q-60 0 -108 17.5t-81.5 49.5t-51 77t-17.5 101q0 46 8.5 92.5t24 91t37.5 86t49 77.5
q58 75 134.5 112.5t168.5 37.5q127 0 196 -66t69 -179zM626 481q0 83 -43 131.5t-131 48.5q-77 0 -137.5 -41t-105.5 -117q-18 -30 -32 -63.5t-23.5 -68t-15 -68t-5.5 -62.5q0 -81 47 -130.5t131 -49.5q61 0 114.5 30t94.5 83q51 66 78.5 147.5t27.5 159.5z" />
    <glyph glyph-name="R" unicode="R" horiz-adv-x="677" 
d="M649 570q0 -54 -25.5 -96t-67.5 -68q-27 -17 -55 -26t-61 -14q47 -10 69 -32.5t22 -68.5q0 -22 -2.5 -44.5t-4.5 -45.5q-3 -26 -5 -53t-2 -53q0 -15 0.5 -32t2.5 -37h-95q-2 14 -2 23.5v20.5q0 28 3 58.5t7 62.5q2 23 4 44.5t2 41.5q0 27 -7 44t-24 28q-7 4 -13.5 6.5
t-14.5 4t-19.5 2t-27.5 0.5h-142l-98 -336h-94l212 723h217q86 0 135 -20q40 -17 63 -51t23 -82zM555 554q0 61 -56 84q-30 12 -82 12h-134l-72 -247h146q48 0 80.5 8.5t59.5 28.5t42.5 50t15.5 64z" />
    <glyph glyph-name="S" unicode="S" horiz-adv-x="622" 
d="M618 582q0 -9 -1.5 -22t-3.5 -24h-93q4 19 4 35q0 45 -34.5 69t-93.5 24q-36 0 -67.5 -10t-55 -27.5t-37.5 -42t-14 -53.5q0 -23 8 -40t22 -30.5t32.5 -24.5t39.5 -21l63 -30q33 -16 59 -32t44 -35t27.5 -42t9.5 -53q0 -51 -23 -96t-61 -76q-78 -62 -217 -62
q-108 0 -167.5 42t-59.5 121q0 30 10 64h93q-6 -18 -9 -30t-3 -26q0 -29 12.5 -49t33 -32t46 -17.5t51.5 -5.5q93 0 144 44q23 20 36.5 47t13.5 57q0 42 -29 69.5t-86 53.5l-61 28q-59 27 -92.5 64.5t-33.5 101.5q0 48 22 87t60 66t90 42t111 15q99 0 154.5 -40t55.5 -109z
" />
    <glyph glyph-name="T" unicode="T" horiz-adv-x="531" 
d="M622 648h-230l-192 -648h-94l192 648h-230l22 75h553z" />
    <glyph glyph-name="U" unicode="U" horiz-adv-x="752" 
d="M637 285q-11 -35 -23 -68.5t-26 -60.5q-43 -83 -119.5 -125t-183.5 -42q-111 0 -173.5 52.5t-62.5 149.5q0 33 8 71t18 70l116 391h95l-126 -430q-10 -32 -14 -55t-4 -43q0 -61 40 -97.5t118 -36.5q64 0 113.5 26.5t79.5 75.5q20 33 34.5 72.5t25.5 78.5l120 409h94z" />
    <glyph glyph-name="V" unicode="V" horiz-adv-x="649" 
d="M264 0h-109l-55 723h93l42 -628l404 628h107z" />
    <glyph glyph-name="W" unicode="W" horiz-adv-x="1054" 
d="M736 0h-120l-26 611l-354 -611h-122l2 723h95l-12 -631l362 631h105l30 -632l324 632h104z" />
    <glyph glyph-name="X" unicode="X" horiz-adv-x="623" 
d="M365 374l164 -374h-101l-132 318l-282 -318h-117l361 386l-146 337h100l116 -284l246 284h118z" />
    <glyph glyph-name="Y" unicode="Y" horiz-adv-x="580" 
d="M325 300l-88 -300h-94l92 309l-166 414h100l129 -346l285 346h111z" />
    <glyph glyph-name="Z" unicode="Z" horiz-adv-x="574" 
d="M619 651l-560 -577h440l-24 -74h-542l18 78l553 571h-398l23 74h509z" />
    <glyph glyph-name="bracketleft" unicode="[" horiz-adv-x="305" 
d="M349 670h-100l-225 -764h101l-16 -54h-174l257 871h174z" />
    <glyph glyph-name="backslash" unicode="\" horiz-adv-x="373" 
d="M271 -12l-241 747h73l245 -747h-77z" />
    <glyph glyph-name="bracketright" unicode="]" horiz-adv-x="306" 
d="M79 -148h-174l16 54h100l224 764h-101l16 53h173z" />
    <glyph glyph-name="asciicircum" unicode="^" horiz-adv-x="673" 
d="M462 303l-159 333l-157 -333h-82l206 420h67l206 -420h-81z" />
    <glyph glyph-name="underscore" unicode="_" horiz-adv-x="517" 
d="M1 -125v50h500v-50h-500z" />
    <glyph glyph-name="grave" unicode="`" horiz-adv-x="266" 
d="M186 591l-98 145h102l54 -145h-58z" />
    <glyph glyph-name="a" unicode="a" horiz-adv-x="537" 
d="M463 394q0 -20 -4.5 -44t-12.5 -54q-3 -9 -7.5 -25t-9.5 -33t-10 -33t-8 -25q-6 -20 -12.5 -43t-12.5 -47q-5 -23 -9.5 -46t-8.5 -44h-84q0 5 3 25t9 46q-39 -42 -83.5 -61t-92.5 -19q-31 0 -57.5 8t-46 23.5t-30.5 39t-11 54.5q0 54 29 93.5t78 62.5q32 15 73 22.5
t101 11.5q20 2 49.5 2.5t58.5 0.5l7 26q7 27 7 49q0 35 -22.5 55t-70.5 20q-51 0 -83 -23t-42 -65h-87q6 35 24 62t46.5 45t66.5 27t82 9q78 0 124.5 -30t46.5 -90zM349 256q-49 -2 -84 -4.5t-60 -6.5t-42.5 -10t-32.5 -13q-30 -15 -48 -40.5t-18 -56.5q0 -38 22.5 -57.5
t63.5 -19.5q45 0 80.5 25.5t61.5 60.5q11 15 20.5 32.5t20.5 44.5z" />
    <glyph glyph-name="b" unicode="b" horiz-adv-x="588" 
d="M526 339q0 -67 -21.5 -130.5t-59.5 -112.5q-41 -51 -93 -78t-112 -27q-54 0 -94.5 24t-61.5 75l-28 -90h-86q2 6 7.5 24t12 39t12 38.5t6.5 22.5l178 599h88l-88 -291q41 47 87.5 65t88.5 18q41 0 71.5 -13t51 -36.5t31 -55.5t10.5 -71zM438 326q0 57 -26.5 91.5
t-77.5 34.5q-48 0 -91.5 -27.5t-73.5 -81.5q-23 -42 -37 -88t-14 -89q0 -50 31 -82.5t84 -32.5q46 0 84.5 24.5t67.5 70.5q25 38 39 87t14 93z" />
    <glyph glyph-name="c" unicode="c" horiz-adv-x="526" 
d="M488 389q0 -12 -1.5 -24.5t-6.5 -32.5h-86q7 27 7 46q0 38 -23 58.5t-68 20.5q-53 0 -96.5 -31t-73.5 -83q-23 -39 -37 -86t-14 -90q0 -54 29 -85.5t86 -31.5q54 0 91.5 29t54.5 79h90q-26 -78 -89.5 -122.5t-155.5 -44.5q-94 0 -144.5 48.5t-50.5 128.5q0 74 29 143.5
t80 119.5q43 43 94.5 63t114.5 20q37 0 68.5 -8t54 -24t35 -39.5t12.5 -53.5z" />
    <glyph glyph-name="d" unicode="d" horiz-adv-x="596" 
d="M448 122q-14 -48 -29 -122h-86l15 71q-41 -43 -82.5 -61.5t-95.5 -18.5q-81 0 -125.5 49t-44.5 131q0 36 7.5 72.5t21.5 71t33.5 65.5t44.5 56q38 38 86 59t103 21q56 0 95 -24t58 -73l91 304h87zM416 343q0 54 -29.5 82.5t-83.5 28.5q-89 0 -150 -87q-30 -43 -46 -92.5
t-16 -100.5q0 -54 28 -87t82 -33t96 30.5t71 84.5q21 39 34.5 86.5t13.5 87.5z" />
    <glyph glyph-name="e" unicode="e" horiz-adv-x="540" 
d="M481 362q0 -30 -5.5 -60t-18.5 -65h-358q-12 -42 -12 -79q0 -52 27 -81t84 -29q53 0 86.5 25t59.5 77h91q-67 -161 -235 -161q-93 0 -146.5 45t-53.5 120q0 36 8 74t22.5 75t35 70t45.5 59q41 43 91 63.5t107 20.5q78 0 125 -40t47 -114zM395 359q0 42 -22 69t-71 27
q-85 0 -140 -73q-14 -18 -24.5 -40t-20.5 -48h267q7 23 9 35.5t2 29.5z" />
    <glyph glyph-name="f" unicode="f" horiz-adv-x="309" 
d="M395 660q-23 6 -47 6t-40 -6.5t-27 -19.5t-18.5 -32.5t-15.5 -44.5l-18 -59h110l-18 -62h-110l-132 -442h-86l130 442h-103l18 62h103l23 74q13 41 28 70t35 47t47.5 26.5t65.5 8.5q20 0 37.5 -2t37.5 -7z" />
    <glyph glyph-name="g" unicode="g" horiz-adv-x="586" 
d="M412 33q-21 -72 -43.5 -115.5t-52.5 -70.5q-32 -29 -78.5 -41t-107.5 -12q-42 0 -76 8t-57 24t-38 43.5t-15 58.5q0 14 2 24h89q-1 -5 -1 -9.5v-9.5q1 -42 27 -61t76 -19q34 0 59.5 7t44.5 20.5t33 33.5t26 46q14 29 23 58.5t19 59.5q-31 -35 -72.5 -56t-94.5 -21
q-79 0 -125 49t-46 130q0 61 20 117.5t53 101.5q39 53 92.5 85t113.5 32q57 0 98 -24t58 -74l25 86h88zM409 329q0 54 -30 88.5t-84 34.5q-45 0 -84 -25.5t-66 -67.5q-23 -36 -36 -81.5t-13 -93.5q0 -52 28 -86t82 -34q42 0 78 19.5t61 54.5q15 21 27 45t20 49.5t12.5 50.5
t4.5 46z" />
    <glyph glyph-name="h" unicode="h" horiz-adv-x="583" 
d="M507 393q0 -24 -7 -53.5t-14 -52.5l-85 -287h-88l88 294q5 17 10.5 41t5.5 42q0 34 -20.5 53t-58.5 19q-34 0 -64.5 -15t-59.5 -42q-29 -28 -47.5 -60.5t-31.5 -76.5l-76 -255h-88l213 723h89l-89 -301q43 47 87.5 69.5t96.5 22.5q65 0 102 -32.5t37 -88.5z" />
    <glyph glyph-name="i" unicode="i" horiz-adv-x="240" 
d="M251 636h-98l26 87h98zM59 0h-88l147 504h88z" />
    <glyph glyph-name="j" unicode="j" horiz-adv-x="242" 
d="M39 -66q-12 -41 -25 -62.5t-33 -37.5q-41 -30 -102 -30q-31 0 -59 3l17 62l16.5 -1.5t13.5 -0.5q36 0 55 19.5t33 65.5l163 552h88zM251 636h-98l26 87h98z" />
    <glyph glyph-name="k" unicode="k" horiz-adv-x="519" 
d="M239 281l186 -281h-105l-176 287l277 217h115zM57 0h-86l213 723h87z" />
    <glyph glyph-name="l" unicode="l" horiz-adv-x="240" 
d="M59 0h-88l213 723h87z" />
    <glyph glyph-name="m" unicode="m" horiz-adv-x="907" 
d="M831 395q0 -26 -6.5 -53.5t-14.5 -52.5l-87 -289h-88l87 289q6 20 11 46.5t5 43.5q0 32 -18 51.5t-53 19.5q-42 0 -82 -24t-69 -64q-15 -21 -30 -55t-27 -76l-69 -231h-87l85 286q6 20 12.5 46.5t6.5 46.5q0 28 -17 49.5t-55 21.5q-33 0 -64 -15.5t-57 -41.5t-46 -60.5
t-32 -73.5l-77 -259h-88q1 6 6.5 24.5t13.5 44.5t17.5 57t18.5 63q22 74 50 164q13 42 21.5 77.5t18.5 73.5h86l-23 -89q45 52 92 75.5t101 23.5q53 0 87 -27t36 -81q42 54 92 81t106 27q36 0 61.5 -9.5t42.5 -25.5t25 -37.5t8 -46.5z" />
    <glyph glyph-name="n" unicode="n" horiz-adv-x="583" 
d="M507 393q0 -23 -7 -53t-14 -53l-85 -287h-88l88 294q7 23 11.5 44t4.5 40q0 32 -20.5 51.5t-58.5 19.5q-65 0 -124 -57q-29 -28 -47.5 -61t-31.5 -76l-76 -255h-88l112 374q9 30 18 64t17 66h88l-22 -82q43 47 87.5 69.5t96.5 22.5q65 0 102 -32.5t37 -88.5z" />
    <glyph glyph-name="o" unicode="o" horiz-adv-x="570" 
d="M510 337q0 -66 -22 -129t-59 -113q-38 -52 -95.5 -78.5t-131.5 -26.5q-98 0 -150 50t-52 135q0 69 23.5 132.5t65.5 110.5q44 50 100 74t122 24q94 0 146.5 -48.5t52.5 -130.5zM419 333q0 60 -29 91.5t-89 31.5q-51 0 -91 -27.5t-70 -77.5q-25 -42 -38 -89t-13 -91
q0 -57 32.5 -89t89.5 -32q54 0 96.5 30t69.5 87q20 40 31 84t11 82z" />
    <glyph glyph-name="p" unicode="p" horiz-adv-x="588" 
d="M526 334q0 -66 -21 -129.5t-59 -111.5q-41 -51 -92 -77t-111 -26q-54 0 -95.5 24t-62.5 76l-84 -279h-87l168 559q9 28 14 46t9 31.5t7 26t8 30.5h87l-18 -65q44 42 85.5 59t86.5 17q43 0 74 -13.5t51 -37.5t30 -57.5t10 -72.5zM438 325q0 58 -24.5 92.5t-78.5 34.5
q-49 0 -92.5 -27.5t-73.5 -81.5q-23 -42 -37 -88t-14 -89q0 -50 31.5 -83t84.5 -33q46 0 84 24.5t67 71.5q25 38 39 87t14 92z" />
    <glyph glyph-name="q" unicode="q" horiz-adv-x="604" 
d="M567 504q-5 -13 -11.5 -33t-13 -41t-12.5 -40.5l-10 -32.5l-164 -546h-88l78 256q-40 -41 -80.5 -58.5t-93.5 -17.5q-81 0 -125.5 49t-44.5 131q0 36 7.5 72.5t21.5 71t33.5 65.5t44.5 56q38 38 86.5 59t102.5 21q56 0 95 -24t58 -73l27 85h89zM418 340q0 54 -29.5 84
t-83.5 30q-45 0 -83 -22.5t-68 -65.5q-30 -44 -45.5 -92.5t-15.5 -99.5q0 -54 28 -87t82 -33t96 30t71 84q21 39 34.5 85.5t13.5 86.5z" />
    <glyph glyph-name="r" unicode="r" horiz-adv-x="377" 
d="M358 429q-10 3 -20.5 4t-21.5 1q-65 0 -110.5 -45t-71.5 -132l-77 -257h-86l114 394q7 23 12.5 47.5t14.5 62.5h84l-23 -92q38 52 80 75.5t93 23.5h16t17 -2z" />
    <glyph glyph-name="s" unicode="s" horiz-adv-x="461" 
d="M338 366v5q0 42 -23 64.5t-71 22.5q-46 0 -77.5 -21t-31.5 -56q0 -25 17 -41t50 -32l58 -27q24 -11 44 -22.5t34.5 -26t22.5 -33.5t8 -45q0 -41 -18 -71.5t-48 -51t-70.5 -31t-85.5 -10.5q-34 0 -67 8.5t-59 26.5t-42 46t-16 67v15h85v-9q0 -42 28.5 -68.5t82.5 -26.5
q24 0 46 6t39 17.5t27 28.5t10 38q0 26 -13.5 43t-45.5 31l-66 30q-56 25 -81.5 52t-25.5 71q0 36 16 63.5t44 47t65.5 29.5t79.5 10q81 0 126 -35t45 -105v-10h-87z" />
    <glyph glyph-name="t" unicode="t" horiz-adv-x="322" 
d="M327 442h-120l-81 -276q-13 -42 -13 -62t13.5 -31.5t42.5 -11.5q16 0 28 1.5t29 5.5l-17 -62q-23 -5 -37.5 -7.5t-35.5 -2.5q-113 0 -113 90q0 17 3.5 35t11.5 46l83 275h-104l19 62h103l27 93l99 42l-39 -135h120z" />
    <glyph glyph-name="u" unicode="u" horiz-adv-x="581" 
d="M426 130q-11 -36 -19 -67t-16 -63h-88l21 82q-43 -47 -87 -69.5t-96 -22.5q-66 0 -102.5 32.5t-36.5 88.5q0 23 7 53t14 53l85 287h87l-87 -294q-5 -19 -10.5 -42.5t-5.5 -42.5q0 -32 19 -51t59 -19q66 0 125 57q29 28 47.5 62.5t30.5 74.5l77 255h88z" />
    <glyph glyph-name="v" unicode="v" horiz-adv-x="509" 
d="M188 0h-94l-63 504h93l36 -428l270 428h100z" />
    <glyph glyph-name="w" unicode="w" horiz-adv-x="849" 
d="M535 0h-90l-8 415l-264 -415h-99l-35 504h93l11 -420l264 420h102l5 -413l252 413h102z" />
    <glyph glyph-name="x" unicode="x" horiz-adv-x="497" 
d="M267 255l119 -255h-93l-89 204l-187 -204h-106l255 263l-117 241h100l80 -189l174 189h107z" />
    <glyph glyph-name="y" unicode="y" horiz-adv-x="506" 
d="M203 -7l-107 -182h-91l116 185l-94 509h95l58 -418l254 417h93z" />
    <glyph glyph-name="z" unicode="z" horiz-adv-x="445" 
d="M421 440l-356 -379h294l-19 -61h-395l17 66l358 377h-277l18 61h379z" />
    <glyph glyph-name="braceleft" unicode="{" horiz-adv-x="371" 
d="M448 676q-64 -3 -104 -37q-25 -21 -40.5 -53t-27 -67.5t-22 -71.5t-25.5 -66q-23 -45 -56 -68t-92 -28q41 -10 65 -34q25 -25 25 -64q0 -22 -6 -46q-11 -43 -25.5 -87.5t-14.5 -85.5q0 -18 7.5 -31t20 -21.5t29.5 -12.5t36 -5l-14 -47q-25 0 -51.5 5.5t-48.5 19t-36 35
t-14 54.5q0 29 7 58t16 57t16 54.5t7 50.5q0 19 -8.5 33.5t-22.5 23.5t-32 14t-37 7l14 49q88 6 128 52q13 15 24.5 40.5t21.5 54.5t18.5 58t16.5 50q20 55 48.5 86.5t78.5 50.5q44 16 111 19z" />
    <glyph glyph-name="bar" unicode="|" horiz-adv-x="251" 
d="M87 -214v1000h76v-1000h-76z" />
    <glyph glyph-name="braceright" unicode="}" horiz-adv-x="371" 
d="M-109 -102q64 3 104 37q25 21 40.5 53t27 67.5t22 71.5t25.5 66q23 45 56 68t92 28q-41 10 -65 34q-25 25 -25 64q0 22 6 46q11 43 25.5 87.5t14.5 85.5q0 18 -7.5 31t-20.5 21t-29.5 12.5t-35.5 5.5l14 47q25 0 51.5 -5.5t48.5 -19t36 -35t14 -54.5q0 -29 -7 -58
t-16 -57t-16 -54.5t-7 -50.5q0 -20 8.5 -34t22.5 -23t32 -14.5t37 -6.5l-14 -49q-88 -6 -128 -52q-13 -15 -24.5 -40.5t-21.5 -54.5t-18.5 -58t-16.5 -50q-20 -55 -48.5 -86.5t-78.5 -50.5q-44 -16 -111 -19z" />
    <glyph glyph-name="asciitilde" unicode="~" horiz-adv-x="673" 
d="M568 325q-3 -28 -11.5 -54.5t-23.5 -47.5t-38 -33.5t-54 -12.5q-32 0 -68 10.5t-73 24.5q-38 14 -72.5 25t-61.5 11q-33 0 -52 -22.5t-24 -53.5h-52q4 28 12.5 54.5t24 47.5t38.5 33.5t55 12.5t67.5 -10.5t72.5 -24.5q36 -14 70.5 -24.5t62.5 -10.5q35 0 52.5 21.5
t23.5 53.5h51v0z" />
    <glyph glyph-name="uni00A0" unicode="&#xa0;" horiz-adv-x="290" 
 />
    <glyph glyph-name="exclamdown" unicode="&#xa1;" horiz-adv-x="298" 
d="M229 431h-99l28 95h100zM50 -197h-107l179 548h72z" />
    <glyph glyph-name="cent" unicode="&#xa2;" horiz-adv-x="580" 
d="M450 495q33 -15 51.5 -41.5t18.5 -64.5q0 -12 -1.5 -24.5t-6.5 -32.5h-86q7 27 7 46q0 26 -4 38.5t-12 20.5l-218 -382q10 -3 17.5 -4t19.5 -1q54 0 91.5 29t54.5 79h90q-26 -78 -89.5 -122.5t-155.5 -44.5q-17 0 -32.5 2t-29.5 5l-52 -91h-53l61 106q-44 22 -66.5 61.5
t-22.5 93.5q0 74 29 143.5t80 119.5q43 43 94.5 63t114.5 20q14 0 27 -1.5t26 -3.5l51 89h55zM372 454q-8 2 -13.5 2.5t-16.5 0.5q-54 0 -97 -31t-73 -83q-23 -39 -37 -86t-14 -90q0 -32 8.5 -54.5t28.5 -37.5z" />
    <glyph glyph-name="sterling" unicode="&#xa3;" horiz-adv-x="580" 
d="M618 589q0 -4 -1 -15.5t-2 -15.5h-90q3 13 3 22q0 38 -27 62.5t-72 24.5q-31 0 -56.5 -12.5t-46 -34.5t-35.5 -51.5t-26 -63.5l-25 -77h160l-19 -66h-159l-85 -292h318l-21 -70h-472l20 70h62l84 292h-78l20 66h75q18 61 40.5 116.5t56 97.5t80.5 67t113 25q50 0 92 -17
t65 -48q12 -16 18.5 -35t7.5 -45z" />
    <glyph glyph-name="currency" unicode="&#xa4;" horiz-adv-x="580" 
d="M538 549l-68 -68q18 -26 28.5 -58t10.5 -67q0 -71 -39 -127l68 -67l-53 -53l-68 68q-26 -19 -58.5 -29t-68.5 -10q-72 0 -128 39l-67 -68l-53 53l68 67q-39 56 -39 127q0 35 10 67t29 58l-68 68l53 53l68 -68q26 18 58.5 28.5t68.5 10.5t68 -10.5t59 -28.5l68 68z
M429 356q0 31 -10.5 57t-29.5 45.5t-44 30.5t-55 11q-29 0 -54.5 -11t-44.5 -30.5t-29.5 -45.5t-10.5 -57t10.5 -57.5t29.5 -46t44.5 -30.5t54.5 -11q30 0 55 11t44 30.5t29.5 46t10.5 57.5z" />
    <glyph glyph-name="yen" unicode="&#xa5;" horiz-adv-x="580" 
d="M370 351h151l-17 -62h-182l-22 -77h182l-17 -62h-182l-44 -150h-87l43 150h-180l17 62h181l22 77h-181l17 62h153l-109 372h93l91 -348l291 348h103z" />
    <glyph glyph-name="brokenbar" unicode="&#xa6;" horiz-adv-x="251" 
d="M87 411v250h76v-250h-76zM87 -89v250h76v-250h-76z" />
    <glyph glyph-name="section" unicode="&#xa7;" horiz-adv-x="594" 
d="M523 647q-34 12 -63.5 18.5t-59.5 6.5q-18 0 -36.5 -5t-32.5 -14t-23 -21.5t-9 -27.5q0 -8 2.5 -15t11.5 -16.5t26.5 -22.5t47.5 -33q32 -21 51.5 -37.5t30.5 -31t14.5 -27.5t3.5 -27q0 -26 -10.5 -47.5t-28.5 -38.5t-42 -31t-52 -24q32 -20 49.5 -40.5t17.5 -56.5
q0 -42 -18 -73.5t-48 -52.5t-70 -32t-84 -11q-92 0 -160 26l19 64q32 -14 67 -21.5t69 -7.5q25 0 49.5 6t43 17t30 28t11.5 40q0 14 -6.5 25t-19 20.5t-31.5 20t-44 24.5q-23 13 -42.5 24.5t-34 25t-22.5 29.5t-8 38q0 30 13.5 53t35.5 41t49.5 30.5t56.5 20.5
q-67 44 -67 102q0 33 16 59.5t42.5 44.5t60.5 27.5t71 9.5q34 0 68.5 -6.5t72.5 -17.5zM398 379q0 17 -14 35t-56 46q-51 -19 -83 -40t-32 -57q0 -24 19 -42t62 -40q15 6 33.5 14.5t34 20.5t26 27.5t10.5 35.5z" />
    <glyph glyph-name="dieresis" unicode="&#xa8;" horiz-adv-x="266" 
d="M68 635l25 89h92l-25 -89h-92zM260 635l25 89h92l-25 -89h-92z" />
    <glyph glyph-name="copyright" unicode="&#xa9;" horiz-adv-x="844" 
d="M797 362q0 -80 -28.5 -148.5t-78.5 -118.5t-118.5 -78t-149.5 -28t-149.5 28t-118.5 78t-78.5 118t-28.5 149q0 80 28.5 148.5t78.5 118.5t118.5 78t149.5 28t149.5 -28t118.5 -78t78.5 -118.5t28.5 -148.5zM743 362q0 71 -24 130.5t-67 102.5t-101.5 67t-128.5 24
t-129 -24t-101.5 -67t-66.5 -102.5t-24 -130.5t24 -131t66.5 -103t101.5 -67t129 -24t128.5 24t101.5 67t67 103t24 131zM595 272q-5 -30 -20.5 -52.5t-38 -37.5t-50 -22.5t-57.5 -7.5q-96 0 -142 56.5t-46 150.5q0 46 12.5 85t36.5 67.5t60.5 44.5t84.5 16q27 0 54 -7
t49 -22t37 -37.5t17 -52.5h-78q-8 33 -27.5 47.5t-51.5 14.5q-33 0 -55 -12.5t-35.5 -34t-19 -50.5t-5.5 -61t5.5 -59.5t18.5 -47.5t34 -31t53 -11t54 15t31 49h79z" />
    <glyph glyph-name="ordfeminine" unicode="&#xaa;" horiz-adv-x="341" 
d="M362 661q0 -14 -3 -27.5t-8 -26.5l-25 -79q-5 -17 -9 -35t-9 -35q-2 -5 -2.5 -9.5t-1.5 -8.5t-1 -9h-58q0 1 1 6.5t3 10.5q2 6 3 14q-27 -19 -48.5 -27.5t-48.5 -8.5q-38 0 -61.5 20t-23.5 54q0 39 25 66t65 38q21 6 49 8t59 3h27q1 7 3 12q1 5 2 8t1 4q2 10 2 19
q0 15 -12 24t-34 9q-26 0 -44 -11.5t-26 -31.5h-64q5 17 16 31.5t25 25.5q20 15 45.5 21.5t53.5 6.5q52 0 75.5 -19t23.5 -53zM268 573q-5 0 -9 0.5t-5 0.5q-56 0 -90 -16t-34 -52q0 -19 12.5 -29t32.5 -10q21 0 40 9t33 25q11 12 18 26.5t15 45.5h-13z" />
    <glyph glyph-name="guillemotleft" unicode="&#xab;" horiz-adv-x="493" 
d="M115 262l39 -203h-68l-48 218l159 171h76zM309 262l39 -203h-68l-48 218l159 171h76z" />
    <glyph glyph-name="logicalnot" unicode="&#xac;" horiz-adv-x="673" 
d="M483 114v196h-434v72h509v-268h-75z" />
    <glyph glyph-name="uni00AD" unicode="&#xad;" horiz-adv-x="351" 
d="M272 233h-258l19 65h258z" />
    <glyph glyph-name="registered" unicode="&#xae;" horiz-adv-x="478" 
d="M489 547q0 -39 -15 -73.5t-40.5 -60t-59.5 -40t-73 -14.5t-73 14.5t-59.5 40t-40 60t-14.5 73.5t14.5 73t40 59.5t59.5 40t73 14.5t73 -14.5t59.5 -40t40.5 -59.5t15 -73zM455 547q0 33 -12 61.5t-32.5 49.5t-48.5 33.5t-61 12.5t-61 -12.5t-48.5 -33.5t-32 -49.5
t-11.5 -61.5t11.5 -61.5t32 -50t48.5 -34t61 -12.5t61 12.5t48.5 34t32.5 50t12 61.5zM342 452q-4 9 -5 26q-1 10 -2.5 23.5t-4.5 20.5q-4 9 -10 11.5t-15 2.5h-41v-84h-30v194h70q20 0 31 -2t19 -9q9 -7 13 -17t4 -21q0 -18 -11 -31q-9 -11 -27 -15q19 -4 26 -17t7.5 -28
t2.5 -29q1 -6 2.5 -13t4.5 -12h-34zM339 592q0 19 -13 25t-29 6h-33v-64h28q18 0 32.5 5.5t14.5 27.5z" />
    <glyph glyph-name="macron" unicode="&#xaf;" horiz-adv-x="265" 
d="M67 639l16 56h274l-17 -56h-273z" />
    <glyph glyph-name="degree" unicode="&#xb0;" horiz-adv-x="386" 
d="M416 582q0 -32 -12 -60t-33 -48.5t-49 -32.5t-60 -12t-60 12t-49 32.5t-33 48.5t-12 60t12 60t33 48.5t49 32.5t60 12t60 -12t49 -32.5t33 -48.5t12 -60zM355 582q0 42 -26.5 69.5t-66.5 27.5t-66 -27.5t-26 -69.5t26 -69t66 -27t66.5 27t26.5 69z" />
    <glyph glyph-name="plusminus" unicode="&#xb1;" horiz-adv-x="673" 
d="M343 283v-169h-79v169h-215v73h215v170h79v-170h215v-73h-215zM49 0v73h509v-73h-509z" />
    <glyph glyph-name="twosuperior" unicode="&#xb2;" horiz-adv-x="383" 
d="M456 801q0 -24 -9.5 -46.5t-25.5 -44.5t-37.5 -43t-45.5 -42q-23 -20 -58.5 -45.5t-89.5 -57.5h193l-15 -52h-288l14 51q15 9 22 14t11 7.5t7.5 4t9.5 5.5q58 36 99 65t72 57q75 67 75 120q0 23 -17 37.5t-43 14.5q-31 0 -54 -19t-36 -53h-67q7 28 23.5 50.5t38.5 38.5
t49 24t56 8q53 0 84.5 -24.5t31.5 -69.5z" />
    <glyph glyph-name="threesuperior" unicode="&#xb3;" horiz-adv-x="383" 
d="M457 798q0 -45 -30 -76t-74 -40q52 -22 52 -77q0 -33 -14 -59t-38 -44.5t-55 -28.5t-65 -10q-59 0 -98 26.5t-39 74.5q0 5 1 11l2 12h65q-1 -3 -1 -7v-7q0 -29 20 -45t55 -16q43 0 73.5 25t30.5 66q0 29 -23 43.5t-61 14.5h-16l14 49h25q48 0 80 20t32 62q0 28 -20 41.5
t-52 13.5q-34 0 -57 -17t-36 -55h-65q17 61 61 90.5t106 29.5q27 0 50 -6.5t40 -18.5t27 -30t10 -42z" />
    <glyph glyph-name="acute" unicode="&#xb4;" horiz-adv-x="265" 
d="M188 591h-65l127 145h116z" />
    <glyph glyph-name="mu" unicode="&#xb5;" horiz-adv-x="589" 
d="M439 129q-11 -35 -19 -66t-16 -63h-88l22 82q-41 -50 -79 -71t-84 -21q-36 0 -66 12t-45 39q-3 -15 -8 -34t-10 -39t-10.5 -40.5t-10.5 -37.5l-23 -79h-88l207 693h88l-87 -293q-6 -20 -11.5 -43t-5.5 -42q0 -32 22.5 -51.5t62.5 -19.5q38 0 68.5 17t55.5 45
q25 29 43.5 63t29.5 69l77 255h87z" />
    <glyph glyph-name="paragraph" unicode="&#xb6;" horiz-adv-x="628" 
d="M414 0h-73l196 663h-117l-197 -663h-73l89 296q-34 3 -63 14t-50 30t-33 45t-12 61q0 67 29 118.5t76.5 86.5t108.5 53.5t126 18.5h208z" />
    <glyph glyph-name="periodcentered" unicode="&#xb7;" horiz-adv-x="290" 
d="M172 270h-99l28 101h99z" />
    <glyph glyph-name="cedilla" unicode="&#xb8;" horiz-adv-x="265" 
d="M154 -100q0 -23 -11.5 -40t-30 -28.5t-42 -17.5t-48.5 -6q-28 0 -52.5 5.5t-47.5 16.5l17 32q19 -10 38.5 -16.5t43.5 -6.5q29 0 48.5 12.5t19.5 38.5q0 14 -11.5 20t-29.5 6q-8 0 -16 -1t-16 -3l-5 4l59 90h30l-37 -60q6 1 13 1.5t15 0.5q29 0 46 -12.5t17 -35.5z" />
    <glyph glyph-name="onesuperior" unicode="&#xb9;" horiz-adv-x="382" 
d="M272 469h-64l103 342q-28 -17 -53.5 -28t-59.5 -22l18 59q39 14 67.5 30t55.5 36h58z" />
    <glyph glyph-name="ordmasculine" unicode="&#xba;" horiz-adv-x="373" 
d="M388 626q0 -38 -12.5 -74.5t-34.5 -65.5q-45 -62 -133 -62q-58 0 -89 29.5t-31 80.5q0 38 14 76.5t38 64.5q25 29 58.5 43.5t71.5 14.5q55 0 86.5 -29t31.5 -78zM326 624q0 65 -62 65q-27 0 -49 -15t-38 -43q-14 -23 -21 -49t-7 -50q0 -30 17 -47t47 -17q28 0 51.5 16.5
t37.5 47.5q11 23 17.5 47t6.5 45z" />
    <glyph glyph-name="guillemotright" unicode="&#xbb;" horiz-adv-x="494" 
d="M327 245l-39 203h68l48 -218l-159 -171h-76zM133 245l-39 203h68l48 -218l-159 -171h-76z" />
    <glyph glyph-name="onequarter" unicode="&#xbc;" horiz-adv-x="918" 
d="M248 -24h-66l474 752h63zM157 303l100 345q-29 -18 -54.5 -28.5t-56.5 -21.5l17 59q20 7 35 14t29 14.5t28 16.5t32 21h56l-122 -420h-64zM763 140h67l-14 -48h-66l-27 -92h-62l27 92h-199l15 59l263 269h76zM560 140h143l58 205z" />
    <glyph glyph-name="onehalf" unicode="&#xbd;" horiz-adv-x="918" 
d="M239 -24h-66l474 752h63zM856 335q0 -50 -36.5 -96.5t-118.5 -103.5l-119 -83h198l-15 -52h-288l16 53l153 107q41 28 68 51.5t43.5 43.5t23.5 37t7 32q0 52 -59 52q-36 0 -59.5 -20t-34.5 -55h-66q19 63 64.5 94t106.5 31q54 0 85 -24.5t31 -66.5zM157 303l100 345
q-29 -18 -54.5 -28.5t-56.5 -21.5l17 59q20 7 35 14t29 14.5t28 16.5t32 21h56l-122 -420h-64z" />
    <glyph glyph-name="threequarters" unicode="&#xbe;" horiz-adv-x="918" 
d="M261 -24h-66l474 752h63zM780 140h67l-14 -48h-66l-27 -92h-62l27 92h-199l15 59l263 269h76zM577 140h143l58 205zM403 634q0 -48 -29.5 -77t-78.5 -40q29 -9 44 -30t15 -48q0 -34 -14 -60.5t-38.5 -45t-56.5 -28t-68 -9.5q-29 0 -54.5 7t-44 19.5t-29 31.5t-10.5 43
q0 5 0.5 10.5t1.5 12.5h66q0 -3 -0.5 -7t-0.5 -7q0 -29 22 -44.5t54 -15.5q23 0 43 6.5t34.5 18.5t22.5 28.5t8 35.5q0 27 -20.5 43.5t-58.5 16.5q-8 0 -13 -0.5t-13 -0.5l13 50q8 -1 15 -1h14q21 0 41 4.5t35.5 14.5t25 25.5t9.5 38.5q0 26 -19 40t-50 14q-69 0 -97 -69
h-64q19 61 63 89.5t106 28.5q26 0 49 -6.5t40 -18.5t27 -29.5t10 -40.5z" />
    <glyph glyph-name="questiondown" unicode="&#xbf;" horiz-adv-x="521" 
d="M378 431h-99l29 95h100zM-38 -70q0 68 44.5 121.5t124.5 112.5l61 45q25 18 38 37t21 43q4 11 8.5 26.5t9.5 35.5h76q-11 -42 -21.5 -74.5t-19.5 -47.5q-7 -12 -15.5 -23t-21 -23.5t-31.5 -28t-48 -36.5q-35 -26 -59.5 -47.5t-40 -41.5t-23 -40.5t-7.5 -44.5
q0 -45 31.5 -64t80.5 -19q57 0 120 20l-21 -73q-68 -16 -123 -16q-40 0 -74 8t-58.5 25t-38 43t-13.5 62z" />
    <glyph glyph-name="Agrave" unicode="&#xc0;" horiz-adv-x="692" 
d="M512 0l-21 191h-351l-127 -191h-103l498 723h105l90 -723h-91zM443 646l-257 -385h296zM462 777l-98 144h102l54 -144h-58z" />
    <glyph glyph-name="Aacute" unicode="&#xc1;" horiz-adv-x="692" 
d="M512 0l-21 191h-351l-127 -191h-103l498 723h105l90 -723h-91zM443 646l-257 -385h296zM484 777h-65l127 144h116z" />
    <glyph glyph-name="Acircumflex" unicode="&#xc2;" horiz-adv-x="692" 
d="M512 0l-21 191h-351l-127 -191h-103l498 723h105l90 -723h-91zM443 646l-257 -385h296zM556 775l-56 100l-118 -100h-68l146 146h93l61 -146h-58z" />
    <glyph glyph-name="Atilde" unicode="&#xc3;" horiz-adv-x="692" 
d="M512 0l-21 191h-351l-127 -191h-103l498 723h105l90 -723h-91zM443 646l-257 -385h296zM655 902q-8 -18 -21 -35.5t-29 -31t-34.5 -22t-38.5 -8.5q-15 0 -29 4t-27.5 8.5t-27 8.5t-28.5 4q-37 0 -58 -31h-46q18 40 52.5 67t76.5 27q15 0 28.5 -4t26 -8.5t25.5 -8.5t28 -4
q18 0 31 8.5t24 25.5h47v0z" />
    <glyph glyph-name="Adieresis" unicode="&#xc4;" horiz-adv-x="692" 
d="M512 0l-21 191h-351l-127 -191h-103l498 723h105l90 -723h-91zM443 646l-257 -385h296zM336 806l25 89h92l-25 -89h-92zM528 806l25 89h92l-25 -89h-92z" />
    <glyph glyph-name="Aring" unicode="&#xc5;" horiz-adv-x="692" 
d="M512 0l-21 191h-351l-127 -191h-103l498 723h105l90 -723h-91zM443 646l-257 -385h296zM388 849q0 21 8 39t22 31.5t32 21.5t39 8t39.5 -8t32.5 -21.5t22 -31.5t8 -39t-8 -39.5t-22 -32t-32.5 -21.5t-39.5 -8t-39 8t-32 21.5t-22 32t-8 39.5zM429 849q0 -29 17 -47
t43 -18q27 0 44 18t17 47q0 28 -17 46t-44 18q-26 0 -43 -18t-17 -46z" />
    <glyph glyph-name="AE" unicode="&#xc6;" horiz-adv-x="967" 
d="M989 649h-373l-35 -241h319l-22 -72h-308l-37 -262h299l-22 -74h-381l27 187h-302l-148 -187h-105l579 723h532zM207 257h261l59 407z" />
    <glyph glyph-name="Ccedilla" unicode="&#xc7;" horiz-adv-x="665" 
d="M334 -100q0 -23 -11.5 -40t-30 -28.5t-42 -17.5t-48.5 -6q-28 0 -52.5 5.5t-47.5 16.5l17 32q19 -10 38.5 -16.5t43.5 -6.5q29 0 48.5 12.5t19.5 38.5q0 14 -11.5 20t-29.5 6q-8 0 -16 -1t-16 -3l-5 4l51 78q-52 8 -90.5 29.5t-64 52.5t-38 70t-12.5 82q0 47 9.5 98
t27.5 100t44 94.5t59 81.5q57 63 126.5 97t155.5 34q51 0 92 -11.5t70 -33.5t44.5 -53.5t15.5 -71.5q0 -11 -1 -19t-3 -21h-99q2 14 2.5 21t0.5 15q0 48 -36 75t-95 27q-63 0 -117 -32t-96 -92q-47 -67 -73.5 -148t-26.5 -161q0 -32 9.5 -62t30 -53t51.5 -37t75 -14
q38 0 71 12.5t59 36.5q30 27 49 71h101q-23 -70 -76 -118q-41 -37 -93.5 -55.5t-113.5 -18.5q-8 0 -15 0.5t-14 0.5l-28 -45q6 1 13 1.5t15 0.5q29 0 46 -12.5t17 -35.5z" />
    <glyph glyph-name="Egrave" unicode="&#xc8;" horiz-adv-x="619" 
d="M641 649h-357l-72 -241h340l-21 -71h-339l-78 -263h370l-22 -74h-463l212 723h453zM461 777l-98 144h102l54 -144h-58z" />
    <glyph glyph-name="Eacute" unicode="&#xc9;" horiz-adv-x="619" 
d="M641 649h-357l-72 -241h340l-21 -71h-339l-78 -263h370l-22 -74h-463l212 723h453zM460 777h-65l127 144h116z" />
    <glyph glyph-name="Ecircumflex" unicode="&#xca;" horiz-adv-x="619" 
d="M641 649h-357l-72 -241h340l-21 -71h-339l-78 -263h370l-22 -74h-463l212 723h453zM546 775l-56 100l-118 -100h-68l146 146h93l61 -146h-58z" />
    <glyph glyph-name="Edieresis" unicode="&#xcb;" horiz-adv-x="619" 
d="M641 649h-357l-72 -241h340l-21 -71h-339l-78 -263h370l-22 -74h-463l212 723h453zM318 806l25 89h92l-25 -89h-92zM510 806l25 89h92l-25 -89h-92z" />
    <glyph glyph-name="Igrave" unicode="&#xcc;" horiz-adv-x="304" 
d="M93 0h-94l212 723h94zM289 777l-98 144h102l54 -144h-58z" />
    <glyph glyph-name="Iacute" unicode="&#xcd;" horiz-adv-x="304" 
d="M93 0h-94l212 723h94zM269 777h-65l127 144h116z" />
    <glyph glyph-name="Icircumflex" unicode="&#xce;" horiz-adv-x="304" 
d="M93 0h-94l212 723h94zM357 775l-56 100l-118 -100h-68l146 146h93l61 -146h-58z" />
    <glyph glyph-name="Idieresis" unicode="&#xcf;" horiz-adv-x="304" 
d="M93 0h-94l212 723h94zM139 806l25 89h92l-25 -89h-92zM331 806l25 89h92l-25 -89h-92z" />
    <glyph glyph-name="Eth" unicode="&#xd0;" horiz-adv-x="750" 
d="M716 477q0 -69 -17.5 -137t-49.5 -128q-33 -65 -84 -112t-115 -71q-39 -15 -88.5 -22t-112.5 -7h-250l109 369h-69l16 57h70l87 297h211q63 0 116.5 -14t92.5 -43.5t61.5 -76t22.5 -112.5zM618 470q0 52 -16.5 86.5t-45.5 55.5t-70 29.5t-89 8.5h-113l-66 -224h200
l-16 -57h-200l-87 -296h122q26 0 44.5 0.5t33.5 2t28 3.5t27 6q63 17 107.5 52.5t77.5 97.5q29 54 46 116t17 119z" />
    <glyph glyph-name="Ntilde" unicode="&#xd1;" horiz-adv-x="790" 
d="M577 0h-129l-170 641l-185 -641h-90l211 723h129l172 -643l186 643h90zM701 902q-8 -18 -21 -35.5t-29 -31t-34.5 -22t-38.5 -8.5q-15 0 -29 4t-27.5 8.5t-27 8.5t-28.5 4q-37 0 -58 -31h-46q18 40 52.5 67t76.5 27q15 0 28.5 -4t26 -8.5t25.5 -8.5t28 -4q18 0 31 8.5
t24 25.5h47v0z" />
    <glyph glyph-name="Ograve" unicode="&#xd2;" horiz-adv-x="758" 
d="M724 486q0 -45 -9 -90t-24 -88.5t-35.5 -82.5t-43.5 -72q-56 -77 -130.5 -121t-179.5 -44q-60 0 -109 17t-83.5 49t-53.5 78t-19 105q0 92 32 182t86 162q54 70 129 110.5t178 40.5q61 0 109.5 -17t82.5 -49t52 -77.5t18 -102.5zM626 480q0 82 -43.5 131t-129.5 49
q-78 0 -138 -41t-105 -116q-18 -30 -32 -63.5t-24 -68t-15.5 -68t-5.5 -62.5q0 -40 12 -73t34.5 -57t55.5 -37t75 -13q61 0 114.5 30t95.5 83q51 66 78.5 147t27.5 159zM523 777l-98 144h102l54 -144h-58z" />
    <glyph glyph-name="Oacute" unicode="&#xd3;" horiz-adv-x="758" 
d="M724 486q0 -45 -9 -90t-24 -88.5t-35.5 -82.5t-43.5 -72q-56 -77 -130.5 -121t-179.5 -44q-60 0 -109 17t-83.5 49t-53.5 78t-19 105q0 92 32 182t86 162q54 70 129 110.5t178 40.5q61 0 109.5 -17t82.5 -49t52 -77.5t18 -102.5zM626 480q0 82 -43.5 131t-129.5 49
q-78 0 -138 -41t-105 -116q-18 -30 -32 -63.5t-24 -68t-15.5 -68t-5.5 -62.5q0 -40 12 -73t34.5 -57t55.5 -37t75 -13q61 0 114.5 30t95.5 83q51 66 78.5 147t27.5 159zM495 777h-65l127 144h116z" />
    <glyph glyph-name="Ocircumflex" unicode="&#xd4;" horiz-adv-x="758" 
d="M724 486q0 -45 -9 -90t-24 -88.5t-35.5 -82.5t-43.5 -72q-56 -77 -130.5 -121t-179.5 -44q-60 0 -109 17t-83.5 49t-53.5 78t-19 105q0 92 32 182t86 162q54 70 129 110.5t178 40.5q61 0 109.5 -17t82.5 -49t52 -77.5t18 -102.5zM626 480q0 82 -43.5 131t-129.5 49
q-78 0 -138 -41t-105 -116q-18 -30 -32 -63.5t-24 -68t-15.5 -68t-5.5 -62.5q0 -40 12 -73t34.5 -57t55.5 -37t75 -13q61 0 114.5 30t95.5 83q51 66 78.5 147t27.5 159zM595 775l-56 100l-118 -100h-68l146 146h93l61 -146h-58z" />
    <glyph glyph-name="Otilde" unicode="&#xd5;" horiz-adv-x="758" 
d="M724 486q0 -45 -9 -90t-24 -88.5t-35.5 -82.5t-43.5 -72q-56 -77 -130.5 -121t-179.5 -44q-60 0 -109 17t-83.5 49t-53.5 78t-19 105q0 92 32 182t86 162q54 70 129 110.5t178 40.5q61 0 109.5 -17t82.5 -49t52 -77.5t18 -102.5zM626 480q0 82 -43.5 131t-129.5 49
q-78 0 -138 -41t-105 -116q-18 -30 -32 -63.5t-24 -68t-15.5 -68t-5.5 -62.5q0 -40 12 -73t34.5 -57t55.5 -37t75 -13q61 0 114.5 30t95.5 83q51 66 78.5 147t27.5 159zM690 902q-8 -18 -21 -35.5t-29 -31t-34.5 -22t-38.5 -8.5q-15 0 -29 4t-27.5 8.5t-27 8.5t-28.5 4
q-37 0 -58 -31h-46q18 40 52.5 67t76.5 27q15 0 28.5 -4t26 -8.5t25.5 -8.5t28 -4q18 0 31 8.5t24 25.5h47v0z" />
    <glyph glyph-name="Odieresis" unicode="&#xd6;" horiz-adv-x="758" 
d="M724 486q0 -45 -9 -90t-24 -88.5t-35.5 -82.5t-43.5 -72q-56 -77 -130.5 -121t-179.5 -44q-60 0 -109 17t-83.5 49t-53.5 78t-19 105q0 92 32 182t86 162q54 70 129 110.5t178 40.5q61 0 109.5 -17t82.5 -49t52 -77.5t18 -102.5zM626 480q0 82 -43.5 131t-129.5 49
q-78 0 -138 -41t-105 -116q-18 -30 -32 -63.5t-24 -68t-15.5 -68t-5.5 -62.5q0 -40 12 -73t34.5 -57t55.5 -37t75 -13q61 0 114.5 30t95.5 83q51 66 78.5 147t27.5 159zM374 806l25 89h92l-25 -89h-92zM566 806l25 89h92l-25 -89h-92z" />
    <glyph glyph-name="multiply" unicode="&#xd7;" horiz-adv-x="673" 
d="M357 248l188 -188l-53 -53l-188 188l-189 -187l-54 52l189 188l-189 188l54 53l189 -188l188 188l54 -53z" />
    <glyph glyph-name="Oslash" unicode="&#xd8;" horiz-adv-x="758" 
d="M694 613q30 -57 30 -128q0 -44 -9 -89.5t-24 -88.5t-35.5 -82t-43.5 -72q-55 -77 -130.5 -121t-180.5 -44q-126 0 -199 73l-94 -87l-32 38l95 88q-34 59 -34 137q0 92 31.5 182t86.5 162q54 70 128.5 110.5t175.5 40.5q133 0 207 -78l96 89l32 -38zM598 592
q-46 69 -145 69q-78 0 -138.5 -41t-105.5 -117q-18 -30 -32 -63.5t-23.5 -68t-15 -68t-5.5 -62.5q0 -40 13 -73zM626 480q0 17 -2.5 31.5t-7.5 30.5l-448 -420q23 -29 59 -45t83 -16q61 0 114 30t95 83q51 66 79 147.5t28 158.5z" />
    <glyph glyph-name="Ugrave" unicode="&#xd9;" horiz-adv-x="752" 
d="M637 285q-11 -35 -23 -68.5t-26 -60.5q-43 -83 -119.5 -125t-183.5 -42q-111 0 -173.5 52.5t-62.5 149.5q0 33 8 71t18 70l116 391h95l-126 -430q-10 -32 -14 -55t-4 -43q0 -61 40 -97.5t118 -36.5q64 0 113.5 26.5t79.5 75.5q20 33 34.5 72.5t25.5 78.5l120 409h94z
M506 777l-98 144h102l54 -144h-58z" />
    <glyph glyph-name="Uacute" unicode="&#xda;" horiz-adv-x="752" 
d="M637 285q-11 -35 -23 -68.5t-26 -60.5q-43 -83 -119.5 -125t-183.5 -42q-111 0 -173.5 52.5t-62.5 149.5q0 33 8 71t18 70l116 391h95l-126 -430q-10 -32 -14 -55t-4 -43q0 -61 40 -97.5t118 -36.5q64 0 113.5 26.5t79.5 75.5q20 33 34.5 72.5t25.5 78.5l120 409h94z
M478 777h-65l127 144h116z" />
    <glyph glyph-name="Ucircumflex" unicode="&#xdb;" horiz-adv-x="752" 
d="M637 285q-11 -35 -23 -68.5t-26 -60.5q-43 -83 -119.5 -125t-183.5 -42q-111 0 -173.5 52.5t-62.5 149.5q0 33 8 71t18 70l116 391h95l-126 -430q-10 -32 -14 -55t-4 -43q0 -61 40 -97.5t118 -36.5q64 0 113.5 26.5t79.5 75.5q20 33 34.5 72.5t25.5 78.5l120 409h94z
M578 775l-56 100l-118 -100h-68l146 146h93l61 -146h-58z" />
    <glyph glyph-name="Udieresis" unicode="&#xdc;" horiz-adv-x="752" 
d="M637 285q-11 -35 -23 -68.5t-26 -60.5q-43 -83 -119.5 -125t-183.5 -42q-111 0 -173.5 52.5t-62.5 149.5q0 33 8 71t18 70l116 391h95l-126 -430q-10 -32 -14 -55t-4 -43q0 -61 40 -97.5t118 -36.5q64 0 113.5 26.5t79.5 75.5q20 33 34.5 72.5t25.5 78.5l120 409h94z
M357 806l25 89h92l-25 -89h-92zM549 806l25 89h92l-25 -89h-92z" />
    <glyph glyph-name="Yacute" unicode="&#xdd;" horiz-adv-x="580" 
d="M325 300l-88 -300h-94l92 309l-166 414h100l129 -346l285 346h111zM405 777h-65l127 144h116z" />
    <glyph glyph-name="Thorn" unicode="&#xde;" horiz-adv-x="631" 
d="M615 429q0 -69 -32.5 -125.5t-87.5 -88.5q-34 -20 -76.5 -28.5t-109.5 -8.5h-165l-52 -178h-93l212 723h93l-38 -130h148q43 0 80 -10.5t64 -31t42 -51t15 -71.5zM518 416q0 32 -13.5 54.5t-37.5 34.5q-28 14 -95 14h-128l-78 -268h153q27 0 47.5 2t37 7t30 12.5
t26.5 19.5q28 25 43 57t15 67z" />
    <glyph glyph-name="germandbls" unicode="&#xdf;" horiz-adv-x="625" 
d="M580 590q0 -40 -22.5 -71t-57.5 -49l-55 -28q-23 -11 -32.5 -25t-9.5 -35q0 -16 7.5 -28t22.5 -27l62 -64q23 -24 33.5 -47.5t10.5 -55.5q0 -39 -17 -70.5t-45.5 -53t-67 -33.5t-81.5 -12q-34 0 -63.5 7.5t-51 22t-33.5 35t-12 46.5q0 11 1.5 21.5t6.5 25.5h88
q-5 -12 -7 -20.5t-2 -18.5q0 -30 23 -45t56 -15q55 0 87 27t32 71q0 28 -13.5 47.5t-44.5 51.5l-39 40q-25 26 -35 45.5t-10 45.5q0 36 22 63.5t61 46.5l33 16q33 16 48.5 36t15.5 50q0 37 -26.5 60.5t-76.5 23.5q-39 0 -68 -16.5t-51 -43.5t-37.5 -61t-25.5 -68l-147 -485
h-88l142 472q17 55 38 102.5t53 82.5t79 54.5t116 19.5q45 0 76 -9t54 -27q26 -20 38.5 -47.5t12.5 -57.5z" />
    <glyph glyph-name="agrave" unicode="&#xe0;" horiz-adv-x="537" 
d="M463 394q0 -20 -4.5 -44t-12.5 -54q-3 -9 -7.5 -25t-9.5 -33t-10 -33t-8 -25q-6 -20 -12.5 -43t-12.5 -47q-5 -23 -9.5 -46t-8.5 -44h-84q0 5 3 25t9 46q-39 -42 -83.5 -61t-92.5 -19q-31 0 -57.5 8t-46 23.5t-30.5 39t-11 54.5q0 54 29 93.5t78 62.5q32 15 73 22.5
t101 11.5q20 2 49.5 2.5t58.5 0.5l7 26q7 27 7 49q0 35 -22.5 55t-70.5 20q-51 0 -83 -23t-42 -65h-87q6 35 24 62t46.5 45t66.5 27t82 9q78 0 124.5 -30t46.5 -90zM349 256q-49 -2 -84 -4.5t-60 -6.5t-42.5 -10t-32.5 -13q-30 -15 -48 -40.5t-18 -56.5q0 -38 22.5 -57.5
t63.5 -19.5q45 0 80.5 25.5t61.5 60.5q11 15 20.5 32.5t20.5 44.5zM317 591l-98 145h102l54 -145h-58z" />
    <glyph glyph-name="aacute" unicode="&#xe1;" horiz-adv-x="537" 
d="M463 394q0 -20 -4.5 -44t-12.5 -54q-3 -9 -7.5 -25t-9.5 -33t-10 -33t-8 -25q-6 -20 -12.5 -43t-12.5 -47q-5 -23 -9.5 -46t-8.5 -44h-84q0 5 3 25t9 46q-39 -42 -83.5 -61t-92.5 -19q-31 0 -57.5 8t-46 23.5t-30.5 39t-11 54.5q0 54 29 93.5t78 62.5q32 15 73 22.5
t101 11.5q20 2 49.5 2.5t58.5 0.5l7 26q7 27 7 49q0 35 -22.5 55t-70.5 20q-51 0 -83 -23t-42 -65h-87q6 35 24 62t46.5 45t66.5 27t82 9q78 0 124.5 -30t46.5 -90zM349 256q-49 -2 -84 -4.5t-60 -6.5t-42.5 -10t-32.5 -13q-30 -15 -48 -40.5t-18 -56.5q0 -38 22.5 -57.5
t63.5 -19.5q45 0 80.5 25.5t61.5 60.5q11 15 20.5 32.5t20.5 44.5zM318 591h-65l127 145h116z" />
    <glyph glyph-name="acircumflex" unicode="&#xe2;" horiz-adv-x="537" 
d="M463 394q0 -20 -4.5 -44t-12.5 -54q-3 -9 -7.5 -25t-9.5 -33t-10 -33t-8 -25q-6 -20 -12.5 -43t-12.5 -47q-5 -23 -9.5 -46t-8.5 -44h-84q0 5 3 25t9 46q-39 -42 -83.5 -61t-92.5 -19q-31 0 -57.5 8t-46 23.5t-30.5 39t-11 54.5q0 54 29 93.5t78 62.5q32 15 73 22.5
t101 11.5q20 2 49.5 2.5t58.5 0.5l7 26q7 27 7 49q0 35 -22.5 55t-70.5 20q-51 0 -83 -23t-42 -65h-87q6 35 24 62t46.5 45t66.5 27t82 9q78 0 124.5 -30t46.5 -90zM349 256q-49 -2 -84 -4.5t-60 -6.5t-42.5 -10t-32.5 -13q-30 -15 -48 -40.5t-18 -56.5q0 -38 22.5 -57.5
t63.5 -19.5q45 0 80.5 25.5t61.5 60.5q11 15 20.5 32.5t20.5 44.5zM417 591l-56 100l-118 -100h-68l146 146h93l61 -146h-58z" />
    <glyph glyph-name="atilde" unicode="&#xe3;" horiz-adv-x="537" 
d="M463 394q0 -20 -4.5 -44t-12.5 -54q-3 -9 -7.5 -25t-9.5 -33t-10 -33t-8 -25q-6 -20 -12.5 -43t-12.5 -47q-5 -23 -9.5 -46t-8.5 -44h-84q0 5 3 25t9 46q-39 -42 -83.5 -61t-92.5 -19q-31 0 -57.5 8t-46 23.5t-30.5 39t-11 54.5q0 54 29 93.5t78 62.5q32 15 73 22.5
t101 11.5q20 2 49.5 2.5t58.5 0.5l7 26q7 27 7 49q0 35 -22.5 55t-70.5 20q-51 0 -83 -23t-42 -65h-87q6 35 24 62t46.5 45t66.5 27t82 9q78 0 124.5 -30t46.5 -90zM349 256q-49 -2 -84 -4.5t-60 -6.5t-42.5 -10t-32.5 -13q-30 -15 -48 -40.5t-18 -56.5q0 -38 22.5 -57.5
t63.5 -19.5q45 0 80.5 25.5t61.5 60.5q11 15 20.5 32.5t20.5 44.5zM513 716q-8 -18 -21 -35.5t-29 -31t-34.5 -21.5t-38.5 -8q-15 0 -29 4t-27.5 8.5t-27 8.5t-28.5 4q-37 0 -58 -31h-46q18 39 52.5 66.5t76.5 27.5q15 0 28.5 -4t26 -8.5t25.5 -8.5t28 -4q18 0 31 8.5
t24 24.5h47v0z" />
    <glyph glyph-name="adieresis" unicode="&#xe4;" horiz-adv-x="537" 
d="M463 394q0 -20 -4.5 -44t-12.5 -54q-3 -9 -7.5 -25t-9.5 -33t-10 -33t-8 -25q-6 -20 -12.5 -43t-12.5 -47q-5 -23 -9.5 -46t-8.5 -44h-84q0 5 3 25t9 46q-39 -42 -83.5 -61t-92.5 -19q-31 0 -57.5 8t-46 23.5t-30.5 39t-11 54.5q0 54 29 93.5t78 62.5q32 15 73 22.5
t101 11.5q20 2 49.5 2.5t58.5 0.5l7 26q7 27 7 49q0 35 -22.5 55t-70.5 20q-51 0 -83 -23t-42 -65h-87q6 35 24 62t46.5 45t66.5 27t82 9q78 0 124.5 -30t46.5 -90zM349 256q-49 -2 -84 -4.5t-60 -6.5t-42.5 -10t-32.5 -13q-30 -15 -48 -40.5t-18 -56.5q0 -38 22.5 -57.5
t63.5 -19.5q45 0 80.5 25.5t61.5 60.5q11 15 20.5 32.5t20.5 44.5zM200 635l25 89h92l-25 -89h-92zM392 635l25 89h92l-25 -89h-92z" />
    <glyph glyph-name="aring" unicode="&#xe5;" horiz-adv-x="537" 
d="M463 394q0 -20 -4.5 -44t-12.5 -54q-3 -9 -7.5 -25t-9.5 -33t-10 -33t-8 -25q-6 -20 -12.5 -43t-12.5 -47q-5 -23 -9.5 -46t-8.5 -44h-84q0 5 3 25t9 46q-39 -42 -83.5 -61t-92.5 -19q-31 0 -57.5 8t-46 23.5t-30.5 39t-11 54.5q0 54 29 93.5t78 62.5q32 15 73 22.5
t101 11.5q20 2 49.5 2.5t58.5 0.5l7 26q7 27 7 49q0 35 -22.5 55t-70.5 20q-51 0 -83 -23t-42 -65h-87q6 35 24 62t46.5 45t66.5 27t82 9q78 0 124.5 -30t46.5 -90zM349 256q-49 -2 -84 -4.5t-60 -6.5t-42.5 -10t-32.5 -13q-30 -15 -48 -40.5t-18 -56.5q0 -38 22.5 -57.5
t63.5 -19.5q45 0 80.5 25.5t61.5 60.5q11 15 20.5 32.5t20.5 44.5zM248 669q0 21 8 39t22 31.5t32.5 21.5t39.5 8t39 -8t32 -21.5t22 -31.5t8 -39t-8 -39.5t-22 -32t-32 -21t-39 -7.5t-39.5 7.5t-32.5 21t-22 32t-8 39.5zM289 669q0 -28 17 -46t44 -18q26 0 43.5 18t17.5 46
t-17.5 46t-43.5 18q-27 0 -44 -18t-17 -46z" />
    <glyph glyph-name="ae" unicode="&#xe6;" horiz-adv-x="851" 
d="M792 353q0 -29 -5.5 -57.5t-14.5 -57.5h-352q-9 -26 -12.5 -43.5t-3.5 -34.5q0 -49 30 -79.5t81 -30.5q47 0 82.5 27.5t50.5 72.5h96q-27 -78 -89 -119t-143 -41q-66 0 -107 26t-61 86q-34 -59 -85 -85.5t-121 -26.5q-35 0 -64.5 8t-51.5 24.5t-34.5 40.5t-12.5 57
q0 41 13.5 70t36.5 48t52 30.5t61 17t63.5 7t58.5 1.5h92q1 6 3 11t3 9t3 8q10 34 10 59q0 35 -21.5 56.5t-63.5 21.5q-43 0 -75 -24t-46 -63h-92q9 35 29.5 62t50.5 45t66.5 27.5t77.5 9.5q66 0 103 -24.5t42 -65.5q31 44 75 67t107 23q81 0 124.5 -41.5t43.5 -121.5z
M707 363q0 42 -25 67t-70 25q-37 0 -68 -16.5t-54 -45.5q-16 -21 -27 -42.5t-25 -56.5h259q6 25 8 39t2 30zM263 238q-27 0 -61.5 -2.5t-65 -13.5t-51 -34.5t-20.5 -66.5q0 -36 24.5 -55.5t64.5 -19.5q36 0 65 17.5t51.5 45t39 62t27.5 67.5h-74z" />
    <glyph glyph-name="ccedilla" unicode="&#xe7;" horiz-adv-x="526" 
d="M255 -100q0 -23 -11.5 -40t-30 -28.5t-42 -17.5t-48.5 -6q-28 0 -52.5 5.5t-47.5 16.5l17 32q19 -10 38.5 -16.5t43.5 -6.5q29 0 48.5 12.5t19.5 38.5q0 14 -11.5 20t-29.5 6q-8 0 -16 -1t-16 -3l-5 4l50 77q-78 8 -120 55t-42 120q0 74 29 143.5t80 119.5q43 43 94.5 63
t114.5 20q37 0 68.5 -8t54 -24t35 -39.5t12.5 -53.5q0 -12 -1.5 -24.5t-6.5 -32.5h-86q7 27 7 46q0 38 -23 58.5t-68 20.5q-53 0 -96.5 -31t-73.5 -83q-23 -39 -37 -86t-14 -90q0 -54 29 -85.5t86 -31.5q54 0 91.5 29t54.5 79h90q-26 -78 -89.5 -122.5t-155.5 -44.5h-4
l-27 -45q6 1 13 1.5t15 0.5q29 0 46 -12.5t17 -35.5z" />
    <glyph glyph-name="egrave" unicode="&#xe8;" horiz-adv-x="540" 
d="M481 362q0 -30 -5.5 -60t-18.5 -65h-358q-12 -42 -12 -79q0 -52 27 -81t84 -29q53 0 86.5 25t59.5 77h91q-67 -161 -235 -161q-93 0 -146.5 45t-53.5 120q0 36 8 74t22.5 75t35 70t45.5 59q41 43 91 63.5t107 20.5q78 0 125 -40t47 -114zM395 359q0 42 -22 69t-71 27
q-85 0 -140 -73q-14 -18 -24.5 -40t-20.5 -48h267q7 23 9 35.5t2 29.5zM319 591l-98 145h102l54 -145h-58z" />
    <glyph glyph-name="eacute" unicode="&#xe9;" horiz-adv-x="540" 
d="M481 362q0 -30 -5.5 -60t-18.5 -65h-358q-12 -42 -12 -79q0 -52 27 -81t84 -29q53 0 86.5 25t59.5 77h91q-67 -161 -235 -161q-93 0 -146.5 45t-53.5 120q0 36 8 74t22.5 75t35 70t45.5 59q41 43 91 63.5t107 20.5q78 0 125 -40t47 -114zM395 359q0 42 -22 69t-71 27
q-85 0 -140 -73q-14 -18 -24.5 -40t-20.5 -48h267q7 23 9 35.5t2 29.5zM334 591h-65l127 145h116z" />
    <glyph glyph-name="ecircumflex" unicode="&#xea;" horiz-adv-x="540" 
d="M481 362q0 -30 -5.5 -60t-18.5 -65h-358q-12 -42 -12 -79q0 -52 27 -81t84 -29q53 0 86.5 25t59.5 77h91q-67 -161 -235 -161q-93 0 -146.5 45t-53.5 120q0 36 8 74t22.5 75t35 70t45.5 59q41 43 91 63.5t107 20.5q78 0 125 -40t47 -114zM395 359q0 42 -22 69t-71 27
q-85 0 -140 -73q-14 -18 -24.5 -40t-20.5 -48h267q7 23 9 35.5t2 29.5zM433 591l-56 100l-118 -100h-68l146 146h93l61 -146h-58z" />
    <glyph glyph-name="edieresis" unicode="&#xeb;" horiz-adv-x="540" 
d="M481 362q0 -30 -5.5 -60t-18.5 -65h-358q-12 -42 -12 -79q0 -52 27 -81t84 -29q53 0 86.5 25t59.5 77h91q-67 -161 -235 -161q-93 0 -146.5 45t-53.5 120q0 36 8 74t22.5 75t35 70t45.5 59q41 43 91 63.5t107 20.5q78 0 125 -40t47 -114zM395 359q0 42 -22 69t-71 27
q-85 0 -140 -73q-14 -18 -24.5 -40t-20.5 -48h267q7 23 9 35.5t2 29.5zM216 635l25 89h92l-25 -89h-92zM408 635l25 89h92l-25 -89h-92z" />
    <glyph glyph-name="igrave" unicode="&#xec;" horiz-adv-x="240" 
d="M59 0h-88l147 504h88zM179 591l-98 145h102l54 -145h-58z" />
    <glyph glyph-name="iacute" unicode="&#xed;" horiz-adv-x="240" 
d="M59 0h-88l147 504h88zM180 591h-65l127 145h116z" />
    <glyph glyph-name="icircumflex" unicode="&#xee;" horiz-adv-x="240" 
d="M59 0h-88l147 504h88zM269 591l-56 100l-118 -100h-68l146 146h93l61 -146h-58z" />
    <glyph glyph-name="idieresis" unicode="&#xef;" horiz-adv-x="240" 
d="M59 0h-88l147 504h88zM62 635l25 89h92l-25 -89h-92zM254 635l25 89h92l-25 -89h-92z" />
    <glyph glyph-name="eth" unicode="&#xf0;" horiz-adv-x="570" 
d="M522 416q0 -41 -6 -83t-18 -83t-30.5 -79t-43.5 -70q-45 -57 -100.5 -84.5t-126.5 -27.5q-94 0 -145.5 51.5t-51.5 147.5q0 59 20.5 114.5t58 98t90 68t116.5 25.5q124 0 152 -113q1 31 0 49q-5 63 -31 115.5t-78 89.5l-99 -56l-31 31l89 50q-21 11 -40 18t-46 15l40 57
q19 -5 35 -10t30 -10t27 -11.5t27 -14.5l97 56l33 -30q-29 -17 -47 -27t-27.5 -15t-13 -7l-3.5 -2q63 -46 93 -112t30 -151zM415 313q0 57 -32.5 90t-92.5 33q-50 0 -89.5 -25.5t-65.5 -69.5q-21 -36 -33 -81t-12 -85q0 -57 31.5 -90.5t86.5 -33.5q48 0 89.5 27t70.5 73
q22 36 34.5 79.5t12.5 82.5z" />
    <glyph glyph-name="ntilde" unicode="&#xf1;" horiz-adv-x="583" 
d="M507 393q0 -23 -7 -53t-14 -53l-85 -287h-88l88 294q7 23 11.5 44t4.5 40q0 32 -20.5 51.5t-58.5 19.5q-65 0 -124 -57q-29 -28 -47.5 -61t-31.5 -76l-76 -255h-88l112 374q9 30 18 64t17 66h88l-22 -82q43 47 87.5 69.5t96.5 22.5q65 0 102 -32.5t37 -88.5zM549 716
q-8 -18 -21 -35.5t-29 -31t-34.5 -21.5t-38.5 -8q-15 0 -29 4t-27.5 8.5t-27 8.5t-28.5 4q-37 0 -58 -31h-46q18 39 52.5 66.5t76.5 27.5q15 0 28.5 -4t26 -8.5t25.5 -8.5t28 -4q18 0 31 8.5t24 24.5h47v0z" />
    <glyph glyph-name="ograve" unicode="&#xf2;" horiz-adv-x="570" 
d="M510 337q0 -66 -22 -129t-59 -113q-38 -52 -95.5 -78.5t-131.5 -26.5q-98 0 -150 50t-52 135q0 69 23.5 132.5t65.5 110.5q44 50 100 74t122 24q94 0 146.5 -48.5t52.5 -130.5zM419 333q0 60 -29 91.5t-89 31.5q-51 0 -91 -27.5t-70 -77.5q-25 -42 -38 -89t-13 -91
q0 -57 32.5 -89t89.5 -32q54 0 96.5 30t69.5 87q20 40 31 84t11 82zM323 591l-98 145h102l54 -145h-58z" />
    <glyph glyph-name="oacute" unicode="&#xf3;" horiz-adv-x="570" 
d="M510 337q0 -66 -22 -129t-59 -113q-38 -52 -95.5 -78.5t-131.5 -26.5q-98 0 -150 50t-52 135q0 69 23.5 132.5t65.5 110.5q44 50 100 74t122 24q94 0 146.5 -48.5t52.5 -130.5zM419 333q0 60 -29 91.5t-89 31.5q-51 0 -91 -27.5t-70 -77.5q-25 -42 -38 -89t-13 -91
q0 -57 32.5 -89t89.5 -32q54 0 96.5 30t69.5 87q20 40 31 84t11 82zM344 591h-65l127 145h116z" />
    <glyph glyph-name="ocircumflex" unicode="&#xf4;" horiz-adv-x="570" 
d="M510 337q0 -66 -22 -129t-59 -113q-38 -52 -95.5 -78.5t-131.5 -26.5q-98 0 -150 50t-52 135q0 69 23.5 132.5t65.5 110.5q44 50 100 74t122 24q94 0 146.5 -48.5t52.5 -130.5zM419 333q0 60 -29 91.5t-89 31.5q-51 0 -91 -27.5t-70 -77.5q-25 -42 -38 -89t-13 -91
q0 -57 32.5 -89t89.5 -32q54 0 96.5 30t69.5 87q20 40 31 84t11 82zM443 591l-56 100l-118 -100h-68l146 146h93l61 -146h-58z" />
    <glyph glyph-name="otilde" unicode="&#xf5;" horiz-adv-x="570" 
d="M510 337q0 -66 -22 -129t-59 -113q-38 -52 -95.5 -78.5t-131.5 -26.5q-98 0 -150 50t-52 135q0 69 23.5 132.5t65.5 110.5q44 50 100 74t122 24q94 0 146.5 -48.5t52.5 -130.5zM419 333q0 60 -29 91.5t-89 31.5q-51 0 -91 -27.5t-70 -77.5q-25 -42 -38 -89t-13 -91
q0 -57 32.5 -89t89.5 -32q54 0 96.5 30t69.5 87q20 40 31 84t11 82zM539 716q-8 -18 -21 -35.5t-29 -31t-34.5 -21.5t-38.5 -8q-15 0 -29 4t-27.5 8.5t-27 8.5t-28.5 4q-37 0 -58 -31h-46q18 39 52.5 66.5t76.5 27.5q15 0 28.5 -4t26 -8.5t25.5 -8.5t28 -4q18 0 31 8.5
t24 24.5h47v0z" />
    <glyph glyph-name="odieresis" unicode="&#xf6;" horiz-adv-x="570" 
d="M510 337q0 -66 -22 -129t-59 -113q-38 -52 -95.5 -78.5t-131.5 -26.5q-98 0 -150 50t-52 135q0 69 23.5 132.5t65.5 110.5q44 50 100 74t122 24q94 0 146.5 -48.5t52.5 -130.5zM419 333q0 60 -29 91.5t-89 31.5q-51 0 -91 -27.5t-70 -77.5q-25 -42 -38 -89t-13 -91
q0 -57 32.5 -89t89.5 -32q54 0 96.5 30t69.5 87q20 40 31 84t11 82zM226 635l25 89h92l-25 -89h-92zM418 635l25 89h92l-25 -89h-92z" />
    <glyph glyph-name="divide" unicode="&#xf7;" horiz-adv-x="673" 
d="M256 370v115h95v-115h-95zM49 212v73h509v-73h-509zM256 11v114h95v-114h-95z" />
    <glyph glyph-name="oslash" unicode="&#xf8;" horiz-adv-x="570" 
d="M510 337q0 -66 -22 -129t-59 -113q-38 -52 -95.5 -78.5t-131.5 -26.5q-89 0 -141 43l-69 -63l-31 31l70 65q-31 46 -31 109q0 69 23.5 132.5t65.5 110.5q44 50 100 74t122 24q96 0 149 -51l70 65l33 -32l-75 -69q22 -41 22 -92zM401 410q-29 46 -100 46q-51 0 -91 -27.5
t-70 -77.5q-25 -42 -38 -89t-13 -91q0 -26 6 -45zM419 333q0 8 -0.5 15.5t-1.5 14.5l-299 -277q33 -36 93 -36q54 0 96.5 30t69.5 87q20 40 31 84t11 82z" />
    <glyph glyph-name="ugrave" unicode="&#xf9;" horiz-adv-x="581" 
d="M426 130q-11 -36 -19 -67t-16 -63h-88l21 82q-43 -47 -87 -69.5t-96 -22.5q-66 0 -102.5 32.5t-36.5 88.5q0 23 7 53t14 53l85 287h87l-87 -294q-5 -19 -10.5 -42.5t-5.5 -42.5q0 -32 19 -51t59 -19q66 0 125 57q29 28 47.5 62.5t30.5 74.5l77 255h88zM303 591l-98 145
h102l54 -145h-58z" />
    <glyph glyph-name="uacute" unicode="&#xfa;" horiz-adv-x="581" 
d="M426 130q-11 -36 -19 -67t-16 -63h-88l21 82q-43 -47 -87 -69.5t-96 -22.5q-66 0 -102.5 32.5t-36.5 88.5q0 23 7 53t14 53l85 287h87l-87 -294q-5 -19 -10.5 -42.5t-5.5 -42.5q0 -32 19 -51t59 -19q66 0 125 57q29 28 47.5 62.5t30.5 74.5l77 255h88zM334 591h-65
l127 145h116z" />
    <glyph glyph-name="ucircumflex" unicode="&#xfb;" horiz-adv-x="581" 
d="M426 130q-11 -36 -19 -67t-16 -63h-88l21 82q-43 -47 -87 -69.5t-96 -22.5q-66 0 -102.5 32.5t-36.5 88.5q0 23 7 53t14 53l85 287h87l-87 -294q-5 -19 -10.5 -42.5t-5.5 -42.5q0 -32 19 -51t59 -19q66 0 125 57q29 28 47.5 62.5t30.5 74.5l77 255h88zM433 591l-56 100
l-118 -100h-68l146 146h93l61 -146h-58z" />
    <glyph glyph-name="udieresis" unicode="&#xfc;" horiz-adv-x="581" 
d="M426 130q-11 -36 -19 -67t-16 -63h-88l21 82q-43 -47 -87 -69.5t-96 -22.5q-66 0 -102.5 32.5t-36.5 88.5q0 23 7 53t14 53l85 287h87l-87 -294q-5 -19 -10.5 -42.5t-5.5 -42.5q0 -32 19 -51t59 -19q66 0 125 57q29 28 47.5 62.5t30.5 74.5l77 255h88zM216 635l25 89h92
l-25 -89h-92zM408 635l25 89h92l-25 -89h-92z" />
    <glyph glyph-name="yacute" unicode="&#xfd;" horiz-adv-x="506" 
d="M203 -7l-107 -182h-91l116 185l-94 509h95l58 -418l254 417h93zM305 591h-65l127 145h116z" />
    <glyph glyph-name="thorn" unicode="&#xfe;" horiz-adv-x="588" 
d="M526 334q0 -66 -21 -129.5t-59 -111.5q-41 -51 -92 -77t-111 -26q-54 0 -95.5 24t-62.5 76l-83 -279h-88l269 912h87l-83 -286q44 42 86.5 60t87.5 18q43 0 74 -13.5t51 -37.5t30 -57.5t10 -72.5zM438 325q0 58 -24.5 92.5t-78.5 34.5q-49 0 -92.5 -27.5t-73.5 -81.5
q-23 -42 -37 -88t-14 -89q0 -50 31.5 -83t84.5 -33q46 0 84 24.5t67 71.5q25 38 39 87t14 92z" />
    <glyph glyph-name="ydieresis" unicode="&#xff;" horiz-adv-x="506" 
d="M203 -7l-107 -182h-91l116 185l-94 509h95l58 -418l254 417h93zM177 635l25 89h92l-25 -89h-92zM369 635l25 89h92l-25 -89h-92z" />
    <glyph glyph-name="Amacron" unicode="&#x100;" horiz-adv-x="692" 
d="M512 0l-21 191h-351l-127 -191h-103l498 723h105l90 -723h-91zM443 646l-257 -385h296zM336 814l16 57h274l-17 -57h-273z" />
    <glyph glyph-name="amacron" unicode="&#x101;" horiz-adv-x="537" 
d="M463 394q0 -20 -4.5 -44t-12.5 -54q-3 -9 -7.5 -25t-9.5 -33t-10 -33t-8 -25q-6 -20 -12.5 -43t-12.5 -47q-5 -23 -9.5 -46t-8.5 -44h-84q0 5 3 25t9 46q-39 -42 -83.5 -61t-92.5 -19q-31 0 -57.5 8t-46 23.5t-30.5 39t-11 54.5q0 54 29 93.5t78 62.5q32 15 73 22.5
t101 11.5q20 2 49.5 2.5t58.5 0.5l7 26q7 27 7 49q0 35 -22.5 55t-70.5 20q-51 0 -83 -23t-42 -65h-87q6 35 24 62t46.5 45t66.5 27t82 9q78 0 124.5 -30t46.5 -90zM349 256q-49 -2 -84 -4.5t-60 -6.5t-42.5 -10t-32.5 -13q-30 -15 -48 -40.5t-18 -56.5q0 -38 22.5 -57.5
t63.5 -19.5q45 0 80.5 25.5t61.5 60.5q11 15 20.5 32.5t20.5 44.5zM198 639l16 56h274l-17 -56h-273z" />
    <glyph glyph-name="Abreve" unicode="&#x102;" horiz-adv-x="692" 
d="M512 0l-21 191h-351l-127 -191h-103l498 723h105l90 -723h-91zM443 646l-257 -385h296zM655 904q-24 -62 -71 -92.5t-111 -30.5q-54 0 -89.5 24t-35.5 71q0 13 3 28h45q-1 -2 -1 -7q0 -32 24.5 -47t62.5 -15q36 0 71 15t58 54h44v0z" />
    <glyph glyph-name="abreve" unicode="&#x103;" horiz-adv-x="537" 
d="M463 394q0 -20 -4.5 -44t-12.5 -54q-3 -9 -7.5 -25t-9.5 -33t-10 -33t-8 -25q-6 -20 -12.5 -43t-12.5 -47q-5 -23 -9.5 -46t-8.5 -44h-84q0 5 3 25t9 46q-39 -42 -83.5 -61t-92.5 -19q-31 0 -57.5 8t-46 23.5t-30.5 39t-11 54.5q0 54 29 93.5t78 62.5q32 15 73 22.5
t101 11.5q20 2 49.5 2.5t58.5 0.5l7 26q7 27 7 49q0 35 -22.5 55t-70.5 20q-51 0 -83 -23t-42 -65h-87q6 35 24 62t46.5 45t66.5 27t82 9q78 0 124.5 -30t46.5 -90zM349 256q-49 -2 -84 -4.5t-60 -6.5t-42.5 -10t-32.5 -13q-30 -15 -48 -40.5t-18 -56.5q0 -38 22.5 -57.5
t63.5 -19.5q45 0 80.5 25.5t61.5 60.5q11 15 20.5 32.5t20.5 44.5zM512 714q-24 -62 -71 -92.5t-111 -30.5q-53 0 -89 24t-36 71q0 13 3 28h45q-1 -2 -1 -7q0 -32 24.5 -47t62.5 -15q36 0 71 14.5t58 54.5h44v0z" />
    <glyph glyph-name="Aogonek" unicode="&#x104;" horiz-adv-x="692" 
d="M557 -167q-45 -20 -84 -20q-14 0 -28 3t-25 9t-17.5 16t-6.5 24q0 23 13.5 43.5t35 37.5t49.5 30.5t58 23.5h-43l-21 191h-351l-127 -191h-100l498 723h105l90 -723q-60 -23 -97.5 -50t-37.5 -62q0 -18 14 -26.5t34 -8.5q12 0 21.5 2.5t21.5 7.5zM440 646l-257 -385h296z
" />
    <glyph glyph-name="aogonek" unicode="&#x105;" horiz-adv-x="537" 
d="M463 394q0 -20 -4.5 -44t-12.5 -54q-3 -9 -7.5 -25t-9.5 -33t-10 -33t-8 -25q-6 -20 -12.5 -43t-12.5 -47q-5 -23 -9.5 -46t-8.5 -44q-60 -23 -97.5 -50t-37.5 -62q0 -18 14 -26.5t34 -8.5q12 0 21.5 2.5t21.5 7.5l-2 -30q-45 -20 -84 -20q-14 0 -28 3t-25 9t-17.5 16
t-6.5 24q0 23 13.5 43.5t35 37.5t49.5 30.5t58 23.5h-33q0 5 3 25t9 46q-39 -42 -83.5 -61t-92.5 -19q-31 0 -57.5 8t-46 23.5t-30.5 39t-11 54.5q0 54 29 93.5t78 62.5q32 15 73 22.5t101 11.5q20 2 49.5 2.5t58.5 0.5l7 26q7 27 7 49q0 35 -22.5 55t-70.5 20
q-51 0 -83 -23t-42 -65h-87q6 35 24 62t46.5 45t66.5 27t82 9q78 0 124.5 -30t46.5 -90zM349 256q-49 -2 -84 -4.5t-60 -6.5t-42.5 -10t-32.5 -13q-30 -15 -48 -40.5t-18 -56.5q0 -38 22.5 -57.5t63.5 -19.5q45 0 80.5 25.5t61.5 60.5q11 15 20.5 32.5t20.5 44.5z" />
    <glyph glyph-name="Cacute" unicode="&#x106;" horiz-adv-x="665" 
d="M681 563q0 -11 -1 -19t-3 -21h-99q2 14 2.5 21t0.5 15q0 48 -36 75t-95 27q-63 0 -117 -32t-96 -92q-47 -67 -73.5 -148t-26.5 -161q0 -32 9.5 -62t30 -53t51.5 -37t75 -14q38 0 71 12.5t59 36.5q30 27 49 71h101q-23 -70 -76 -118q-41 -37 -93.5 -55.5t-113.5 -18.5
q-67 0 -116.5 19t-82 51.5t-48.5 75.5t-16 92q0 47 9.5 98t27.5 100t44 94.5t59 81.5q57 63 126.5 97t155.5 34q51 0 92 -11.5t70 -33.5t44.5 -53.5t15.5 -71.5zM491 777h-65l127 144h116z" />
    <glyph glyph-name="cacute" unicode="&#x107;" horiz-adv-x="526" 
d="M488 389q0 -12 -1.5 -24.5t-6.5 -32.5h-86q7 27 7 46q0 38 -23 58.5t-68 20.5q-53 0 -96.5 -31t-73.5 -83q-23 -39 -37 -86t-14 -90q0 -54 29 -85.5t86 -31.5q54 0 91.5 29t54.5 79h90q-26 -78 -89.5 -122.5t-155.5 -44.5q-94 0 -144.5 48.5t-50.5 128.5q0 74 29 143.5
t80 119.5q43 43 94.5 63t114.5 20q37 0 68.5 -8t54 -24t35 -39.5t12.5 -53.5zM333 591h-65l127 145h116z" />
    <glyph glyph-name="Ccircumflex" unicode="&#x108;" horiz-adv-x="665" 
d="M681 563q0 -11 -1 -19t-3 -21h-99q2 14 2.5 21t0.5 15q0 48 -36 75t-95 27q-63 0 -117 -32t-96 -92q-47 -67 -73.5 -148t-26.5 -161q0 -32 9.5 -62t30 -53t51.5 -37t75 -14q38 0 71 12.5t59 36.5q30 27 49 71h101q-23 -70 -76 -118q-41 -37 -93.5 -55.5t-113.5 -18.5
q-67 0 -116.5 19t-82 51.5t-48.5 75.5t-16 92q0 47 9.5 98t27.5 100t44 94.5t59 81.5q57 63 126.5 97t155.5 34q51 0 92 -11.5t70 -33.5t44.5 -53.5t15.5 -71.5zM586 775l-56 100l-118 -100h-68l146 146h93l61 -146h-58z" />
    <glyph glyph-name="ccircumflex" unicode="&#x109;" horiz-adv-x="526" 
d="M488 389q0 -12 -1.5 -24.5t-6.5 -32.5h-86q7 27 7 46q0 38 -23 58.5t-68 20.5q-53 0 -96.5 -31t-73.5 -83q-23 -39 -37 -86t-14 -90q0 -54 29 -85.5t86 -31.5q54 0 91.5 29t54.5 79h90q-26 -78 -89.5 -122.5t-155.5 -44.5q-94 0 -144.5 48.5t-50.5 128.5q0 74 29 143.5
t80 119.5q43 43 94.5 63t114.5 20q37 0 68.5 -8t54 -24t35 -39.5t12.5 -53.5zM432 591l-56 100l-118 -100h-68l146 146h93l61 -146h-58z" />
    <glyph glyph-name="Cdotaccent" unicode="&#x10a;" horiz-adv-x="665" 
d="M681 563q0 -11 -1 -19t-3 -21h-99q2 14 2.5 21t0.5 15q0 48 -36 75t-95 27q-63 0 -117 -32t-96 -92q-47 -67 -73.5 -148t-26.5 -161q0 -32 9.5 -62t30 -53t51.5 -37t75 -14q38 0 71 12.5t59 36.5q30 27 49 71h101q-23 -70 -76 -118q-41 -37 -93.5 -55.5t-113.5 -18.5
q-67 0 -116.5 19t-82 51.5t-48.5 75.5t-16 92q0 47 9.5 98t27.5 100t44 94.5t59 81.5q57 63 126.5 97t155.5 34q51 0 92 -11.5t70 -33.5t44.5 -53.5t15.5 -71.5zM455 806l26 89h92l-26 -89h-92z" />
    <glyph glyph-name="cdotaccent" unicode="&#x10b;" horiz-adv-x="526" 
d="M488 389q0 -12 -1.5 -24.5t-6.5 -32.5h-86q7 27 7 46q0 38 -23 58.5t-68 20.5q-53 0 -96.5 -31t-73.5 -83q-23 -39 -37 -86t-14 -90q0 -54 29 -85.5t86 -31.5q54 0 91.5 29t54.5 79h90q-26 -78 -89.5 -122.5t-155.5 -44.5q-94 0 -144.5 48.5t-50.5 128.5q0 74 29 143.5
t80 119.5q43 43 94.5 63t114.5 20q37 0 68.5 -8t54 -24t35 -39.5t12.5 -53.5zM311 635l26 89h92l-26 -89h-92z" />
    <glyph glyph-name="Ccaron" unicode="&#x10c;" horiz-adv-x="665" 
d="M681 563q0 -11 -1 -19t-3 -21h-99q2 14 2.5 21t0.5 15q0 48 -36 75t-95 27q-63 0 -117 -32t-96 -92q-47 -67 -73.5 -148t-26.5 -161q0 -32 9.5 -62t30 -53t51.5 -37t75 -14q38 0 71 12.5t59 36.5q30 27 49 71h101q-23 -70 -76 -118q-41 -37 -93.5 -55.5t-113.5 -18.5
q-67 0 -116.5 19t-82 51.5t-48.5 75.5t-16 92q0 47 9.5 98t27.5 100t44 94.5t59 81.5q57 63 126.5 97t155.5 34q51 0 92 -11.5t70 -33.5t44.5 -53.5t15.5 -71.5zM446 921l56 -98l118 98h68l-146 -144h-93l-61 144h58z" />
    <glyph glyph-name="ccaron" unicode="&#x10d;" horiz-adv-x="526" 
d="M488 389q0 -12 -1.5 -24.5t-6.5 -32.5h-86q7 27 7 46q0 38 -23 58.5t-68 20.5q-53 0 -96.5 -31t-73.5 -83q-23 -39 -37 -86t-14 -90q0 -54 29 -85.5t86 -31.5q54 0 91.5 29t54.5 79h90q-26 -78 -89.5 -122.5t-155.5 -44.5q-94 0 -144.5 48.5t-50.5 128.5q0 74 29 143.5
t80 119.5q43 43 94.5 63t114.5 20q37 0 68.5 -8t54 -24t35 -39.5t12.5 -53.5zM295 736l56 -99l118 99h68l-146 -145h-93l-61 145h58z" />
    <glyph glyph-name="Dcaron" unicode="&#x10e;" horiz-adv-x="750" 
d="M716 477q0 -69 -17.5 -137t-49.5 -128q-33 -65 -84 -112t-115 -71q-39 -15 -88.5 -22t-112.5 -7h-250l213 723h211q63 0 116.5 -14t92.5 -43.5t61.5 -76t22.5 -112.5zM618 470q0 52 -16.5 86.5t-45.5 55.5t-70 29.5t-89 8.5h-113l-169 -577h122q26 0 44.5 0.5t33.5 2
t28 3.5t27 6q63 17 107.5 52.5t77.5 97.5q29 54 46 116t17 119zM433 921l56 -98l118 98h68l-146 -144h-93l-61 144h58z" />
    <glyph glyph-name="dcaron" unicode="&#x10f;" horiz-adv-x="596" 
d="M448 122q-14 -48 -29 -122h-86l15 71q-41 -43 -82.5 -61.5t-95.5 -18.5q-81 0 -125.5 49t-44.5 131q0 36 7.5 72.5t21.5 71t33.5 65.5t44.5 56q38 38 86 59t103 21q56 0 95 -24t58 -73l91 304h87zM416 343q0 54 -29.5 82.5t-83.5 28.5q-89 0 -150 -87q-30 -43 -46 -92.5
t-16 -100.5q0 -54 28 -87t82 -33t96 30.5t71 84.5q21 39 34.5 86.5t13.5 87.5zM680 498h-65l89 225h98z" />
    <glyph glyph-name="Dcroat" unicode="&#x110;" horiz-adv-x="750" 
d="M716 477q0 -69 -17.5 -137t-49.5 -128q-33 -65 -84 -112t-115 -71q-39 -15 -88.5 -22t-112.5 -7h-250l109 369h-69l16 57h70l87 297h211q63 0 116.5 -14t92.5 -43.5t61.5 -76t22.5 -112.5zM618 470q0 52 -16.5 86.5t-45.5 55.5t-70 29.5t-89 8.5h-113l-66 -224h200
l-16 -57h-200l-87 -296h122q26 0 44.5 0.5t33.5 2t28 3.5t27 6q63 17 107.5 52.5t77.5 97.5q29 54 46 116t17 119z" />
    <glyph glyph-name="dcroat" unicode="&#x111;" horiz-adv-x="596" 
d="M598 627h71l-17 -55h-70l-134 -450q-14 -48 -29 -122h-86l15 71q-41 -43 -82.5 -61.5t-95.5 -18.5q-81 0 -125.5 49t-44.5 131q0 36 7.5 72.5t21.5 71t33.5 65.5t44.5 56q38 38 86 59t103 21q56 0 95 -24t58 -73l45 153h-182l17 55h182l29 96h87zM416 343
q0 54 -29.5 82.5t-83.5 28.5q-89 0 -150 -87q-30 -43 -46 -92.5t-16 -100.5q0 -54 28 -87t82 -33t96 30.5t71 84.5q21 39 34.5 86.5t13.5 87.5z" />
    <glyph glyph-name="Emacron" unicode="&#x112;" horiz-adv-x="619" 
d="M641 649h-357l-72 -241h340l-21 -71h-339l-78 -263h370l-22 -74h-463l212 723h453zM322 814l16 57h274l-17 -57h-273z" />
    <glyph glyph-name="emacron" unicode="&#x113;" horiz-adv-x="540" 
d="M481 362q0 -30 -5.5 -60t-18.5 -65h-358q-12 -42 -12 -79q0 -52 27 -81t84 -29q53 0 86.5 25t59.5 77h91q-67 -161 -235 -161q-93 0 -146.5 45t-53.5 120q0 36 8 74t22.5 75t35 70t45.5 59q41 43 91 63.5t107 20.5q78 0 125 -40t47 -114zM395 359q0 42 -22 69t-71 27
q-85 0 -140 -73q-14 -18 -24.5 -40t-20.5 -48h267q7 23 9 35.5t2 29.5zM214 639l16 56h274l-17 -56h-273z" />
    <glyph glyph-name="Ebreve" unicode="&#x114;" horiz-adv-x="619" 
d="M641 649h-357l-72 -241h340l-21 -71h-339l-78 -263h370l-22 -74h-463l212 723h453zM641 904q-24 -62 -71 -92.5t-111 -30.5q-54 0 -89.5 24t-35.5 71q0 13 3 28h45q-1 -2 -1 -7q0 -32 24.5 -47t62.5 -15q36 0 71 15t58 54h44v0z" />
    <glyph glyph-name="ebreve" unicode="&#x115;" horiz-adv-x="540" 
d="M481 362q0 -30 -5.5 -60t-18.5 -65h-358q-12 -42 -12 -79q0 -52 27 -81t84 -29q53 0 86.5 25t59.5 77h91q-67 -161 -235 -161q-93 0 -146.5 45t-53.5 120q0 36 8 74t22.5 75t35 70t45.5 59q41 43 91 63.5t107 20.5q78 0 125 -40t47 -114zM395 359q0 42 -22 69t-71 27
q-85 0 -140 -73q-14 -18 -24.5 -40t-20.5 -48h267q7 23 9 35.5t2 29.5zM528 714q-24 -62 -71 -92.5t-111 -30.5q-53 0 -89 24t-36 71q0 13 3 28h45q-1 -2 -1 -7q0 -32 24.5 -47t62.5 -15q36 0 71 14.5t58 54.5h44v0z" />
    <glyph glyph-name="Edotaccent" unicode="&#x116;" horiz-adv-x="619" 
d="M641 649h-357l-72 -241h340l-21 -71h-339l-78 -263h370l-22 -74h-463l212 723h453zM424 806l26 89h92l-26 -89h-92z" />
    <glyph glyph-name="edotaccent" unicode="&#x117;" horiz-adv-x="540" 
d="M481 362q0 -30 -5.5 -60t-18.5 -65h-358q-12 -42 -12 -79q0 -52 27 -81t84 -29q53 0 86.5 25t59.5 77h91q-67 -161 -235 -161q-93 0 -146.5 45t-53.5 120q0 36 8 74t22.5 75t35 70t45.5 59q41 43 91 63.5t107 20.5q78 0 125 -40t47 -114zM395 359q0 42 -22 69t-71 27
q-85 0 -140 -73q-14 -18 -24.5 -40t-20.5 -48h267q7 23 9 35.5t2 29.5zM312 635l26 89h92l-26 -89h-92z" />
    <glyph glyph-name="Eogonek" unicode="&#x118;" horiz-adv-x="619" 
d="M416 -167q-45 -20 -84 -20q-14 0 -28 3t-25 9t-17.5 16t-6.5 24q0 23 13.5 43.5t35 37.5t49.5 30.5t58 23.5h-412l212 723h453l-23 -74h-357l-72 -241h340l-21 -71h-339l-78 -263h370l-22 -74q-60 -23 -97.5 -50t-37.5 -62q0 -18 14 -26.5t34 -8.5q12 0 21.5 2.5
t21.5 7.5l-2 -30v0z" />
    <glyph glyph-name="eogonek" unicode="&#x119;" horiz-adv-x="540" 
d="M481 362q0 -30 -5.5 -60t-18.5 -65h-358q-12 -42 -12 -79q0 -52 27 -81t84 -29q53 0 86.5 25t59.5 77h91q-54 -129 -175 -155q-54 -22 -88 -48t-34 -59q0 -18 14 -26.5t34 -8.5q12 0 21.5 2.5t21.5 7.5l-2 -30q-45 -20 -84 -20q-14 0 -28 3t-25 9t-17.5 16t-6.5 24
q0 20 10 38t27.5 34t40 29t47.5 23q-90 2 -140.5 46.5t-50.5 118.5q0 36 8 74t22.5 75t35 70t45.5 59q41 43 91 63.5t107 20.5q78 0 125 -40t47 -114zM395 359q0 42 -22 69t-71 27q-85 0 -140 -73q-14 -18 -24.5 -40t-20.5 -48h267q7 23 9 35.5t2 29.5z" />
    <glyph glyph-name="Ecaron" unicode="&#x11a;" horiz-adv-x="619" 
d="M641 649h-357l-72 -241h340l-21 -71h-339l-78 -263h370l-22 -74h-463l212 723h453zM408 921l56 -98l118 98h68l-146 -144h-93l-61 144h58z" />
    <glyph glyph-name="ecaron" unicode="&#x11b;" horiz-adv-x="540" 
d="M481 362q0 -30 -5.5 -60t-18.5 -65h-358q-12 -42 -12 -79q0 -52 27 -81t84 -29q53 0 86.5 25t59.5 77h91q-67 -161 -235 -161q-93 0 -146.5 45t-53.5 120q0 36 8 74t22.5 75t35 70t45.5 59q41 43 91 63.5t107 20.5q78 0 125 -40t47 -114zM395 359q0 42 -22 69t-71 27
q-85 0 -140 -73q-14 -18 -24.5 -40t-20.5 -48h267q7 23 9 35.5t2 29.5zM296 736l56 -99l118 99h68l-146 -145h-93l-61 145h58z" />
    <glyph glyph-name="Gcircumflex" unicode="&#x11c;" horiz-adv-x="708" 
d="M681 564q0 -23 -4 -39h-100q3 16 3 34q0 48 -35.5 75.5t-95.5 27.5q-63 0 -114.5 -29.5t-94.5 -86.5q-50 -67 -77 -149.5t-27 -159.5q0 -83 47 -127q50 -47 149 -47q35 0 67.5 5t70.5 18l64 217h-169l20 70h260l-100 -342q-58 -21 -111.5 -31t-119.5 -10q-67 0 -120.5 19
t-90.5 55q-32 32 -49 74t-17 96q0 48 9.5 97t27 96t41.5 90t54 79q58 71 130.5 104.5t163.5 33.5q47 0 87 -10.5t69 -32t45.5 -53.5t16.5 -74zM575 775l-56 100l-118 -100h-68l146 146h93l61 -146h-58z" />
    <glyph glyph-name="gcircumflex" unicode="&#x11d;" horiz-adv-x="586" 
d="M412 33q-21 -72 -43.5 -115.5t-52.5 -70.5q-32 -29 -78.5 -41t-107.5 -12q-42 0 -76 8t-57 24t-38 43.5t-15 58.5q0 14 2 24h89q-1 -5 -1 -9.5v-9.5q1 -42 27 -61t76 -19q34 0 59.5 7t44.5 20.5t33 33.5t26 46q14 29 23 58.5t19 59.5q-31 -35 -72.5 -56t-94.5 -21
q-79 0 -125 49t-46 130q0 61 20 117.5t53 101.5q39 53 92.5 85t113.5 32q57 0 98 -24t58 -74l25 86h88zM409 329q0 54 -30 88.5t-84 34.5q-45 0 -84 -25.5t-66 -67.5q-23 -36 -36 -81.5t-13 -93.5q0 -52 28 -86t82 -34q42 0 78 19.5t61 54.5q15 21 27 45t20 49.5t12.5 50.5
t4.5 46zM439 591l-56 100l-118 -100h-68l146 146h93l61 -146h-58z" />
    <glyph glyph-name="Gbreve" unicode="&#x11e;" horiz-adv-x="708" 
d="M681 564q0 -23 -4 -39h-100q3 16 3 34q0 48 -35.5 75.5t-95.5 27.5q-63 0 -114.5 -29.5t-94.5 -86.5q-50 -67 -77 -149.5t-27 -159.5q0 -83 47 -127q50 -47 149 -47q35 0 67.5 5t70.5 18l64 217h-169l20 70h260l-100 -342q-58 -21 -111.5 -31t-119.5 -10q-67 0 -120.5 19
t-90.5 55q-32 32 -49 74t-17 96q0 48 9.5 97t27 96t41.5 90t54 79q58 71 130.5 104.5t163.5 33.5q47 0 87 -10.5t69 -32t45.5 -53.5t16.5 -74zM670 904q-24 -62 -71 -92.5t-111 -30.5q-54 0 -89.5 24t-35.5 71q0 13 3 28h45q-1 -2 -1 -7q0 -32 24.5 -47t62.5 -15q36 0 71 15
t58 54h44v0z" />
    <glyph glyph-name="gbreve" unicode="&#x11f;" horiz-adv-x="586" 
d="M412 33q-21 -72 -43.5 -115.5t-52.5 -70.5q-32 -29 -78.5 -41t-107.5 -12q-42 0 -76 8t-57 24t-38 43.5t-15 58.5q0 14 2 24h89q-1 -5 -1 -9.5v-9.5q1 -42 27 -61t76 -19q34 0 59.5 7t44.5 20.5t33 33.5t26 46q14 29 23 58.5t19 59.5q-31 -35 -72.5 -56t-94.5 -21
q-79 0 -125 49t-46 130q0 61 20 117.5t53 101.5q39 53 92.5 85t113.5 32q57 0 98 -24t58 -74l25 86h88zM409 329q0 54 -30 88.5t-84 34.5q-45 0 -84 -25.5t-66 -67.5q-23 -36 -36 -81.5t-13 -93.5q0 -52 28 -86t82 -34q42 0 78 19.5t61 54.5q15 21 27 45t20 49.5t12.5 50.5
t4.5 46zM534 714q-24 -62 -71 -92.5t-111 -30.5q-53 0 -89 24t-36 71q0 13 3 28h45q-1 -2 -1 -7q0 -32 24.5 -47t62.5 -15q36 0 71 14.5t58 54.5h44v0z" />
    <glyph glyph-name="Gdotaccent" unicode="&#x120;" horiz-adv-x="708" 
d="M681 564q0 -23 -4 -39h-100q3 16 3 34q0 48 -35.5 75.5t-95.5 27.5q-63 0 -114.5 -29.5t-94.5 -86.5q-50 -67 -77 -149.5t-27 -159.5q0 -83 47 -127q50 -47 149 -47q35 0 67.5 5t70.5 18l64 217h-169l20 70h260l-100 -342q-58 -21 -111.5 -31t-119.5 -10q-67 0 -120.5 19
t-90.5 55q-32 32 -49 74t-17 96q0 48 9.5 97t27 96t41.5 90t54 79q58 71 130.5 104.5t163.5 33.5q47 0 87 -10.5t69 -32t45.5 -53.5t16.5 -74zM453 806l26 89h92l-26 -89h-92z" />
    <glyph glyph-name="gdotaccent" unicode="&#x121;" horiz-adv-x="586" 
d="M412 33q-21 -72 -43.5 -115.5t-52.5 -70.5q-32 -29 -78.5 -41t-107.5 -12q-42 0 -76 8t-57 24t-38 43.5t-15 58.5q0 14 2 24h89q-1 -5 -1 -9.5v-9.5q1 -42 27 -61t76 -19q34 0 59.5 7t44.5 20.5t33 33.5t26 46q14 29 23 58.5t19 59.5q-31 -35 -72.5 -56t-94.5 -21
q-79 0 -125 49t-46 130q0 61 20 117.5t53 101.5q39 53 92.5 85t113.5 32q57 0 98 -24t58 -74l25 86h88zM409 329q0 54 -30 88.5t-84 34.5q-45 0 -84 -25.5t-66 -67.5q-23 -36 -36 -81.5t-13 -93.5q0 -52 28 -86t82 -34q42 0 78 19.5t61 54.5q15 21 27 45t20 49.5t12.5 50.5
t4.5 46zM318 635l26 89h92l-26 -89h-92z" />
    <glyph glyph-name="Gcommaaccent" unicode="&#x122;" horiz-adv-x="708" 
d="M681 564q0 -23 -4 -39h-100q3 16 3 34q0 48 -35.5 75.5t-95.5 27.5q-63 0 -114.5 -29.5t-94.5 -86.5q-50 -67 -77 -149.5t-27 -159.5q0 -83 47 -127q50 -47 149 -47q35 0 67.5 5t70.5 18l64 217h-169l20 70h260l-100 -342q-58 -21 -111.5 -31t-119.5 -10q-67 0 -120.5 19
t-90.5 55q-32 32 -49 74t-17 96q0 48 9.5 97t27 96t41.5 90t54 79q58 71 130.5 104.5t163.5 33.5q47 0 87 -10.5t69 -32t45.5 -53.5t16.5 -74zM236 -200h-62l82 167h88z" />
    <glyph glyph-name="gcommaaccent" unicode="&#x123;" horiz-adv-x="586" 
d="M412 33q-21 -72 -43.5 -115.5t-52.5 -70.5q-32 -29 -78.5 -41t-107.5 -12q-42 0 -76 8t-57 24t-38 43.5t-15 58.5q0 14 2 24h89q-1 -5 -1 -9.5v-9.5q1 -42 27 -61t76 -19q34 0 59.5 7t44.5 20.5t33 33.5t26 46q14 29 23 58.5t19 59.5q-31 -35 -72.5 -56t-94.5 -21
q-79 0 -125 49t-46 130q0 61 20 117.5t53 101.5q39 53 92.5 85t113.5 32q57 0 98 -24t58 -74l25 86h88zM409 329q0 54 -30 88.5t-84 34.5q-45 0 -84 -25.5t-66 -67.5q-23 -36 -36 -81.5t-13 -93.5q0 -52 28 -86t82 -34q42 0 78 19.5t61 54.5q15 21 27 45t20 49.5t12.5 50.5
t4.5 46zM407 736h63l-75 -145h-88z" />
    <glyph glyph-name="Hcircumflex" unicode="&#x124;" horiz-adv-x="768" 
d="M556 0h-94l99 336h-369l-99 -336h-94l212 723h94l-92 -314h370l92 314h94zM598 775l-56 100l-118 -100h-68l146 146h93l61 -146h-58z" />
    <glyph glyph-name="hcircumflex" unicode="&#x125;" horiz-adv-x="583" 
d="M507 393q0 -24 -7 -53.5t-14 -52.5l-85 -287h-88l88 294q5 17 10.5 41t5.5 42q0 34 -20.5 53t-58.5 19q-34 0 -64.5 -15t-59.5 -42q-29 -28 -47.5 -60.5t-31.5 -76.5l-76 -255h-88l213 723h89l-89 -301q43 47 87.5 69.5t96.5 22.5q65 0 102 -32.5t37 -88.5zM337 775
l-56 100l-118 -100h-68l146 146h93l61 -146h-58z" />
    <glyph glyph-name="Hbar" unicode="&#x126;" horiz-adv-x="768" 
d="M251 541h371l53 182h94l-213 -723h-94l99 336h-369l-99 -336h-94l212 723h94zM235 484l-22 -75h370l22 75h-370z" />
    <glyph glyph-name="hbar" unicode="&#x127;" horiz-adv-x="583" 
d="M507 393q0 -24 -7 -53.5t-14 -52.5l-85 -287h-88l88 294q5 17 10.5 41t5.5 42q0 34 -20.5 53t-58.5 19q-34 0 -64.5 -15t-59.5 -42q-29 -28 -47.5 -60.5t-31.5 -76.5l-76 -255h-88l168 572h-77l17 55h76l29 96h89l-29 -96h165l-17 -55h-164l-44 -150q43 47 87.5 69.5
t96.5 22.5q65 0 102 -32.5t37 -88.5z" />
    <glyph glyph-name="Itilde" unicode="&#x128;" horiz-adv-x="304" 
d="M93 0h-94l212 723h94zM462 902q-8 -18 -21 -35.5t-29 -31t-34.5 -22t-38.5 -8.5q-15 0 -29 4t-27.5 8.5t-27 8.5t-28.5 4q-37 0 -58 -31h-46q18 40 52.5 67t76.5 27q15 0 28.5 -4t26 -8.5t25.5 -8.5t28 -4q18 0 31 8.5t24 25.5h47v0z" />
    <glyph glyph-name="itilde" unicode="&#x129;" horiz-adv-x="240" 
d="M59 0h-88l147 504h88zM375 716q-8 -18 -21 -35.5t-29 -31t-34.5 -21.5t-38.5 -8q-15 0 -29 4t-27.5 8.5t-27 8.5t-28.5 4q-37 0 -58 -31h-46q18 39 52.5 66.5t76.5 27.5q15 0 28.5 -4t26 -8.5t25.5 -8.5t28 -4q18 0 31 8.5t24 24.5h47v0z" />
    <glyph glyph-name="Imacron" unicode="&#x12a;" horiz-adv-x="304" 
d="M93 0h-94l212 723h94zM143 814l16 57h274l-17 -57h-273z" />
    <glyph glyph-name="imacron" unicode="&#x12b;" horiz-adv-x="240" 
d="M59 0h-88l147 504h88zM60 639l16 56h274l-17 -56h-273z" />
    <glyph glyph-name="Ibreve" unicode="&#x12c;" horiz-adv-x="304" 
d="M93 0h-94l212 723h94zM451 904q-24 -62 -71 -92.5t-111 -30.5q-54 0 -89.5 24t-35.5 71q0 13 3 28h45q-1 -2 -1 -7q0 -32 24.5 -47t62.5 -15q36 0 71 15t58 54h44v0z" />
    <glyph glyph-name="ibreve" unicode="&#x12d;" horiz-adv-x="240" 
d="M59 0h-88l147 504h88zM363 714q-24 -62 -71 -92.5t-111 -30.5q-53 0 -89 24t-36 71q0 13 3 28h45q-1 -2 -1 -7q0 -32 24.5 -47t62.5 -15q36 0 71 14.5t58 54.5h44v0z" />
    <glyph glyph-name="Iogonek" unicode="&#x12e;" horiz-adv-x="304" 
d="M47 -167q-45 -20 -84 -20q-14 0 -28 3t-25 9t-17.5 16t-6.5 24q0 23 13.5 43.5t35 37.5t49.5 30.5t58 23.5h-43l212 723h94l-212 -723q-60 -23 -97.5 -50t-37.5 -62q0 -18 14 -26.5t34 -8.5q12 0 21.5 2.5t21.5 7.5l-2 -30v0z" />
    <glyph glyph-name="iogonek" unicode="&#x12f;" horiz-adv-x="240" 
d="M13 -167q-45 -20 -84 -20q-14 0 -28 3t-25 9t-17.5 16t-6.5 24q0 23 13.5 43.5t35 37.5t49.5 30.5t58 23.5h-37l147 504h88l-147 -504q-60 -23 -97.5 -50t-37.5 -62q0 -18 14 -26.5t34 -8.5q12 0 21.5 2.5t21.5 7.5zM247 624h-98l26 86h98z" />
    <glyph glyph-name="Idotaccent" unicode="&#x130;" horiz-adv-x="304" 
d="M93 0h-94l212 723h94zM236 806l26 89h92l-26 -89h-92z" />
    <glyph glyph-name="dotlessi" unicode="&#x131;" horiz-adv-x="240" 
d="M59 0h-88l147 504h88z" />
    <glyph glyph-name="Jcircumflex" unicode="&#x134;" horiz-adv-x="549" 
d="M407 194q-11 -38 -26.5 -69.5t-36.5 -56.5q-34 -39 -82 -59t-114 -20q-81 0 -129.5 38.5t-48.5 104.5q0 17 2 27t8 27h96q-4 -11 -6 -19.5t-2 -22.5q0 -36 21 -58.5t69 -22.5q76 0 121 65q13 18 23 41t18 49l151 505h93zM615 775l-56 100l-118 -100h-68l146 146h93
l61 -146h-58z" />
    <glyph glyph-name="jcircumflex" unicode="&#x135;" horiz-adv-x="242" 
d="M39 -66q-12 -41 -25 -62.5t-33 -37.5q-41 -30 -102 -30q-31 0 -59 3l17 62l16.5 -1.5t13.5 -0.5q36 0 55 19.5t33 65.5l163 552h88zM269 591l-56 100l-118 -100h-68l146 146h93l61 -146h-58z" />
    <glyph glyph-name="Kcommaaccent" unicode="&#x136;" horiz-adv-x="648" 
d="M313 385l245 -385h-115l-231 395l383 328h124zM93 0h-94l212 723h94zM212 -200h-62l82 167h88z" />
    <glyph glyph-name="kcommaaccent" unicode="&#x137;" horiz-adv-x="519" 
d="M239 281l186 -281h-105l-176 287l277 217h115zM57 0h-86l213 723h87zM134 -200h-62l82 167h88z" />
    <glyph glyph-name="kgreenlandic" unicode="&#x138;" horiz-adv-x="519" 
d="M239 281l186 -281h-105l-176 287l277 217h115zM57 0h-86l148 504h87z" />
    <glyph glyph-name="Lacute" unicode="&#x139;" horiz-adv-x="541" 
d="M444 0h-445l211 723h94l-190 -649h351zM289 777h-65l127 144h116z" />
    <glyph glyph-name="lacute" unicode="&#x13a;" horiz-adv-x="240" 
d="M59 0h-88l213 723h87zM232 766h-65l127 145h116z" />
    <glyph glyph-name="Lcommaaccent" unicode="&#x13b;" horiz-adv-x="541" 
d="M444 0h-445l211 723h94l-190 -649h351zM158 -200h-62l82 167h88z" />
    <glyph glyph-name="lcommaaccent" unicode="&#x13c;" horiz-adv-x="240" 
d="M59 0h-88l213 723h87zM-61 -200h-62l82 167h88z" />
    <glyph glyph-name="Lcaron" unicode="&#x13d;" horiz-adv-x="541" 
d="M444 0h-445l211 723h94l-190 -649h351zM409 498h-65l89 225h98z" />
    <glyph glyph-name="lcaron" unicode="&#x13e;" horiz-adv-x="240" 
d="M59 0h-88l213 723h87zM327 498h-65l89 225h98z" />
    <glyph glyph-name="Ldot" unicode="&#x13f;" horiz-adv-x="541" 
d="M444 0h-445l211 723h94l-190 -649h351zM369 344l26 89h92l-26 -89h-92z" />
    <glyph glyph-name="ldot" unicode="&#x140;" horiz-adv-x="310" 
d="M59 0h-88l213 723h87zM223 339l26 89h92l-26 -89h-92z" />
    <glyph glyph-name="Lslash" unicode="&#x141;" horiz-adv-x="541" 
d="M444 0h-445l93 318l-81 -40l21 70l80 40l98 335h94l-82 -281l207 104l-18 -70l-210 -105l-87 -297h351z" />
    <glyph glyph-name="lslash" unicode="&#x142;" horiz-adv-x="260" 
d="M268 429l-88 -49l-111 -380h-88l94 321l-93 -53l19 67l93 52l100 336h87l-81 -277l87 50z" />
    <glyph glyph-name="Nacute" unicode="&#x143;" horiz-adv-x="790" 
d="M577 0h-129l-170 641l-185 -641h-90l211 723h129l172 -643l186 643h90zM506 777h-65l127 144h116z" />
    <glyph glyph-name="nacute" unicode="&#x144;" horiz-adv-x="583" 
d="M507 393q0 -23 -7 -53t-14 -53l-85 -287h-88l88 294q7 23 11.5 44t4.5 40q0 32 -20.5 51.5t-58.5 19.5q-65 0 -124 -57q-29 -28 -47.5 -61t-31.5 -76l-76 -255h-88l112 374q9 30 18 64t17 66h88l-22 -82q43 47 87.5 69.5t96.5 22.5q65 0 102 -32.5t37 -88.5zM354 591h-65
l127 145h116z" />
    <glyph glyph-name="Ncommaaccent" unicode="&#x145;" horiz-adv-x="790" 
d="M577 0h-129l-170 641l-185 -641h-90l211 723h129l172 -643l186 643h90zM227 -200h-62l82 167h88z" />
    <glyph glyph-name="ncommaaccent" unicode="&#x146;" horiz-adv-x="583" 
d="M507 393q0 -23 -7 -53t-14 -53l-85 -287h-88l88 294q7 23 11.5 44t4.5 40q0 32 -20.5 51.5t-58.5 19.5q-65 0 -124 -57q-29 -28 -47.5 -61t-31.5 -76l-76 -255h-88l112 374q9 30 18 64t17 66h88l-22 -82q43 47 87.5 69.5t96.5 22.5q65 0 102 -32.5t37 -88.5zM142 -200
h-62l82 167h88z" />
    <glyph glyph-name="Ncaron" unicode="&#x147;" horiz-adv-x="790" 
d="M577 0h-129l-170 641l-185 -641h-90l211 723h129l172 -643l186 643h90zM468 921l56 -98l118 98h68l-146 -144h-93l-61 144h58z" />
    <glyph glyph-name="ncaron" unicode="&#x148;" horiz-adv-x="583" 
d="M507 393q0 -23 -7 -53t-14 -53l-85 -287h-88l88 294q7 23 11.5 44t4.5 40q0 32 -20.5 51.5t-58.5 19.5q-65 0 -124 -57q-29 -28 -47.5 -61t-31.5 -76l-76 -255h-88l112 374q9 30 18 64t17 66h88l-22 -82q43 47 87.5 69.5t96.5 22.5q65 0 102 -32.5t37 -88.5zM316 736
l56 -99l118 99h68l-146 -145h-93l-61 145h58z" />
    <glyph glyph-name="Eng" unicode="&#x14a;" horiz-adv-x="790" 
d="M278 641l-185 -641h-90l211 723h129l192 -580l166 580h90l-229 -773q-23 -79 -65.5 -112.5t-110.5 -33.5q-18 0 -35.5 1.5t-31.5 3.5l18 67q17 -5 40 -5q40 0 63.5 17t37.5 64l14 48z" />
    <glyph glyph-name="eng" unicode="&#x14b;" horiz-adv-x="583" 
d="M507 393q0 -23 -7 -53t-14 -53l-104 -353q-12 -41 -25 -62.5t-33 -37.5q-41 -30 -102 -30q-31 0 -59 3l17 62l16.5 -1.5t13.5 -0.5q36 0 55 19.5t33 65.5l103 342q7 23 11.5 44t4.5 40q0 32 -20.5 51.5t-58.5 19.5q-65 0 -124 -57q-29 -28 -47.5 -61t-31.5 -76l-76 -255
h-88l112 374q9 30 18 64t17 66h88l-22 -82q43 47 87.5 69.5t96.5 22.5q65 0 102 -32.5t37 -88.5z" />
    <glyph glyph-name="Omacron" unicode="&#x14c;" horiz-adv-x="758" 
d="M724 486q0 -45 -9 -90t-24 -88.5t-35.5 -82.5t-43.5 -72q-56 -77 -130.5 -121t-179.5 -44q-60 0 -109 17t-83.5 49t-53.5 78t-19 105q0 92 32 182t86 162q54 70 129 110.5t178 40.5q61 0 109.5 -17t82.5 -49t52 -77.5t18 -102.5zM626 480q0 82 -43.5 131t-129.5 49
q-78 0 -138 -41t-105 -116q-18 -30 -32 -63.5t-24 -68t-15.5 -68t-5.5 -62.5q0 -40 12 -73t34.5 -57t55.5 -37t75 -13q61 0 114.5 30t95.5 83q51 66 78.5 147t27.5 159zM374 814l16 57h274l-17 -57h-273z" />
    <glyph glyph-name="omacron" unicode="&#x14d;" horiz-adv-x="570" 
d="M510 337q0 -66 -22 -129t-59 -113q-38 -52 -95.5 -78.5t-131.5 -26.5q-98 0 -150 50t-52 135q0 69 23.5 132.5t65.5 110.5q44 50 100 74t122 24q94 0 146.5 -48.5t52.5 -130.5zM419 333q0 60 -29 91.5t-89 31.5q-51 0 -91 -27.5t-70 -77.5q-25 -42 -38 -89t-13 -91
q0 -57 32.5 -89t89.5 -32q54 0 96.5 30t69.5 87q20 40 31 84t11 82zM224 639l16 56h274l-17 -56h-273z" />
    <glyph glyph-name="Obreve" unicode="&#x14e;" horiz-adv-x="758" 
d="M724 486q0 -45 -9 -90t-24 -88.5t-35.5 -82.5t-43.5 -72q-56 -77 -130.5 -121t-179.5 -44q-60 0 -109 17t-83.5 49t-53.5 78t-19 105q0 92 32 182t86 162q54 70 129 110.5t178 40.5q61 0 109.5 -17t82.5 -49t52 -77.5t18 -102.5zM626 480q0 82 -43.5 131t-129.5 49
q-78 0 -138 -41t-105 -116q-18 -30 -32 -63.5t-24 -68t-15.5 -68t-5.5 -62.5q0 -40 12 -73t34.5 -57t55.5 -37t75 -13q61 0 114.5 30t95.5 83q51 66 78.5 147t27.5 159zM690 904q-24 -62 -71 -92.5t-111 -30.5q-54 0 -89.5 24t-35.5 71q0 13 3 28h45q-1 -2 -1 -7
q0 -32 24.5 -47t62.5 -15q36 0 71 15t58 54h44v0z" />
    <glyph glyph-name="obreve" unicode="&#x14f;" horiz-adv-x="570" 
d="M510 337q0 -66 -22 -129t-59 -113q-38 -52 -95.5 -78.5t-131.5 -26.5q-98 0 -150 50t-52 135q0 69 23.5 132.5t65.5 110.5q44 50 100 74t122 24q94 0 146.5 -48.5t52.5 -130.5zM419 333q0 60 -29 91.5t-89 31.5q-51 0 -91 -27.5t-70 -77.5q-25 -42 -38 -89t-13 -91
q0 -57 32.5 -89t89.5 -32q54 0 96.5 30t69.5 87q20 40 31 84t11 82zM538 714q-24 -62 -71 -92.5t-111 -30.5q-53 0 -89 24t-36 71q0 13 3 28h45q-1 -2 -1 -7q0 -32 24.5 -47t62.5 -15q36 0 71 14.5t58 54.5h44v0z" />
    <glyph glyph-name="Ohungarumlaut" unicode="&#x150;" horiz-adv-x="758" 
d="M724 486q0 -45 -9 -90t-24 -88.5t-35.5 -82.5t-43.5 -72q-56 -77 -130.5 -121t-179.5 -44q-60 0 -109 17t-83.5 49t-53.5 78t-19 105q0 92 32 182t86 162q54 70 129 110.5t178 40.5q61 0 109.5 -17t82.5 -49t52 -77.5t18 -102.5zM626 480q0 82 -43.5 131t-129.5 49
q-78 0 -138 -41t-105 -116q-18 -30 -32 -63.5t-24 -68t-15.5 -68t-5.5 -62.5q0 -40 12 -73t34.5 -57t55.5 -37t75 -13q61 0 114.5 30t95.5 83q51 66 78.5 147t27.5 159zM599 778h-65l140 143h106zM423 778h-65l140 143h106z" />
    <glyph glyph-name="ohungarumlaut" unicode="&#x151;" horiz-adv-x="570" 
d="M510 337q0 -66 -22 -129t-59 -113q-38 -52 -95.5 -78.5t-131.5 -26.5q-98 0 -150 50t-52 135q0 69 23.5 132.5t65.5 110.5q44 50 100 74t122 24q94 0 146.5 -48.5t52.5 -130.5zM419 333q0 60 -29 91.5t-89 31.5q-51 0 -91 -27.5t-70 -77.5q-25 -42 -38 -89t-13 -91
q0 -57 32.5 -89t89.5 -32q54 0 96.5 30t69.5 87q20 40 31 84t11 82zM449 593h-65l140 143h106zM273 593h-65l140 143h106z" />
    <glyph glyph-name="OE" unicode="&#x152;" horiz-adv-x="982" 
d="M1005 649h-320l-71 -241h302l-21 -72h-302l-77 -262h333l-23 -74h-349q-19 0 -38.5 -1t-38.5 -2q-22 -1 -43.5 -2t-43.5 -1q-62 0 -112 13.5t-85 42t-54.5 72.5t-19.5 105q0 37 6.5 78t18 80.5t27.5 77t36 69.5q57 90 147.5 145.5t209.5 55.5q40 0 80.5 -3.5t80.5 -5.5
q12 -1 24.5 -1h24.5h332zM595 653q-53 9 -106 9q-68 0 -125.5 -23t-102.5 -71q-32 -33 -55 -73.5t-38 -84t-22.5 -89.5t-7.5 -91q0 -81 51 -123t140 -42q24 0 47 2t47 6z" />
    <glyph glyph-name="oe" unicode="&#x153;" horiz-adv-x="912" 
d="M853 355q0 -26 -4 -52t-15 -66h-353q-8 -23 -11 -41.5t-3 -38.5q0 -48 26.5 -77t79.5 -29q48 0 83 26.5t55 72.5h95q-32 -78 -92.5 -119t-141.5 -41q-72 0 -112.5 27t-57.5 74q-42 -46 -93.5 -73.5t-117.5 -27.5q-45 0 -80.5 12.5t-60 35t-37.5 53.5t-13 67
q0 69 23.5 134t66 114.5t102.5 79.5t133 30q57 0 95 -22t57 -63q2 -5 4 -9.5t4 -9.5q30 47 81 75.5t117 28.5q38 0 70 -11.5t55 -31.5t34 -48t11 -70zM766 356q0 45 -21 71t-68 26q-35 0 -65.5 -15t-53.5 -41q-18 -21 -31.5 -44t-27.5 -58h258q5 19 7 33t2 28zM419 348
q0 49 -26.5 78t-75.5 29q-39 0 -75.5 -20t-68.5 -58q-20 -23 -35.5 -51t-26.5 -57.5t-17 -58.5t-6 -54q0 -47 29 -76.5t76 -29.5q48 0 91.5 29.5t75.5 83.5q27 45 43 94t16 91z" />
    <glyph glyph-name="Racute" unicode="&#x154;" horiz-adv-x="677" 
d="M649 570q0 -54 -25.5 -96t-67.5 -68q-27 -17 -55 -26t-61 -14q47 -10 69 -32.5t22 -68.5q0 -22 -2.5 -44.5t-4.5 -45.5q-3 -26 -5 -53t-2 -53q0 -15 0.5 -32t2.5 -37h-95q-2 14 -2 23.5v20.5q0 28 3 58.5t7 62.5q2 23 4 44.5t2 41.5q0 27 -7 44t-24 28q-7 4 -13.5 6.5
t-14.5 4t-19.5 2t-27.5 0.5h-142l-98 -336h-94l212 723h217q86 0 135 -20q40 -17 63 -51t23 -82zM555 554q0 61 -56 84q-30 12 -82 12h-134l-72 -247h146q48 0 80.5 8.5t59.5 28.5t42.5 50t15.5 64zM460 777h-65l127 144h116z" />
    <glyph glyph-name="racute" unicode="&#x155;" horiz-adv-x="377" 
d="M358 429q-10 3 -20.5 4t-21.5 1q-65 0 -110.5 -45t-71.5 -132l-77 -257h-86l114 394q7 23 12.5 47.5t14.5 62.5h84l-23 -92q38 52 80 75.5t93 23.5h16t17 -2zM274 591h-65l127 145h116z" />
    <glyph glyph-name="Rcommaaccent" unicode="&#x156;" horiz-adv-x="677" 
d="M649 570q0 -54 -25.5 -96t-67.5 -68q-27 -17 -55 -26t-61 -14q47 -10 69 -32.5t22 -68.5q0 -22 -2.5 -44.5t-4.5 -45.5q-3 -26 -5 -53t-2 -53q0 -15 0.5 -32t2.5 -37h-95q-2 14 -2 23.5v20.5q0 28 3 58.5t7 62.5q2 23 4 44.5t2 41.5q0 27 -7 44t-24 28q-7 4 -13.5 6.5
t-14.5 4t-19.5 2t-27.5 0.5h-142l-98 -336h-94l212 723h217q86 0 135 -20q40 -17 63 -51t23 -82zM555 554q0 61 -56 84q-30 12 -82 12h-134l-72 -247h146q48 0 80.5 8.5t59.5 28.5t42.5 50t15.5 64zM206 -200h-62l82 167h88z" />
    <glyph glyph-name="rcommaaccent" unicode="&#x157;" horiz-adv-x="377" 
d="M358 429q-10 3 -20.5 4t-21.5 1q-65 0 -110.5 -45t-71.5 -132l-77 -257h-86l114 394q7 23 12.5 47.5t14.5 62.5h84l-23 -92q38 52 80 75.5t93 23.5h16t17 -2zM-60 -200h-62l82 167h88z" />
    <glyph glyph-name="Rcaron" unicode="&#x158;" horiz-adv-x="677" 
d="M649 570q0 -54 -25.5 -96t-67.5 -68q-27 -17 -55 -26t-61 -14q47 -10 69 -32.5t22 -68.5q0 -22 -2.5 -44.5t-4.5 -45.5q-3 -26 -5 -53t-2 -53q0 -15 0.5 -32t2.5 -37h-95q-2 14 -2 23.5v20.5q0 28 3 58.5t7 62.5q2 23 4 44.5t2 41.5q0 27 -7 44t-24 28q-7 4 -13.5 6.5
t-14.5 4t-19.5 2t-27.5 0.5h-142l-98 -336h-94l212 723h217q86 0 135 -20q40 -17 63 -51t23 -82zM555 554q0 61 -56 84q-30 12 -82 12h-134l-72 -247h146q48 0 80.5 8.5t59.5 28.5t42.5 50t15.5 64zM392 921l56 -98l118 98h68l-146 -144h-93l-61 144h58z" />
    <glyph glyph-name="rcaron" unicode="&#x159;" horiz-adv-x="377" 
d="M358 429q-10 3 -20.5 4t-21.5 1q-65 0 -110.5 -45t-71.5 -132l-77 -257h-86l114 394q7 23 12.5 47.5t14.5 62.5h84l-23 -92q38 52 80 75.5t93 23.5h16t17 -2zM216 736l56 -99l118 99h68l-146 -145h-93l-61 145h58z" />
    <glyph glyph-name="Sacute" unicode="&#x15a;" horiz-adv-x="622" 
d="M618 582q0 -9 -1.5 -22t-3.5 -24h-93q4 19 4 35q0 45 -34.5 69t-93.5 24q-36 0 -67.5 -10t-55 -27.5t-37.5 -42t-14 -53.5q0 -23 8 -40t22 -30.5t32.5 -24.5t39.5 -21l63 -30q33 -16 59 -32t44 -35t27.5 -42t9.5 -53q0 -51 -23 -96t-61 -76q-78 -62 -217 -62
q-108 0 -167.5 42t-59.5 121q0 30 10 64h93q-6 -18 -9 -30t-3 -26q0 -29 12.5 -49t33 -32t46 -17.5t51.5 -5.5q93 0 144 44q23 20 36.5 47t13.5 57q0 42 -29 69.5t-86 53.5l-61 28q-59 27 -92.5 64.5t-33.5 101.5q0 48 22 87t60 66t90 42t111 15q99 0 154.5 -40t55.5 -109z
M433 777h-65l127 144h116z" />
    <glyph glyph-name="sacute" unicode="&#x15b;" horiz-adv-x="461" 
d="M338 366v5q0 42 -23 64.5t-71 22.5q-46 0 -77.5 -21t-31.5 -56q0 -25 17 -41t50 -32l58 -27q24 -11 44 -22.5t34.5 -26t22.5 -33.5t8 -45q0 -41 -18 -71.5t-48 -51t-70.5 -31t-85.5 -10.5q-34 0 -67 8.5t-59 26.5t-42 46t-16 67v15h85v-9q0 -42 28.5 -68.5t82.5 -26.5
q24 0 46 6t39 17.5t27 28.5t10 38q0 26 -13.5 43t-45.5 31l-66 30q-56 25 -81.5 52t-25.5 71q0 36 16 63.5t44 47t65.5 29.5t79.5 10q81 0 126 -35t45 -105v-10h-87zM281 591h-65l127 145h116z" />
    <glyph glyph-name="Scircumflex" unicode="&#x15c;" horiz-adv-x="622" 
d="M618 582q0 -9 -1.5 -22t-3.5 -24h-93q4 19 4 35q0 45 -34.5 69t-93.5 24q-36 0 -67.5 -10t-55 -27.5t-37.5 -42t-14 -53.5q0 -23 8 -40t22 -30.5t32.5 -24.5t39.5 -21l63 -30q33 -16 59 -32t44 -35t27.5 -42t9.5 -53q0 -51 -23 -96t-61 -76q-78 -62 -217 -62
q-108 0 -167.5 42t-59.5 121q0 30 10 64h93q-6 -18 -9 -30t-3 -26q0 -29 12.5 -49t33 -32t46 -17.5t51.5 -5.5q93 0 144 44q23 20 36.5 47t13.5 57q0 42 -29 69.5t-86 53.5l-61 28q-59 27 -92.5 64.5t-33.5 101.5q0 48 22 87t60 66t90 42t111 15q99 0 154.5 -40t55.5 -109z
M533 775l-56 100l-118 -100h-68l146 146h93l61 -146h-58z" />
    <glyph glyph-name="scircumflex" unicode="&#x15d;" horiz-adv-x="461" 
d="M338 366v5q0 42 -23 64.5t-71 22.5q-46 0 -77.5 -21t-31.5 -56q0 -25 17 -41t50 -32l58 -27q24 -11 44 -22.5t34.5 -26t22.5 -33.5t8 -45q0 -41 -18 -71.5t-48 -51t-70.5 -31t-85.5 -10.5q-34 0 -67 8.5t-59 26.5t-42 46t-16 67v15h85v-9q0 -42 28.5 -68.5t82.5 -26.5
q24 0 46 6t39 17.5t27 28.5t10 38q0 26 -13.5 43t-45.5 31l-66 30q-56 25 -81.5 52t-25.5 71q0 36 16 63.5t44 47t65.5 29.5t79.5 10q81 0 126 -35t45 -105v-10h-87zM380 591l-56 100l-118 -100h-68l146 146h93l61 -146h-58z" />
    <glyph glyph-name="Scedilla" unicode="&#x15e;" horiz-adv-x="622" 
d="M301 -100q0 -23 -11.5 -40t-30 -28.5t-42 -17.5t-48.5 -6q-28 0 -52.5 5.5t-47.5 16.5l17 32q19 -10 38.5 -16.5t43.5 -6.5q29 0 48.5 12.5t19.5 38.5q0 14 -11.5 20t-29.5 6q-8 0 -16 -1t-16 -3l-5 4l48 74q-99 4 -153 45.5t-54 116.5q0 30 10 64h93q-6 -18 -9 -30
t-3 -26q0 -29 12.5 -49t33 -32t46 -17.5t51.5 -5.5q93 0 144 44q23 20 36.5 47t13.5 57q0 42 -29 69.5t-86 53.5l-61 28q-59 27 -92.5 64.5t-33.5 101.5q0 48 22 87t60 66t90 42t111 15q99 0 154.5 -40t55.5 -109q0 -9 -1.5 -22t-3.5 -24h-93q4 19 4 35q0 45 -34.5 69
t-93.5 24q-36 0 -67.5 -10t-55 -27.5t-37.5 -42t-14 -53.5q0 -23 8 -40t22 -30.5t32.5 -24.5t39.5 -21l63 -30q33 -16 59 -32t44 -35t27.5 -42t9.5 -53q0 -51 -23 -96t-61 -76t-89.5 -45.5t-117.5 -16.5l-26 -43q6 1 13 1.5t15 0.5q29 0 46 -12.5t17 -35.5z" />
    <glyph glyph-name="scedilla" unicode="&#x15f;" horiz-adv-x="461" 
d="M210 -100q0 -23 -11.5 -40t-30 -28.5t-42 -17.5t-48.5 -6q-28 0 -52.5 5.5t-47.5 16.5l17 32q19 -10 38.5 -16.5t43.5 -6.5q29 0 48.5 12.5t19.5 38.5q0 14 -11.5 20t-29.5 6q-8 0 -16 -1t-16 -3l-5 4l49 76q-30 3 -57.5 13.5t-48.5 28.5t-34 43.5t-13 60.5v15h85v-9
q0 -42 28.5 -68.5t82.5 -26.5q24 0 46 6t39 17.5t27 28.5t10 38q0 26 -13.5 43t-45.5 31l-66 30q-56 25 -81.5 52t-25.5 71q0 36 16 63.5t44 47t65.5 29.5t79.5 10q81 0 126 -35t45 -105v-10h-87v5q0 42 -23 64.5t-71 22.5q-46 0 -77.5 -21t-31.5 -56q0 -25 17 -41t50 -32
l58 -27q24 -11 44 -22.5t34.5 -26t22.5 -33.5t8 -45q0 -41 -18 -71.5t-48 -51t-70.5 -31t-85.5 -10.5h-1l-27 -44q6 1 13 1.5t15 0.5q29 0 46 -12.5t17 -35.5z" />
    <glyph glyph-name="Scaron" unicode="&#x160;" horiz-adv-x="622" 
d="M618 582q0 -9 -1.5 -22t-3.5 -24h-93q4 19 4 35q0 45 -34.5 69t-93.5 24q-36 0 -67.5 -10t-55 -27.5t-37.5 -42t-14 -53.5q0 -23 8 -40t22 -30.5t32.5 -24.5t39.5 -21l63 -30q33 -16 59 -32t44 -35t27.5 -42t9.5 -53q0 -51 -23 -96t-61 -76q-78 -62 -217 -62
q-108 0 -167.5 42t-59.5 121q0 30 10 64h93q-6 -18 -9 -30t-3 -26q0 -29 12.5 -49t33 -32t46 -17.5t51.5 -5.5q93 0 144 44q23 20 36.5 47t13.5 57q0 42 -29 69.5t-86 53.5l-61 28q-59 27 -92.5 64.5t-33.5 101.5q0 48 22 87t60 66t90 42t111 15q99 0 154.5 -40t55.5 -109z
M395 921l56 -98l118 98h68l-146 -144h-93l-61 144h58z" />
    <glyph glyph-name="scaron" unicode="&#x161;" horiz-adv-x="461" 
d="M338 366v5q0 42 -23 64.5t-71 22.5q-46 0 -77.5 -21t-31.5 -56q0 -25 17 -41t50 -32l58 -27q24 -11 44 -22.5t34.5 -26t22.5 -33.5t8 -45q0 -41 -18 -71.5t-48 -51t-70.5 -31t-85.5 -10.5q-34 0 -67 8.5t-59 26.5t-42 46t-16 67v15h85v-9q0 -42 28.5 -68.5t82.5 -26.5
q24 0 46 6t39 17.5t27 28.5t10 38q0 26 -13.5 43t-45.5 31l-66 30q-56 25 -81.5 52t-25.5 71q0 36 16 63.5t44 47t65.5 29.5t79.5 10q81 0 126 -35t45 -105v-10h-87zM243 736l56 -99l118 99h68l-146 -145h-93l-61 145h58z" />
    <glyph glyph-name="uni0162" unicode="&#x162;" horiz-adv-x="531" 
d="M622 648h-230l-192 -648h-94l192 648h-230l22 75h553zM79 -200h-62l82 167h88z" />
    <glyph glyph-name="uni0163" unicode="&#x163;" horiz-adv-x="322" 
d="M327 442h-120l-81 -276q-13 -42 -13 -62t13.5 -31.5t42.5 -11.5q16 0 28 1.5t29 5.5l-17 -62q-23 -5 -37.5 -7.5t-35.5 -2.5q-113 0 -113 90q0 17 3.5 35t11.5 46l83 275h-104l19 62h103l27 93l99 42l-39 -135h120zM8 -200h-62l82 167h88z" />
    <glyph glyph-name="Tcaron" unicode="&#x164;" horiz-adv-x="531" 
d="M622 648h-230l-192 -648h-94l192 648h-230l22 75h553zM341 921l56 -98l118 98h68l-146 -144h-93l-61 144h58z" />
    <glyph glyph-name="tcaron" unicode="&#x165;" horiz-adv-x="322" 
d="M327 442h-120l-81 -276q-13 -42 -13 -62t13.5 -31.5t42.5 -11.5q16 0 28 1.5t29 5.5l-17 -62q-23 -5 -37.5 -7.5t-35.5 -2.5q-113 0 -113 90q0 17 3.5 35t11.5 46l83 275h-104l19 62h103l27 93l99 42l-39 -135h120zM427 498h-65l89 225h98z" />
    <glyph glyph-name="Tbar" unicode="&#x166;" horiz-adv-x="531" 
d="M453 370h-144l-109 -370h-94l109 370h-139l17 58h140l65 220h-230l22 75h553l-21 -75h-230l-65 -220h143z" />
    <glyph glyph-name="tbar" unicode="&#x167;" horiz-adv-x="322" 
d="M327 442h-120l-33 -111h100l-16 -53h-99l-33 -112q-13 -42 -13 -62t13.5 -31.5t42.5 -11.5q16 0 28 1.5t29 5.5l-17 -62q-23 -5 -37.5 -7.5t-35.5 -2.5q-113 0 -113 90q0 17 3.5 35t11.5 46l34 111h-74l16 53h73l34 111h-104l19 62h103l27 93l99 42l-39 -135h120z" />
    <glyph glyph-name="Utilde" unicode="&#x168;" horiz-adv-x="752" 
d="M637 285q-11 -35 -23 -68.5t-26 -60.5q-43 -83 -119.5 -125t-183.5 -42q-111 0 -173.5 52.5t-62.5 149.5q0 33 8 71t18 70l116 391h95l-126 -430q-10 -32 -14 -55t-4 -43q0 -61 40 -97.5t118 -36.5q64 0 113.5 26.5t79.5 75.5q20 33 34.5 72.5t25.5 78.5l120 409h94z
M673 902q-8 -18 -21 -35.5t-29 -31t-34.5 -22t-38.5 -8.5q-15 0 -29 4t-27.5 8.5t-27 8.5t-28.5 4q-37 0 -58 -31h-46q18 40 52.5 67t76.5 27q15 0 28.5 -4t26 -8.5t25.5 -8.5t28 -4q18 0 31 8.5t24 25.5h47v0z" />
    <glyph glyph-name="utilde" unicode="&#x169;" horiz-adv-x="581" 
d="M426 130q-11 -36 -19 -67t-16 -63h-88l21 82q-43 -47 -87 -69.5t-96 -22.5q-66 0 -102.5 32.5t-36.5 88.5q0 23 7 53t14 53l85 287h87l-87 -294q-5 -19 -10.5 -42.5t-5.5 -42.5q0 -32 19 -51t59 -19q66 0 125 57q29 28 47.5 62.5t30.5 74.5l77 255h88zM529 716
q-8 -18 -21 -35.5t-29 -31t-34.5 -21.5t-38.5 -8q-15 0 -29 4t-27.5 8.5t-27 8.5t-28.5 4q-37 0 -58 -31h-46q18 39 52.5 66.5t76.5 27.5q15 0 28.5 -4t26 -8.5t25.5 -8.5t28 -4q18 0 31 8.5t24 24.5h47v0z" />
    <glyph glyph-name="Umacron" unicode="&#x16a;" horiz-adv-x="752" 
d="M637 285q-11 -35 -23 -68.5t-26 -60.5q-43 -83 -119.5 -125t-183.5 -42q-111 0 -173.5 52.5t-62.5 149.5q0 33 8 71t18 70l116 391h95l-126 -430q-10 -32 -14 -55t-4 -43q0 -61 40 -97.5t118 -36.5q64 0 113.5 26.5t79.5 75.5q20 33 34.5 72.5t25.5 78.5l120 409h94z
M355 814l16 57h274l-17 -57h-273z" />
    <glyph glyph-name="umacron" unicode="&#x16b;" horiz-adv-x="581" 
d="M426 130q-11 -36 -19 -67t-16 -63h-88l21 82q-43 -47 -87 -69.5t-96 -22.5q-66 0 -102.5 32.5t-36.5 88.5q0 23 7 53t14 53l85 287h87l-87 -294q-5 -19 -10.5 -42.5t-5.5 -42.5q0 -32 19 -51t59 -19q66 0 125 57q29 28 47.5 62.5t30.5 74.5l77 255h88zM214 639l16 56h274
l-17 -56h-273z" />
    <glyph glyph-name="Ubreve" unicode="&#x16c;" horiz-adv-x="752" 
d="M637 285q-11 -35 -23 -68.5t-26 -60.5q-43 -83 -119.5 -125t-183.5 -42q-111 0 -173.5 52.5t-62.5 149.5q0 33 8 71t18 70l116 391h95l-126 -430q-10 -32 -14 -55t-4 -43q0 -61 40 -97.5t118 -36.5q64 0 113.5 26.5t79.5 75.5q20 33 34.5 72.5t25.5 78.5l120 409h94z
M673 904q-24 -62 -71 -92.5t-111 -30.5q-54 0 -89.5 24t-35.5 71q0 13 3 28h45q-1 -2 -1 -7q0 -32 24.5 -47t62.5 -15q36 0 71 15t58 54h44v0z" />
    <glyph glyph-name="ubreve" unicode="&#x16d;" horiz-adv-x="581" 
d="M426 130q-11 -36 -19 -67t-16 -63h-88l21 82q-43 -47 -87 -69.5t-96 -22.5q-66 0 -102.5 32.5t-36.5 88.5q0 23 7 53t14 53l85 287h87l-87 -294q-5 -19 -10.5 -42.5t-5.5 -42.5q0 -32 19 -51t59 -19q66 0 125 57q29 28 47.5 62.5t30.5 74.5l77 255h88zM528 714
q-24 -62 -71 -92.5t-111 -30.5q-53 0 -89 24t-36 71q0 13 3 28h45q-1 -2 -1 -7q0 -32 24.5 -47t62.5 -15q36 0 71 14.5t58 54.5h44v0z" />
    <glyph glyph-name="Uring" unicode="&#x16e;" horiz-adv-x="752" 
d="M637 285q-11 -35 -23 -68.5t-26 -60.5q-43 -83 -119.5 -125t-183.5 -42q-111 0 -173.5 52.5t-62.5 149.5q0 33 8 71t18 70l116 391h95l-126 -430q-10 -32 -14 -55t-4 -43q0 -61 40 -97.5t118 -36.5q64 0 113.5 26.5t79.5 75.5q20 33 34.5 72.5t25.5 78.5l120 409h94z
M399 849q0 21 8 39t22 31.5t32 21.5t39 8t39.5 -8t32.5 -21.5t22 -31.5t8 -39t-8 -39.5t-22 -32t-32.5 -21.5t-39.5 -8t-39 8t-32 21.5t-22 32t-8 39.5zM440 849q0 -29 17 -47t43 -18q27 0 44 18t17 47q0 28 -17 46t-44 18q-26 0 -43 -18t-17 -46z" />
    <glyph glyph-name="uring" unicode="&#x16f;" horiz-adv-x="581" 
d="M426 130q-11 -36 -19 -67t-16 -63h-88l21 82q-43 -47 -87 -69.5t-96 -22.5q-66 0 -102.5 32.5t-36.5 88.5q0 23 7 53t14 53l85 287h87l-87 -294q-5 -19 -10.5 -42.5t-5.5 -42.5q0 -32 19 -51t59 -19q66 0 125 57q29 28 47.5 62.5t30.5 74.5l77 255h88zM244 669q0 21 8 39
t22 31.5t32.5 21.5t39.5 8t39 -8t32 -21.5t22 -31.5t8 -39t-8 -39.5t-22 -32t-32 -21t-39 -7.5t-39.5 7.5t-32.5 21t-22 32t-8 39.5zM285 669q0 -28 17 -46t44 -18q26 0 43.5 18t17.5 46t-17.5 46t-43.5 18q-27 0 -44 -18t-17 -46z" />
    <glyph glyph-name="Uhungarumlaut" unicode="&#x170;" horiz-adv-x="752" 
d="M637 285q-11 -35 -23 -68.5t-26 -60.5q-43 -83 -119.5 -125t-183.5 -42q-111 0 -173.5 52.5t-62.5 149.5q0 33 8 71t18 70l116 391h95l-126 -430q-10 -32 -14 -55t-4 -43q0 -61 40 -97.5t118 -36.5q64 0 113.5 26.5t79.5 75.5q20 33 34.5 72.5t25.5 78.5l120 409h94z
M582 778h-65l140 143h106zM406 778h-65l140 143h106z" />
    <glyph glyph-name="uhungarumlaut" unicode="&#x171;" horiz-adv-x="581" 
d="M426 130q-11 -36 -19 -67t-16 -63h-88l21 82q-43 -47 -87 -69.5t-96 -22.5q-66 0 -102.5 32.5t-36.5 88.5q0 23 7 53t14 53l85 287h87l-87 -294q-5 -19 -10.5 -42.5t-5.5 -42.5q0 -32 19 -51t59 -19q66 0 125 57q29 28 47.5 62.5t30.5 74.5l77 255h88zM429 593h-65
l140 143h106zM253 593h-65l140 143h106z" />
    <glyph glyph-name="Uogonek" unicode="&#x172;" horiz-adv-x="752" 
d="M637 285q-11 -35 -23 -68.5t-26 -60.5q-39 -75 -105 -116.5t-157 -48.5q-50 -22 -80.5 -46.5t-30.5 -56.5q0 -18 14 -26.5t34 -8.5q12 0 21.5 2.5t21.5 7.5l-2 -30q-45 -20 -84 -20q-14 0 -28 3t-25 9t-17.5 16t-6.5 24q0 20 10 38t27.5 34t40 29t48.5 23
q-104 5 -161.5 56t-57.5 139q0 34 7.5 75t17.5 73l116 391h95l-126 -430q-10 -32 -14 -55t-4 -43q0 -61 40 -97.5t118 -36.5q64 0 113.5 26.5t79.5 75.5q20 33 34.5 72.5t25.5 78.5l120 409h94z" />
    <glyph glyph-name="uogonek" unicode="&#x173;" horiz-adv-x="581" 
d="M345 -167q-45 -20 -84 -20q-14 0 -28 3t-25 9t-17.5 16t-6.5 24q0 23 13.5 43.5t35 37.5t49.5 30.5t58 23.5h-37l21 82q-43 -47 -87 -69.5t-96 -22.5q-66 0 -102.5 32.5t-36.5 88.5q0 23 7 53t14 53l85 287h87l-87 -294q-5 -19 -10.5 -42.5t-5.5 -42.5q0 -32 19 -51
t59 -19q66 0 125 57q29 28 47.5 62.5t30.5 74.5l77 255h88l-112 -374q-11 -36 -19 -67t-16 -63q-60 -23 -97.5 -50t-37.5 -62q0 -18 14 -26.5t34 -8.5q12 0 21.5 2.5t21.5 7.5l-2 -30v0z" />
    <glyph glyph-name="Wcircumflex" unicode="&#x174;" horiz-adv-x="1054" 
d="M736 0h-120l-26 611l-354 -611h-122l2 723h95l-12 -631l362 631h105l30 -632l324 632h104zM712 775l-56 100l-118 -100h-68l146 146h93l61 -146h-58z" />
    <glyph glyph-name="wcircumflex" unicode="&#x175;" horiz-adv-x="849" 
d="M535 0h-90l-8 415l-264 -415h-99l-35 504h93l11 -420l264 420h102l5 -413l252 413h102zM571 591l-56 100l-118 -100h-68l146 146h93l61 -146h-58z" />
    <glyph glyph-name="Ycircumflex" unicode="&#x176;" horiz-adv-x="580" 
d="M325 300l-88 -300h-94l92 309l-166 414h100l129 -346l285 346h111zM485 775l-56 100l-118 -100h-68l146 146h93l61 -146h-58z" />
    <glyph glyph-name="ycircumflex" unicode="&#x177;" horiz-adv-x="506" 
d="M203 -7l-107 -182h-91l116 185l-94 509h95l58 -418l254 417h93zM388 591l-56 100l-118 -100h-68l146 146h93l61 -146h-58z" />
    <glyph glyph-name="Ydieresis" unicode="&#x178;" horiz-adv-x="580" 
d="M325 300l-88 -300h-94l92 309l-166 414h100l129 -346l285 346h111zM257 806l25 89h92l-25 -89h-92zM449 806l25 89h92l-25 -89h-92z" />
    <glyph glyph-name="Zacute" unicode="&#x179;" horiz-adv-x="574" 
d="M619 651l-560 -577h440l-24 -74h-542l18 78l553 571h-398l23 74h509zM388 777h-65l127 144h116z" />
    <glyph glyph-name="zacute" unicode="&#x17a;" horiz-adv-x="445" 
d="M421 440l-356 -379h294l-19 -61h-395l17 66l358 377h-277l18 61h379zM260 591h-65l127 145h116z" />
    <glyph glyph-name="Zdotaccent" unicode="&#x17b;" horiz-adv-x="574" 
d="M619 651l-560 -577h440l-24 -74h-542l18 78l553 571h-398l23 74h509zM340 806l26 89h92l-26 -89h-92z" />
    <glyph glyph-name="zdotaccent" unicode="&#x17c;" horiz-adv-x="445" 
d="M421 440l-356 -379h294l-19 -61h-395l17 66l358 377h-277l18 61h379zM228 635l26 89h92l-26 -89h-92z" />
    <glyph glyph-name="Zcaron" unicode="&#x17d;" horiz-adv-x="574" 
d="M619 651l-560 -577h440l-24 -74h-542l18 78l553 571h-398l23 74h509zM350 921l56 -98l118 98h68l-146 -144h-93l-61 144h58z" />
    <glyph glyph-name="zcaron" unicode="&#x17e;" horiz-adv-x="445" 
d="M421 440l-356 -379h294l-19 -61h-395l17 66l358 377h-277l18 61h379zM212 736l56 -99l118 99h68l-146 -145h-93l-61 145h58z" />
    <glyph glyph-name="florin" unicode="&#x192;" horiz-adv-x="580" 
d="M541 660q-12 2 -20 3t-18 1q-22 0 -37.5 -6.5t-27 -20.5t-21 -36t-19.5 -53l-31 -91h104l-24 -64h-102l-117 -365q-8 -26 -15 -45.5t-14 -35t-14.5 -29.5t-17.5 -27q-21 -29 -53 -46t-77 -17q-18 0 -33.5 1.5t-31.5 6.5l23 69q19 -4 36 -4q35 0 53.5 20t33.5 66l134 406
h-95l22 64h96l41 122q14 41 30 71t37.5 49t49.5 28t65 9q17 0 33 -1.5t33 -4.5z" />
    <glyph glyph-name="Scommaaccent" unicode="&#x218;" horiz-adv-x="622" 
d="M618 582q0 -9 -1.5 -22t-3.5 -24h-93q4 19 4 35q0 45 -34.5 69t-93.5 24q-36 0 -67.5 -10t-55 -27.5t-37.5 -42t-14 -53.5q0 -23 8 -40t22 -30.5t32.5 -24.5t39.5 -21l63 -30q33 -16 59 -32t44 -35t27.5 -42t9.5 -53q0 -51 -23 -96t-61 -76q-78 -62 -217 -62
q-108 0 -167.5 42t-59.5 121q0 30 10 64h93q-6 -18 -9 -30t-3 -26q0 -29 12.5 -49t33 -32t46 -17.5t51.5 -5.5q93 0 144 44q23 20 36.5 47t13.5 57q0 42 -29 69.5t-86 53.5l-61 28q-59 27 -92.5 64.5t-33.5 101.5q0 48 22 87t60 66t90 42t111 15q99 0 154.5 -40t55.5 -109z
M173 -200h-62l82 167h88z" />
    <glyph glyph-name="scommaaccent" unicode="&#x219;" horiz-adv-x="461" 
d="M338 366v5q0 42 -23 64.5t-71 22.5q-46 0 -77.5 -21t-31.5 -56q0 -25 17 -41t50 -32l58 -27q24 -11 44 -22.5t34.5 -26t22.5 -33.5t8 -45q0 -41 -18 -71.5t-48 -51t-70.5 -31t-85.5 -10.5q-34 0 -67 8.5t-59 26.5t-42 46t-16 67v15h85v-9q0 -42 28.5 -68.5t82.5 -26.5
q24 0 46 6t39 17.5t27 28.5t10 38q0 26 -13.5 43t-45.5 31l-66 30q-56 25 -81.5 52t-25.5 71q0 36 16 63.5t44 47t65.5 29.5t79.5 10q81 0 126 -35t45 -105v-10h-87zM62 -200h-62l82 167h88z" />
    <glyph glyph-name="uni021A" unicode="&#x21a;" horiz-adv-x="531" 
d="M622 648h-230l-192 -648h-94l192 648h-230l22 75h553zM79 -200h-62l82 167h88z" />
    <glyph glyph-name="uni021B" unicode="&#x21b;" horiz-adv-x="322" 
d="M327 442h-120l-81 -276q-13 -42 -13 -62t13.5 -31.5t42.5 -11.5q16 0 28 1.5t29 5.5l-17 -62q-23 -5 -37.5 -7.5t-35.5 -2.5q-113 0 -113 90q0 17 3.5 35t11.5 46l83 275h-104l19 62h103l27 93l99 42l-39 -135h120zM8 -200h-62l82 167h88z" />
    <glyph glyph-name="dotlessj" unicode="&#x237;" horiz-adv-x="242" 
d="M39 -66q-12 -41 -25 -62.5t-33 -37.5q-41 -30 -102 -30q-31 0 -59 3l17 62l16.5 -1.5t13.5 -0.5q36 0 55 19.5t33 65.5l163 552h88z" />
    <glyph glyph-name="circumflex" unicode="&#x2c6;" horiz-adv-x="265" 
d="M288 591l-56 100l-118 -100h-68l146 146h93l61 -146h-58z" />
    <glyph glyph-name="caron" unicode="&#x2c7;" horiz-adv-x="265" 
d="M149 736l56 -99l118 99h68l-146 -145h-93l-61 145h58z" />
    <glyph glyph-name="uni02C9" unicode="&#x2c9;" horiz-adv-x="265" 
d="M67 814l16 57h274l-17 -57h-273z" />
    <glyph glyph-name="breve" unicode="&#x2d8;" horiz-adv-x="266" 
d="M382 714q-24 -62 -71 -92.5t-111 -30.5q-53 0 -89 24t-36 71q0 13 3 28h45q-1 -2 -1 -7q0 -32 24.5 -47t62.5 -15q36 0 71 14.5t58 54.5h44v0z" />
    <glyph glyph-name="dotaccent" unicode="&#x2d9;" horiz-adv-x="266" 
d="M165 635l26 89h92l-26 -89h-92z" />
    <glyph glyph-name="ring" unicode="&#x2da;" horiz-adv-x="266" 
d="M118 669q0 21 8 39t22 31.5t32.5 21.5t39.5 8t39 -8t32 -21.5t22 -31.5t8 -39t-8 -39.5t-22 -32t-32 -21t-39 -7.5t-39.5 7.5t-32.5 21t-22 32t-8 39.5zM159 669q0 -28 17 -46t44 -18q26 0 43.5 18t17.5 46t-17.5 46t-43.5 18q-27 0 -44 -18t-17 -46z" />
    <glyph glyph-name="ogonek" unicode="&#x2db;" horiz-adv-x="266" 
d="M124 -167q-45 -20 -84 -20q-14 0 -28 3t-25 9t-17.5 16t-6.5 24q0 23 13.5 43.5t35 37.5t49.5 30.5t58 23.5h51q-60 -23 -97.5 -50t-37.5 -62q0 -18 14 -26.5t34 -8.5q12 0 21.5 2.5t21.5 7.5l-2 -30v0z" />
    <glyph glyph-name="tilde" unicode="&#x2dc;" horiz-adv-x="266" 
d="M382 716q-8 -18 -21 -35.5t-29 -31t-34.5 -21.5t-38.5 -8q-15 0 -29 4t-27.5 8.5t-27 8.5t-28.5 4q-37 0 -58 -31h-46q18 39 52.5 66.5t76.5 27.5q15 0 28.5 -4t26 -8.5t25.5 -8.5t28 -4q18 0 31 8.5t24 24.5h47v0z" />
    <glyph glyph-name="hungarumlaut" unicode="&#x2dd;" horiz-adv-x="266" 
d="M272 593h-65l140 143h106zM96 593h-65l140 143h106z" />
    <glyph glyph-name="uni0374" unicode="&#x374;" horiz-adv-x="245" 
d="M271 736l-145 -189h-56l104 189h97z" />
    <glyph glyph-name="uni0375" unicode="&#x375;" horiz-adv-x="245" 
d="M-94 -189l143 189h56l-104 -189h-95z" />
    <glyph glyph-name="uni037E" unicode="&#x37e;" horiz-adv-x="289" 
d="M208 403h-98l28 101h99zM-25 -123h-75l131 218h108z" />
    <glyph glyph-name="tonos" unicode="&#x384;" horiz-adv-x="348" 
d="M369 736l-148 -155h-61l104 155h105z" />
    <glyph glyph-name="dieresistonos" unicode="&#x385;" horiz-adv-x="376" 
d="M326 611l26 88h83l-26 -88h-83zM68 613l25 88h83l-26 -88h-82zM348 736l-120 -155h-56l82 155h94z" />
    <glyph glyph-name="Alphatonos" unicode="&#x386;" horiz-adv-x="693" 
d="M508 0l-21 191h-351l-127 -191h-103l498 723h105l90 -723h-91zM439 646l-257 -385h296zM260 736l-138 -155h-61l94 155h105z" />
    <glyph glyph-name="anoteleia" unicode="&#x387;" horiz-adv-x="290" 
d="M80 394l29 99h101l-29 -99h-101z" />
    <glyph glyph-name="Epsilontonos" unicode="&#x388;" horiz-adv-x="619" 
d="M641 649h-357l-72 -241h340l-21 -71h-339l-78 -263h370l-22 -74h-463l212 723h453zM161 736l-138 -155h-61l94 155h105z" />
    <glyph glyph-name="Etatonos" unicode="&#x389;" horiz-adv-x="768" 
d="M556 0h-94l99 336h-369l-99 -336h-94l212 723h94l-92 -314h370l92 314h94zM161 736l-138 -155h-61l94 155h105z" />
    <glyph glyph-name="Iotatonos" unicode="&#x38a;" horiz-adv-x="304" 
d="M93 0h-94l212 723h94zM161 736l-138 -155h-61l94 155h105z" />
    <glyph glyph-name="Omicrontonos" unicode="&#x38c;" horiz-adv-x="758" 
d="M724 486q0 -45 -9 -90t-24 -88.5t-35.5 -82.5t-43.5 -72q-56 -77 -130.5 -121t-179.5 -44q-60 0 -109 17t-83.5 49t-53.5 78t-19 105q0 92 32 182t86 162q54 70 129 110.5t178 40.5q61 0 109.5 -17t82.5 -49t52 -77.5t18 -102.5zM626 480q0 82 -43.5 131t-129.5 49
q-78 0 -138 -41t-105 -116q-18 -30 -32 -63.5t-24 -68t-15.5 -68t-5.5 -62.5q0 -40 12 -73t34.5 -57t55.5 -37t75 -13q61 0 114.5 30t95.5 83q51 66 78.5 147t27.5 159zM175 736l-138 -155h-61l94 155h105z" />
    <glyph glyph-name="Upsilontonos" unicode="&#x38e;" horiz-adv-x="580" 
d="M325 300l-88 -300h-94l92 309l-166 414h100l129 -346l285 346h111zM35 736l-138 -155h-61l94 155h105z" />
    <glyph glyph-name="Omegatonos" unicode="&#x38f;" horiz-adv-x="769" 
d="M348 0l21 73q60 29 111 79.5t87 116.5q26 48 41.5 101.5t15.5 112.5q0 38 -10.5 70.5t-31.5 56t-53.5 37t-76.5 13.5q-73 0 -130.5 -36t-96.5 -96q-35 -52 -58 -118.5t-23 -135.5q0 -63 20.5 -117.5t55.5 -83.5l-22 -73h-247l21 73h159q-41 45 -59.5 98t-18.5 113
q0 78 26.5 155.5t71.5 138.5q56 74 132.5 114t178.5 40q63 0 111 -18t81 -50t50 -76t17 -97q0 -66 -20 -132.5t-57 -125.5q-31 -50 -73 -91t-93 -69h150l-21 -73h-259zM171 736l-138 -155h-61l94 155h105z" />
    <glyph glyph-name="iotadieresistonos" unicode="&#x390;" horiz-adv-x="246" 
d="M201 504l-117 -395q-4 -13 -4 -24q0 -14 9 -19t26 -5h10.5t10.5 1l-18 -59q-14 -3 -24 -4.5t-23 -1.5q-38 0 -59.5 18t-21.5 53q0 11 2 22t6 25l115 389h88zM288 611l26 88h83l-26 -88h-83zM30 613l25 88h83l-26 -88h-82zM310 736l-120 -155h-56l82 155h94z" />
    <glyph glyph-name="Alpha" unicode="&#x391;" horiz-adv-x="693" 
d="M508 0l-21 191h-351l-127 -191h-103l498 723h105l90 -723h-91zM439 646l-257 -385h296z" />
    <glyph glyph-name="Beta" unicode="&#x392;" horiz-adv-x="665" 
d="M637 572q0 -49 -19.5 -89.5t-54.5 -66.5q-43 -33 -111 -45q54 -16 85 -50t31 -89q0 -60 -30 -110t-80 -81q-35 -22 -78.5 -31.5t-108.5 -9.5h-272l212 723h226q57 0 92.5 -9.5t60.5 -30.5q47 -41 47 -111zM474 238q0 45 -31 72t-88 27h-165l-77 -264h167q51 0 81.5 9
t56.5 32t41 56t15 68zM544 559q0 61 -50 81q-12 5 -31.5 7.5t-46.5 2.5h-134l-72 -244h136q88 0 140 39q27 20 42.5 49.5t15.5 64.5z" />
    <glyph glyph-name="Gamma" unicode="&#x393;" horiz-adv-x="549" 
d="M-1 0l212 723h433l-23 -74h-337l-192 -649h-93z" />
    <glyph glyph-name="uni0394" unicode="&#x394;" horiz-adv-x="693" 
d="M-95 0l498 723h105l90 -723h-693zM438 646l-384 -576h445z" />
    <glyph glyph-name="Epsilon" unicode="&#x395;" horiz-adv-x="619" 
d="M641 649h-357l-72 -241h340l-21 -71h-339l-78 -263h370l-22 -74h-463l212 723h453z" />
    <glyph glyph-name="Zeta" unicode="&#x396;" horiz-adv-x="574" 
d="M619 651l-560 -577h440l-24 -74h-542l18 78l553 571h-398l23 74h509z" />
    <glyph glyph-name="Eta" unicode="&#x397;" horiz-adv-x="768" 
d="M556 0h-94l99 336h-369l-99 -336h-94l212 723h94l-92 -314h370l92 314h94z" />
    <glyph glyph-name="Theta" unicode="&#x398;" horiz-adv-x="758" 
d="M724 486q0 -45 -9 -90t-24 -88.5t-35.5 -82.5t-43.5 -72q-56 -77 -130.5 -121t-179.5 -44q-60 0 -109 17t-83.5 49t-53.5 78t-19 105q0 92 32 182t86 162q54 70 129 110.5t178 40.5q61 0 109.5 -17t82.5 -49t52 -77.5t18 -102.5zM626 480q0 82 -43.5 131t-129.5 49
q-78 0 -138 -41t-105 -116q-18 -30 -32 -63.5t-24 -68t-15.5 -68t-5.5 -62.5q0 -40 12 -73t34.5 -57t55.5 -37t75 -13q61 0 114.5 30t95.5 83q51 66 78.5 147t27.5 159zM256 410h273l-21 -74h-273z" />
    <glyph glyph-name="Iota" unicode="&#x399;" horiz-adv-x="304" 
d="M93 0h-94l212 723h94z" />
    <glyph glyph-name="Kappa" unicode="&#x39a;" horiz-adv-x="648" 
d="M313 385l245 -385h-115l-231 395l383 328h124zM93 0h-94l212 723h94z" />
    <glyph glyph-name="Lambda" unicode="&#x39b;" horiz-adv-x="677" 
d="M13 0h-103l488 723h105l85 -723h-91l-64 646z" />
    <glyph glyph-name="Mu" unicode="&#x39c;" horiz-adv-x="977" 
d="M765 0h-92l194 655l-441 -655h-89l-57 655l-191 -655h-90l213 723h143l53 -616l412 616h159z" />
    <glyph glyph-name="Nu" unicode="&#x39d;" horiz-adv-x="790" 
d="M577 0h-129l-170 641l-185 -641h-90l211 723h129l172 -643l186 643h90z" />
    <glyph glyph-name="Xi" unicode="&#x39e;" horiz-adv-x="592" 
d="M-41 76h499l-22 -76h-499zM610 647h-482l22 76h482zM85 411h435l-22 -76h-435z" />
    <glyph glyph-name="Omicron" unicode="&#x39f;" horiz-adv-x="758" 
d="M724 486q0 -45 -9 -90t-24 -88.5t-35.5 -82.5t-43.5 -72q-56 -77 -130.5 -121t-179.5 -44q-60 0 -109 17t-83.5 49t-53.5 78t-19 105q0 92 32 182t86 162q54 70 129 110.5t178 40.5q61 0 109.5 -17t82.5 -49t52 -77.5t18 -102.5zM626 480q0 82 -43.5 131t-129.5 49
q-78 0 -138 -41t-105 -116q-18 -30 -32 -63.5t-24 -68t-15.5 -68t-5.5 -62.5q0 -40 12 -73t34.5 -57t55.5 -37t75 -13q61 0 114.5 30t95.5 83q51 66 78.5 147t27.5 159z" />
    <glyph glyph-name="Pi" unicode="&#x3a0;" horiz-adv-x="753" 
d="M541 0h-94l191 650h-354l-191 -650h-94l212 723h543z" />
    <glyph glyph-name="Rho" unicode="&#x3a1;" horiz-adv-x="631" 
d="M645 560q0 -67 -34 -121t-93 -86q-37 -20 -80.5 -28.5t-109.5 -8.5h-144l-92 -316h-93l212 723h220q48 0 85 -7.5t63 -24.5q32 -20 49 -53t17 -78zM550 555q0 60 -46 81q-28 14 -96 14h-124l-78 -264h120q53 0 88 8.5t62 25.5q32 21 53 57t21 78z" />
    <glyph glyph-name="Sigma" unicode="&#x3a3;" horiz-adv-x="585" 
d="M-49 78l331 300l-154 274l21 71h491l-21 -74h-391l165 -276l-333 -297h425l-21 -76h-531z" />
    <glyph glyph-name="Tau" unicode="&#x3a4;" horiz-adv-x="531" 
d="M622 648h-230l-192 -648h-94l192 648h-230l22 75h553z" />
    <glyph glyph-name="Upsilon" unicode="&#x3a5;" horiz-adv-x="580" 
d="M325 300l-88 -300h-94l92 309l-166 414h100l129 -346l285 346h111z" />
    <glyph glyph-name="Phi" unicode="&#x3a6;" horiz-adv-x="755" 
d="M224 -5l27 91q-110 17 -168 80t-58 155q0 71 28 133t78.5 107.5t119.5 72t151 26.5h16l23 76h94l-24 -81q107 -19 163 -80.5t56 -152.5q0 -74 -29 -135.5t-81 -106.5t-122.5 -70.5t-153.5 -26.5l-26 -88h-94zM120 322q0 -66 37.5 -113.5t112.5 -56.5l129 441h-14
q-57 0 -105.5 -22.5t-84 -60t-55.5 -86.5t-20 -102zM634 420q0 65 -35.5 111.5t-106.5 57.5l-129 -439q61 4 111 25.5t85.5 57t55 83t19.5 104.5z" />
    <glyph glyph-name="Chi" unicode="&#x3a7;" horiz-adv-x="623" 
d="M365 374l164 -374h-101l-132 318l-282 -318h-117l361 386l-146 337h100l116 -284l246 284h118z" />
    <glyph glyph-name="Psi" unicode="&#x3a8;" horiz-adv-x="747" 
d="M396 297q101 2 158.5 52t84.5 144l66 230h92l-71 -247q-26 -91 -78.5 -146.5t-130.5 -81.5q-33 -11 -68.5 -16.5t-73.5 -6.5l-66 -225h-94l67 229q-96 10 -149 57.5t-53 135.5q0 23 5 54.5t13 59.5l53 187h92l-60 -209q-14 -48 -14 -87q0 -53 30 -86.5t103 -41.5l125 424
h94z" />
    <glyph glyph-name="uni03A9" unicode="&#x3a9;" horiz-adv-x="769" 
d="M348 0l21 73q60 29 111 79.5t87 116.5q26 48 41.5 101.5t15.5 112.5q0 38 -10.5 70.5t-31.5 56t-53.5 37t-76.5 13.5q-73 0 -130.5 -36t-96.5 -96q-35 -52 -58 -118.5t-23 -135.5q0 -63 20.5 -117.5t55.5 -83.5l-22 -73h-247l21 73h159q-41 45 -59.5 98t-18.5 113
q0 78 26.5 155.5t71.5 138.5q56 74 132.5 114t178.5 40q63 0 111 -18t81 -50t50 -76t17 -97q0 -66 -20 -132.5t-57 -125.5q-31 -50 -73 -91t-93 -69h150l-21 -73h-259z" />
    <glyph glyph-name="Iotadieresis" unicode="&#x3aa;" horiz-adv-x="304" 
d="M93 0h-94l212 723h94zM139 806l25 89h92l-25 -89h-92zM331 806l25 89h92l-25 -89h-92z" />
    <glyph glyph-name="Upsilondieresis" unicode="&#x3ab;" horiz-adv-x="580" 
d="M325 300l-88 -300h-94l92 309l-166 414h100l129 -346l285 346h111zM257 806l25 89h92l-25 -89h-92zM449 806l25 89h92l-25 -89h-92z" />
    <glyph glyph-name="alphatonos" unicode="&#x3ac;" horiz-adv-x="605" 
d="M466 2q-11 -3 -22.5 -4t-20.5 -1q-30 0 -49.5 17t-19.5 52v5q-45 -43 -88.5 -61.5t-95.5 -18.5q-81 0 -125.5 49t-44.5 131q0 36 7.5 72.5t21.5 71t33.5 65.5t44.5 56q38 38 86.5 59t102.5 21q56 0 95 -24t58 -73l27 85h89q-5 -13 -11.5 -33t-13 -41t-12.5 -40.5
l-10 -32.5l-74 -247q-2 -5 -3.5 -13t-1.5 -13q0 -11 7 -17t24 -6h6.5t7.5 1zM416 340q0 54 -29.5 84t-83.5 30q-45 0 -83 -22.5t-68 -65.5q-30 -44 -45.5 -92.5t-15.5 -99.5q0 -54 28 -87t82 -33t96 30t71 84q21 39 34.5 85.5t13.5 86.5zM479 736l-148 -155h-61l104 155h105
z" />
    <glyph glyph-name="epsilontonos" unicode="&#x3ad;" horiz-adv-x="481" 
d="M106 275q-34 10 -47.5 33.5t-13.5 54.5q0 32 15 60t42.5 48.5t67.5 32.5t91 12q29 0 60.5 -6t57 -20t42 -36.5t16.5 -54.5q0 -13 -3 -26h-86q1 5 1 13q0 34 -24 52.5t-64 18.5q-70 0 -100.5 -26.5t-30.5 -71.5q0 -13 4.5 -24t15 -19.5t28 -13t43.5 -4.5h49l-15 -61h-56
q-42 0 -69.5 -9.5t-44 -25.5t-23.5 -37t-7 -43q0 -32 23 -53t74 -21q57 0 96 24t56 69h90q-17 -44 -43 -73.5t-59 -47t-71.5 -24.5t-80.5 -7q-44 0 -76.5 10t-53.5 27t-31.5 40t-10.5 50q0 54 36 97t102 57v5zM430 736l-148 -155h-61l104 155h105z" />
    <glyph glyph-name="etatonos" unicode="&#x3ae;" horiz-adv-x="583" 
d="M507 393q0 -23 -7 -53t-14 -53l-141 -476h-88l144 483q7 23 11.5 44t4.5 40q0 32 -20.5 51.5t-58.5 19.5q-65 0 -124 -57q-29 -28 -47.5 -61t-31.5 -76l-76 -255h-88l112 374q9 30 18 64t17 66h88l-22 -82q43 47 87.5 69.5t96.5 22.5q65 0 102 -32.5t37 -88.5zM511 736
l-148 -155h-61l104 155h105z" />
    <glyph glyph-name="iotatonos" unicode="&#x3af;" horiz-adv-x="246" 
d="M201 504l-117 -395q-4 -13 -4 -24q0 -14 9 -19t26 -5h10.5t10.5 1l-18 -59q-14 -3 -24 -4.5t-23 -1.5q-38 0 -59.5 18t-21.5 53q0 11 2 22t6 25l115 389h88zM344 736l-148 -155h-61l104 155h105z" />
    <glyph glyph-name="upsilondieresistonos" unicode="&#x3b0;" horiz-adv-x="553" 
d="M163 -10q-78 0 -123 33.5t-45 96.5q0 20 3.5 40.5t10.5 44.5l89 299h87l-91 -308q-5 -17 -7.5 -33.5t-2.5 -28.5q0 -38 22.5 -58.5t70.5 -20.5q39 0 69.5 17t55 47.5t44 74.5t35.5 98q8 27 14 56t10.5 57t7 53.5t3.5 45.5h76q1 -5 1.5 -13t0.5 -14q0 -48 -7.5 -102
t-21.5 -100q-14 -48 -35 -96t-56 -93t-88.5 -70.5t-122.5 -25.5zM420 611l26 88h83l-26 -88h-83zM162 613l25 88h83l-26 -88h-82zM442 736l-120 -155h-56l82 155h94z" />
    <glyph glyph-name="alpha" unicode="&#x3b1;" horiz-adv-x="610" 
d="M466 2q-11 -3 -22.5 -4t-20.5 -1q-30 0 -49.5 17t-19.5 52v5q-45 -43 -88.5 -61.5t-95.5 -18.5q-81 0 -125.5 49t-44.5 131q0 36 7.5 72.5t21.5 71t33.5 65.5t44.5 56q38 38 86.5 59t102.5 21q56 0 95 -24t58 -73l27 85h89q-5 -13 -11.5 -33t-13 -41t-12.5 -40.5
l-10 -32.5l-74 -247q-2 -5 -3.5 -13t-1.5 -13q0 -11 7 -17t24 -6h6.5t7.5 1zM416 340q0 54 -29.5 84t-83.5 30q-45 0 -83 -22.5t-68 -65.5q-30 -44 -45.5 -92.5t-15.5 -99.5q0 -54 28 -87t82 -33t96 30t71 84q21 39 34.5 85.5t13.5 86.5z" />
    <glyph glyph-name="beta" unicode="&#x3b2;" horiz-adv-x="592" 
d="M389 397q29 -9 50.5 -24t36 -34.5t22 -41.5t7.5 -44q0 -46 -18 -90.5t-44 -77.5q-34 -42 -87.5 -68t-116.5 -26q-54 0 -96.5 22.5t-59.5 73.5l-83 -276h-86l205 699q33 113 96 171.5t168 58.5q42 0 75.5 -12.5t57.5 -33.5t36.5 -49.5t12.5 -59.5q0 -37 -13.5 -69t-37 -56
t-55.5 -39t-69 -19zM270 429h23q91 0 138.5 42.5t47.5 115.5q0 22 -8.5 39.5t-22.5 29.5t-32.5 18t-37.5 6q-59 0 -102 -39t-70 -131l-78 -266q-8 -24 -10.5 -45t-2.5 -38q0 -26 10 -45.5t27 -32t39 -18.5t46 -6q36 0 68.5 14.5t56.5 41.5t38.5 64.5t14.5 83.5q0 22 -7.5 41
t-23.5 33t-41.5 22.5t-62.5 8.5h-29z" />
    <glyph glyph-name="gamma" unicode="&#x3b3;" horiz-adv-x="487" 
d="M110 -189h-87l25 81q13 42 20.5 95.5t7.5 109.5q0 69 -5 134t-12.5 119t-15 94t-12.5 61h88q15 -66 23.5 -147t8.5 -167q0 -29 -2 -61t-4 -60q76 100 145 212t128 223h93q-32 -64 -74 -133t-88.5 -136.5t-94 -131t-90.5 -115.5z" />
    <glyph glyph-name="delta" unicode="&#x3b4;" horiz-adv-x="558" 
d="M512 660q-42 9 -74 13t-56 4q-21 0 -44.5 -3.5t-42.5 -11.5t-31.5 -21.5t-12.5 -32.5q0 -12 4 -20.5t10 -14.5q15 -15 32 -28t26 -19q24 -17 45 -32.5t39 -32t32.5 -35t25.5 -40.5q22 -46 22 -98q0 -29 -6.5 -61t-19.5 -63.5t-32.5 -60t-45.5 -49.5q-41 -33 -84 -48.5
t-97 -15.5q-51 0 -90 14.5t-65 40t-39 61t-13 77.5q0 28 6 61q12 60 36.5 104t58.5 72.5t74 44t84 18.5l-2 5l-22 17q-31 24 -43.5 45.5t-12.5 47.5q0 41 19 68t49 43.5t66 23.5t70 7q33 0 75 -4t77 -14zM208 50q34 0 63 13t51 35q38 38 56.5 90t18.5 99q0 23 -4.5 46.5
t-14.5 39.5q-9 16 -26.5 34.5t-37.5 26.5q-10 4 -16.5 4.5t-17.5 0.5q-31 0 -59.5 -12.5t-53 -37t-43.5 -60t-29 -80.5q-5 -20 -7.5 -39t-2.5 -39q0 -57 31 -89t92 -32z" />
    <glyph glyph-name="epsilon" unicode="&#x3b5;" horiz-adv-x="481" 
d="M106 275q-34 10 -47.5 33.5t-13.5 54.5q0 32 15 60t42.5 48.5t67.5 32.5t91 12q29 0 60.5 -6t57 -20t42 -36.5t16.5 -54.5q0 -13 -3 -26h-86q1 5 1 13q0 34 -24 52.5t-64 18.5q-70 0 -100.5 -26.5t-30.5 -71.5q0 -13 4.5 -24t15 -19.5t28 -13t43.5 -4.5h49l-15 -61h-56
q-42 0 -69.5 -9.5t-44 -25.5t-23.5 -37t-7 -43q0 -32 23 -53t74 -21q57 0 96 24t56 69h90q-17 -44 -43 -73.5t-59 -47t-71.5 -24.5t-80.5 -7q-44 0 -76.5 10t-53.5 27t-31.5 40t-10.5 50q0 54 36 97t102 57v5z" />
    <glyph glyph-name="zeta" unicode="&#x3b6;" horiz-adv-x="420" 
d="M472 662q-74 -31 -136 -73.5t-110 -91t-80.5 -100.5t-45.5 -101q-17 -60 -17 -101q0 -33 6 -57t21.5 -41.5t43 -29t70.5 -19.5q49 -9 71.5 -30t22.5 -54q0 -21 -7.5 -44t-31.5 -54h-71q16 25 24.5 44.5t8.5 33.5q0 16 -6 24t-19 13t-31.5 9t-30.5 6q-44 7 -74.5 23.5
t-49.5 40t-27.5 53.5t-8.5 65q0 40 11 93q13 60 43 118t76 110q51 58 117.5 103.5t140.5 70.5q-42 -4 -93 -5t-116 -1h-50l17 61h350z" />
    <glyph glyph-name="eta" unicode="&#x3b7;" horiz-adv-x="583" 
d="M507 393q0 -23 -7 -53t-14 -53l-141 -476h-88l144 483q7 23 11.5 44t4.5 40q0 32 -20.5 51.5t-58.5 19.5q-65 0 -124 -57q-29 -28 -47.5 -61t-31.5 -76l-76 -255h-88l112 374q9 30 18 64t17 66h88l-22 -82q43 47 87.5 69.5t96.5 22.5q65 0 102 -32.5t37 -88.5z" />
    <glyph glyph-name="theta" unicode="&#x3b8;" horiz-adv-x="569" 
d="M200 -10q-47 0 -81 15t-56 42t-32.5 64.5t-10.5 82.5q0 35 5.5 78t16 90.5t27 96t38.5 93.5q19 40 42.5 74t52.5 59t65 39t82 14q47 0 81 -15t56 -42.5t32.5 -65.5t10.5 -83q0 -35 -5.5 -78t-16 -90.5t-27 -96t-38.5 -93.5q-20 -40 -42.5 -73.5t-51.5 -58t-65.5 -38.5
t-82.5 -14zM423 395q9 45 14 84t5 65q0 64 -25 99t-72 35q-37 0 -65 -18.5t-49 -49t-37.5 -69t-30.5 -77.5q-6 -17 -11.5 -34t-10.5 -35h282zM126 334q-9 -46 -14 -86t-5 -66q0 -64 25 -98t72 -34q37 0 65 18.5t49 48.5t37.5 68t30.5 77q6 17 11.5 35t10.5 37h-282z" />
    <glyph glyph-name="iota" unicode="&#x3b9;" horiz-adv-x="246" 
d="M201 504l-117 -395q-4 -13 -4 -24q0 -14 9 -19t26 -5h10.5t10.5 1l-18 -59q-14 -3 -24 -4.5t-23 -1.5q-38 0 -59.5 18t-21.5 53q0 11 2 22t6 25l115 389h88z" />
    <glyph glyph-name="kappa" unicode="&#x3ba;" horiz-adv-x="519" 
d="M237 283l188 -283h-102l-179 287l277 217h115zM57 0h-86l149 504h87z" />
    <glyph glyph-name="lambda" unicode="&#x3bb;" horiz-adv-x="514" 
d="M226 609q-5 32 -18.5 46t-45.5 14h-8t-12 -1l16 57q11 3 22.5 4t19.5 1q50 0 75.5 -29.5t30.5 -77.5l62 -536q2 -11 9 -19t23 -9h9t10 1l-19 -59q-13 -2 -20 -2h-15q-71 0 -80 84l-31 322l-259 -405h-95l339 511z" />
    <glyph glyph-name="uni03BC" unicode="&#x3bc;" horiz-adv-x="589" 
d="M439 129q-11 -35 -19 -66t-16 -63h-88l22 82q-41 -50 -79 -71t-84 -21q-36 0 -66 12t-45 39q-3 -15 -8 -34t-10 -39t-10.5 -40.5t-10.5 -37.5l-23 -79h-88l207 693h88l-87 -293q-6 -20 -11.5 -43t-5.5 -42q0 -32 22.5 -51.5t62.5 -19.5q38 0 68.5 17t55.5 45
q25 29 43.5 63t29.5 69l77 255h87z" />
    <glyph glyph-name="nu" unicode="&#x3bd;" horiz-adv-x="470" 
d="M68 0q0 67 -3.5 138.5t-9.5 139t-14.5 126.5t-18.5 101h87q7 -28 13 -66.5t10 -82.5t6 -91t2 -90q0 -26 -1.5 -50.5t-3.5 -53.5q34 45 71 98t72.5 109.5t68.5 114t60 112.5h91q-25 -55 -66 -124t-88 -139t-95 -134t-87 -108h-94z" />
    <glyph glyph-name="xi" unicode="&#x3be;" horiz-adv-x="447" 
d="M163 -10q-38 4 -71.5 15.5t-58.5 31.5t-39 49t-14 68q0 48 14.5 88.5t41.5 72t65.5 52.5t86.5 30l1 5q-47 13 -69 46t-22 71q0 58 21.5 100t56 69t77.5 39.5t87 12.5q41 0 71.5 -3.5t65.5 -9.5l-20 -62q-24 5 -54 9.5t-54 4.5q-35 0 -65 -9t-52 -28t-34 -48.5t-12 -69.5
q0 -19 6.5 -37t21 -32t37.5 -22.5t56 -8.5h76l-18 -63h-44q-56 0 -102 -11t-79 -35.5t-51.5 -63t-18.5 -92.5q0 -56 39 -80.5t118 -31.5q29 -3 48.5 -10t31 -18t16.5 -25t5 -30q0 -21 -7.5 -44t-31.5 -54h-71q16 25 24.5 46t8.5 35q0 17 -6.5 24t-20.5 10q-11 2 -30 4.5
t-31 4.5z" />
    <glyph glyph-name="omicron" unicode="&#x3bf;" horiz-adv-x="570" 
d="M510 337q0 -66 -22 -129t-59 -113q-38 -52 -95.5 -78.5t-131.5 -26.5q-98 0 -150 50t-52 135q0 69 23.5 132.5t65.5 110.5q44 50 100 74t122 24q94 0 146.5 -48.5t52.5 -130.5zM419 333q0 60 -29 91.5t-89 31.5q-51 0 -91 -27.5t-70 -77.5q-25 -42 -38 -89t-13 -91
q0 -57 32.5 -89t89.5 -32q54 0 96.5 30t69.5 87q20 40 31 84t11 82z" />
    <glyph glyph-name="pi" unicode="&#x3c0;" horiz-adv-x="572" 
d="M400 443h-201l-131 -443h-88l131 443h-87l19 61h544l-19 -61h-80l-99 -334q-4 -13 -4 -24q0 -14 9 -19t26 -5h10.5t10.5 1l-18 -59q-14 -3 -24 -4.5t-23 -1.5q-38 0 -59.5 18t-21.5 53q0 11 2 22t6 25z" />
    <glyph glyph-name="rho" unicode="&#x3c1;" horiz-adv-x="570" 
d="M23 238q26 87 58.5 141t70.5 84t80.5 41t88.5 11q38 0 71.5 -13t59 -37.5t40.5 -59t15 -76.5q0 -63 -19.5 -123.5t-60.5 -112.5q-35 -46 -86 -74.5t-113 -28.5q-55 0 -98.5 23.5t-63.5 76.5l-84 -279h-87zM366 146q26 39 39.5 88t13.5 91q0 23 -6.5 46t-20 41t-36 29
t-53.5 11q-46 0 -85 -26t-68 -82q-22 -41 -36.5 -85.5t-14.5 -87.5q0 -53 33 -87t83 -34q29 0 52.5 9t42 23t32 31t24.5 33z" />
    <glyph glyph-name="sigma1" unicode="&#x3c2;" horiz-adv-x="470" 
d="M285 457q-26 0 -54.5 -9.5t-54.5 -32t-47.5 -59t-34.5 -90.5q-5 -20 -7.5 -43.5t-2.5 -40.5q0 -57 31.5 -89.5t101.5 -44.5q51 -9 72.5 -31t21.5 -53q0 -29 -10.5 -52.5t-27.5 -45.5h-72q10 13 21.5 37t11.5 43q0 12 -6 21q-8 11 -24.5 15.5t-48.5 11.5q-45 9 -76 28
t-49.5 43.5t-26.5 54.5t-8 62q0 39 9 77q28 121 102.5 189t186.5 68q26 0 54.5 -4.5t52.5 -15.5t39.5 -31t15.5 -50q0 -14 -3 -29h-84v6q0 65 -83 65z" />
    <glyph glyph-name="sigma" unicode="&#x3c3;" horiz-adv-x="563" 
d="M181 -9q-88 0 -137 49t-49 134q0 35 8 70.5t22.5 69t35.5 63.5t47 54q45 41 105.5 57t126.5 16h223l-19 -62h-114l-1 -4q28 -22 39.5 -59.5t11.5 -78.5q0 -25 -5.5 -53.5t-16.5 -57t-26.5 -56t-35.5 -49.5q-81 -93 -215 -93zM195 50q43 0 74.5 18t54 47.5t37 66
t23.5 72.5q10 40 10 75q0 65 -34 98q-10 9 -20.5 12t-34.5 3q-41 0 -75.5 -15.5t-61.5 -41t-45 -57.5t-26 -65q-5 -21 -9 -42t-4 -42q0 -26 6 -49.5t19 -41t34 -28t52 -10.5z" />
    <glyph glyph-name="tau" unicode="&#x3c4;" horiz-adv-x="428" 
d="M1 443l19 61h433l-19 -61h-173l-99 -334q-4 -13 -4 -24q0 -14 10 -19t35 -5h15.5t15.5 1l-18 -59q-14 -3 -29 -4.5t-28 -1.5q-91 0 -91 71q0 11 2 22t6 25l97 328h-172z" />
    <glyph glyph-name="upsilon" unicode="&#x3c5;" horiz-adv-x="553" 
d="M163 -10q-78 0 -123 33.5t-45 96.5q0 20 3.5 40.5t10.5 44.5l89 299h87l-91 -308q-5 -17 -7.5 -33.5t-2.5 -28.5q0 -38 22.5 -58.5t70.5 -20.5q39 0 69.5 17t55 47.5t44 74.5t35.5 98q8 27 14 56t10.5 57t7 53.5t3.5 45.5h76q1 -5 1.5 -13t0.5 -14q0 -48 -7.5 -102
t-21.5 -100q-14 -48 -35 -96t-56 -93t-88.5 -70.5t-122.5 -25.5z" />
    <glyph glyph-name="phi" unicode="&#x3c6;" horiz-adv-x="700" 
d="M86 196q0 -59 32.5 -95t97.5 -46l118 401q-88 -2 -149 -46.5t-87 -135.5q-12 -42 -12 -78zM437 510q99 -10 151 -66.5t52 -140.5q0 -35 -11 -79q-15 -59 -49 -102.5t-79 -73t-99 -44t-109 -14.5h-10l-52 -179h-87l54 185q-100 10 -151.5 66t-51.5 141q0 35 11 79
q15 58 49 102t79 73.5t98.5 44t109.5 14.5h9l37 124h87zM301 50q87 5 148 48t88 134q12 42 12 78q0 58 -33 94.5t-97 46.5z" />
    <glyph glyph-name="chi" unicode="&#x3c7;" horiz-adv-x="512" 
d="M286 -189l-101 297l-244 -297h-101l315 370l-111 323h92l82 -263l222 263h102l-293 -337l129 -356h-92z" />
    <glyph glyph-name="psi" unicode="&#x3c8;" horiz-adv-x="683" 
d="M366 640h87l-175 -592q55 1 93.5 20.5t65.5 53t45 77.5t32 93q15 54 23 107t10 105h78q2 -9 2 -17.5v-17.5q0 -48 -7 -94.5t-20 -97.5q-13 -53 -34.5 -101.5t-54.5 -87.5q-18 -21 -41 -39t-53 -31.5t-68.5 -21t-87.5 -8.5l-52 -177h-87l53 181q-83 7 -129 49.5t-46 114.5
q0 22 4.5 47.5t10.5 46.5l76 254h87l-79 -266q-7 -22 -10 -42t-3 -33q0 -43 24.5 -74.5t82.5 -36.5z" />
    <glyph glyph-name="omega" unicode="&#x3c9;" horiz-adv-x="746" 
d="M659 504q10 -24 14 -50t4 -53q0 -67 -16 -140t-49.5 -133.5t-85 -99.5t-122.5 -39q-19 0 -38.5 4t-35.5 15.5t-27.5 31t-15.5 50.5q-15 -31 -33 -50.5t-37.5 -31t-40.5 -15.5t-43 -4q-35 0 -61 12.5t-43 34.5t-25.5 53t-8.5 67q0 42 11 90.5t31 95.5t48.5 89.5t63.5 72.5
h83q-32 -36 -59.5 -79t-47 -88.5t-30.5 -92t-11 -89.5q0 -94 73 -94q38 0 66.5 33t45.5 91l57 195h88l-56 -191q-6 -20 -8 -35t-2 -28q0 -65 63 -65q54 0 92.5 51.5t65.5 143.5q11 38 16 76.5t5 76.5q0 26 -2.5 49.5t-7.5 45.5h79z" />
    <glyph glyph-name="iotadieresis" unicode="&#x3ca;" horiz-adv-x="246" 
d="M201 504l-117 -395q-4 -13 -4 -24q0 -14 9 -19t26 -5h10.5t10.5 1l-18 -59q-14 -3 -24 -4.5t-23 -1.5q-38 0 -59.5 18t-21.5 53q0 11 2 22t6 25l115 389h88zM53 635l25 89h92l-25 -89h-92zM245 635l25 89h92l-25 -89h-92z" />
    <glyph glyph-name="upsilondieresis" unicode="&#x3cb;" horiz-adv-x="553" 
d="M163 -10q-78 0 -123 33.5t-45 96.5q0 20 3.5 40.5t10.5 44.5l89 299h87l-91 -308q-5 -17 -7.5 -33.5t-2.5 -28.5q0 -38 22.5 -58.5t70.5 -20.5q39 0 69.5 17t55 47.5t44 74.5t35.5 98q8 27 14 56t10.5 57t7 53.5t3.5 45.5h76q1 -5 1.5 -13t0.5 -14q0 -48 -7.5 -102
t-21.5 -100q-14 -48 -35 -96t-56 -93t-88.5 -70.5t-122.5 -25.5zM183 635l25 89h92l-25 -89h-92zM375 635l25 89h92l-25 -89h-92z" />
    <glyph glyph-name="omicrontonos" unicode="&#x3cc;" horiz-adv-x="570" 
d="M510 337q0 -66 -22 -129t-59 -113q-38 -52 -95.5 -78.5t-131.5 -26.5q-98 0 -150 50t-52 135q0 69 23.5 132.5t65.5 110.5q44 50 100 74t122 24q94 0 146.5 -48.5t52.5 -130.5zM419 333q0 60 -29 91.5t-89 31.5q-51 0 -91 -27.5t-70 -77.5q-25 -42 -38 -89t-13 -91
q0 -57 32.5 -89t89.5 -32q54 0 96.5 30t69.5 87q20 40 31 84t11 82zM489 736l-148 -155h-61l104 155h105z" />
    <glyph glyph-name="upsilontonos" unicode="&#x3cd;" horiz-adv-x="553" 
d="M163 -10q-78 0 -123 33.5t-45 96.5q0 20 3.5 40.5t10.5 44.5l89 299h87l-91 -308q-5 -17 -7.5 -33.5t-2.5 -28.5q0 -38 22.5 -58.5t70.5 -20.5q39 0 69.5 17t55 47.5t44 74.5t35.5 98q8 27 14 56t10.5 57t7 53.5t3.5 45.5h76q1 -5 1.5 -13t0.5 -14q0 -48 -7.5 -102
t-21.5 -100q-14 -48 -35 -96t-56 -93t-88.5 -70.5t-122.5 -25.5zM469 736l-148 -155h-61l104 155h105z" />
    <glyph glyph-name="omegatonos" unicode="&#x3ce;" horiz-adv-x="746" 
d="M659 504q10 -24 14 -50t4 -53q0 -67 -16 -140t-49.5 -133.5t-85 -99.5t-122.5 -39q-19 0 -38.5 4t-35.5 15.5t-27.5 31t-15.5 50.5q-15 -31 -33 -50.5t-37.5 -31t-40.5 -15.5t-43 -4q-35 0 -61 12.5t-43 34.5t-25.5 53t-8.5 67q0 42 11 90.5t31 95.5t48.5 89.5t63.5 72.5
h83q-32 -36 -59.5 -79t-47 -88.5t-30.5 -92t-11 -89.5q0 -94 73 -94q38 0 66.5 33t45.5 91l57 195h88l-56 -191q-6 -20 -8 -35t-2 -28q0 -65 63 -65q54 0 92.5 51.5t65.5 143.5q11 38 16 76.5t5 76.5q0 26 -2.5 49.5t-7.5 45.5h79zM575 736l-148 -155h-61l104 155h105z" />
    <glyph glyph-name="uni0400" unicode="&#x400;" horiz-adv-x="619" 
d="M641 649h-357l-72 -241h340l-21 -71h-339l-78 -263h370l-22 -74h-463l212 723h453zM461 777l-98 144h102l54 -144h-58z" />
    <glyph glyph-name="uni0401" unicode="&#x401;" horiz-adv-x="619" 
d="M641 649h-357l-72 -241h340l-21 -71h-339l-78 -263h370l-22 -74h-463l212 723h453zM318 806l25 89h92l-25 -89h-92zM510 806l25 89h92l-25 -89h-92z" />
    <glyph glyph-name="uni0402" unicode="&#x402;" horiz-adv-x="780" 
d="M377 -12q-1 0 -12 0.5t-23.5 1t-22.5 1l-10 0.5l20 74l8 -0.5t18 -0.5t18 -0.5l8 -0.5q43 0 81.5 11.5t67.5 35t46 59t17 82.5q0 60 -36.5 90t-103.5 30q-16 0 -38 -3t-43.5 -7.5t-40.5 -10t-30 -9.5l-101 -341h-94l192 648h-230l22 75h553l-21 -75h-230l-68 -229
q12 4 30 8.5t39 9t44 7.5t44 3q50 0 88.5 -15.5t65 -42t40 -61.5t13.5 -74q0 -68 -25.5 -118t-68.5 -83t-99.5 -49t-117.5 -16z" />
    <glyph glyph-name="uni0403" unicode="&#x403;" horiz-adv-x="514" 
d="M211 723h415l-23 -74h-319l-191 -649h-94zM411 777h-65l127 144h116z" />
    <glyph glyph-name="uni0404" unicode="&#x404;" horiz-adv-x="665" 
d="M299 -9q-128 0 -195 66t-67 182q0 54 11 105t29.5 97.5t43.5 87t53 71.5q58 64 131.5 98.5t153.5 34.5q50 0 91 -12t70 -34t44.5 -53.5t15.5 -70.5v-10.5t-1 -11.5h-99q1 6 1 11v7q0 46 -36.5 74.5t-94.5 28.5q-45 0 -87 -18.5t-78 -52.5t-66 -80.5t-51 -103.5h315
q-6 -18 -11 -35.5t-10 -35.5h-314q-12 -54 -12 -110q0 -78 44 -122t122 -44q60 0 107 31.5t72 87.5h101q-31 -89 -106.5 -138.5t-176.5 -49.5z" />
    <glyph glyph-name="uni0405" unicode="&#x405;" horiz-adv-x="622" 
d="M618 582q0 -9 -1.5 -22t-3.5 -24h-93q4 19 4 35q0 45 -34.5 69t-93.5 24q-36 0 -67.5 -10t-55 -27.5t-37.5 -42t-14 -53.5q0 -23 8 -40t22 -30.5t32.5 -24.5t39.5 -21l63 -30q33 -16 59 -32t44 -35t27.5 -42t9.5 -53q0 -51 -23 -96t-61 -76q-78 -62 -217 -62
q-108 0 -167.5 42t-59.5 121q0 30 10 64h93q-6 -18 -9 -30t-3 -26q0 -29 12.5 -49t33 -32t46 -17.5t51.5 -5.5q93 0 144 44q23 20 36.5 47t13.5 57q0 42 -29 69.5t-86 53.5l-61 28q-59 27 -92.5 64.5t-33.5 101.5q0 48 22 87t60 66t90 42t111 15q99 0 154.5 -40t55.5 -109z
" />
    <glyph glyph-name="uni0406" unicode="&#x406;" horiz-adv-x="304" 
d="M93 0h-94l212 723h94z" />
    <glyph glyph-name="uni0407" unicode="&#x407;" horiz-adv-x="304" 
d="M93 0h-94l212 723h94zM139 806l25 89h92l-25 -89h-92zM331 806l25 89h92l-25 -89h-92z" />
    <glyph glyph-name="uni0408" unicode="&#x408;" horiz-adv-x="549" 
d="M407 194q-11 -38 -26.5 -69.5t-36.5 -56.5q-34 -39 -82 -59t-114 -20q-81 0 -129.5 38.5t-48.5 104.5q0 17 2 27t8 27h96q-4 -11 -6 -19.5t-2 -22.5q0 -36 21 -58.5t69 -22.5q76 0 121 65q13 18 23 41t18 49l151 505h93z" />
    <glyph glyph-name="uni0409" unicode="&#x409;" horiz-adv-x="1075" 
d="M-26 -5q-13 0 -34 3t-29 6l20 73q4 -2 17 -2.5t18 -0.5q44 0 79 28.5t72 101.5t81 199t105 320h432l-89 -303h155q47 0 85 -12.5t65 -35t41.5 -55t14.5 -71.5q0 -63 -24 -111t-69 -79q-42 -30 -97.5 -43t-118.5 -13h-268l189 649h-246q-54 -163 -96 -285.5t-85 -204.5
t-94 -123t-124 -41zM693 73q49 0 89.5 9t69 29t44.5 52t16 78q0 51 -34.5 79.5t-104.5 28.5h-148l-81 -276h149z" />
    <glyph glyph-name="uni040A" unicode="&#x40a;" horiz-adv-x="1109" 
d="M211 723h94l-92 -314h369l93 314h93l-92 -314h165q46 0 83 -12t63 -34.5t40 -53.5t14 -69q0 -62 -24.5 -108t-66.5 -77q-42 -29 -96.5 -42t-117.5 -13h-274l99 338h-369l-99 -338h-93zM729 73q48 0 88 8.5t68.5 28t44 50.5t15.5 75q0 49 -34.5 76.5t-103.5 27.5h-151
l-79 -266h152z" />
    <glyph glyph-name="uni040B" unicode="&#x40b;" horiz-adv-x="790" 
d="M298 648h-230l22 75h553l-21 -75h-230l-68 -230q10 3 30 7.5t45 8t53 6.5t54 3q80 0 126 -35t46 -115q0 -52 -19 -119l-50 -174h-94l59 203q12 43 12 74q0 28 -9 46.5t-24 29.5t-35.5 15.5t-44.5 4.5q-19 0 -42.5 -3t-46.5 -7t-44.5 -8.5t-36.5 -7.5l-103 -347h-94z" />
    <glyph glyph-name="uni040C" unicode="&#x40c;" horiz-adv-x="648" 
d="M211 723h94l-212 -723h-94zM210 384l385 339h124l-408 -349l247 -374h-115zM441 777h-65l127 144h116z" />
    <glyph glyph-name="uni040D" unicode="&#x40d;" horiz-adv-x="780" 
d="M211 723h94l-173 -586l543 586h106l-213 -723h-93l171 584l-541 -584h-106zM461 777l-98 144h102l54 -144h-58z" />
    <glyph glyph-name="uni040E" unicode="&#x40e;" horiz-adv-x="626" 
d="M214 204l-113 519h98l82 -436l342 436h105l-577 -723h-106zM567 901q-13 -60 -51.5 -89.5t-98.5 -29.5q-54 0 -85.5 21t-31.5 66q0 16 4 32h50q-1 -5 -1 -12q0 -22 13 -35t52 -13q43 0 65.5 16.5t33.5 43.5h50z" />
    <glyph glyph-name="uni040F" unicode="&#x40f;" horiz-adv-x="760" 
d="M239 0h-240l212 723h94l-190 -649h360l190 649h95l-213 -723h-222l-47 -159h-86z" />
    <glyph glyph-name="uni0410" unicode="&#x410;" horiz-adv-x="692" 
d="M512 0l-21 191h-351l-127 -191h-103l498 723h105l90 -723h-91zM443 646l-257 -385h296z" />
    <glyph glyph-name="uni0411" unicode="&#x411;" horiz-adv-x="665" 
d="M211 723h419l-23 -74h-324l-68 -233h150q45 0 82 -12t64 -34.5t41.5 -54t14.5 -69.5q0 -63 -22 -109.5t-61.5 -76.5t-93.5 -45t-118 -15h-272zM256 74q49 0 89 8.5t68.5 28t44 51t15.5 76.5q0 50 -34.5 77.5t-102.5 27.5h-143l-78 -269h141z" />
    <glyph glyph-name="uni0412" unicode="&#x412;" horiz-adv-x="665" 
d="M637 572q0 -49 -19.5 -89.5t-54.5 -66.5q-43 -33 -111 -45q54 -16 85 -50t31 -89q0 -60 -30 -110t-80 -81q-35 -22 -78.5 -31.5t-108.5 -9.5h-272l212 723h226q57 0 92.5 -9.5t60.5 -30.5q47 -41 47 -111zM474 238q0 45 -31 72t-88 27h-165l-77 -264h167q51 0 81.5 9
t56.5 32t41 56t15 68zM544 559q0 61 -50 81q-12 5 -31.5 7.5t-46.5 2.5h-134l-72 -244h136q88 0 140 39q27 20 42.5 49.5t15.5 64.5z" />
    <glyph glyph-name="uni0413" unicode="&#x413;" horiz-adv-x="514" 
d="M211 723h415l-23 -74h-319l-191 -649h-94z" />
    <glyph glyph-name="uni0414" unicode="&#x414;" horiz-adv-x="760" 
d="M-58 74h54q52 52 94 112.5t79 137.5t72 174.5t73 224.5h436l-192 -649h79l-67 -233h-85l47 159h-526l-47 -159h-84zM464 74l170 575h-252q-33 -108 -65 -195t-66 -157t-71 -125t-80 -98h364z" />
    <glyph glyph-name="uni0415" unicode="&#x415;" horiz-adv-x="619" 
d="M641 649h-357l-72 -241h340l-21 -71h-339l-78 -263h370l-22 -74h-463l212 723h453z" />
    <glyph glyph-name="uni0416" unicode="&#x416;" horiz-adv-x="980" 
d="M338 392l-208 331h102l207 -346l-429 -377h-126zM542 723h92l-212 -723h-92zM536 381l393 342h122l-413 -351l228 -372h-104z" />
    <glyph glyph-name="uni0417" unicode="&#x417;" horiz-adv-x="632" 
d="M233 -10q-51 0 -94 9t-74 28t-48.5 49.5t-17.5 73.5q0 28 7 55h90q-6 -24 -6 -48q0 -50 37.5 -73t115.5 -23q41 0 75.5 13.5t60 36.5t40 55t14.5 69q0 49 -36 77t-96 28h-13.5t-18.5 -0.5l-20 -1t-17 -1.5l18 73q5 0 14.5 -0.5t20 -0.5h19h12.5q37 0 71.5 11.5t61.5 32.5
t43 50t16 64q0 46 -35 71.5t-92 25.5q-33 0 -64 -7t-56 -22.5t-41 -40.5t-20 -61h-92q4 48 26 85.5t58.5 63t85 39t105.5 13.5q103 0 162 -43t59 -116q0 -33 -12.5 -65t-36 -59t-57 -46.5t-75.5 -28.5v-2q53 -10 80 -46.5t27 -88.5q0 -51 -20 -96.5t-58 -79t-93 -53.5
t-126 -20z" />
    <glyph glyph-name="uni0418" unicode="&#x418;" horiz-adv-x="780" 
d="M211 723h94l-173 -586l543 586h106l-213 -723h-93l171 584l-541 -584h-106z" />
    <glyph glyph-name="uni0419" unicode="&#x419;" horiz-adv-x="770" 
d="M211 723h94l-173 -586l543 586h106l-213 -723h-93l171 584l-541 -584h-106zM642 901q-13 -60 -51.5 -89.5t-98.5 -29.5q-54 0 -85.5 21t-31.5 66q0 16 4 32h50q-1 -5 -1 -12q0 -22 13 -35t52 -13q43 0 65.5 16.5t33.5 43.5h50z" />
    <glyph glyph-name="uni041A" unicode="&#x41a;" horiz-adv-x="648" 
d="M211 723h94l-212 -723h-94zM210 384l385 339h124l-408 -349l247 -374h-115z" />
    <glyph glyph-name="uni041B" unicode="&#x41b;" horiz-adv-x="734" 
d="M-26 -5q-13 0 -34 3t-29 6l20 73q4 -2 17 -2.5t18 -0.5q44 0 79 28.5t72 101.5t81 199t105 320h432l-212 -723h-94l190 649h-246q-54 -163 -96 -285.5t-85 -204.5t-94 -123t-124 -41z" />
    <glyph glyph-name="uni041C" unicode="&#x41c;" horiz-adv-x="977" 
d="M765 0h-92l194 655l-441 -655h-89l-57 655l-191 -655h-90l213 723h143l53 -616l412 616h159z" />
    <glyph glyph-name="uni041D" unicode="&#x41d;" horiz-adv-x="768" 
d="M556 0h-94l99 336h-369l-99 -336h-94l212 723h94l-92 -314h370l92 314h94z" />
    <glyph glyph-name="uni041E" unicode="&#x41e;" horiz-adv-x="758" 
d="M724 486q0 -45 -9 -90t-24 -88.5t-35.5 -82.5t-43.5 -72q-56 -77 -130.5 -121t-179.5 -44q-60 0 -109 17t-83.5 49t-53.5 78t-19 105q0 92 32 182t86 162q54 70 129 110.5t178 40.5q61 0 109.5 -17t82.5 -49t52 -77.5t18 -102.5zM626 480q0 82 -43.5 131t-129.5 49
q-78 0 -138 -41t-105 -116q-18 -30 -32 -63.5t-24 -68t-15.5 -68t-5.5 -62.5q0 -40 12 -73t34.5 -57t55.5 -37t75 -13q61 0 114.5 30t95.5 83q51 66 78.5 147t27.5 159z" />
    <glyph glyph-name="uni041F" unicode="&#x41f;" horiz-adv-x="760" 
d="M211 723h550l-213 -723h-93l190 649h-361l-191 -649h-94z" />
    <glyph glyph-name="uni0420" unicode="&#x420;" horiz-adv-x="631" 
d="M645 560q0 -67 -34 -121t-93 -86q-37 -20 -80.5 -28.5t-109.5 -8.5h-144l-92 -316h-93l212 723h220q48 0 85 -7.5t63 -24.5q32 -20 49 -53t17 -78zM550 555q0 60 -46 81q-28 14 -96 14h-124l-78 -264h120q53 0 88 8.5t62 25.5q32 21 53 57t21 78z" />
    <glyph glyph-name="uni0421" unicode="&#x421;" horiz-adv-x="665" 
d="M681 563q0 -11 -1 -19t-3 -21h-99q2 14 2.5 21t0.5 15q0 48 -36 75t-95 27q-63 0 -117 -32t-96 -92q-47 -67 -73.5 -148t-26.5 -161q0 -32 9.5 -62t30 -53t51.5 -37t75 -14q38 0 71 12.5t59 36.5q30 27 49 71h101q-23 -70 -76 -118q-41 -37 -93.5 -55.5t-113.5 -18.5
q-67 0 -116.5 19t-82 51.5t-48.5 75.5t-16 92q0 47 9.5 98t27.5 100t44 94.5t59 81.5q57 63 126.5 97t155.5 34q51 0 92 -11.5t70 -33.5t44.5 -53.5t15.5 -71.5z" />
    <glyph glyph-name="uni0422" unicode="&#x422;" horiz-adv-x="531" 
d="M622 648h-230l-192 -648h-94l192 648h-230l22 75h553z" />
    <glyph glyph-name="uni0423" unicode="&#x423;" horiz-adv-x="626" 
d="M214 204l-113 519h98l82 -436l342 436h105l-577 -723h-106z" />
    <glyph glyph-name="uni0424" unicode="&#x424;" horiz-adv-x="830" 
d="M282 69q-58 3 -103.5 20.5t-77.5 47t-49 70t-17 90.5q0 89 33 158t87.5 116.5t126.5 72t150 24.5h24l20 63h92l-20 -64q57 -3 103.5 -18.5t80 -44t51.5 -68t18 -90.5q0 -83 -32 -152.5t-86.5 -119.5t-127.5 -78t-154 -28h-26l-23 -75h-93zM435 597h-18q-63 0 -115 -21.5
t-88.5 -60t-57 -92t-20.5 -118.5q0 -73 43 -116.5t124 -48.5zM416 140q60 0 112 22t90 61.5t59.5 94.5t21.5 122q0 69 -43 110.5t-129 45.5l-131 -456h20z" />
    <glyph glyph-name="uni0425" unicode="&#x425;" horiz-adv-x="623" 
d="M365 374l164 -374h-101l-132 318l-282 -318h-117l361 386l-146 337h100l116 -284l246 284h118z" />
    <glyph glyph-name="uni0426" unicode="&#x426;" horiz-adv-x="770" 
d="M543 0h-544l212 723h94l-190 -649h360l190 649h95l-191 -649h79l-67 -233h-85z" />
    <glyph glyph-name="uni0427" unicode="&#x427;" horiz-adv-x="674" 
d="M459 305q-54 -11 -98 -19t-86 -8q-91 0 -136.5 33t-45.5 108q0 53 22 128l52 176h93l-58 -194q-17 -57 -17 -92q0 -48 30 -66.5t93 -18.5q38 0 79 7.5t94 18.5l100 345h94l-211 -723h-94z" />
    <glyph glyph-name="uni0428" unicode="&#x428;" horiz-adv-x="1090" 
d="M211 723h94l-190 -649h299l191 649h93l-190 -649h299l191 649h94l-212 -723h-881z" />
    <glyph glyph-name="uni0429" unicode="&#x429;" horiz-adv-x="1102" 
d="M875 0h-876l212 723h94l-190 -649h299l191 649h93l-190 -649h299l191 649h94l-191 -649h79l-67 -233h-85z" />
    <glyph glyph-name="uni042A" unicode="&#x42a;" horiz-adv-x="713" 
d="M257 649h-174l22 74h268l-89 -303h155q47 0 85 -12.5t65 -35t41.5 -55t14.5 -71.5q0 -63 -24 -111t-69 -79q-42 -30 -97.5 -43t-118.5 -13h-268zM331 73q49 0 89.5 9t69 29t44.5 52t16 78q0 51 -34.5 79.5t-104.5 28.5h-148l-81 -276h149z" />
    <glyph glyph-name="uni042B" unicode="&#x42b;" horiz-adv-x="919" 
d="M211 723h94l-89 -303h155q47 0 85 -12.5t65 -35t41.5 -55t14.5 -71.5q0 -63 -24 -111t-69 -79q-42 -30 -97.5 -43t-118.5 -13h-268zM263 73q49 0 89.5 9t69 29t44.5 52t16 78q0 51 -34.5 79.5t-104.5 28.5h-148l-81 -276h149zM826 723h94l-212 -723h-94z" />
    <glyph glyph-name="uni042C" unicode="&#x42c;" horiz-adv-x="645" 
d="M211 723h94l-89 -303h155q47 0 85 -12.5t65 -35t41.5 -55t14.5 -71.5q0 -63 -24 -111t-69 -79q-42 -30 -97.5 -43t-118.5 -13h-268zM263 73q49 0 89.5 9t69 29t44.5 52t16 78q0 51 -34.5 79.5t-104.5 28.5h-148l-81 -276h149z" />
    <glyph glyph-name="uni042D" unicode="&#x42d;" horiz-adv-x="665" 
d="M216 -10q-48 0 -89.5 11t-72 33t-48 54t-17.5 73v11t2 14h96q-1 -9 -1 -14v-7q0 -48 38 -76t99 -28q55 0 100.5 23.5t81.5 62.5t62 88.5t41 100.5h-291l20 72h288q4 21 5.5 40.5t1.5 38.5q0 78 -44 126t-120 48q-61 0 -108.5 -30t-72.5 -88h-100q16 49 44.5 86t73.5 62
q37 21 78.5 31t86.5 10q60 0 108 -17.5t81.5 -50t51.5 -78t18 -100.5q0 -47 -9 -95.5t-26 -96t-42 -92t-57 -82.5q-52 -61 -121 -95.5t-158 -34.5z" />
    <glyph glyph-name="uni042E" unicode="&#x42e;" horiz-adv-x="1000" 
d="M548 -10q-118 0 -185.5 64.5t-67.5 181.5q0 50 9 100h-112l-99 -336h-93l211 723h94l-93 -314h110q14 45 35 86t47 76q57 75 134.5 117.5t171.5 42.5q60 0 107.5 -17.5t80.5 -49.5t50 -77t17 -101q0 -82 -24 -161.5t-69 -148.5q-59 -90 -140 -138t-184 -48zM558 61
q44 0 81.5 14.5t69 40t57.5 61.5t47 78q26 54 40 113.5t14 115.5q0 85 -40 130t-122 45q-47 0 -88.5 -16.5t-76 -46.5t-62.5 -71.5t-47 -90.5q-20 -48 -30 -98.5t-10 -95.5q0 -84 43.5 -131.5t123.5 -47.5z" />
    <glyph glyph-name="uni042F" unicode="&#x42f;" horiz-adv-x="676" 
d="M238 309q-62 18 -97 60.5t-35 114.5q0 42 19.5 84.5t57.5 77t94 56t129 21.5h271l-212 -723h-94l87 297h-117l-289 -297h-123zM478 368l84 281h-147q-48 0 -87 -13.5t-67 -36t-43 -52t-15 -62.5t12 -55t32.5 -36t48.5 -20t60 -6h122z" />
    <glyph glyph-name="uni0430" unicode="&#x430;" horiz-adv-x="537" 
d="M463 394q0 -20 -4.5 -44t-12.5 -54q-3 -9 -7.5 -25t-9.5 -33t-10 -33t-8 -25q-6 -20 -12.5 -43t-12.5 -47q-5 -23 -9.5 -46t-8.5 -44h-84q0 5 3 25t9 46q-39 -42 -83.5 -61t-92.5 -19q-31 0 -57.5 8t-46 23.5t-30.5 39t-11 54.5q0 54 29 93.5t78 62.5q32 15 73 22.5
t101 11.5q20 2 49.5 2.5t58.5 0.5l7 26q7 27 7 49q0 35 -22.5 55t-70.5 20q-51 0 -83 -23t-42 -65h-87q6 35 24 62t46.5 45t66.5 27t82 9q78 0 124.5 -30t46.5 -90zM349 256q-49 -2 -84 -4.5t-60 -6.5t-42.5 -10t-32.5 -13q-30 -15 -48 -40.5t-18 -56.5q0 -38 22.5 -57.5
t63.5 -19.5q45 0 80.5 25.5t61.5 60.5q11 15 20.5 32.5t20.5 44.5z" />
    <glyph glyph-name="uni0431" unicode="&#x431;" horiz-adv-x="574" 
d="M203 -9q-103 0 -150 55.5t-47 148.5q0 26 3.5 50t8.5 48q25 116 68 197t100 127q27 22 55 35.5t57 22t58.5 13t59.5 8.5q48 7 73 11.5t33 18.5h80q-11 -47 -47 -70.5t-109 -33.5q-30 -4 -60 -7t-58.5 -9t-55.5 -16.5t-51 -28.5q-20 -15 -37.5 -35t-31.5 -42t-25 -44.5
t-17 -42.5q39 54 96.5 85t121.5 31q91 0 136 -47t45 -132q0 -59 -18.5 -119t-56.5 -111q-38 -52 -95.5 -82.5t-135.5 -30.5zM212 49q113 0 170 123q39 87 39 161q0 122 -117 122q-96 0 -159 -100q-26 -43 -40 -88.5t-14 -96.5q0 -53 32 -87t89 -34z" />
    <glyph glyph-name="uni0432" unicode="&#x432;" horiz-adv-x="545" 
d="M119 504h218q25 0 50 -5t45 -17t32.5 -32.5t12.5 -51.5q0 -60 -33 -94.5t-91 -45.5q81 -23 81 -97q0 -40 -20 -74.5t-55 -57.5q-37 -25 -102 -28q-12 -1 -24.5 -1h-25.5h-235zM223 63q55 0 88 30q16 14 25 31.5t9 40.5q0 36 -20 50.5t-60 14.5h-140l-49 -167h147z
M264 290q54 0 89.5 25.5t35.5 73.5q0 55 -76 55h-125l-45 -154h121z" />
    <glyph glyph-name="uni0433" unicode="&#x433;" horiz-adv-x="423" 
d="M120 504h328l-19 -63h-240l-130 -441h-87z" />
    <glyph glyph-name="uni0434" unicode="&#x434;" horiz-adv-x="602" 
d="M-79 63h46q41 40 70.5 82.5t54 94.5t46.5 116.5t47 147.5h358l-130 -441h70l-58 -200h-80l40 137h-401l-41 -137h-79zM325 63l111 378h-187q-17 -54 -35.5 -107.5t-41 -102t-49.5 -91.5t-61 -77h263z" />
    <glyph glyph-name="uni0435" unicode="&#x435;" horiz-adv-x="540" 
d="M481 362q0 -30 -5.5 -60t-18.5 -65h-358q-12 -42 -12 -79q0 -52 27 -81t84 -29q53 0 86.5 25t59.5 77h91q-67 -161 -235 -161q-93 0 -146.5 45t-53.5 120q0 36 8 74t22.5 75t35 70t45.5 59q41 43 91 63.5t107 20.5q78 0 125 -40t47 -114zM395 359q0 42 -22 69t-71 27
q-85 0 -140 -73q-14 -18 -24.5 -40t-20.5 -48h267q7 23 9 35.5t2 29.5z" />
    <glyph glyph-name="uni0436" unicode="&#x436;" horiz-adv-x="750" 
d="M202 275l-152 229h91l156 -245l-299 -259h-117zM371 504h86l-147 -504h-86zM389 263l268 241h110l-283 -245l177 -259h-98z" />
    <glyph glyph-name="uni0437" unicode="&#x437;" horiz-adv-x="493" 
d="M156 -11q-86 0 -137.5 31t-51.5 96q0 21 6 47h81q-3 -18 -3 -35q0 -36 23 -58.5t80 -22.5q62 0 102.5 29t40.5 85q0 68 -103 68h-22.5t-18.5 -1l17 61q8 -1 18.5 -1.5t20.5 -0.5q27 0 51.5 7t43 20.5t29.5 33.5t11 45q0 29 -20.5 48t-62.5 19q-58 0 -93.5 -22.5
t-46.5 -78.5h-83q5 41 24 71t49 49t69.5 28t86.5 9q81 0 120 -33.5t39 -87.5q0 -52 -35.5 -87.5t-92.5 -47.5v-1q39 -6 62.5 -32.5t23.5 -64.5q0 -45 -18 -77.5t-49.5 -54t-73 -31.5t-87.5 -10z" />
    <glyph glyph-name="uni0438" unicode="&#x438;" horiz-adv-x="603" 
d="M120 504h86l-116 -393l367 393h103l-148 -504h-87l114 389l-364 -389h-103z" />
    <glyph glyph-name="uni0439" unicode="&#x439;" horiz-adv-x="603" 
d="M120 504h86l-116 -393l367 393h103l-148 -504h-87l114 389l-364 -389h-103zM503 710q-11 -59 -50.5 -89t-99.5 -30q-54 0 -85.5 21t-31.5 66q0 16 4 32h50q-1 -5 -1 -12q0 -22 13 -35t52 -13q43 0 65.5 15.5t33.5 44.5h50z" />
    <glyph glyph-name="uni043A" unicode="&#x43a;" horiz-adv-x="514" 
d="M120 504h87l-149 -504h-86zM138 265l280 239h113l-299 -247l193 -257h-102z" />
    <glyph glyph-name="uni043B" unicode="&#x43b;" horiz-adv-x="573" 
d="M-45 -6q-5 0 -13 0.5t-16.5 1.5t-16.5 2t-11 2l19 70q5 -2 15 -2.5t17 -0.5q23 0 47.5 20t53 70t62 134.5t75.5 212.5h342l-147 -504h-88l129 441h-172q-35 -106 -64.5 -180.5t-56 -124t-50 -78t-45 -43t-41.5 -18t-39 -3.5z" />
    <glyph glyph-name="uni043C" unicode="&#x43c;" horiz-adv-x="724" 
d="M120 504h130l22 -426l278 426h131l-148 -504h-83l127 428l-283 -428h-83l-28 428l-126 -428h-85z" />
    <glyph glyph-name="uni043D" unicode="&#x43d;" horiz-adv-x="593" 
d="M120 504h87l-63 -213h256l62 213h88l-148 -504h-87l66 228h-255l-67 -228h-87z" />
    <glyph glyph-name="uni043E" unicode="&#x43e;" horiz-adv-x="570" 
d="M510 337q0 -66 -22 -129t-59 -113q-38 -52 -95.5 -78.5t-131.5 -26.5q-98 0 -150 50t-52 135q0 69 23.5 132.5t65.5 110.5q44 50 100 74t122 24q94 0 146.5 -48.5t52.5 -130.5zM419 333q0 60 -29 91.5t-89 31.5q-51 0 -91 -27.5t-70 -77.5q-25 -42 -38 -89t-13 -91
q0 -57 32.5 -89t89.5 -32q54 0 96.5 30t69.5 87q20 40 31 84t11 82z" />
    <glyph glyph-name="uni043F" unicode="&#x43f;" horiz-adv-x="585" 
d="M120 504h422l-148 -504h-87l129 441h-247l-130 -441h-87z" />
    <glyph glyph-name="uni0440" unicode="&#x440;" horiz-adv-x="588" 
d="M526 334q0 -66 -21 -129.5t-59 -111.5q-41 -51 -92 -77t-111 -26q-54 0 -95.5 24t-62.5 76l-84 -279h-87l168 559q9 28 14 46t9 31.5t7 26t8 30.5h87l-18 -65q44 42 85.5 59t86.5 17q43 0 74 -13.5t51 -37.5t30 -57.5t10 -72.5zM438 325q0 58 -24.5 92.5t-78.5 34.5
q-49 0 -92.5 -27.5t-73.5 -81.5q-23 -42 -37 -88t-14 -89q0 -50 31.5 -83t84.5 -33q46 0 84 24.5t67 71.5q25 38 39 87t14 92z" />
    <glyph glyph-name="uni0441" unicode="&#x441;" horiz-adv-x="526" 
d="M488 389q0 -12 -1.5 -24.5t-6.5 -32.5h-86q7 27 7 46q0 38 -23 58.5t-68 20.5q-53 0 -96.5 -31t-73.5 -83q-23 -39 -37 -86t-14 -90q0 -54 29 -85.5t86 -31.5q54 0 91.5 29t54.5 79h90q-26 -78 -89.5 -122.5t-155.5 -44.5q-94 0 -144.5 48.5t-50.5 128.5q0 74 29 143.5
t80 119.5q43 43 94.5 63t114.5 20q37 0 68.5 -8t54 -24t35 -39.5t12.5 -53.5z" />
    <glyph glyph-name="uni0442" unicode="&#x442;" horiz-adv-x="464" 
d="M203 441h-183l19 63h447l-18 -63h-177l-129 -441h-89z" />
    <glyph glyph-name="uni0443" unicode="&#x443;" horiz-adv-x="506" 
d="M203 -7l-107 -182h-91l116 185l-94 509h95l58 -418l254 417h93z" />
    <glyph glyph-name="uni0444" unicode="&#x444;" horiz-adv-x="808" 
d="M266 38q-18 -17 -47.5 -31.5t-73.5 -14.5q-39 0 -66 14.5t-43.5 39t-24 57t-7.5 68.5q0 26 5 55t14 58q34 109 97 169t155 60q45 0 74 -19t42 -39l78 268h88l-77 -259q19 17 50 33t76 16q36 0 62 -12.5t43 -35t25 -53t8 -66.5q0 -66 -18 -124q-33 -111 -98.5 -170.5
t-149.5 -59.5q-42 0 -75.5 16.5t-47.5 34.5l-67 -231h-88zM176 51q29 0 61 16t50 38l88 299q-8 20 -33 33.5t-52 13.5q-69 0 -111 -46.5t-68 -134.5q-18 -60 -18 -111q0 -48 19.5 -78t63.5 -30zM461 51q66 0 107.5 47.5t67.5 135.5q9 30 14 58.5t5 52.5q0 48 -20.5 77
t-66.5 29q-27 0 -56.5 -13.5t-48.5 -33.5l-90 -303q7 -18 28.5 -34t59.5 -16z" />
    <glyph glyph-name="uni0445" unicode="&#x445;" horiz-adv-x="497" 
d="M267 255l119 -255h-93l-89 204l-187 -204h-106l255 263l-117 241h100l80 -189l174 189h107z" />
    <glyph glyph-name="uni0446" unicode="&#x446;" horiz-adv-x="602" 
d="M389 0h-417l148 504h88l-130 -441h247l130 441h88l-130 -441h73l-58 -200h-80z" />
    <glyph glyph-name="uni0447" unicode="&#x447;" horiz-adv-x="540" 
d="M322 205q-14 -5 -33.5 -9.5t-40 -7.5t-41 -5t-36.5 -2q-69 0 -105 23.5t-36 76.5q0 29 10 63l47 160h88l-49 -161q-7 -24 -7 -43q0 -32 23.5 -43.5t68.5 -11.5q14 0 31.5 1.5t35 4.5t34 6.5t28.5 8.5l70 238h87l-147 -504h-88z" />
    <glyph glyph-name="uni0448" unicode="&#x448;" horiz-adv-x="850" 
d="M120 504h87l-130 -441h212l130 441h88l-130 -441h213l130 441h87l-148 -504h-687z" />
    <glyph glyph-name="uni0449" unicode="&#x449;" horiz-adv-x="866" 
d="M651 0h-679l148 504h87l-130 -441h212l130 441h88l-130 -441h213l130 441h87l-130 -441h72l-59 -200h-80z" />
    <glyph glyph-name="uni044A" unicode="&#x44a;" horiz-adv-x="578" 
d="M155 441h-135l18 63h223l-58 -199h140q66 0 106 -34.5t40 -97.5q0 -45 -17 -78t-46 -54t-67 -31t-79 -10h-254zM257 63q29 0 55 5t45.5 17.5t31 34t11.5 53.5q0 69 -92 69h-123l-54 -179h126z" />
    <glyph glyph-name="uni044B" unicode="&#x44b;" horiz-adv-x="739" 
d="M120 504h87l-58 -199h130q66 0 106 -34.5t40 -97.5q0 -45 -17 -78t-46 -54t-67 -31t-79 -10h-244zM193 63q29 0 55 5t45.5 17.5t31 34t11.5 53.5q0 69 -92 69h-113l-54 -179h116zM609 504h87l-147 -504h-88z" />
    <glyph glyph-name="uni044C" unicode="&#x44c;" horiz-adv-x="523" 
d="M120 504h87l-58 -199h140q66 0 106 -34.5t40 -97.5q0 -45 -17 -78t-46 -54t-67 -31t-79 -10h-254zM203 63q29 0 55 5t45.5 17.5t31 34t11.5 53.5q0 69 -92 69h-123l-54 -179h126z" />
    <glyph glyph-name="uni044D" unicode="&#x44d;" horiz-adv-x="526" 
d="M159 -9q-32 0 -64.5 6.5t-55.5 18.5q-64 34 -64 104q0 18 5 43h84q-4 -17 -4 -34q0 -41 30 -61t77 -20q37 0 68 14.5t55 39t41.5 57.5t28.5 69h-200l18 61h197q3 24 3 50q0 57 -33 87t-87 30q-105 0 -146 -104h-88q26 81 94 123q31 20 68 30t76 10q93 0 146 -47
q26 -24 42 -56.5t16 -74.5q0 -78 -28 -150t-82 -122q-38 -35 -85.5 -54.5t-111.5 -19.5z" />
    <glyph glyph-name="uni044E" unicode="&#x44e;" horiz-adv-x="783" 
d="M416 -9q-89 0 -143.5 47.5t-54.5 139.5q0 25 3 49h-96l-66 -227h-87l147 504h88l-63 -214h90q11 35 27.5 66t39.5 57q42 49 99.5 76t122.5 27q94 0 147 -48.5t53 -133.5q0 -55 -14.5 -108t-43.5 -101q-37 -60 -98 -97t-151 -37zM425 49q56 0 97.5 30t70.5 93
q40 86 40 161q0 122 -117 122q-44 0 -82 -23t-67 -65q-27 -40 -44.5 -90t-17.5 -102q0 -58 31.5 -92t88.5 -34z" />
    <glyph glyph-name="uni044F" unicode="&#x44f;" horiz-adv-x="538" 
d="M139 209q-47 12 -73 41.5t-26 77.5q0 82 58 129t170 47h226l-148 -504h-87l59 201h-87l-199 -201h-107zM336 260l53 182h-116q-70 0 -107.5 -27.5t-37.5 -81.5q0 -41 31 -57t75 -16h102z" />
    <glyph glyph-name="uni0450" unicode="&#x450;" horiz-adv-x="540" 
d="M481 362q0 -30 -5.5 -60t-18.5 -65h-358q-12 -42 -12 -79q0 -52 27 -81t84 -29q53 0 86.5 25t59.5 77h91q-67 -161 -235 -161q-93 0 -146.5 45t-53.5 120q0 36 8 74t22.5 75t35 70t45.5 59q41 43 91 63.5t107 20.5q78 0 125 -40t47 -114zM395 359q0 42 -22 69t-71 27
q-85 0 -140 -73q-14 -18 -24.5 -40t-20.5 -48h267q7 23 9 35.5t2 29.5zM319 591l-98 145h102l54 -145h-58z" />
    <glyph glyph-name="uni0451" unicode="&#x451;" horiz-adv-x="540" 
d="M481 362q0 -30 -5.5 -60t-18.5 -65h-358q-12 -42 -12 -79q0 -52 27 -81t84 -29q53 0 86.5 25t59.5 77h91q-67 -161 -235 -161q-93 0 -146.5 45t-53.5 120q0 36 8 74t22.5 75t35 70t45.5 59q41 43 91 63.5t107 20.5q78 0 125 -40t47 -114zM395 359q0 42 -22 69t-71 27
q-85 0 -140 -73q-14 -18 -24.5 -40t-20.5 -48h267q7 23 9 35.5t2 29.5zM206 635l25 89h92l-25 -89h-92zM398 635l25 89h92l-25 -89h-92z" />
    <glyph glyph-name="uni0452" unicode="&#x452;" horiz-adv-x="583" 
d="M154 -196q-8 0 -24 1t-38 3l17 59q7 -1 15 -1.5t16 -0.5q10 0 18.5 1t16.5 3q59 11 94.5 57t59.5 127l72 241q5 17 10.5 41t5.5 42q0 34 -20.5 53t-58.5 19q-34 0 -64.5 -15t-59.5 -42q-29 -28 -47.5 -60.5t-31.5 -76.5l-76 -255h-88l167 567h-102l19 62h101l28 94h89
l-28 -94h150l-19 -62h-149l-43 -145q43 47 87.5 69.5t96.5 22.5q65 0 102 -32.5t37 -88.5q0 -24 -7 -53.5t-14 -52.5l-74 -248q-16 -53 -37.5 -96t-52 -74t-72 -48t-96.5 -17z" />
    <glyph glyph-name="uni0453" unicode="&#x453;" horiz-adv-x="423" 
d="M120 504h328l-19 -63h-240l-130 -441h-87zM285 591h-65l127 145h116z" />
    <glyph glyph-name="uni0454" unicode="&#x454;" horiz-adv-x="526" 
d="M195 -8q-89 0 -142 47.5t-53 135.5q0 72 24 134t66.5 107.5t101 71.5t126.5 26q30 0 59.5 -6.5t50.5 -17.5q29 -17 44.5 -42t15.5 -59q0 -10 -1.5 -20t-3.5 -22h-85q3 15 3 30q0 80 -91 80q-15 0 -30 -3q-82 -14 -136 -99q-20 -32 -33 -64h200q-4 -16 -8 -30.5t-9 -30.5
h-199q-3 -16 -5 -31.5t-2 -31.5q0 -57 29.5 -87t86.5 -30q54 0 90 26.5t55 77.5h89q-27 -77 -91 -120q-65 -42 -152 -42z" />
    <glyph glyph-name="uni0455" unicode="&#x455;" horiz-adv-x="461" 
d="M338 366v5q0 42 -23 64.5t-71 22.5q-46 0 -77.5 -21t-31.5 -56q0 -25 17 -41t50 -32l58 -27q24 -11 44 -22.5t34.5 -26t22.5 -33.5t8 -45q0 -41 -18 -71.5t-48 -51t-70.5 -31t-85.5 -10.5q-34 0 -67 8.5t-59 26.5t-42 46t-16 67v15h85v-9q0 -42 28.5 -68.5t82.5 -26.5
q24 0 46 6t39 17.5t27 28.5t10 38q0 26 -13.5 43t-45.5 31l-66 30q-56 25 -81.5 52t-25.5 71q0 36 16 63.5t44 47t65.5 29.5t79.5 10q81 0 126 -35t45 -105v-10h-87z" />
    <glyph glyph-name="uni0456" unicode="&#x456;" horiz-adv-x="240" 
d="M251 636h-98l26 87h98zM59 0h-88l147 504h88z" />
    <glyph glyph-name="uni0457" unicode="&#x457;" horiz-adv-x="240" 
d="M59 0h-88l147 504h88zM62 635l25 89h92l-25 -89h-92zM254 635l25 89h92l-25 -89h-92z" />
    <glyph glyph-name="uni0458" unicode="&#x458;" horiz-adv-x="242" 
d="M39 -66q-12 -41 -25 -62.5t-33 -37.5q-41 -30 -102 -30q-31 0 -59 3l17 62l16.5 -1.5t13.5 -0.5q36 0 55 19.5t33 65.5l163 552h88zM251 636h-98l26 87h98z" />
    <glyph glyph-name="uni0459" unicode="&#x459;" horiz-adv-x="845" 
d="M-45 -6q-5 0 -13 0.5t-16.5 1.5t-16.5 2t-11 2l19 70q5 -2 15 -2.5t17 -0.5q23 0 47.5 20t53 70t62 134.5t75.5 212.5h342l-58 -199h140q66 0 106 -34.5t40 -97.5q0 -45 -17 -78t-46 -54t-67 -31t-79 -10h-254l129 441h-172q-35 -106 -64.5 -180.5t-56 -124t-50 -78
t-45 -43t-41.5 -18t-39 -3.5zM525 63q29 0 55 5t45.5 17.5t31 34t11.5 53.5q0 69 -92 69h-123l-54 -179h126z" />
    <glyph glyph-name="uni045A" unicode="&#x45a;" horiz-adv-x="866" 
d="M120 504h87l-59 -201h255l59 201h88l-59 -201h142q65 0 105 -33.5t40 -93.5q0 -49 -17 -82.5t-46 -54.5t-67 -30t-79 -9h-254l69 239h-255l-70 -239h-87zM546 64q29 0 54.5 5t45 17t31 33t11.5 53q0 68 -92 68h-123l-53 -176h126z" />
    <glyph glyph-name="uni045B" unicode="&#x45b;" horiz-adv-x="583" 
d="M138 567h-102l19 62h101l28 94h89l-28 -94h150l-19 -62h-149l-43 -145q43 47 87.5 69.5t96.5 22.5q65 0 102 -32.5t37 -88.5q0 -24 -7 -53.5t-14 -52.5l-85 -287h-88l88 294q5 17 10.5 41t5.5 42q0 34 -20.5 53t-58.5 19q-34 0 -64.5 -15t-59.5 -42q-29 -28 -47.5 -60.5
t-31.5 -76.5l-76 -255h-88z" />
    <glyph glyph-name="uni045C" unicode="&#x45c;" horiz-adv-x="514" 
d="M120 504h87l-149 -504h-86zM138 265l280 239h113l-299 -247l193 -257h-102zM320 591h-65l127 145h116z" />
    <glyph glyph-name="uni045D" unicode="&#x45d;" horiz-adv-x="603" 
d="M120 504h86l-116 -393l367 393h103l-148 -504h-87l114 389l-364 -389h-103zM321 591l-98 145h102l54 -145h-58z" />
    <glyph glyph-name="uni045E" unicode="&#x45e;" horiz-adv-x="506" 
d="M203 -7l-107 -182h-91l116 185l-94 509h95l58 -418l254 417h93zM453 710q-11 -59 -50.5 -89t-99.5 -30q-54 0 -85.5 21t-31.5 66q0 16 4 32h50q-1 -5 -1 -12q0 -22 13 -35t52 -13q43 0 65.5 15.5t33.5 44.5h50z" />
    <glyph glyph-name="uni045F" unicode="&#x45f;" horiz-adv-x="585" 
d="M146 0h-174l148 504h87l-129 -441h247l129 441h88l-148 -504h-168l-40 -137h-81z" />
    <glyph glyph-name="uni0490" unicode="&#x490;" horiz-adv-x="514" 
d="M211 723h329l37 127h84l-58 -201h-319l-191 -649h-94z" />
    <glyph glyph-name="uni0491" unicode="&#x491;" horiz-adv-x="423" 
d="M120 504h250l37 125h78l-56 -188h-240l-130 -441h-87z" />
    <glyph glyph-name="Wgrave" unicode="&#x1e80;" horiz-adv-x="1054" 
d="M736 0h-120l-26 611l-354 -611h-122l2 723h95l-12 -631l362 631h105l30 -632l324 632h104zM641 777l-98 144h102l54 -144h-58z" />
    <glyph glyph-name="wgrave" unicode="&#x1e81;" horiz-adv-x="849" 
d="M535 0h-90l-8 415l-264 -415h-99l-35 504h93l11 -420l264 420h102l5 -413l252 413h102zM470 591l-98 145h102l54 -145h-58z" />
    <glyph glyph-name="Wacute" unicode="&#x1e82;" horiz-adv-x="1054" 
d="M736 0h-120l-26 611l-354 -611h-122l2 723h95l-12 -631l362 631h105l30 -632l324 632h104zM609 777h-65l127 144h116z" />
    <glyph glyph-name="wacute" unicode="&#x1e83;" horiz-adv-x="849" 
d="M535 0h-90l-8 415l-264 -415h-99l-35 504h93l11 -420l264 420h102l5 -413l252 413h102zM495 591h-65l127 145h116z" />
    <glyph glyph-name="Wdieresis" unicode="&#x1e84;" horiz-adv-x="1054" 
d="M736 0h-120l-26 611l-354 -611h-122l2 723h95l-12 -631l362 631h105l30 -632l324 632h104zM492 806l25 89h92l-25 -89h-92zM684 806l25 89h92l-25 -89h-92z" />
    <glyph glyph-name="wdieresis" unicode="&#x1e85;" horiz-adv-x="849" 
d="M535 0h-90l-8 415l-264 -415h-99l-35 504h93l11 -420l264 420h102l5 -413l252 413h102zM351 635l25 89h92l-25 -89h-92zM543 635l25 89h92l-25 -89h-92z" />
    <glyph glyph-name="Ygrave" unicode="&#x1ef2;" horiz-adv-x="580" 
d="M325 300l-88 -300h-94l92 309l-166 414h100l129 -346l285 346h111zM405 777l-98 144h102l54 -144h-58z" />
    <glyph glyph-name="ygrave" unicode="&#x1ef3;" horiz-adv-x="506" 
d="M203 -7l-107 -182h-91l116 185l-94 509h95l58 -418l254 417h93zM299 591l-98 145h102l54 -145h-58z" />
    <glyph glyph-name="uni2010" unicode="&#x2010;" horiz-adv-x="351" 
d="M272 233h-258l19 65h258z" />
    <glyph glyph-name="endash" unicode="&#x2013;" horiz-adv-x="517" 
d="M476 235h-500l16 62h500z" />
    <glyph glyph-name="emdash" unicode="&#x2014;" horiz-adv-x="1017" 
d="M838 235h-739l18 62h739z" />
    <glyph glyph-name="afii00208" unicode="&#x2015;" horiz-adv-x="1017" 
d="M838 235h-739l18 62h739z" />
    <glyph glyph-name="quoteleft" unicode="&#x2018;" horiz-adv-x="302" 
d="M210 510h-105l158 213h74z" />
    <glyph glyph-name="quoteright" unicode="&#x2019;" horiz-adv-x="302" 
d="M193 510h-74l128 213h104z" />
    <glyph glyph-name="quotesinglbase" unicode="&#x201a;" horiz-adv-x="302" 
d="M-4 -117h-73l128 212h105z" />
    <glyph glyph-name="quotedblleft" unicode="&#x201c;" horiz-adv-x="498" 
d="M406 510h-105l157 213h75zM210 510h-105l159 213h73z" />
    <glyph glyph-name="quotedblright" unicode="&#x201d;" horiz-adv-x="498" 
d="M388 510h-73l127 213h105zM193 510h-74l127 213h105z" />
    <glyph glyph-name="quotedblbase" unicode="&#x201e;" horiz-adv-x="495" 
d="M192 -117h-74l127 212h104zM-4 -117h-73l126 212h104z" />
    <glyph glyph-name="dagger" unicode="&#x2020;" horiz-adv-x="594" 
d="M546 482h-171l-144 -482h-75l143 482h-174l19 62h173l54 179h75l-53 -179h171z" />
    <glyph glyph-name="daggerdbl" unicode="&#x2021;" horiz-adv-x="594" 
d="M550 488h-171l-74 -252h171l-18 -62h-171l-52 -174h-76l53 174h-174l17 62h174l74 252h-173l18 61h174l53 174h73l-51 -174h171z" />
    <glyph glyph-name="bullet" unicode="&#x2022;" horiz-adv-x="517" 
d="M436 358q0 -34 -12 -64q-13 -33 -34 -56q-27 -29 -60 -43q-35 -16 -73 -16q-39 0 -72 15q-35 15 -61 44q-22 23 -34 55q-12 30 -12 65q0 37 16 72q14 33 43 60q25 23 56 35q30 12 64 12t64 -12q31 -12 56 -35q14 -13 25 -28t19 -32q15 -33 15 -72z" />
    <glyph glyph-name="ellipsis" unicode="&#x2026;" horiz-adv-x="1017" 
d="M785 0h-99l28 101h99zM451 0h-99l29 101h99zM118 0h-99l28 101h99z" />
    <glyph glyph-name="perthousand" unicode="&#x2030;" horiz-adv-x="1001" 
d="M933 203q0 -39 -16 -81.5t-42 -74.5q-23 -27 -56.5 -43.5t-70.5 -16.5q-54 0 -83 30t-29 81q0 41 14.5 83t40.5 73q24 28 57 43.5t72 15.5q53 0 83 -30t30 -80zM365 625q0 -44 -14 -83.5t-38.5 -69.5t-58 -47.5t-73.5 -17.5q-53 0 -83 31t-30 81q0 40 15 81t41 72
q24 29 57 45t72 16q54 0 83 -29t29 -79zM75 -25h-68l575 761h67zM593 202q0 -42 -14 -81t-39 -69t-59 -48t-73 -18q-53 0 -83 30t-30 80q0 41 15 82t41 73q25 29 58 45t74 16q52 0 81 -30.5t29 -79.5zM864 200q0 26 -14 42t-40 16q-43 0 -73 -44q-17 -25 -26 -55t-9 -56
q0 -28 15 -44.5t41 -16.5q22 0 41.5 14.5t34 37t22.5 51t8 55.5zM297 619q0 26 -14.5 42t-40.5 16q-41 0 -70 -40q-17 -23 -27.5 -55t-10.5 -58q0 -29 15 -46t42 -17q22 0 39 12t31 32q17 26 26.5 57t9.5 57zM523 199q0 26 -15 42t-41 16q-20 0 -38.5 -12t-31.5 -32
q-16 -24 -25.5 -55t-9.5 -56q0 -28 15 -45t42 -17q20 0 38.5 11.5t30.5 31.5q16 26 25.5 58t9.5 58z" />
    <glyph glyph-name="guilsinglleft" unicode="&#x2039;" horiz-adv-x="301" 
d="M115 262l39 -203h-68l-48 218l159 171h76z" />
    <glyph glyph-name="guilsinglright" unicode="&#x203a;" horiz-adv-x="301" 
d="M133 245l-39 203h68l48 -218l-159 -171h-76z" />
    <glyph glyph-name="fraction" unicode="&#x2044;" horiz-adv-x="184" 
d="M-114 -24h-67l474 752h66z" />
    <glyph glyph-name="zero.superior" unicode="&#x2070;" 
d="M226 462q-63 0 -90.5 33t-27.5 87q0 33 8 70t20 72q13 37 30 68.5t40 54t53 35.5t69 13q63 0 90.5 -32.5t27.5 -86.5q0 -34 -8 -71t-20 -72q-13 -37 -30 -68.5t-40 -54t-53 -35.5t-69 -13zM232 511q39 0 69 30t53 94q12 32 21.5 69.5t9.5 71.5q0 32 -14.5 51t-48.5 19
q-39 0 -69 -30t-53 -94q-12 -32 -21.5 -69t-9.5 -71q0 -32 14.5 -51.5t48.5 -19.5z" />
    <glyph glyph-name="four.superior" unicode="&#x2074;" 
d="M359 609h67l-14 -48h-66l-27 -92h-62l27 92h-199l15 59l263 269h76zM156 609h143l58 205z" />
    <glyph glyph-name="five.superior" unicode="&#x2075;" 
d="M411 601q-18 -63 -67 -101t-121 -38q-51 0 -84 22t-33 70q0 6 0.5 12t2.5 13h65q-1 -4 -1.5 -7t-0.5 -6q0 -28 16.5 -41.5t44.5 -13.5q39 0 69.5 26t43.5 70q6 18 6 36q0 25 -12.5 42.5t-45.5 17.5q-29 0 -54 -15t-42 -43h-63l80 244h254l-13 -51h-196l-46 -132
q39 45 104 45q51 0 75.5 -28t24.5 -71q0 -11 -1.5 -25t-5.5 -26z" />
    <glyph glyph-name="six.superior" unicode="&#x2076;" 
d="M416 644q0 -36 -13 -69t-36.5 -58t-56.5 -40t-72 -15q-68 0 -96 34t-28 88q0 16 4 45t14 63.5t26.5 70.5t41.5 65.5t59.5 48t80.5 18.5q57 0 87 -23t30 -65q0 -6 -0.5 -11t-1.5 -10h-63q1 5 1 13q0 26 -14.5 36.5t-43.5 10.5t-51 -13.5t-39 -35.5t-29.5 -50.5
t-22.5 -59.5q25 26 53.5 41t66.5 15q50 0 76.5 -27t26.5 -72zM244 512q24 0 44 10.5t34 28t22 40t10 46.5q0 27 -13.5 44.5t-48.5 17.5q-43 0 -69.5 -23t-40.5 -57q-8 -24 -8 -44q0 -63 70 -63z" />
    <glyph glyph-name="seven.superior" unicode="&#x2077;" 
d="M201 469h-74l279 367h-224l15 53h290l-15 -53z" />
    <glyph glyph-name="eight.superior" unicode="&#x2078;" 
d="M413 609q0 -31 -13.5 -58t-38 -46.5t-60 -31t-79.5 -11.5q-59 0 -94.5 24t-35.5 69q0 49 32 85t86 47q-25 8 -39.5 26.5t-14.5 43.5q0 32 15 57.5t40.5 43.5t57.5 27.5t67 9.5q55 0 89.5 -22.5t34.5 -64.5q0 -46 -30.5 -78t-77.5 -43q61 -20 61 -78zM288 710
q18 0 37.5 5.5t35 16.5t26 27t10.5 38q0 26 -20 38.5t-49 12.5q-22 0 -42 -6t-35 -17.5t-24 -28t-9 -37.5q0 -24 19.5 -36.5t50.5 -12.5zM230 510q22 0 43 6.5t38 18.5t27.5 30t10.5 42q0 27 -20.5 42t-54.5 15q-21 0 -42 -7t-37.5 -19.5t-27 -31t-10.5 -41.5
q0 -26 19.5 -40.5t53.5 -14.5z" />
    <glyph glyph-name="nine.superior" unicode="&#x2079;" 
d="M417 637q-14 -39 -31.5 -71.5t-41.5 -55.5t-55.5 -35.5t-73.5 -12.5q-54 0 -85 22.5t-31 64.5q0 14 3 26h63q-2 -10 -2 -17q0 -25 16.5 -35t46.5 -10q52 0 84.5 39t56.5 120q-22 -23 -48.5 -35t-65.5 -12q-47 0 -77.5 23.5t-30.5 72.5q0 28 11 59q19 52 62.5 83.5
t106.5 31.5q61 0 91.5 -30.5t30.5 -85.5q0 -30 -8.5 -68t-21.5 -74zM382 749q6 16 6 36q-3 62 -72 62q-37 0 -63 -21t-37 -53q-8 -19 -8 -44q0 -26 17 -41t49 -15q38 0 66.5 19t41.5 57z" />
    <glyph glyph-name="zero.inferior" unicode="&#x2080;" 
d="M51 -171q-63 0 -90.5 33t-27.5 87q0 33 8 70t20 72q13 37 30 68.5t40 54t53 35.5t69 13q63 0 90.5 -32.5t27.5 -86.5q0 -34 -8 -71t-20 -72q-13 -37 -30 -68.5t-40 -54t-53 -35.5t-69 -13zM57 -122q39 0 69 30t53 94q12 32 21.5 69.5t9.5 71.5q0 32 -14.5 51t-48.5 19
q-39 0 -69 -30t-53 -94q-12 -32 -21.5 -69t-9.5 -71q0 -32 14.5 -51.5t48.5 -19.5z" />
    <glyph glyph-name="one.inferior" unicode="&#x2081;" 
d="M37 -164l99 345q-29 -18 -54.5 -28.5t-56.5 -21.5l17 59q20 7 35 14t29 14.5t28 16.5t32 21h56l-121 -420h-64z" />
    <glyph glyph-name="two.inferior" unicode="&#x2082;" 
d="M277 171q0 -50 -36.5 -96.5t-118.5 -103.5l-119 -83h198l-14 -52h-288l15 53l153 107q41 28 68 51.5t43.5 43.5t23.5 37t7 32q0 52 -59 52q-36 0 -59.5 -20t-34.5 -55h-66q19 63 64.5 94t106.5 31q54 0 85 -24.5t31 -66.5z" />
    <glyph glyph-name="three.inferior" unicode="&#x2083;" 
d="M285 167q0 -48 -29.5 -77t-78.5 -40q29 -9 44 -30t15 -48q0 -34 -14 -60.5t-38.5 -45t-56.5 -28t-68 -9.5q-29 0 -54.5 7t-44 19.5t-29 31.5t-10.5 43q0 5 0.5 10.5t1.5 12.5h66q0 -3 -0.5 -7t-0.5 -7q0 -29 22 -44.5t54 -15.5q23 0 43 6.5t34.5 18.5t22.5 28.5t8 35.5
q0 27 -20.5 43.5t-58.5 16.5q-8 0 -13 -0.5t-13 -0.5l13 50q8 -1 15 -1h14q21 0 41 4.5t35.5 14.5t25 25.5t9.5 38.5q0 26 -19 40t-50 14q-69 0 -97 -69h-64q19 61 63 89.5t106 28.5q26 0 49 -6.5t40 -18.5t27 -29.5t10 -40.5z" />
    <glyph glyph-name="four.inferior" unicode="&#x2084;" 
d="M186 -24h67l-14 -48h-66l-27 -92h-62l27 92h-199l15 59l263 269h76zM-17 -24h143l58 205z" />
    <glyph glyph-name="five.inferior" unicode="&#x2085;" 
d="M238 -32q-18 -63 -67 -101t-121 -38q-51 0 -84 22t-33 70q0 6 0.5 12t2.5 13h65q-1 -4 -1.5 -7t-0.5 -6q0 -28 16.5 -41.5t44.5 -13.5q39 0 69.5 26t43.5 70q6 18 6 36q0 25 -12.5 42.5t-45.5 17.5q-29 0 -54 -15t-42 -43h-63l80 244h254l-13 -51h-196l-46 -132
q39 45 104 45q51 0 75.5 -28t24.5 -71q0 -11 -1.5 -25t-5.5 -26z" />
    <glyph glyph-name="six.inferior" unicode="&#x2086;" 
d="M243 11q0 -36 -13 -69t-36.5 -58t-56.5 -40t-72 -15q-68 0 -96 34t-28 88q0 16 4 45t14 63.5t26.5 70.5t41.5 65.5t59.5 48t80.5 18.5q57 0 87 -23t30 -65q0 -6 -0.5 -11t-1.5 -10h-63q1 5 1 13q0 26 -14.5 36.5t-43.5 10.5t-51 -13.5t-39 -35.5t-29.5 -50.5t-22.5 -59.5
q25 26 53.5 41t66.5 15q50 0 76.5 -27t26.5 -72zM71 -121q24 0 44 10.5t34 28t22 40t10 46.5q0 27 -13.5 44.5t-48.5 17.5q-43 0 -69.5 -23t-40.5 -57q-8 -24 -8 -44q0 -63 70 -63z" />
    <glyph glyph-name="seven.inferior" unicode="&#x2087;" 
d="M28 -164h-74l279 367h-224l15 53h290l-15 -53z" />
    <glyph glyph-name="eight.inferior" unicode="&#x2088;" 
d="M240 -24q0 -31 -13.5 -58t-38 -46.5t-60 -31t-79.5 -11.5q-59 0 -94.5 24t-35.5 69q0 49 32 85t86 47q-25 8 -39.5 26.5t-14.5 43.5q0 32 15 57.5t40.5 43.5t57.5 27.5t67 9.5q55 0 89.5 -22.5t34.5 -64.5q0 -46 -30.5 -78t-77.5 -43q61 -20 61 -78zM115 77
q18 0 37.5 5.5t35 16.5t26 27t10.5 38q0 26 -20 38.5t-49 12.5q-22 0 -42 -6t-35 -17.5t-24 -28t-9 -37.5q0 -24 19.5 -36.5t50.5 -12.5zM57 -123q22 0 43 6.5t38 18.5t27.5 30t10.5 42q0 27 -20.5 42t-54.5 15q-21 0 -42 -7t-37.5 -19.5t-27 -31t-10.5 -41.5
q0 -26 19.5 -40.5t53.5 -14.5z" />
    <glyph glyph-name="nine.inferior" unicode="&#x2089;" 
d="M247 4q-14 -39 -31.5 -71.5t-41.5 -55.5t-55.5 -35.5t-73.5 -12.5q-54 0 -85 22.5t-31 64.5q0 14 3 26h63q-2 -10 -2 -17q0 -25 16.5 -35t46.5 -10q52 0 84.5 39t56.5 120q-22 -23 -48.5 -35t-65.5 -12q-47 0 -77.5 23.5t-30.5 72.5q0 28 11 59q19 52 62.5 83.5
t106.5 31.5q61 0 91.5 -30.5t30.5 -85.5q0 -30 -8.5 -68t-21.5 -74zM212 116q6 16 6 36q-3 62 -72 62q-37 0 -63 -21t-37 -53q-8 -19 -8 -44q0 -26 17 -41t49 -15q38 0 66.5 19t41.5 57z" />
    <glyph glyph-name="Euro" unicode="&#x20ac;" horiz-adv-x="580" 
d="M209 282q-4 -26 -6 -51.5t-2 -48.5q0 -62 31 -92.5t98 -30.5q48 0 81.5 17.5t59.5 37.5v-79q-29 -20 -68.5 -33.5t-89.5 -13.5q-100 0 -151 51t-51 148q0 23 2 46.5t6 48.5h-88l31 62h70q9 41 21 77h-86l32 62h75q24 66 54 113.5t68 77.5t86 44t108 14q58 0 92.5 -18
t52.5 -38l-36 -70q-16 23 -45.5 39.5t-73.5 16.5q-42 0 -74.5 -11.5t-58 -34.5t-45.5 -56.5t-37 -76.5h279l-31 -62h-270q-12 -36 -21 -77h252l-31 -62h-234z" />
    <glyph glyph-name="afii61289" unicode="&#x2113;" horiz-adv-x="500" 
d="M503 625q0 -46 -22 -92.5t-63.5 -94t-100 -97.5t-131.5 -102l-14 -50q-6 -21 -9.5 -35.5t-6 -23.5t-3 -14.5t-0.5 -9.5q0 -53 55 -53q30 0 60.5 14.5t62.5 42.5l33 -42q-43 -39 -85.5 -59t-90.5 -20q-54 0 -83.5 28t-29.5 73q0 15 2.5 30t7.5 32l5 20l-63 -45l-27 48
l114 81l82 283q29 103 78 149.5t116 46.5q52 0 82.5 -30.5t30.5 -79.5zM211 326q49 38 90 76.5t70 76t45.5 74t16.5 69.5q0 24 -12.5 39t-38.5 15q-31 0 -59 -29t-48 -98z" />
    <glyph glyph-name="uni2116" unicode="&#x2116;" horiz-adv-x="1052" 
d="M204 723h108l147 -616l183 616h84l-213 -723h-114l-144 607l-179 -607h-84zM661 236h305l-18 -61h-305zM846 295q-59 0 -96 33.5t-37 90.5q0 41 16 76.5t43 62t63 41.5t76 15q59 0 94 -32.5t35 -86.5q0 -42 -14.5 -78.5t-40.5 -63.5t-61.5 -42.5t-77.5 -15.5zM850 347
q22 0 43 13t38 34t27.5 48t10.5 56q-2 29 -18.5 47t-46.5 18q-25 0 -46.5 -14.5t-37.5 -37.5t-25 -50.5t-9 -52.5q2 -28 18.5 -44.5t45.5 -16.5z" />
    <glyph glyph-name="trademark" unicode="&#x2122;" horiz-adv-x="872" 
d="M771 366v310l-112 -310h-46l-112 310v-310h-50v357h85l101 -281l102 281h82v-357h-50zM290 678v-312h-56v312h-121v45h299v-45h-122z" />
    <glyph glyph-name="Omega" unicode="&#x2126;" horiz-adv-x="769" 
d="M348 0l21 73q60 29 111 79.5t87 116.5q26 48 41.5 101.5t15.5 112.5q0 38 -10.5 70.5t-31.5 56t-53.5 37t-76.5 13.5q-73 0 -130.5 -36t-96.5 -96q-35 -52 -58 -118.5t-23 -135.5q0 -63 20.5 -117.5t55.5 -83.5l-22 -73h-247l21 73h159q-41 45 -59.5 98t-18.5 113
q0 78 26.5 155.5t71.5 138.5q56 74 132.5 114t178.5 40q63 0 111 -18t81 -50t50 -76t17 -97q0 -66 -20 -132.5t-57 -125.5q-31 -50 -73 -91t-93 -69h150l-21 -73h-259z" />
    <glyph glyph-name="estimated" unicode="&#x212e;" horiz-adv-x="602" 
d="M157 259v-181q59 -59 145 -59q63 0 109 28.5t84 91.5l35 -21q-23 -36 -46.5 -61.5t-51 -42t-59.5 -24t-71 -7.5q-59 0 -106.5 21.5t-81.5 59t-52 87.5t-18 108t18 108.5t52 87.5t81.5 58.5t106.5 21.5q58 0 105.5 -20.5t81.5 -57t53 -87t19 -111.5h-404zM448 295v145
q-63 60 -147 60t-144 -60v-145h291z" />
    <glyph glyph-name="partialdiff" unicode="&#x2202;" horiz-adv-x="556" 
d="M515 478q0 -43 -7 -86t-19 -85q-19 -67 -49 -125t-70.5 -101t-91 -67.5t-108.5 -24.5q-46 0 -78 13.5t-52.5 36.5t-30 52.5t-9.5 61.5q0 55 20.5 106t56.5 90t85.5 62.5t107.5 23.5q51 0 88.5 -22.5t58.5 -60.5q7 31 11.5 61.5t4.5 59.5q0 42 -8 77t-24 60t-40.5 39
t-58.5 14q-32 0 -69.5 -12t-72.5 -32l-25 63q43 23 90.5 38t98.5 15t87 -19.5t59.5 -54t34 -81.5t10.5 -102zM181 58q28 0 57.5 12.5t58 39.5t54.5 69t46 101q-15 37 -46 61.5t-77 24.5q-39 0 -73 -18.5t-59.5 -48t-40 -66t-14.5 -73.5q0 -44 23 -73t71 -29z" />
    <glyph glyph-name="Delta" unicode="&#x2206;" horiz-adv-x="693" 
d="M-95 0l498 723h105l90 -723h-693zM438 646l-384 -576h445z" />
    <glyph glyph-name="product" unicode="&#x220f;" horiz-adv-x="747" 
d="M573 -205v914h-399v-914h-89v988h577v-988h-89z" />
    <glyph glyph-name="summation" unicode="&#x2211;" horiz-adv-x="633" 
d="M41 -205v69l309 426l-296 423v70h531v-74h-424l294 -418l-310 -422h451v-74h-555z" />
    <glyph glyph-name="minus" unicode="&#x2212;" horiz-adv-x="673" 
d="M49 213v71h509v-71h-509z" />
    <glyph glyph-name="uni2215" unicode="&#x2215;" horiz-adv-x="184" 
d="M-114 -24h-67l474 752h66z" />
    <glyph glyph-name="uni2219" unicode="&#x2219;" horiz-adv-x="290" 
d="M172 270h-99l28 101h99z" />
    <glyph glyph-name="radical" unicode="&#x221a;" horiz-adv-x="610" 
d="M349 -205h-93l-148 364l-55 -23l-24 53l131 55l137 -346l223 885h88z" />
    <glyph glyph-name="infinity" unicode="&#x221e;" horiz-adv-x="784" 
d="M574 96q-23 0 -44 6.5t-42.5 20t-45 33.5t-50.5 48q-47 -48 -91.5 -78t-96.5 -30q-33 0 -61.5 11.5t-48.5 32.5t-31.5 49.5t-11.5 62.5q0 31 12 59.5t33 50t50.5 34t64.5 12.5q47 0 87.5 -26.5t93.5 -82.5q46 46 91.5 77.5t98.5 31.5q33 0 61 -12t48.5 -33t31.5 -49.5
t11 -61.5q0 -32 -11.5 -60.5t-32.5 -49.5t-50.5 -33.5t-65.5 -12.5zM572 161q19 0 35.5 7t28.5 19t18.5 28.5t6.5 35.5q0 41 -23.5 65.5t-60.5 24.5t-71 -26t-69 -63q44 -46 74 -68.5t61 -22.5zM209 161q34 0 67 24.5t71 65.5q-24 24 -42 41.5t-33.5 28t-30 15.5t-29.5 5
q-38 0 -62.5 -26t-24.5 -64q0 -40 23.5 -65t60.5 -25z" />
    <glyph glyph-name="integral" unicode="&#x222b;" horiz-adv-x="485" 
d="M288 18q0 -114 -37.5 -166.5t-112.5 -52.5q-15 0 -32 2.5t-25 5.5l9 64q15 -5 32 -5q43 0 59 36t16 120v542q0 115 37.5 167t112.5 52q15 0 32 -2t25 -5l-9 -64q-15 5 -32 5q-43 0 -59 -36t-16 -120v-543z" />
    <glyph glyph-name="approxequal" unicode="&#x2248;" horiz-adv-x="673" 
d="M568 416q-3 -28 -11.5 -54.5t-24 -47.5t-38.5 -34t-54 -13q-32 0 -68.5 10.5t-72.5 24.5q-38 15 -72.5 26t-60.5 11q-33 0 -52 -23t-24 -53h-52q3 27 12 53.5t24 47.5t38 34t55 13t68 -10.5t72 -24.5q37 -14 71.5 -24.5t61.5 -10.5q35 0 53 21.5t24 53.5h51zM568 234
q-3 -27 -11.5 -53.5t-24 -47.5t-38.5 -34t-54 -13q-32 0 -68.5 10.5t-72.5 24.5q-38 14 -72.5 25.5t-60.5 11.5q-33 0 -52 -23t-24 -53h-52q3 27 12 53.5t24 47.5t38 34t55 13t68 -10.5t72 -24.5q37 -14 71.5 -24.5t61.5 -10.5q35 0 53 21.5t24 52.5h51z" />
    <glyph glyph-name="notequal" unicode="&#x2260;" horiz-adv-x="673" 
d="M270 113l-77 -145l-62 32l58 113h-140v73h178l65 124h-243v73h282l78 147l63 -32l-61 -115h147v-73h-184l-66 -124h250v-73h-288z" />
    <glyph glyph-name="lessequal" unicode="&#x2264;" horiz-adv-x="673" 
d="M49 296v76l509 184v-77l-406 -144l406 -147v-78zM49 0v73h509v-73h-509z" />
    <glyph glyph-name="greaterequal" unicode="&#x2265;" horiz-adv-x="673" 
d="M49 110v78l406 147l-406 144v77l509 -184v-76zM49 0v73h509v-73h-509z" />
    <glyph glyph-name="lozenge" unicode="&#x25ca;" horiz-adv-x="563" 
d="M323 -30h-84l-199 392l200 391h84l199 -391zM281 669l-148 -307l149 -308l149 308z" />
    <glyph glyph-name="f_i" unicode="&#xf001;" horiz-adv-x="548" 
d="M395 660q-23 6 -47 6t-40 -6.5t-27 -19.5t-18.5 -32.5t-15.5 -44.5l-18 -59h110l-18 -62h-110l-132 -442h-86l130 442h-103l18 62h103l23 74q13 41 28 70t35 47t47.5 26.5t65.5 8.5q20 0 37.5 -2t37.5 -7zM559 636h-98l26 87h98zM367 0h-88l147 504h88z" />
    <glyph glyph-name="f_l" unicode="&#xf002;" horiz-adv-x="547" 
d="M395 660q-23 6 -47 6t-40 -6.5t-27 -19.5t-18.5 -32.5t-15.5 -44.5l-18 -59h110l-18 -62h-110l-132 -442h-86l130 442h-103l18 62h103l23 74q13 41 28 70t35 47t47.5 26.5t65.5 8.5q20 0 37.5 -2t37.5 -7zM366 0h-88l213 723h87z" />
    <glyph glyph-name="uniF8FF" unicode="&#xf8ff;" horiz-adv-x="512" 
d="M222 117v67h56v-67h-56zM223 234v17q0 27 3 46.5t10 35t18 29t28 29.5q16 16 26 28t15 22t7 19t2 20q0 36 -22.5 57.5t-53.5 21.5t-53.5 -22t-28.5 -73l-50 8q7 72 44 104.5t91 32.5q27 0 49.5 -9t39 -25t26 -39.5t9.5 -51.5q0 -17 -2.5 -32.5t-9.5 -30.5t-19.5 -30
t-31.5 -33q-16 -14 -25.5 -25t-15 -22t-7 -23.5t-1.5 -29.5v-24h-48zM462 50v617h-412v-617h412zM512 718v-718h-512v718h512z" />
    <glyph glyph-name="grave.cap" horiz-adv-x="266" 
d="M216 777l-98 144h102l54 -144h-58z" />
    <glyph glyph-name="acute.cap" horiz-adv-x="265" 
d="M188 777h-65l127 144h116z" />
    <glyph glyph-name="circumflex.cap" horiz-adv-x="265" 
d="M288 775l-56 100l-118 -100h-68l146 146h93l61 -146h-58z" />
    <glyph glyph-name="caron.cap" horiz-adv-x="265" 
d="M149 921l56 -98l118 98h68l-146 -144h-93l-61 144h58z" />
    <glyph glyph-name="caron.alt" horiz-adv-x="240" 
d="M194 498h-65l89 225h98z" />
    <glyph glyph-name="tilde.cap" horiz-adv-x="266" 
d="M382 902q-8 -18 -21 -35.5t-29 -31t-34.5 -22t-38.5 -8.5q-15 0 -29 4t-27.5 8.5t-27 8.5t-28.5 4q-37 0 -58 -31h-46q18 40 52.5 67t76.5 27q15 0 28.5 -4t26 -8.5t25.5 -8.5t28 -4q18 0 31 8.5t24 25.5h47v0z" />
    <glyph glyph-name="dieresis.cap" horiz-adv-x="266" 
d="M68 806l25 89h92l-25 -89h-92zM260 806l25 89h92l-25 -89h-92z" />
    <glyph glyph-name="macron.cap" horiz-adv-x="265" 
d="M67 814l16 57h274l-17 -57h-273z" />
    <glyph glyph-name="breve.cap" horiz-adv-x="266" 
d="M382 904q-24 -62 -71 -92.5t-111 -30.5q-54 0 -89.5 24t-35.5 71q0 13 3 28h45q-1 -2 -1 -7q0 -32 24.5 -47t62.5 -15q36 0 71 15t58 54h44v0z" />
    <glyph glyph-name="ring.cap" horiz-adv-x="266" 
d="M119 849q0 21 8 39t22 31.5t32 21.5t39 8t39.5 -8t32.5 -21.5t22 -31.5t8 -39t-8 -39.5t-22 -32t-32.5 -21.5t-39.5 -8t-39 8t-32 21.5t-22 32t-8 39.5zM160 849q0 -29 17 -47t43 -18q27 0 44 18t17 47q0 28 -17 46t-44 18q-26 0 -43 -18t-17 -46z" />
    <glyph glyph-name="hungarumlaut.cap" horiz-adv-x="266" 
d="M272 778h-65l140 143h106zM96 778h-65l140 143h106z" />
    <glyph glyph-name="dotaccent.cap" horiz-adv-x="266" 
d="M165 806l26 89h92l-26 -89h-92z" />
    <glyph glyph-name="commaaccent" horiz-adv-x="240" 
d="M-56 -200h-62l82 167h88z" />
    <glyph glyph-name="commaaccent.alt" horiz-adv-x="602" 
d="M390 736h63l-75 -145h-88z" />
    <glyph glyph-name="zero.denominator" 
d="M82 -7q-63 0 -90.5 33t-27.5 87q0 33 8 70t20 72q13 37 30 68.5t40 54t53 35.5t69 13q63 0 90.5 -32.5t27.5 -86.5q0 -34 -8 -71t-20 -72q-13 -37 -30 -68.5t-40 -54t-53 -35.5t-69 -13zM88 42q39 0 69 30t53 94q12 32 21.5 69.5t9.5 71.5q0 32 -14.5 51t-48.5 19
q-39 0 -69 -30t-53 -94q-12 -32 -21.5 -69t-9.5 -71q0 -32 14.5 -51.5t48.5 -19.5z" />
    <glyph glyph-name="one.denominator" 
d="M58 0l99 345q-29 -18 -54.5 -28.5t-56.5 -21.5l17 59q20 7 35 14t29 14.5t28 16.5t32 21h56l-121 -420h-64z" />
    <glyph glyph-name="two.denominator" 
d="M308 335q0 -50 -36.5 -96.5t-118.5 -103.5l-119 -83h198l-14 -52h-288l15 53l153 107q41 28 68 51.5t43.5 43.5t23.5 37t7 32q0 52 -59 52q-36 0 -59.5 -20t-34.5 -55h-66q19 63 64.5 94t106.5 31q54 0 85 -24.5t31 -66.5z" />
    <glyph glyph-name="three.denominator" 
d="M306 331q0 -48 -29.5 -77t-78.5 -40q29 -9 44 -30t15 -48q0 -34 -14 -60.5t-38.5 -45t-56.5 -28t-68 -9.5q-29 0 -54.5 7t-44 19.5t-29 31.5t-10.5 43q0 5 0.5 10.5t1.5 12.5h66q0 -3 -0.5 -7t-0.5 -7q0 -29 22 -44.5t54 -15.5q23 0 43 6.5t34.5 18.5t22.5 28.5t8 35.5
q0 27 -20.5 43.5t-58.5 16.5q-8 0 -13 -0.5t-13 -0.5l13 50q8 -1 15 -1h14q21 0 41 4.5t35.5 14.5t25 25.5t9.5 38.5q0 26 -19 40t-50 14q-69 0 -97 -69h-64q19 61 63 89.5t106 28.5q26 0 49 -6.5t40 -18.5t27 -29.5t10 -40.5z" />
    <glyph glyph-name="four.denominator" 
d="M217 140h67l-14 -48h-66l-27 -92h-62l27 92h-199l15 59l263 269h76zM14 140h143l58 205z" />
    <glyph glyph-name="five.denominator" 
d="M269 132q-18 -63 -67 -101t-121 -38q-51 0 -84 22t-33 70q0 6 0.5 12t2.5 13h65q-1 -4 -1.5 -7t-0.5 -6q0 -28 16.5 -41.5t44.5 -13.5q39 0 69.5 26t43.5 70q6 18 6 36q0 25 -12.5 42.5t-45.5 17.5q-29 0 -54 -15t-42 -43h-63l80 244h254l-13 -51h-196l-46 -132
q39 45 104 45q51 0 75.5 -28t24.5 -71q0 -11 -1.5 -25t-5.5 -26z" />
    <glyph glyph-name="six.denominator" 
d="M274 175q0 -36 -13 -69t-36.5 -58t-56.5 -40t-72 -15q-68 0 -96 34t-28 88q0 16 4 45t14 63.5t26.5 70.5t41.5 65.5t59.5 48t80.5 18.5q57 0 87 -23t30 -65q0 -6 -0.5 -11t-1.5 -10h-63q1 5 1 13q0 26 -14.5 36.5t-43.5 10.5t-51 -13.5t-39 -35.5t-29.5 -50.5
t-22.5 -59.5q25 26 53.5 41t66.5 15q50 0 76.5 -27t26.5 -72zM102 43q24 0 44 10.5t34 28t22 40t10 46.5q0 27 -13.5 44.5t-48.5 17.5q-43 0 -69.5 -23t-40.5 -57q-8 -24 -8 -44q0 -63 70 -63z" />
    <glyph glyph-name="seven.denominator" 
d="M49 0h-74l279 367h-224l15 53h290l-15 -53z" />
    <glyph glyph-name="eight.denominator" 
d="M271 140q0 -31 -13.5 -58t-38 -46.5t-60 -31t-79.5 -11.5q-59 0 -94.5 24t-35.5 69q0 49 32 85t86 47q-25 8 -39.5 26.5t-14.5 43.5q0 32 15 57.5t40.5 43.5t57.5 27.5t67 9.5q55 0 89.5 -22.5t34.5 -64.5q0 -46 -30.5 -78t-77.5 -43q61 -20 61 -78zM146 241
q18 0 37.5 5.5t35 16.5t26 27t10.5 38q0 26 -20 38.5t-49 12.5q-22 0 -42 -6t-35 -17.5t-24 -28t-9 -37.5q0 -24 19.5 -36.5t50.5 -12.5zM88 41q22 0 43 6.5t38 18.5t27.5 30t10.5 42q0 27 -20.5 42t-54.5 15q-21 0 -42 -7t-37.5 -19.5t-27 -31t-10.5 -41.5
q0 -26 19.5 -40.5t53.5 -14.5z" />
    <glyph glyph-name="nine.denominator" 
d="M268 168q-14 -39 -31.5 -71.5t-41.5 -55.5t-55.5 -35.5t-73.5 -12.5q-54 0 -85 22.5t-31 64.5q0 14 3 26h63q-2 -10 -2 -17q0 -25 16.5 -35t46.5 -10q52 0 84.5 39t56.5 120q-22 -23 -48.5 -35t-65.5 -12q-47 0 -77.5 23.5t-30.5 72.5q0 28 11 59q19 52 62.5 83.5
t106.5 31.5q61 0 91.5 -30.5t30.5 -85.5q0 -30 -8.5 -68t-21.5 -74zM233 280q6 16 6 36q-3 62 -72 62q-37 0 -63 -21t-37 -53q-8 -19 -8 -44q0 -26 17 -41t49 -15q38 0 66.5 19t41.5 57z" />
    <glyph glyph-name="zero.numerator" 
d="M172 297q-63 0 -90.5 33t-27.5 87q0 33 8 70t20 72q13 37 30 68.5t40 54t53 35.5t69 13q63 0 90.5 -32.5t27.5 -86.5q0 -34 -8 -71t-20 -72q-13 -37 -30 -68.5t-40 -54t-53 -35.5t-69 -13zM178 346q39 0 69 30t53 94q12 32 21.5 69.5t9.5 71.5q0 32 -14.5 51t-48.5 19
q-39 0 -69 -30t-53 -94q-12 -32 -21.5 -69t-9.5 -71q0 -32 14.5 -51.5t48.5 -19.5z" />
    <glyph glyph-name="one.numerator" 
d="M148 304l99 345q-29 -18 -54.5 -28.5t-56.5 -21.5l17 59q20 7 35 14t29 14.5t28 16.5t32 21h56l-121 -420h-64z" />
    <glyph glyph-name="two.numerator" 
d="M388 639q0 -50 -36.5 -96.5t-118.5 -103.5l-119 -83h198l-14 -52h-288l15 53l153 107q41 28 68 51.5t43.5 43.5t23.5 37t7 32q0 52 -59 52q-36 0 -59.5 -20t-34.5 -55h-66q19 63 64.5 94t106.5 31q54 0 85 -24.5t31 -66.5z" />
    <glyph glyph-name="three.numerator" 
d="M396 635q0 -48 -29.5 -77t-78.5 -40q29 -9 44 -30t15 -48q0 -34 -14 -60.5t-38.5 -45t-56.5 -28t-68 -9.5q-29 0 -54.5 7t-44 19.5t-29 31.5t-10.5 43q0 5 0.5 10.5t1.5 12.5h66q0 -3 -0.5 -7t-0.5 -7q0 -29 22 -44.5t54 -15.5q23 0 43 6.5t34.5 18.5t22.5 28.5t8 35.5
q0 27 -20.5 43.5t-58.5 16.5q-8 0 -13 -0.5t-13 -0.5l13 50q8 -1 15 -1h14q21 0 41 4.5t35.5 14.5t25 25.5t9.5 38.5q0 26 -19 40t-50 14q-69 0 -97 -69h-64q19 61 63 89.5t106 28.5q26 0 49 -6.5t40 -18.5t27 -29.5t10 -40.5z" />
    <glyph glyph-name="four.numerator" 
d="M297 444h67l-14 -48h-66l-27 -92h-62l27 92h-199l15 59l263 269h76zM94 444h143l58 205z" />
    <glyph glyph-name="five.numerator" 
d="M349 436q-18 -63 -67 -101t-121 -38q-51 0 -84 22t-33 70q0 6 0.5 12t2.5 13h65q-1 -4 -1.5 -7t-0.5 -6q0 -28 16.5 -41.5t44.5 -13.5q39 0 69.5 26t43.5 70q6 18 6 36q0 25 -12.5 42.5t-45.5 17.5q-29 0 -54 -15t-42 -43h-63l80 244h254l-13 -51h-196l-46 -132
q39 45 104 45q51 0 75.5 -28t24.5 -71q0 -11 -1.5 -25t-5.5 -26z" />
    <glyph glyph-name="six.numerator" 
d="M354 479q0 -36 -13 -69t-36.5 -58t-56.5 -40t-72 -15q-68 0 -96 34t-28 88q0 16 4 45t14 63.5t26.5 70.5t41.5 65.5t59.5 48t80.5 18.5q57 0 87 -23t30 -65q0 -6 -0.5 -11t-1.5 -10h-63q1 5 1 13q0 26 -14.5 36.5t-43.5 10.5t-51 -13.5t-39 -35.5t-29.5 -50.5
t-22.5 -59.5q25 26 53.5 41t66.5 15q50 0 76.5 -27t26.5 -72zM182 347q24 0 44 10.5t34 28t22 40t10 46.5q0 27 -13.5 44.5t-48.5 17.5q-43 0 -69.5 -23t-40.5 -57q-8 -24 -8 -44q0 -63 70 -63z" />
    <glyph glyph-name="seven.numerator" 
d="M139 304h-74l279 367h-224l15 53h290l-15 -53z" />
    <glyph glyph-name="eight.numerator" 
d="M351 444q0 -31 -13.5 -58t-38 -46.5t-60 -31t-79.5 -11.5q-59 0 -94.5 24t-35.5 69q0 49 32 85t86 47q-25 8 -39.5 26.5t-14.5 43.5q0 32 15 57.5t40.5 43.5t57.5 27.5t67 9.5q55 0 89.5 -22.5t34.5 -64.5q0 -46 -30.5 -78t-77.5 -43q61 -20 61 -78zM226 545
q18 0 37.5 5.5t35 16.5t26 27t10.5 38q0 26 -20 38.5t-49 12.5q-22 0 -42 -6t-35 -17.5t-24 -28t-9 -37.5q0 -24 19.5 -36.5t50.5 -12.5zM168 345q22 0 43 6.5t38 18.5t27.5 30t10.5 42q0 27 -20.5 42t-54.5 15q-21 0 -42 -7t-37.5 -19.5t-27 -31t-10.5 -41.5
q0 -26 19.5 -40.5t53.5 -14.5z" />
    <glyph glyph-name="nine.numerator" 
d="M358 472q-14 -39 -31.5 -71.5t-41.5 -55.5t-55.5 -35.5t-73.5 -12.5q-54 0 -85 22.5t-31 64.5q0 14 3 26h63q-2 -10 -2 -17q0 -25 16.5 -35t46.5 -10q52 0 84.5 39t56.5 120q-22 -23 -48.5 -35t-65.5 -12q-47 0 -77.5 23.5t-30.5 72.5q0 28 11 59q19 52 62.5 83.5
t106.5 31.5q61 0 91.5 -30.5t30.5 -85.5q0 -30 -8.5 -68t-21.5 -74zM323 584q6 16 6 36q-3 62 -72 62q-37 0 -63 -21t-37 -53q-8 -19 -8 -44q0 -26 17 -41t49 -15q38 0 66.5 19t41.5 57z" />
    <glyph glyph-name="tonos.cap" horiz-adv-x="348" 
d="M369 736l-138 -155h-61l94 155h105z" />
    <glyph glyph-name="cyrbreve" horiz-adv-x="266" 
d="M360 710q-11 -59 -50.5 -89t-99.5 -30q-54 0 -85.5 21t-31.5 66q0 16 4 32h50q-1 -5 -1 -12q0 -22 13 -35t52 -13q43 0 65.5 15.5t33.5 44.5h50z" />
    <glyph glyph-name="cyrBreve" horiz-adv-x="266" 
d="M367 901q-13 -60 -51.5 -89.5t-98.5 -29.5q-54 0 -85.5 21t-31.5 66q0 16 4 32h50q-1 -5 -1 -12q0 -22 13 -35t52 -13q43 0 65.5 16.5t33.5 43.5h50z" />
    </font>
</defs>
</svg>
