<?xml version="1.0" encoding="utf-8"?>
<!-- Generator: Adobe Illustrator 15.0.2, SVG Export Plug-In  -->
<!DOCTYPE svg PUBLIC "-//W3C//DTD SVG 1.1//EN" "http://www.w3.org/Graphics/SVG/1.1/DTD/svg11.dtd" [
	<!ENTITY ns_flows "http://ns.adobe.com/Flows/1.0/">
]>
<svg version="1.1"
	 xmlns="http://www.w3.org/2000/svg" xmlns:xlink="http://www.w3.org/1999/xlink" xmlns:a="http://ns.adobe.com/AdobeSVGViewerExtensions/3.0/"
	 x="0px" y="0px" width="903px" height="120px" viewBox="9.611 -15.485 903 120" enable-background="new 9.611 -15.485 903 120"
	 xml:space="preserve">
<defs>
</defs>
<path fill-rule="evenodd" clip-rule="evenodd" fill="none" stroke="#E29317" stroke-width="2" d="M1.218,6.7l18.829,3.882
	L37.361,28.7l17.098,2.774L71.99,45.698l17.53-6.095l17.314-0.923l17.314-1.662l17.314,8.68l17.531-4.802l16.665,12.746
	l17.747-28.454l17.097-4.622l17.315-1.849l17.747,6.286l16.881-23.295l17.314,1.849l17.53,3.328l17.314,17.75l17.097,15.429
	l17.314,13.299l17.53-5.727l17.098-10.712l17.531-9.796l17.314,12.198l17.314-12.406l17.098-0.925l17.314-7.395l17.531-10.169
	l17.314,9.799l17.313-4.622l17.314-5.546l17.098,6.655h17.53l16.881,7.951l17.747,14.047l17.098,12.56l17.531-11.081l17.313-2.218
	l17.314-12.015l17.313,5.732l17.53,12.009l16.882,4.617l17.313,0.923l17.531-1.107l17.531,6.465l17.098,7.95l16.881,15.16
	l17.747,13.313l17.098-5.178l17.53-13.312l17.099,5.731l17.313,4.438l17.531-5.115l17.531,3.637l16.88-12.019l17.098-1.664
	l17.748,1.11l17.313-21.81l17.314-31.234l17.313-9.405l17.314,1.848l17.098-0.8l19.695-3.072l16.882-1.109v117.312H1.002L1.218,6.7z
	"/>
<path fill-rule="evenodd" clip-rule="evenodd" fill="none" stroke="#002244" stroke-width="2" d="M2.301,35.136l17.963-12.755
	l16.881,1.479l17.314,20.142l17.747,16.63l16.881-3.512l16.881,9.984l18.18-4.068l16.449,2.22l17.746-9.985l17.098,6.842
	l17.314-17.188l17.963-14.41l17.963,24.75l17.53-9.231l16.016-17.737l17.747-14.236l17.097,2.588l17.747,1.85l16.449,2.009
	l17.747,16.267l17.314,20.507l17.097-6.102l17.531,3.144l17.314,8.689l17.314,3.328l17.098-8.136l17.747,2.959l17.098-19.033
	l17.314,4.248l17.53-2.216l17.098-12.377l17.53-3.698l17.314,2.034l17.097,5.174l17.531-18.855l17.313,14.605l17.315,19.026
	l17.097-11.265l17.748-6.282l17.097,11.083l17.099,6.279l17.746,3.142l17.099,5.546l17.313,10.169l16.881-0.739l17.748,1.294
	l16.665,8.135l17.746-0.739l17.748-9.06l17.097-10.169l17.314,9.984l17.098-10.354l17.531,6.287l16.881-12.572l17.746-16.622
	l17.531,1.107l16.882,10.16l17.747-14.225l16.881-1.271l17.313-11.092l17.315-4.808l17.531-2.773l17.313-0.83l18.828-5.916v127.95
	L2.733,136.954L2.301,35.136z"/>
</svg>
