<?xml version="1.0" encoding="utf-8"?>
<!-- Generator: Adobe Illustrator 15.0.2, SVG Export Plug-In  -->
<!DOCTYPE svg PUBLIC "-//W3C//DTD SVG 1.1//EN" "http://www.w3.org/Graphics/SVG/1.1/DTD/svg11.dtd" [
	<!ENTITY ns_flows "http://ns.adobe.com/Flows/1.0/">
]>
<svg version="1.1"
	 xmlns="http://www.w3.org/2000/svg" xmlns:xlink="http://www.w3.org/1999/xlink" xmlns:a="http://ns.adobe.com/AdobeSVGViewerExtensions/3.0/"
	 x="0px" y="0px" width="2920px" height="280px" viewBox="6.002 -30.547 2920 280" enable-background="new 6.002 -30.547 2920 280"
	 xml:space="preserve">
<defs>
</defs>
<path fill-rule="evenodd" clip-rule="evenodd" fill="none" stroke="#E29317" stroke-width="2" d="M2953.502,270.953l-4-207l-39-20
	l-44-6l-34,18l-25,30l-27,23l-28,20l-27-26l-27-20l-43-2l-25-21l-18-29l-43-29.936l-39,2.079l-45.5,30.838l-39.5,19.058l-40-3.465
	l-40,25.991l-40,58.596l-40,40.887l-41-2.079l-39.5,3.118l-39,22.522l-40.5-13.744l-40.5,9.586l-40-8.315l-39.5-10.741l-40.5,24.948
	l-39.5,9.702l-41-18.019l-39-28.413l-39.5-14.899l-40.5-12.127l-40.5,2.078l-40-1.732l-39-8.663l-40.5-22.527l-40-10.751l-40,22.538
	l-40,4.157l-40.5,20.79l-39.5-23.562l-41-26.352l-39-14.917h-40.5l-39.5-12.479l-40,10.398l-40,8.672l-40-18.378l-40.5,19.071
	l-40,13.876l-39.5,1.734l-40,14.909l-40-22.886l-40.5,18.381l-39.5,20.098l-40.5,10.741l-40-24.947l-39.5-62.411l-40-33.264
	l-40.5-6.237l-40-3.465l-39,43.659l-41-11.781l-40,3.465l-39.5,8.662l-41,53.4l-38.5-23.934l-40.5,9.02l-40-16.304l-40,3.122
	l-40,1.735l-40.5,11.447l-40.5-26.705L85.002,62l-40-33.957l-43.5-7.276L1.002,259.2L2953.502,270.953z"/>
<path fill-rule="evenodd" clip-rule="evenodd" fill="none" stroke="#002244" stroke-width="2" d="M2945.752,79.953l-35-16.25l-41-12
	l-35.5,21l-28.25,28.5l-56,2.25l-51-32.25l-42.25-16l-26,16.167l-19.25-15.75l-42.5-38.664l-43.5,11.088l-40,34.997l-40.5,5.198
	l-40,9.014l-40,20.814l-39,10.751l-41,26.682l-39-19.058l-40.5-2.079l-41,31.185l-39,23.563l-40.5-11.78l-39.5,17.324l-40-18.711
	l-39.5,19.058l-41,16.979l-41,1.386l-38.5-15.246l-41-2.425l-39,3.465l-40-19.058l-39.5-10.395l-41-5.891l-39.5-11.781l-39.5-20.791
	l-41,11.782l-39.5,21.137l-40-35.692l-40-27.402l-40.5,35.374l-39.5-9.706l-40-3.816l-40.5,6.938l-39.5,23.215l-40.5,4.158l-40-7.97
	l-39.5,35.689l-41-5.544l-39.5,15.246l-40-6.237l-40-16.285l-40.5-5.891l-39.5,11.435l-40-38.461l-41-30.514l-38-12.143l-41-3.468
	l-39.5-4.851l-41,26.706l-37,33.278l-40.5,17.313l-41.5-46.428l-41.5,27.038l-40,32.225l-39.5-12.821l-41,18.711l-38-4.157
	l-42,7.622l-39-18.71l-39,6.583l-41-31.186l-40-37.792l-39-2.774l-41.5,23.932l1,178.104l2944-22.428L2945.752,79.953z"/>
</svg>
