<svg version="1.1" xmlns="http://www.w3.org/2000/svg" xmlns:xlink="http://www.w3.org/1999/xlink" viewBox="0 0 211.433 40.424">
<g>
	<path d="M13.169,7.352c0,1.01-0.12,1.942-0.358,2.795c-0.239,0.854-0.611,1.601-1.116,2.243c-0.505,0.642-1.14,1.164-1.905,1.566
		c-0.765,0.403-1.679,0.659-2.744,0.768c-0.41,0.041-0.827,0.065-1.249,0.072c-0.423,0.007-0.84,0.01-1.249,0.01H0.983V0h4.342
		C5.98,0,6.677,0.041,7.414,0.123C8.151,0.205,8.82,0.369,9.421,0.614c0.71,0.287,1.304,0.659,1.782,1.116
		c0.478,0.458,0.863,0.977,1.157,1.557c0.293,0.581,0.502,1.215,0.625,1.905C13.107,5.881,13.169,6.602,13.169,7.352z M11.162,7.352
		c0-0.464-0.034-0.932-0.103-1.403c-0.068-0.471-0.184-0.925-0.348-1.362c-0.164-0.437-0.379-0.846-0.645-1.228
		S9.462,2.642,9.052,2.355c-0.56-0.396-1.178-0.642-1.853-0.737C6.523,1.523,5.857,1.475,5.202,1.475H2.908v11.837h2.663
		c1.01,0,1.87-0.129,2.58-0.389c0.71-0.259,1.287-0.638,1.731-1.137c0.443-0.498,0.768-1.119,0.973-1.863
		C11.059,9.179,11.162,8.322,11.162,7.352z"/>
	<path d="M16.425,9.974v0.205c0,0.478,0.065,0.935,0.195,1.372c0.129,0.437,0.324,0.826,0.584,1.167
		c0.259,0.341,0.584,0.611,0.973,0.809c0.389,0.198,0.843,0.297,1.362,0.297c0.737,0,1.338-0.208,1.802-0.625
		c0.464-0.416,0.75-0.993,0.86-1.73h1.721c-0.205,1.215-0.717,2.113-1.536,2.693c-0.819,0.581-1.816,0.87-2.99,0.87
		c-0.806,0-1.505-0.126-2.099-0.379c-0.594-0.252-1.089-0.611-1.485-1.075c-0.396-0.464-0.693-1.017-0.891-1.659
		c-0.198-0.642-0.297-1.345-0.297-2.109c0-0.778,0.099-1.502,0.297-2.171c0.198-0.669,0.498-1.253,0.901-1.751
		c0.403-0.498,0.912-0.891,1.526-1.178c0.614-0.287,1.345-0.43,2.191-0.43c0.86,0,1.577,0.157,2.15,0.471
		c0.573,0.314,1.031,0.73,1.372,1.249c0.341,0.519,0.58,1.123,0.717,1.813c0.136,0.69,0.205,1.41,0.205,2.161H16.425z M22.2,8.786
		c0-0.423-0.051-0.833-0.153-1.229c-0.102-0.396-0.266-0.744-0.492-1.044c-0.225-0.3-0.512-0.543-0.86-0.727
		c-0.348-0.184-0.755-0.276-1.219-0.276c-0.478,0-0.895,0.089-1.25,0.266c-0.355,0.178-0.655,0.42-0.901,0.727
		c-0.246,0.307-0.44,0.659-0.584,1.055c-0.143,0.397-0.236,0.806-0.277,1.229H22.2z"/>
	<path d="M33.137,14.807l-0.082-1.638c-0.437,0.601-0.915,1.044-1.434,1.331c-0.519,0.287-1.154,0.43-1.905,0.43
		c-0.683,0-1.259-0.089-1.73-0.267c-0.471-0.177-0.854-0.44-1.147-0.788c-0.293-0.348-0.505-0.771-0.635-1.27
		c-0.13-0.498-0.194-1.068-0.194-1.71V4.465h1.802v5.734c0,0.451,0.021,0.88,0.062,1.29c0.041,0.41,0.144,0.768,0.307,1.075
		c0.164,0.307,0.406,0.55,0.727,0.727c0.321,0.178,0.754,0.266,1.301,0.266c0.546,0,1-0.099,1.362-0.297
		c0.362-0.198,0.652-0.467,0.871-0.809c0.218-0.341,0.375-0.727,0.471-1.157c0.096-0.43,0.144-0.884,0.144-1.362V4.465h1.802v5.017
		c0,0.888,0,1.771,0,2.652c0,0.881,0.013,1.772,0.041,2.673H33.137z"/>
	<path d="M40.857,14.91c-0.833,0-1.461-0.185-1.884-0.553c-0.423-0.369-0.635-0.983-0.635-1.843V5.714H36.31V4.465h2.028V2.457
		L40.14,1.7v2.765h2.314v1.249H40.14v6.082c0,0.314,0.014,0.581,0.041,0.799c0.027,0.219,0.092,0.396,0.195,0.533
		c0.103,0.137,0.246,0.235,0.43,0.297c0.184,0.062,0.433,0.092,0.748,0.092c0.163,0,0.32-0.01,0.471-0.031
		c0.15-0.021,0.314-0.044,0.492-0.072v1.372C41.942,14.869,41.39,14.91,40.857,14.91z"/>
	<path d="M51.732,11.817c0,0.587-0.123,1.085-0.369,1.495c-0.246,0.41-0.57,0.741-0.973,0.993c-0.403,0.253-0.853,0.438-1.352,0.553
		c-0.498,0.116-1,0.174-1.505,0.174c-0.546,0-1.065-0.058-1.557-0.174c-0.491-0.116-0.921-0.307-1.29-0.574
		c-0.369-0.266-0.659-0.611-0.871-1.034c-0.211-0.423-0.317-0.949-0.317-1.577h1.802c0.041,0.724,0.259,1.256,0.655,1.597
		c0.396,0.342,0.949,0.512,1.659,0.512c0.273,0,0.546-0.034,0.819-0.102c0.273-0.068,0.522-0.174,0.748-0.317
		c0.225-0.144,0.409-0.324,0.553-0.543c0.144-0.218,0.215-0.485,0.215-0.799c0-0.273-0.058-0.505-0.174-0.696
		c-0.116-0.191-0.276-0.358-0.481-0.502c-0.205-0.144-0.444-0.263-0.717-0.358c-0.273-0.095-0.56-0.177-0.86-0.246l-0.84-0.205
		c-0.382-0.095-0.761-0.212-1.137-0.348c-0.375-0.136-0.71-0.31-1.004-0.522c-0.294-0.211-0.529-0.478-0.706-0.799
		c-0.178-0.321-0.266-0.713-0.266-1.178c0-0.532,0.119-0.986,0.358-1.362c0.238-0.376,0.546-0.683,0.921-0.921
		c0.375-0.239,0.799-0.41,1.27-0.512c0.471-0.103,0.932-0.154,1.383-0.154c0.519,0,1.003,0.059,1.454,0.174
		c0.45,0.116,0.846,0.297,1.188,0.543c0.341,0.246,0.611,0.567,0.809,0.963c0.198,0.396,0.311,0.88,0.338,1.454h-1.782
		c-0.027-0.615-0.222-1.085-0.583-1.413c-0.362-0.328-0.85-0.492-1.464-0.492c-0.232,0-0.475,0.027-0.727,0.082
		c-0.253,0.055-0.481,0.143-0.686,0.266c-0.205,0.123-0.376,0.284-0.512,0.482c-0.137,0.198-0.205,0.433-0.205,0.707
		c0,0.478,0.215,0.847,0.645,1.106c0.43,0.259,0.952,0.464,1.567,0.614l0.819,0.205c0.451,0.11,0.871,0.239,1.26,0.389
		c0.389,0.15,0.724,0.338,1.003,0.563c0.28,0.225,0.502,0.495,0.666,0.809C51.65,10.984,51.732,11.367,51.732,11.817z"/>
	<path d="M62.064,12.964c-0.239,0.464-0.553,0.85-0.942,1.157c-0.389,0.307-0.84,0.536-1.352,0.686
		c-0.512,0.15-1.062,0.225-1.649,0.225c-0.819,0-1.539-0.13-2.161-0.389c-0.621-0.259-1.144-0.621-1.566-1.085
		c-0.423-0.464-0.745-1.02-0.962-1.669c-0.219-0.648-0.328-1.362-0.328-2.14c0-0.792,0.109-1.529,0.328-2.212
		c0.218-0.683,0.543-1.273,0.973-1.772c0.43-0.498,0.962-0.887,1.597-1.167c0.635-0.279,1.375-0.42,2.222-0.42
		c1.174,0,2.144,0.297,2.908,0.891c0.765,0.594,1.201,1.505,1.311,2.734h-1.761c-0.055-0.737-0.293-1.313-0.717-1.73
		c-0.423-0.416-1.003-0.624-1.741-0.624c-0.614,0-1.126,0.123-1.536,0.369c-0.409,0.246-0.737,0.567-0.983,0.962
		c-0.246,0.397-0.423,0.847-0.532,1.352c-0.109,0.505-0.164,1.017-0.164,1.536c0,0.492,0.055,0.983,0.164,1.475
		c0.109,0.492,0.29,0.936,0.542,1.331c0.252,0.396,0.577,0.717,0.973,0.963c0.396,0.246,0.881,0.369,1.454,0.369
		c0.765,0,1.373-0.226,1.823-0.676c0.451-0.451,0.703-1.051,0.758-1.802h1.7l0.061,0.021C62.442,11.96,62.302,12.5,62.064,12.964z"
		/>
	<path d="M71.372,14.807V9.073c0-0.451-0.021-0.881-0.062-1.29c-0.041-0.41-0.144-0.768-0.307-1.075
		C70.839,6.4,70.597,6.154,70.276,5.97c-0.321-0.185-0.755-0.277-1.301-0.277c-0.519,0-0.959,0.102-1.321,0.307
		c-0.362,0.205-0.655,0.475-0.88,0.809c-0.226,0.335-0.389,0.724-0.492,1.168c-0.103,0.444-0.154,0.898-0.154,1.362v5.468h-1.802V0
		h1.802v6.082c0.41-0.587,0.884-1.027,1.423-1.321c0.54-0.293,1.178-0.44,1.915-0.44c0.683,0,1.26,0.092,1.73,0.276
		c0.471,0.184,0.853,0.451,1.147,0.799c0.293,0.348,0.505,0.772,0.635,1.27c0.13,0.498,0.195,1.068,0.195,1.71v6.431H71.372z"/>
	<path d="M77.003,9.974v0.205c0,0.478,0.065,0.935,0.195,1.372c0.129,0.437,0.324,0.826,0.584,1.167s0.584,0.611,0.973,0.809
		c0.389,0.198,0.843,0.297,1.362,0.297c0.737,0,1.338-0.208,1.802-0.625c0.464-0.416,0.75-0.993,0.86-1.73h1.721
		c-0.205,1.215-0.717,2.113-1.536,2.693c-0.819,0.581-1.816,0.87-2.99,0.87c-0.806,0-1.505-0.126-2.099-0.379
		c-0.594-0.252-1.089-0.611-1.485-1.075c-0.396-0.464-0.693-1.017-0.891-1.659c-0.198-0.642-0.297-1.345-0.297-2.109
		c0-0.778,0.099-1.502,0.297-2.171c0.198-0.669,0.498-1.253,0.901-1.751c0.403-0.498,0.912-0.891,1.526-1.178
		c0.614-0.287,1.345-0.43,2.191-0.43c0.86,0,1.577,0.157,2.15,0.471c0.573,0.314,1.031,0.73,1.372,1.249
		c0.341,0.519,0.58,1.123,0.717,1.813c0.136,0.69,0.205,1.41,0.205,2.161H77.003z M82.779,8.786c0-0.423-0.051-0.833-0.153-1.229
		c-0.103-0.396-0.266-0.744-0.492-1.044c-0.225-0.3-0.512-0.543-0.86-0.727c-0.348-0.184-0.755-0.276-1.219-0.276
		c-0.478,0-0.895,0.089-1.25,0.266c-0.355,0.178-0.655,0.42-0.901,0.727c-0.246,0.307-0.44,0.659-0.583,1.055
		c-0.144,0.397-0.236,0.806-0.277,1.229H82.779z"/>
	<path d="M102.665,14.807l-1.536-3.912h-7.168l-1.516,3.912H90.5L96.521,0h2.109l6.247,14.807H102.665z M97.463,1.659l-2.969,7.782
		h6.042L97.463,1.659z"/>
	<path d="M113.662,11.817c0,0.587-0.123,1.085-0.369,1.495c-0.246,0.41-0.57,0.741-0.973,0.993
		c-0.403,0.253-0.854,0.438-1.352,0.553c-0.499,0.116-1.001,0.174-1.505,0.174c-0.546,0-1.065-0.058-1.557-0.174
		c-0.491-0.116-0.921-0.307-1.29-0.574c-0.369-0.266-0.659-0.611-0.871-1.034c-0.211-0.423-0.317-0.949-0.317-1.577h1.802
		c0.041,0.724,0.259,1.256,0.655,1.597c0.396,0.342,0.949,0.512,1.659,0.512c0.273,0,0.546-0.034,0.819-0.102
		c0.273-0.068,0.522-0.174,0.748-0.317c0.225-0.144,0.409-0.324,0.553-0.543c0.144-0.218,0.215-0.485,0.215-0.799
		c0-0.273-0.058-0.505-0.174-0.696c-0.116-0.191-0.276-0.358-0.481-0.502c-0.205-0.144-0.444-0.263-0.717-0.358
		c-0.273-0.095-0.56-0.177-0.86-0.246l-0.84-0.205c-0.382-0.095-0.761-0.212-1.137-0.348c-0.375-0.136-0.71-0.31-1.003-0.522
		c-0.294-0.211-0.529-0.478-0.706-0.799c-0.178-0.321-0.266-0.713-0.266-1.178c0-0.532,0.119-0.986,0.358-1.362
		c0.238-0.376,0.546-0.683,0.921-0.921c0.376-0.239,0.799-0.41,1.27-0.512c0.471-0.103,0.932-0.154,1.383-0.154
		c0.519,0,1.003,0.059,1.454,0.174c0.45,0.116,0.846,0.297,1.188,0.543c0.341,0.246,0.611,0.567,0.809,0.963
		c0.198,0.396,0.311,0.88,0.338,1.454h-1.782c-0.027-0.615-0.222-1.085-0.583-1.413c-0.362-0.328-0.85-0.492-1.464-0.492
		c-0.232,0-0.475,0.027-0.727,0.082c-0.253,0.055-0.481,0.143-0.686,0.266c-0.205,0.123-0.376,0.284-0.512,0.482
		c-0.137,0.198-0.205,0.433-0.205,0.707c0,0.478,0.215,0.847,0.645,1.106c0.43,0.259,0.952,0.464,1.567,0.614l0.819,0.205
		c0.451,0.11,0.871,0.239,1.26,0.389c0.389,0.15,0.724,0.338,1.003,0.563c0.28,0.225,0.502,0.495,0.666,0.809
		C113.58,10.984,113.662,11.367,113.662,11.817z"/>
	<path d="M123.308,11.817c0,0.587-0.123,1.085-0.368,1.495c-0.246,0.41-0.57,0.741-0.973,0.993
		c-0.403,0.253-0.854,0.438-1.352,0.553c-0.498,0.116-1,0.174-1.505,0.174c-0.546,0-1.065-0.058-1.557-0.174
		c-0.491-0.116-0.921-0.307-1.29-0.574c-0.369-0.266-0.659-0.611-0.871-1.034c-0.211-0.423-0.317-0.949-0.317-1.577h1.802
		c0.041,0.724,0.259,1.256,0.655,1.597c0.396,0.342,0.949,0.512,1.659,0.512c0.273,0,0.546-0.034,0.819-0.102
		c0.273-0.068,0.522-0.174,0.748-0.317c0.225-0.144,0.41-0.324,0.552-0.543c0.144-0.218,0.216-0.485,0.216-0.799
		c0-0.273-0.059-0.505-0.175-0.696c-0.116-0.191-0.276-0.358-0.481-0.502c-0.205-0.144-0.444-0.263-0.717-0.358
		c-0.273-0.095-0.56-0.177-0.86-0.246l-0.84-0.205c-0.382-0.095-0.761-0.212-1.137-0.348c-0.375-0.136-0.71-0.31-1.003-0.522
		c-0.294-0.211-0.529-0.478-0.707-0.799c-0.178-0.321-0.266-0.713-0.266-1.178c0-0.532,0.119-0.986,0.358-1.362
		c0.238-0.376,0.546-0.683,0.921-0.921c0.375-0.239,0.799-0.41,1.27-0.512c0.471-0.103,0.932-0.154,1.383-0.154
		c0.519,0,1.003,0.059,1.454,0.174c0.45,0.116,0.847,0.297,1.188,0.543c0.341,0.246,0.611,0.567,0.81,0.963
		c0.197,0.396,0.309,0.88,0.338,1.454h-1.782c-0.027-0.615-0.223-1.085-0.584-1.413c-0.362-0.328-0.85-0.492-1.464-0.492
		c-0.232,0-0.475,0.027-0.727,0.082c-0.253,0.055-0.481,0.143-0.686,0.266c-0.205,0.123-0.376,0.284-0.512,0.482
		c-0.137,0.198-0.205,0.433-0.205,0.707c0,0.478,0.215,0.847,0.645,1.106c0.43,0.259,0.952,0.464,1.567,0.614l0.819,0.205
		c0.451,0.11,0.871,0.239,1.259,0.389c0.39,0.15,0.724,0.338,1.004,0.563c0.279,0.225,0.502,0.495,0.666,0.809
		C123.226,10.984,123.308,11.367,123.308,11.817z"/>
	<path d="M126.482,9.974v0.205c0,0.478,0.064,0.935,0.194,1.372c0.13,0.437,0.324,0.826,0.584,1.167
		c0.26,0.341,0.584,0.611,0.973,0.809c0.39,0.198,0.843,0.297,1.362,0.297c0.737,0,1.338-0.208,1.802-0.625
		c0.465-0.416,0.751-0.993,0.86-1.73h1.721c-0.205,1.215-0.717,2.113-1.536,2.693c-0.819,0.581-1.816,0.87-2.99,0.87
		c-0.806,0-1.505-0.126-2.099-0.379c-0.595-0.252-1.09-0.611-1.485-1.075c-0.396-0.464-0.693-1.017-0.891-1.659
		c-0.198-0.642-0.297-1.345-0.297-2.109c0-0.778,0.099-1.502,0.297-2.171c0.197-0.669,0.498-1.253,0.901-1.751
		c0.402-0.498,0.911-0.891,1.525-1.178c0.614-0.287,1.345-0.43,2.191-0.43c0.86,0,1.577,0.157,2.15,0.471
		c0.573,0.314,1.03,0.73,1.372,1.249c0.341,0.519,0.58,1.123,0.717,1.813c0.137,0.69,0.205,1.41,0.205,2.161H126.482z
		 M132.257,8.786c0-0.423-0.051-0.833-0.153-1.229c-0.103-0.396-0.267-0.744-0.491-1.044c-0.226-0.3-0.513-0.543-0.86-0.727
		c-0.349-0.184-0.755-0.276-1.219-0.276c-0.479,0-0.895,0.089-1.249,0.266c-0.355,0.178-0.655,0.42-0.901,0.727
		c-0.246,0.307-0.44,0.659-0.584,1.055c-0.144,0.397-0.235,0.806-0.276,1.229H132.257z"/>
	<path d="M139.302,14.91c-0.833,0-1.461-0.185-1.884-0.553c-0.424-0.369-0.635-0.983-0.635-1.843V5.714h-2.027V4.465h2.027V2.457
		l1.802-0.758v2.765h2.314v1.249h-2.314v6.082c0,0.314,0.014,0.581,0.041,0.799c0.027,0.219,0.093,0.396,0.194,0.533
		c0.102,0.137,0.246,0.235,0.431,0.297c0.185,0.062,0.434,0.092,0.747,0.092c0.164,0,0.321-0.01,0.472-0.031
		c0.149-0.021,0.313-0.044,0.491-0.072v1.372C140.388,14.869,139.835,14.91,139.302,14.91z"/>
	<path d="M10.936,33.276c0.41,0.396,0.891,0.871,1.444,1.423c0.553,0.553,1.116,1.089,1.689,1.608h-2.581
		c-0.178-0.177-0.427-0.43-0.747-0.758c-0.321-0.328-0.618-0.628-0.891-0.901c-0.533,0.546-1.191,1.004-1.977,1.372
		c-0.785,0.369-1.662,0.553-2.631,0.553c-0.683,0-1.338-0.075-1.966-0.225c-0.628-0.15-1.185-0.396-1.669-0.737
		C1.123,35.27,0.734,34.822,0.44,34.27C0.146,33.716,0,33.038,0,32.231c0-0.464,0.058-0.877,0.174-1.239
		c0.116-0.362,0.269-0.686,0.46-0.973c0.191-0.287,0.413-0.542,0.666-0.767c0.253-0.226,0.522-0.434,0.809-0.625
		c0.123-0.082,0.317-0.201,0.584-0.358c0.266-0.157,0.508-0.297,0.727-0.42c-0.232-0.273-0.461-0.553-0.686-0.84
		c-0.225-0.287-0.423-0.58-0.594-0.881c-0.171-0.3-0.307-0.611-0.41-0.932c-0.102-0.321-0.153-0.645-0.153-0.973
		c0-0.546,0.105-1.01,0.317-1.393c0.211-0.382,0.488-0.696,0.83-0.942c0.341-0.246,0.73-0.423,1.167-0.532
		c0.437-0.109,0.881-0.164,1.331-0.164c0.464,0,0.918,0.044,1.362,0.133c0.443,0.089,0.836,0.246,1.178,0.471
		c0.341,0.226,0.617,0.526,0.829,0.901c0.211,0.375,0.317,0.85,0.317,1.423c0,0.478-0.082,0.911-0.246,1.3
		c-0.164,0.389-0.382,0.745-0.655,1.065c-0.274,0.321-0.594,0.611-0.962,0.871c-0.369,0.259-0.758,0.505-1.168,0.737
		c0.246,0.274,0.529,0.581,0.85,0.921c0.321,0.342,0.659,0.693,1.014,1.055c0.355,0.362,0.707,0.721,1.055,1.075
		c0.348,0.355,0.665,0.676,0.952,0.963c0.164-0.314,0.3-0.662,0.41-1.044c0.109-0.382,0.198-0.768,0.266-1.157
		c0.068-0.389,0.116-0.765,0.143-1.126c0.027-0.362,0.041-0.679,0.041-0.952h1.863c0,0.328-0.034,0.727-0.102,1.198
		c-0.069,0.471-0.168,0.956-0.297,1.454c-0.13,0.499-0.29,0.993-0.481,1.485C11.4,32.457,11.182,32.894,10.936,33.276z
		 M8.745,33.522c-0.301-0.314-0.639-0.666-1.014-1.055c-0.376-0.389-0.758-0.789-1.147-1.198c-0.389-0.41-0.775-0.816-1.157-1.219
		c-0.382-0.402-0.737-0.781-1.065-1.136c-0.806,0.478-1.41,0.952-1.813,1.423c-0.403,0.471-0.604,1.055-0.604,1.751
		c0,0.56,0.095,1.031,0.287,1.413C2.423,33.884,2.679,34.194,3,34.433c0.32,0.239,0.683,0.413,1.085,0.522
		c0.402,0.109,0.815,0.164,1.239,0.164c0.396,0,0.768-0.044,1.116-0.133c0.348-0.089,0.666-0.208,0.953-0.358
		c0.287-0.15,0.543-0.321,0.768-0.512C8.387,33.925,8.581,33.727,8.745,33.522z M4.956,27.091c0.273-0.164,0.543-0.334,0.809-0.512
		c0.266-0.177,0.502-0.379,0.706-0.604c0.205-0.226,0.369-0.481,0.492-0.768c0.123-0.287,0.184-0.607,0.184-0.962
		c0-0.615-0.181-1.051-0.543-1.311c-0.362-0.259-0.802-0.389-1.321-0.389c-0.478,0-0.901,0.14-1.27,0.42
		c-0.369,0.28-0.553,0.693-0.553,1.239c0,0.56,0.14,1.062,0.419,1.505C4.161,26.152,4.519,26.613,4.956,27.091z"/>
	<path d="M36.434,36.307h-2.437l-4.076-12.964l-3.973,12.964h-2.498L19.497,21.5h2.028l3.256,13.107L28.794,21.5h2.335l4.116,13.087
		L38.481,21.5h1.884L36.434,36.307z"/>
	<path d="M42.393,31.474v0.205c0,0.478,0.065,0.935,0.195,1.372c0.129,0.437,0.324,0.826,0.583,1.167
		c0.259,0.341,0.584,0.611,0.973,0.809c0.389,0.198,0.843,0.297,1.362,0.297c0.737,0,1.338-0.208,1.802-0.625
		c0.464-0.416,0.75-0.993,0.86-1.73h1.721c-0.205,1.215-0.717,2.113-1.536,2.693c-0.819,0.581-1.816,0.87-2.99,0.87
		c-0.806,0-1.505-0.126-2.099-0.379c-0.594-0.252-1.089-0.611-1.485-1.075c-0.396-0.464-0.693-1.017-0.891-1.659
		c-0.198-0.642-0.297-1.345-0.297-2.109c0-0.778,0.099-1.502,0.297-2.171c0.198-0.669,0.498-1.253,0.901-1.751
		c0.403-0.499,0.912-0.891,1.526-1.178c0.614-0.287,1.345-0.43,2.191-0.43c0.86,0,1.577,0.157,2.15,0.471
		c0.573,0.314,1.031,0.73,1.372,1.249c0.341,0.519,0.58,1.124,0.717,1.813c0.136,0.69,0.204,1.41,0.204,2.161H42.393z
		 M48.169,30.286c0-0.423-0.051-0.833-0.153-1.229c-0.103-0.396-0.266-0.744-0.492-1.044c-0.225-0.3-0.512-0.542-0.86-0.727
		c-0.348-0.184-0.755-0.276-1.219-0.276c-0.478,0-0.895,0.089-1.249,0.266c-0.355,0.178-0.655,0.42-0.901,0.727
		c-0.246,0.307-0.44,0.659-0.583,1.055c-0.144,0.396-0.236,0.806-0.277,1.229H48.169z"/>
	<path d="M58.593,36.307c-0.041-0.218-0.079-0.461-0.113-0.727c-0.034-0.266-0.058-0.508-0.071-0.727
		c-0.438,0.628-0.942,1.065-1.516,1.311c-0.574,0.246-1.236,0.369-1.987,0.369c-0.478,0-0.935-0.061-1.372-0.184
		c-0.437-0.123-0.823-0.311-1.157-0.564c-0.334-0.252-0.601-0.57-0.798-0.952c-0.198-0.382-0.297-0.84-0.297-1.372
		c0-0.778,0.191-1.396,0.574-1.854c0.382-0.457,0.863-0.805,1.444-1.044c0.58-0.239,1.218-0.392,1.915-0.461
		C55.911,30.034,56.573,30,57.201,30c0.191,0,0.372,0.003,0.543,0.01c0.171,0.007,0.331,0.017,0.481,0.03v-0.614
		c0-0.792-0.167-1.406-0.501-1.843c-0.335-0.437-0.925-0.655-1.772-0.655c-0.642,0-1.144,0.133-1.505,0.399
		c-0.362,0.266-0.577,0.741-0.646,1.423h-1.761c0.027-0.56,0.154-1.031,0.379-1.413c0.226-0.382,0.515-0.689,0.871-0.921
		c0.355-0.232,0.758-0.399,1.208-0.502c0.451-0.103,0.922-0.154,1.414-0.154c1.324,0,2.311,0.28,2.959,0.84
		c0.648,0.56,0.973,1.516,0.973,2.867v3.809c0,0.683,0.037,1.301,0.112,1.853c0.075,0.553,0.146,0.946,0.215,1.178H58.593z
		 M58.225,31.125c-0.218-0.027-0.389-0.041-0.512-0.041c-0.123,0-0.26,0-0.41,0c-0.396,0-0.84,0.02-1.332,0.061
		c-0.491,0.041-0.952,0.14-1.382,0.297c-0.43,0.157-0.789,0.386-1.075,0.686c-0.287,0.3-0.43,0.717-0.43,1.249
		c0,0.315,0.062,0.594,0.185,0.84c0.123,0.246,0.29,0.451,0.502,0.614c0.211,0.164,0.454,0.287,0.726,0.369
		c0.274,0.082,0.56,0.123,0.86,0.123c0.655,0,1.17-0.12,1.546-0.358c0.375-0.239,0.662-0.556,0.86-0.953
		c0.198-0.396,0.324-0.846,0.379-1.352C58.197,32.157,58.225,31.645,58.225,31.125z"/>
	<path d="M62.771,36.307V21.5h1.802v14.807H62.771z"/>
	<path d="M70.614,36.41c-0.832,0-1.461-0.185-1.884-0.553c-0.423-0.369-0.635-0.983-0.635-1.843v-6.799h-2.028v-1.249h2.028v-2.007
		l1.802-0.758v2.765h2.314v1.249h-2.314v6.082c0,0.314,0.014,0.581,0.041,0.799c0.027,0.219,0.092,0.396,0.195,0.533
		c0.103,0.137,0.246,0.235,0.43,0.297c0.184,0.062,0.433,0.092,0.748,0.092c0.164,0,0.32-0.01,0.471-0.031
		c0.15-0.021,0.314-0.044,0.492-0.072v1.372C71.7,36.369,71.147,36.41,70.614,36.41z"/>
	<path d="M81.038,36.307v-5.734c0-0.451-0.021-0.881-0.062-1.29c-0.041-0.41-0.144-0.768-0.307-1.075
		c-0.164-0.308-0.407-0.553-0.727-0.737c-0.321-0.184-0.755-0.277-1.301-0.277c-0.519,0-0.959,0.103-1.321,0.307
		c-0.362,0.205-0.655,0.475-0.88,0.809c-0.226,0.335-0.389,0.724-0.492,1.167c-0.103,0.444-0.154,0.898-0.154,1.362v5.468h-1.802
		V21.5h1.802v6.083c0.41-0.587,0.884-1.027,1.423-1.321c0.54-0.293,1.178-0.44,1.915-0.44c0.683,0,1.26,0.092,1.73,0.276
		c0.471,0.184,0.853,0.451,1.147,0.799c0.293,0.348,0.505,0.771,0.635,1.27c0.13,0.499,0.195,1.068,0.195,1.71v6.431H81.038z"/>
	<path d="M105.348,36.307V22.975l-5.223,13.332h-1.761l-5.243-13.353v13.353H91.38V21.5h3.072l4.874,12.513l4.752-12.513h3.072
		v14.807H105.348z"/>
	<path d="M116.878,36.307c-0.041-0.218-0.079-0.461-0.113-0.727c-0.034-0.266-0.058-0.508-0.071-0.727
		c-0.438,0.628-0.942,1.065-1.516,1.311c-0.574,0.246-1.236,0.369-1.987,0.369c-0.478,0-0.935-0.061-1.372-0.184
		c-0.437-0.123-0.823-0.311-1.157-0.564c-0.335-0.252-0.601-0.57-0.798-0.952c-0.198-0.382-0.297-0.84-0.297-1.372
		c0-0.778,0.191-1.396,0.574-1.854c0.382-0.457,0.863-0.805,1.444-1.044c0.58-0.239,1.218-0.392,1.915-0.461
		c0.697-0.068,1.359-0.102,1.987-0.102c0.191,0,0.372,0.003,0.542,0.01c0.171,0.007,0.331,0.017,0.481,0.03v-0.614
		c0-0.792-0.167-1.406-0.501-1.843c-0.335-0.437-0.925-0.655-1.772-0.655c-0.642,0-1.144,0.133-1.505,0.399
		c-0.362,0.266-0.577,0.741-0.646,1.423h-1.761c0.027-0.56,0.154-1.031,0.379-1.413c0.226-0.382,0.515-0.689,0.871-0.921
		c0.355-0.232,0.758-0.399,1.208-0.502c0.451-0.103,0.922-0.154,1.414-0.154c1.324,0,2.311,0.28,2.959,0.84
		c0.648,0.56,0.973,1.516,0.973,2.867v3.809c0,0.683,0.037,1.301,0.112,1.853c0.075,0.553,0.146,0.946,0.215,1.178H116.878z
		 M116.509,31.125c-0.218-0.027-0.389-0.041-0.512-0.041c-0.123,0-0.26,0-0.41,0c-0.396,0-0.84,0.02-1.332,0.061
		c-0.491,0.041-0.952,0.14-1.382,0.297c-0.43,0.157-0.789,0.386-1.075,0.686c-0.287,0.3-0.43,0.717-0.43,1.249
		c0,0.315,0.062,0.594,0.185,0.84c0.123,0.246,0.29,0.451,0.502,0.614c0.211,0.164,0.454,0.287,0.727,0.369
		c0.273,0.082,0.56,0.123,0.86,0.123c0.655,0,1.17-0.12,1.546-0.358c0.375-0.239,0.662-0.556,0.86-0.953
		c0.198-0.396,0.324-0.846,0.379-1.352C116.482,32.157,116.509,31.645,116.509,31.125z"/>
	<path d="M128.101,36.307v-5.734c0-0.451-0.021-0.877-0.062-1.28c-0.041-0.403-0.143-0.758-0.308-1.065
		c-0.163-0.307-0.406-0.553-0.727-0.737c-0.321-0.184-0.755-0.277-1.301-0.277c-0.56,0-1.023,0.116-1.393,0.348
		c-0.368,0.232-0.659,0.533-0.87,0.901c-0.212,0.369-0.362,0.789-0.451,1.259c-0.089,0.471-0.133,0.946-0.133,1.423v5.161h-1.802
		v-7.68c0-0.218-0.004-0.454-0.011-0.707c-0.007-0.252-0.014-0.498-0.021-0.737c-0.007-0.239-0.014-0.464-0.021-0.676
		c-0.007-0.211-0.01-0.392-0.01-0.542h1.781l0.062,1.659c0.423-0.601,0.904-1.047,1.444-1.341c0.539-0.293,1.184-0.44,1.935-0.44
		c1.353,0,2.305,0.355,2.857,1.065c0.553,0.71,0.829,1.7,0.829,2.97v6.431H128.101z"/>
	<path d="M139.243,36.307c-0.041-0.218-0.079-0.461-0.113-0.727c-0.034-0.266-0.058-0.508-0.071-0.727
		c-0.438,0.628-0.942,1.065-1.516,1.311c-0.573,0.246-1.236,0.369-1.986,0.369c-0.479,0-0.936-0.061-1.372-0.184
		c-0.438-0.123-0.823-0.311-1.157-0.564c-0.335-0.252-0.602-0.57-0.799-0.952c-0.198-0.382-0.297-0.84-0.297-1.372
		c0-0.778,0.19-1.396,0.573-1.854c0.382-0.457,0.863-0.805,1.443-1.044c0.58-0.239,1.219-0.392,1.915-0.461
		c0.696-0.068,1.358-0.102,1.986-0.102c0.191,0,0.372,0.003,0.543,0.01c0.171,0.007,0.331,0.017,0.481,0.03v-0.614
		c0-0.792-0.167-1.406-0.502-1.843c-0.334-0.437-0.925-0.655-1.771-0.655c-0.642,0-1.144,0.133-1.505,0.399
		c-0.362,0.266-0.577,0.741-0.646,1.423h-1.761c0.027-0.56,0.153-1.031,0.379-1.413c0.225-0.382,0.515-0.689,0.87-0.921
		c0.354-0.232,0.758-0.399,1.208-0.502c0.451-0.103,0.922-0.154,1.413-0.154c1.324,0,2.311,0.28,2.96,0.84
		c0.648,0.56,0.973,1.516,0.973,2.867v3.809c0,0.683,0.037,1.301,0.112,1.853c0.075,0.553,0.146,0.946,0.215,1.178H139.243z
		 M138.873,31.125c-0.219-0.027-0.389-0.041-0.512-0.041c-0.123,0-0.26,0-0.41,0c-0.395,0-0.839,0.02-1.331,0.061
		c-0.491,0.041-0.952,0.14-1.382,0.297c-0.431,0.157-0.789,0.386-1.075,0.686c-0.287,0.3-0.431,0.717-0.431,1.249
		c0,0.315,0.062,0.594,0.185,0.84c0.123,0.246,0.29,0.451,0.502,0.614c0.211,0.164,0.453,0.287,0.727,0.369
		c0.273,0.082,0.559,0.123,0.86,0.123c0.655,0,1.171-0.12,1.546-0.358c0.376-0.239,0.662-0.556,0.86-0.953
		c0.198-0.396,0.324-0.846,0.379-1.352C138.846,32.157,138.873,31.645,138.873,31.125z"/>
	<path d="M152.513,25.965c-0.041,0.601-0.065,1.198-0.071,1.792c-0.008,0.594-0.011,1.191-0.011,1.792v3.83
		c0,0.997-0.034,1.922-0.103,2.775c-0.068,0.854-0.259,1.598-0.573,2.232c-0.314,0.635-0.799,1.133-1.454,1.495
		c-0.655,0.362-1.57,0.543-2.744,0.543c-0.52,0-1.034-0.048-1.546-0.144c-0.513-0.096-0.97-0.26-1.373-0.492
		c-0.402-0.232-0.73-0.553-0.982-0.962c-0.253-0.41-0.379-0.929-0.379-1.557h1.761c0,0.369,0.072,0.676,0.216,0.922
		c0.143,0.246,0.33,0.443,0.563,0.594c0.232,0.15,0.499,0.256,0.799,0.317c0.301,0.062,0.607,0.092,0.922,0.092
		c0.546,0,1.004-0.072,1.372-0.215c0.369-0.144,0.669-0.352,0.901-0.625c0.231-0.273,0.409-0.601,0.532-0.983
		c0.123-0.382,0.205-0.813,0.246-1.29c0.027-0.273,0.041-0.553,0.041-0.84c0-0.287,0-0.573,0-0.86
		c-0.792,1.215-1.933,1.823-3.421,1.823c-0.778,0-1.45-0.136-2.017-0.41c-0.567-0.273-1.038-0.645-1.413-1.116
		c-0.376-0.471-0.655-1.024-0.84-1.659c-0.185-0.635-0.276-1.307-0.276-2.017c0-0.683,0.095-1.338,0.286-1.966
		c0.191-0.628,0.475-1.184,0.851-1.669c0.375-0.484,0.846-0.871,1.413-1.157c0.566-0.287,1.225-0.43,1.976-0.43
		c1.57,0,2.737,0.649,3.503,1.946v-1.761H152.513z M150.65,30.9c0-0.451-0.059-0.908-0.175-1.372
		c-0.116-0.464-0.297-0.881-0.542-1.25c-0.246-0.369-0.561-0.668-0.942-0.901c-0.383-0.232-0.833-0.348-1.352-0.348
		c-0.573,0-1.055,0.12-1.444,0.358c-0.389,0.239-0.703,0.55-0.941,0.932c-0.239,0.382-0.41,0.813-0.513,1.291
		c-0.103,0.478-0.153,0.962-0.153,1.454c0,0.478,0.055,0.952,0.164,1.423c0.109,0.471,0.283,0.891,0.522,1.259
		c0.238,0.369,0.549,0.669,0.932,0.901c0.382,0.232,0.853,0.348,1.413,0.348c0.573,0,1.055-0.12,1.443-0.358
		c0.39-0.239,0.7-0.553,0.933-0.942c0.231-0.389,0.398-0.829,0.501-1.321C150.598,31.883,150.65,31.392,150.65,30.9z"/>
	<path d="M156.322,31.474v0.205c0,0.478,0.064,0.935,0.194,1.372c0.13,0.437,0.324,0.826,0.584,1.167
		c0.26,0.341,0.584,0.611,0.973,0.809c0.39,0.198,0.843,0.297,1.362,0.297c0.737,0,1.338-0.208,1.802-0.625
		c0.465-0.416,0.751-0.993,0.86-1.73h1.721c-0.205,1.215-0.717,2.113-1.536,2.693c-0.819,0.581-1.816,0.87-2.99,0.87
		c-0.806,0-1.505-0.126-2.099-0.379c-0.595-0.252-1.09-0.611-1.485-1.075c-0.396-0.464-0.693-1.017-0.891-1.659
		c-0.198-0.642-0.297-1.345-0.297-2.109c0-0.778,0.099-1.502,0.297-2.171c0.197-0.669,0.498-1.253,0.901-1.751
		c0.402-0.499,0.911-0.891,1.525-1.178c0.614-0.287,1.345-0.43,2.191-0.43c0.86,0,1.577,0.157,2.15,0.471
		c0.573,0.314,1.03,0.73,1.372,1.249c0.341,0.519,0.58,1.124,0.717,1.813c0.137,0.69,0.205,1.41,0.205,2.161H156.322z
		 M162.097,30.286c0-0.423-0.051-0.833-0.153-1.229c-0.103-0.396-0.267-0.744-0.491-1.044c-0.226-0.3-0.513-0.542-0.86-0.727
		c-0.349-0.184-0.755-0.276-1.219-0.276c-0.479,0-0.895,0.089-1.249,0.266c-0.355,0.178-0.655,0.42-0.901,0.727
		c-0.246,0.307-0.44,0.659-0.584,1.055c-0.144,0.396-0.235,0.806-0.276,1.229H162.097z"/>
	<path d="M179.69,36.307v-6.103c0-0.423-0.034-0.816-0.102-1.178c-0.068-0.361-0.191-0.676-0.369-0.942
		c-0.178-0.266-0.42-0.478-0.727-0.635c-0.308-0.157-0.7-0.236-1.178-0.236c-0.519,0-0.949,0.089-1.29,0.267
		c-0.342,0.177-0.614,0.417-0.819,0.717c-0.205,0.3-0.352,0.655-0.44,1.065c-0.089,0.409-0.133,0.847-0.133,1.311v5.734h-1.803v-6
		c0-0.423-0.03-0.823-0.092-1.198c-0.062-0.375-0.178-0.703-0.349-0.983c-0.171-0.28-0.409-0.502-0.717-0.666
		c-0.307-0.164-0.706-0.246-1.198-0.246c-0.478,0-0.888,0.096-1.229,0.287c-0.342,0.191-0.621,0.44-0.84,0.748
		c-0.219,0.308-0.379,0.666-0.481,1.075c-0.102,0.41-0.153,0.827-0.153,1.25v5.734h-1.802v-6.799c0-1.174-0.021-2.355-0.062-3.543
		h1.781l0.062,1.72c0.737-1.229,1.83-1.843,3.277-1.843c0.818,0,1.495,0.164,2.027,0.492c0.532,0.328,0.955,0.874,1.27,1.638
		c0.724-1.42,1.918-2.13,3.584-2.13c0.724,0,1.317,0.113,1.782,0.338c0.464,0.226,0.829,0.533,1.096,0.922
		c0.266,0.389,0.45,0.853,0.553,1.393c0.103,0.54,0.153,1.123,0.153,1.751v6.062H179.69z"/>
	<path d="M185.321,31.474v0.205c0,0.478,0.064,0.935,0.194,1.372c0.13,0.437,0.324,0.826,0.584,1.167
		c0.26,0.341,0.584,0.611,0.973,0.809c0.39,0.198,0.843,0.297,1.362,0.297c0.737,0,1.338-0.208,1.802-0.625
		c0.465-0.416,0.751-0.993,0.86-1.73h1.721c-0.205,1.215-0.717,2.113-1.536,2.693c-0.819,0.581-1.816,0.87-2.99,0.87
		c-0.806,0-1.505-0.126-2.099-0.379c-0.595-0.252-1.09-0.611-1.485-1.075c-0.396-0.464-0.693-1.017-0.891-1.659
		c-0.198-0.642-0.297-1.345-0.297-2.109c0-0.778,0.099-1.502,0.297-2.171c0.197-0.669,0.498-1.253,0.901-1.751
		c0.402-0.499,0.911-0.891,1.525-1.178c0.614-0.287,1.345-0.43,2.191-0.43c0.86,0,1.577,0.157,2.15,0.471
		c0.573,0.314,1.03,0.73,1.372,1.249c0.341,0.519,0.58,1.124,0.717,1.813c0.137,0.69,0.205,1.41,0.205,2.161H185.321z
		 M191.096,30.286c0-0.423-0.051-0.833-0.153-1.229c-0.102-0.396-0.267-0.744-0.491-1.044c-0.226-0.3-0.513-0.542-0.86-0.727
		c-0.349-0.184-0.755-0.276-1.219-0.276c-0.479,0-0.895,0.089-1.249,0.266c-0.355,0.178-0.655,0.42-0.901,0.727
		c-0.246,0.307-0.44,0.659-0.584,1.055c-0.144,0.396-0.235,0.806-0.276,1.229H191.096z"/>
	<path d="M202.012,36.307v-5.734c0-0.451-0.02-0.877-0.062-1.28c-0.041-0.403-0.143-0.758-0.308-1.065
		c-0.163-0.307-0.406-0.553-0.727-0.737c-0.321-0.184-0.755-0.277-1.301-0.277c-0.56,0-1.023,0.116-1.393,0.348
		c-0.368,0.232-0.659,0.533-0.87,0.901c-0.212,0.369-0.362,0.789-0.451,1.259c-0.089,0.471-0.133,0.946-0.133,1.423v5.161h-1.802
		v-7.68c0-0.218-0.004-0.454-0.011-0.707c-0.007-0.252-0.014-0.498-0.021-0.737c-0.007-0.239-0.014-0.464-0.02-0.676
		c-0.007-0.211-0.01-0.392-0.01-0.542h1.781l0.061,1.659c0.423-0.601,0.904-1.047,1.444-1.341c0.539-0.293,1.184-0.44,1.935-0.44
		c1.352,0,2.305,0.355,2.857,1.065c0.553,0.71,0.829,1.7,0.829,2.97v6.431H202.012z"/>
	<path d="M209.774,36.41c-0.833,0-1.461-0.185-1.884-0.553c-0.424-0.369-0.635-0.983-0.635-1.843v-6.799h-2.027v-1.249h2.027v-2.007
		l1.802-0.758v2.765h2.314v1.249h-2.314v6.082c0,0.314,0.014,0.581,0.041,0.799c0.027,0.219,0.093,0.396,0.194,0.533
		c0.103,0.137,0.246,0.235,0.431,0.297c0.185,0.062,0.434,0.092,0.747,0.092c0.164,0,0.321-0.01,0.472-0.031
		c0.149-0.021,0.313-0.044,0.491-0.072v1.372C210.86,36.369,210.307,36.41,209.774,36.41z"/>
</g>
</svg>
